<svg xmlns="http://www.w3.org/2000/svg" viewBox="0 0 96 96" class="primary icon">
  <g fill="#F00">
    <path d="M52.09 45.12h3.67c.552 0 1-.448 1-1s-.448-1-1-1h-3.67c-.552 0-1 .448-1 1s.448 1 1 1zm-12.15 0h3.57c.552 0 1-.448 1-1s-.448-1-1-1h-3.57c-.552 0-1 .448-1 1s.448 1 1 1zm3.42 10.35l4.28-2.35 4.49 2.27c.406.205.855.31 1.31.31 1.422-.142 2.712-.898 3.53-2.07.214-.286.26-.664.12-.993-.14-.328-.446-.557-.8-.6-.355-.043-.706.107-.92.393 0 0-1.31 1.69-2.34 1.22l-5-2.5c-.29-.153-.64-.153-.93 0l-4.65 2.51c-.2 0-1.22.13-3.07-1.23-.445-.33-1.07-.235-1.4.21-.33.445-.235 1.07.21 1.4 3.04 2.2 4.79 1.61 5.17 1.43z"/>
    <path d="M61.45 61.37l-2.49-3.91c1.38-2.138 2.586-4.38 3.61-6.71.87-.12 1.67-.55 2.25-1.21 1.6-1.83 1.33-5 1.26-5.55 0-3-.63-5.08-1.84-6.07-.24-.2-.51-.36-.8-.47l.08-5c3.2-2.46 3.966-6.97 1.76-10.35-2.204-3.38-6.638-4.495-10.18-2.56-1.898-2.18-4.623-3.466-7.513-3.546-2.89-.08-5.68 1.054-7.697 3.126-3.35-1.34-7.18-.186-9.23 2.782-2.052 2.967-1.777 6.96.66 9.618-.003.04-.003.08 0 .12l-.09 5.9c-.43.16-.817.415-1.13.75-1.73 1.82-1.57 5.85-1.55 6.3.09 2.39.74 4.09 1.93 5.06.5.41 1.1.675 1.74.77.986 2.65 2.26 5.18 3.8 7.55l-2.2 3.46c-2.91.63-19.1 4.74-18.27 17.79.032.53.47.94 1 .94h62c.495.006.92-.35 1-.84-.02-.1 1.9-13.45-18.1-17.95zm-1.85.81c-1.15 1.36-4.67 4.94-9.27 5.5v-3.56c2.084-.55 4.01-1.577 5.63-3 .638-.574 1.223-1.203 1.75-1.88l1.89 2.94zm-22.25-2.57c1.58 1.335 3.29 2.51 5.1 3.51 1.804.866 3.79 1.288 5.79 1.23h.09v3.52c-4.848.112-9.49-1.95-12.66-5.62l1.68-2.64zm-.31-39c1 0 1.982.263 2.85.76.478.27 1.085.106 1.36-.37.085-.156.126-.332.12-.51 2.34-2.39 5.886-3.144 8.998-1.915 3.11 1.228 5.184 4.2 5.262 7.545 0 .552.448 1 1 1s1-.448 1-1c-.046-1.7-.51-3.362-1.35-4.84 2.637-1.273 5.81-.36 7.368 2.117 1.558 2.48 1.005 5.733-1.285 7.558-2.29 1.825-5.585 1.637-7.653-.435-.397-.34-.988-.317-1.358.052-.37.37-.392.96-.052 1.358 2.15 2.16 5.373 2.85 8.22 1.76l-.07 1.43c-13.48 4.89-26.31.69-28.25 0v-2c2.686 1.506 6.01 1.274 8.46-.59.302-.21.465-.568.424-.934-.04-.365-.28-.68-.62-.816-.342-.137-.73-.075-1.014.16-.976.75-2.17 1.165-3.4 1.18-2.054 0-3.953-1.096-4.98-2.875-1.027-1.78-1.027-3.97 0-5.75 1.027-1.78 2.926-2.875 4.98-2.875l-.01-.01zm-4.27 27.88c-.366.003-.72-.124-1-.36-.5-.41-1.11-1.36-1.2-3.6 0-.93 0-3.81 1-4.83.167-.195.413-.305.67-.3.552 0 1-.448 1-1v-1.19c4.674 1.51 9.557 2.277 14.47 2.27 4.67.015 9.313-.738 13.74-2.23v1c-.014.3.107.59.33.79.22.196.52.278.81.22.18.01.348.088.47.22.32.3 1.05 1.33 1.05 4.54-.002.043-.002.087 0 .13.09.71.15 3-.77 4-.363.402-.89.616-1.43.58-.404.002-.767.247-.92.62 0 .07-3 7.28-6.36 10.19-.76.7-3.21 2.56-5.47 2.72 0 0-3.56.28-5.72-.94-1.14-.62-4.33-2.56-5.41-3.95-1.716-2.563-3.104-5.33-4.13-8.24-.168-.462-.647-.734-1.13-.64zM25.6 66.61c2.664-1.43 5.51-2.49 8.46-3.15 3.41 4.032 8.41 6.38 13.69 6.43h.58v8.31H17.5c.04-4.75 2.76-8.65 8.1-11.59zm24.73 11.58v-8.5c5.59-.57 9.63-4.82 10.89-6.32 15.23 3.51 16.39 12.08 16.36 14.82H50.33z"/>
  </g>
</svg>
