<svg xmlns="http://www.w3.org/2000/svg" viewBox="0 0 96 96" class="primary icon">
  <path fill="#F00" fill-rule="nonzero" d="M79.84 29v36c0 2.132-1.728 3.86-3.86 3.86H47.66c-.666-.06-1.177-.617-1.177-1.285 0-.668.51-1.226 1.177-1.285h28.32c.342 0 .67-.136.912-.378s.378-.57.378-.912V29c0-.712-.578-1.29-1.29-1.29H47.66c-.666-.06-1.177-.617-1.177-1.285 0-.668.51-1.226 1.177-1.285h28.32c1.024 0 2.006.407 2.73 1.13.723.724 1.13 1.706 1.13 2.73zM55.92 43.42c0 1.916-1.554 3.47-3.47 3.47-1.916 0-3.47-1.554-3.47-3.47 0-1.916 1.554-3.47 3.47-3.47 1.916 0 3.47 1.554 3.47 3.47zm-2.57 0c0-.497-.403-.9-.9-.9s-.9.403-.9.9.403.9.9.9.9-.403.9-.9zm12 0c0 1.914-1.55 3.466-3.463 3.47-1.914.004-3.47-1.543-3.477-3.457-.007-1.914 1.536-3.472 3.45-3.483.924-.005 1.812.358 2.467 1.01.655.65 1.023 1.536 1.023 2.46zm-2.57 0c0-.497-.403-.9-.9-.9s-.9.403-.9.9.403.9.9.9.9-.403.9-.9zm12 0c0 1.916-1.554 3.47-3.47 3.47-1.916 0-3.47-1.554-3.47-3.47 0-1.916 1.554-3.47 3.47-3.47 1.87.065 3.35 1.6 3.35 3.47h.12zm-2.57 0c0-.497-.403-.9-.9-.9s-.9.403-.9.9.403.9.9.9.9-.403.9-.9zm-16.29 8.11c0 1.916-1.554 3.47-3.47 3.47-1.916 0-3.47-1.554-3.47-3.47 0-1.916 1.554-3.47 3.47-3.47 1.916 0 3.47 1.554 3.47 3.47zm-2.57 0c0-.497-.403-.9-.9-.9s-.9.403-.9.9.403.9.9.9.9-.403.9-.9zm12 0c0 1.914-1.55 3.466-3.463 3.47-1.914.004-3.47-1.543-3.477-3.457-.007-1.914 1.536-3.472 3.45-3.483.924-.005 1.812.358 2.467 1.01.655.65 1.023 1.536 1.023 2.46zm-2.57 0c0-.497-.403-.9-.9-.9s-.9.403-.9.9.403.9.9.9.9-.403.9-.9zm12 0c0 1.916-1.554 3.47-3.47 3.47-1.916 0-3.47-1.554-3.47-3.47 0-1.916 1.554-3.47 3.47-3.47 1.87.065 3.35 1.6 3.35 3.47h.12zm-2.57 0c0-.497-.403-.9-.9-.9s-.9.403-.9.9.403.9.9.9.9-.403.9-.9zm-16.29 8.1c0 1.916-1.554 3.47-3.47 3.47-1.916 0-3.47-1.554-3.47-3.47 0-1.916 1.554-3.47 3.47-3.47 1.916 0 3.47 1.554 3.47 3.47zm-2.57 0c0-.497-.403-.9-.9-.9s-.9.403-.9.9.403.9.9.9.9-.403.9-.9zm12 0c0 1.916-1.554 3.47-3.47 3.47-1.916 0-3.47-1.554-3.47-3.47 0-1.916 1.554-3.47 3.47-3.47.92 0 1.803.366 2.454 1.016.65.65 1.016 1.534 1.016 2.454zm-2.57 0c0-.497-.403-.9-.9-.9s-.9.403-.9.9.403.9.9.9.9-.403.9-.9zm12 0c0 1.916-1.554 3.47-3.47 3.47-1.916 0-3.47-1.554-3.47-3.47 0-1.916 1.554-3.47 3.47-3.47 1.87.065 3.35 1.6 3.35 3.47h.12zm-2.57 0c0-.497-.403-.9-.9-.9s-.9.403-.9.9.403.9.9.9.9-.403.9-.9zm0-21.62H51.53c-2.132 0-3.86-1.728-3.86-3.86 0-2.132 1.728-3.86 3.86-3.86h20.59c2.132 0 3.86 1.728 3.86 3.86 0 2.132-1.728 3.86-3.86 3.86h.09zm1.29-3.86c0-.712-.578-1.29-1.29-1.29H51.53c-.486-.043-.955.192-1.21.607-.258.416-.258.94 0 1.356.255.415.724.65 1.21.607h20.59c.705 0 1.28-.565 1.29-1.27l.09-.01zm-28.4-7.72V68.9c0 1.707-.68 3.344-1.887 4.55-1.208 1.206-2.846 1.883-4.553 1.88H28.37c-3.55 0-6.43-2.88-6.43-6.43V26.43c0-3.55 2.88-6.43 6.43-6.43h10.29c1.707-.003 3.345.674 4.553 1.88 1.208 1.206 1.887 2.843 1.887 4.55zm-2.57 0c0-1.025-.408-2.01-1.134-2.733-.726-.724-1.71-1.13-2.736-1.127H28.37c-2.132 0-3.86 1.728-3.86 3.86V68.9c0 2.132 1.728 3.86 3.86 3.86h10.29c2.132 0 3.86-1.728 3.86-3.86l.01-42.47zm-23.17 1.29c.486.043.955-.192 1.21-.607.258-.416.258-.94 0-1.356-.255-.415-.724-.65-1.21-.607-2.128 0-3.854 1.722-3.86 3.85v36c-.01 1.03.39 2.023 1.116 2.755.725.733 1.713 1.145 2.744 1.145.486.043.955-.192 1.21-.607.258-.416.258-.94 0-1.356-.255-.415-.724-.65-1.21-.607-.35 0-.684-.14-.927-.392-.243-.25-.374-.59-.363-.938V29c.005-.71.58-1.28 1.29-1.28z"/>
</svg>
