<svg xmlns="http://www.w3.org/2000/svg" viewBox="0 0 96 96" class="primary icon">
  <g fill="none" fill-rule="evenodd">
    <path stroke="#F00" stroke-width="2" d="M53.125 27.382c.44 0 .8.355.8.796v56.32c0 .44-.357.797-.8.797h-10.3c-.443 0-.8-.354-.8-.796V28.176c0-.44.355-.796.8-.796h10.3z"/>
    <path fill="#F00" fill-rule="nonzero" d="M45.198 13.895h-3.174c-.432 0-.775.353-.752.79l.71 13.49c.023.432.4.79.842.79h10.3c.444 0 .82-.353.842-.79l.71-13.49c.023-.432-.314-.79-.752-.79H50.79v-2.383c0-.44-.352-.79-.788-.79h-4.015c-.44 0-.79.353-.79.79v2.383zm6.048 24.593v43.164L45.99 38.488h5.256z"/>
  </g>
</svg>
