<svg xmlns="http://www.w3.org/2000/svg" viewBox="0 0 96 96" class="primary icon">
  <g fill="#F00">
    <path d="M51.4 39.08l-17.02 2.67L34 64.42l17.28 3.33.12-28.67zM45.79 59.3h-2.16l-1.34-6.29-1.39 6-2.07-.26-2-9.31H39l1 5.57 1.54-5.57h1.82l1.39 5.81 1.1-6.14h2.4L45.79 59.3zm8.07-18.07h5.43v24.31h-5.43z"/>
    <path d="M78 16.5H18c-4.418 0-8 3.582-8 8V71c0 4.418 3.582 8 8 8h60c4.418 0 8-3.582 8-8V24.5c0-4.418-3.582-8-8-8zm-39.7 4.65c1.486 0 2.69 1.204 2.69 2.69s-1.204 2.69-2.69 2.69-2.69-1.204-2.69-2.69 1.204-2.69 2.69-2.69zm-10.3 0c1.486 0 2.69 1.204 2.69 2.69s-1.204 2.69-2.69 2.69-2.69-1.204-2.69-2.69c0-.713.283-1.398.788-1.902.504-.505 1.19-.788 1.902-.788zm-10.3 0c1.484.006 2.684 1.212 2.68 2.697-.004 1.484-1.21 2.685-2.693 2.683C16.202 26.528 15 25.324 15 23.84c0-1.486 1.204-2.69 2.69-2.69h.01zM83 71c0 2.76-2.24 5-5 5H18c-2.76 0-5-2.24-5-5V31.1h70V71z"/>
  </g>
</svg>
