<svg xmlns="http://www.w3.org/2000/svg" viewBox="0 0 96 96" class="primary icon">
  <defs>
    <path id="a" d="M55.582 0v36.984H0V0z"/>
  </defs>
  <g fill="none" fill-rule="evenodd" transform="translate(20 30)">
    <mask id="b" fill="#fff">
      <use xlink:href="#a"/>
    </mask>
    <path fill="#F00" d="M52.582 15.93H10.396l11.35-10.753C22.95 4.037 23 2.14 21.86.937 20.724-.267 18.825-.32 17.62.82L.936 16.628c-.61.577-.95 1.385-.936 2.224.013.84.378 1.636 1.005 2.195l17.06 15.178c.573.51 1.285.76 1.994.76.822 0 1.644-.34 2.24-1.007 1.1-1.238.99-3.133-.25-4.235L11.026 21.93h41.556c1.657 0 3-1.342 3-3 0-1.656-1.343-3-3-3" mask="url(#b)"/>
  </g>
</svg>
