<svg height="100" viewBox="0 0 300 100" width="300" xmlns="http://www.w3.org/2000/svg" xmlns:xlink="http://www.w3.org/1999/xlink"><linearGradient id="a" x1="14.645%" x2="85.355%" y1="85.355%" y2="14.645%"><stop offset="0" stop-color="#90023a"/><stop offset="1" stop-color="#b4104b"/></linearGradient><linearGradient id="b" x1="9.039%" x2="90.961%" y1="78.681%" y2="21.319%"><stop offset="0" stop-color="#a20943"/><stop offset="1" stop-color="#c51653"/></linearGradient><linearGradient id="c" x1="83.742%" x2="17.104%" y1="108.444%" y2="-6.98%"><stop offset="0" stop-color="#00873e"/><stop offset="1" stop-color="#006129"/></linearGradient><linearGradient id="d" x1="50%" x2="50%" y1="100%" y2="0%"><stop offset="0" stop-color="#b4104b"/><stop offset="1" stop-color="#d91c5c"/></linearGradient><g fill="none" fill-rule="evenodd"><path d="m0 0h300v100h-300z" fill="#fff"/><g transform="translate(60 30)"><path d="m15 12.5c0 4.142 3.358 7.5 7.5 7.5 4.142 0 7.5-3.358 7.5-7.5 0-4.142-3.358-7.5-7.5-7.5-4.142 0-7.5 3.358-7.5 7.5" fill="url(#a)"/><path d="m20 25c0 5.523 4.477 10 10 10 5.523 0 10-4.477 10-10 0-5.523-4.477-10-10-10-5.523 0-10 4.477-10 10" fill="url(#b)"/><path d="m2.495 0c-.777.006-1.553.062-2.324.171-.733 5.225.892 10.721 4.914 14.743 4.023 4.023 9.519 5.649 14.744 4.915.733-5.225-.892-10.722-4.914-14.744-3.368-3.367-7.768-5.054-12.178-5.085z" fill="url(#c)"/><path d="m0 27.5c0 6.903 5.597 12.5 12.5 12.5 6.903 0 12.5-5.597 12.5-12.5 0-6.903-5.597-12.5-12.5-12.5-6.903 0-12.5 5.597-12.5 12.5" fill="url(#d)"/><text fill="#333" font-family="AgletSlab-Semibold, Aglet Slab" font-size="42" font-weight="500" letter-spacing="-1.768"><tspan x="44.1" y="34.5">C</tspan> <tspan font-size="38" letter-spacing="-1.6" x="68.918" y="34.5">a</tspan> <tspan font-size="38" letter-spacing="-1.2" x="88.522" y="34.5">scara</tspan></text></g></g></svg>