<svg height="40" viewBox="0 0 180 40" width="180" xmlns="http://www.w3.org/2000/svg" xmlns:xlink="http://www.w3.org/1999/xlink"><linearGradient id="a" x1="14.645%" x2="85.355%" y1="85.355%" y2="14.645%"><stop offset="0" stop-color="#90023a"/><stop offset="1" stop-color="#b4104b"/></linearGradient><linearGradient id="b" x1="9.039%" x2="90.961%" y1="78.681%" y2="21.319%"><stop offset="0" stop-color="#a20943"/><stop offset="1" stop-color="#c51653"/></linearGradient><linearGradient id="c" x1="83.742%" x2="17.104%" y1="108.444%" y2="-6.98%"><stop offset="0" stop-color="#00873e"/><stop offset="1" stop-color="#006129"/></linearGradient><linearGradient id="d" x1="50%" x2="50%" y1="100%" y2="0%"><stop offset="0" stop-color="#b4104b"/><stop offset="1" stop-color="#d91c5c"/></linearGradient><g fill="none" fill-rule="evenodd"><path d="m15 12.5c0 4.142 3.358 7.5 7.5 7.5 4.142 0 7.5-3.358 7.5-7.5 0-4.142-3.358-7.5-7.5-7.5-4.142 0-7.5 3.358-7.5 7.5" fill="url(#a)"/><path d="m20 25c0 5.523 4.477 10 10 10 5.523 0 10-4.477 10-10 0-5.523-4.477-10-10-10-5.523 0-10 4.477-10 10" fill="url(#b)"/><path d="m2.495 0c-.777.006-1.553.062-2.324.171-.733 5.225.892 10.721 4.914 14.743 4.023 4.023 9.519 5.649 14.744 4.915.733-5.225-.892-10.722-4.914-14.744-3.368-3.367-7.768-5.054-12.178-5.085z" fill="url(#c)"/><path d="m0 27.5c0 6.903 5.597 12.5 12.5 12.5 6.903 0 12.5-5.597 12.5-12.5 0-6.903-5.597-12.5-12.5-12.5-6.903 0-12.5 5.597-12.5 12.5" fill="url(#d)"/><path d="m57.834 34.962c6.93 0 10.542-3.108 10.542-9.45v-1.134c0-.714-.378-1.134-1.05-1.134h-2.898c-.672 0-1.05.42-1.05 1.092v1.176c0 3.864-1.344 5.544-5.544 5.544-3.864 0-5.712-2.016-5.712-6.006v-10.5c0-3.99 1.848-6.006 5.712-6.006 4.2 0 5.544 1.68 5.544 5.544v.882c0 .672.378 1.092 1.05 1.092h2.898c.672 0 1.05-.42 1.05-1.134v-.84c0-6.342-3.612-9.45-10.542-9.45-6.972 0-11.088 3.696-11.088 10.374v9.576c0 6.678 4.116 10.374 11.088 10.374zm20.9255789-19.994c5.244 0 7.942 2.47 7.942 6.156v7.866l2.166 2.166c.722.722.798 1.634.076 2.356l-.684.684c-.722.722-1.634.646-2.356-.076l-2.28-2.28c-1.102 1.824-3.192 3.078-5.928 3.078-4.788 0-7.258-2.28-7.258-5.7v-.304c0-3.648 2.128-5.7 7.676-5.7 1.406 0 2.812.19 4.066.456v-2.85c0-1.71-1.102-2.508-3.42-2.508-2.394 0-3.306.798-3.306 2.128v.19c0 .494-.228.798-.798.798h-2.622c-.532 0-.836-.304-.836-.836v-.19c0-3.382 2.622-5.434 7.562-5.434zm-.19 11.058c-2.698 0-3.686 1.026-3.686 2.66v.304c0 1.672 1.064 2.66 3.572 2.66 2.128 0 3.724-1.292 3.724-3.192v-1.938c-1.216-.342-2.394-.494-3.61-.494zm19.49 8.892c5.5860001 0 7.9420001-2.356 7.9420001-6.08v-.418c0-3.078-1.33-4.75-5.016-5.206l-4.9020001-.608c-1.102-.152-1.786-.456-1.786-1.71v-.418c0-1.368.836-2.204 3.686-2.204 2.5840001 0 3.4960001.684 3.4960001 2.052v.19c0 .38.228.646.684.646h2.736c.418 0 .722-.304.722-.76v-.152c0-3.154-2.204-5.282-7.6380001-5.282-5.624 0-7.866 2.356-7.866 6.08v.304c0 3.078 1.368 4.75 5.092 5.206l4.9020001.608c1.064.114 1.71.456 1.71 1.71v.494c0 1.406-1.102 2.242-3.7620001 2.242-2.85 0-3.8-.684-3.8-2.09v-.228c0-.418-.228-.646-.646-.646h-2.736c-.456 0-.76.266-.76.722v.228c0 3.192 2.28 5.32 7.942 5.32zm18.5980001 0c5.168 0 8.132-2.204 8.132-6.46v-.57c0-.532-.342-.912-.912-.912h-2.622c-.494 0-.836.342-.836.874v.646c0 2.09-1.178 3.04-3.724 3.04-2.584 0-3.876-1.292-3.876-3.952v-5.282c0-2.66 1.292-3.952 3.876-3.952 2.546 0 3.724.95 3.724 3.04v.532c0 .532.342.874.836.874h2.622c.57 0 .912-.38.912-.912v-.456c0-4.256-2.964-6.46-8.132-6.46-5.396 0-8.474 2.926-8.474 7.79v4.37c0 4.864 3.078 7.79 8.474 7.79zm18.636-19.95c5.244 0 7.942 2.47 7.942 6.156v7.866l2.166 2.166c.722.722.798 1.634.076 2.356l-.684.684c-.722.722-1.634.646-2.356-.076l-2.28-2.28c-1.102 1.824-3.192 3.078-5.928 3.078-4.788 0-7.258-2.28-7.258-5.7v-.304c0-3.648 2.128-5.7 7.676-5.7 1.406 0 2.812.19 4.066.456v-2.85c0-1.71-1.102-2.508-3.42-2.508-2.394 0-3.306.798-3.306 2.128v.19c0 .494-.228.798-.798.798h-2.622c-.532 0-.836-.304-.836-.836v-.19c0-3.382 2.622-5.434 7.562-5.434zm-.19 11.058c-2.698 0-3.686 1.026-3.686 2.66v.304c0 1.672 1.064 2.66 3.572 2.66 2.128 0 3.724-1.292 3.724-3.192v-1.938c-1.216-.342-2.394-.494-3.61-.494zm21.562 8.474c.57 0 1.026-.38 1.026-.95v-1.444c0-.57-.456-.95-1.026-.95h-2.204v-7.676c0-2.698 1.634-4.332 4.028-4.332h.608c1.292 0 2.128-.684 2.128-1.862v-.304c0-1.292-.798-2.014-2.432-2.014h-.38c-2.356 0-4.142 1.292-5.13 3.572l-2.774-2.774c-.722-.722-1.634-.798-2.356-.076l-.684.684c-.722.722-.646 1.634.076 2.356l2.356 2.356v10.07h-1.976c-.57 0-.988.38-.988.95v1.444c0 .57.418.95.988.95zm12.822-19.532c5.244 0 7.942 2.47 7.942 6.156v7.866l2.166 2.166c.722.722.798 1.634.076 2.356l-.684.684c-.722.722-1.634.646-2.356-.076l-2.28-2.28c-1.102 1.824-3.192 3.078-5.928 3.078-4.788 0-7.258-2.28-7.258-5.7v-.304c0-3.648 2.128-5.7 7.676-5.7 1.406 0 2.812.19 4.066.456v-2.85c0-1.71-1.102-2.508-3.42-2.508-2.394 0-3.306.798-3.306 2.128v.19c0 .494-.228.798-.798.798h-2.622c-.532 0-.836-.304-.836-.836v-.19c0-3.382 2.622-5.434 7.562-5.434zm-.19 11.058c-2.698 0-3.686 1.026-3.686 2.66v.304c0 1.672 1.064 2.66 3.572 2.66 2.128 0 3.724-1.292 3.724-3.192v-1.938c-1.216-.342-2.394-.494-3.61-.494z" fill="#333"/></g></svg>