<svg height="200" viewBox="0 0 300 200" width="300" xmlns="http://www.w3.org/2000/svg"><g fill="none" fill-rule="evenodd"><path d="m300 0v200h-299.99974729v-200zm-256 24h-42v174h42zm82 0h-80v174h80zm172 0h-170v174h170zm0-22h-296v20h296z" fill="rgba(127,127,127,0.25)"/><path d="m239 27c1.104569 0 2 .8954305 2 2v164c0 1.104569-.895431 2-2 2h-106c-1.104569 0-2-.895431-2-2v-164c0-1.1045695.895431-2 2-2zm0 154h-106v12h106zm0-140h-106v138h106zm0-12h-106v10h106z" fill="var(--brand-primary-color,#b4104b)"/></g></svg>