<svg xmlns="http://www.w3.org/2000/svg" viewBox="0 0 96 96">
  <g fill="#000">
    <path d="M45.082 26.274c1.477-13.366 30.912-6.69 24.783-24.03-.946-2.658-5.17-1.476-4.24 1.168 2.69 7.606-7.53 8.522-12.73 10.338-6.248 2.083-11.432 5.598-12.2 12.584-.31 2.747 4.077 2.717 4.387-.06z"/>
    <path d="M65.98 16.985c-5.745 1.358-10.973 3.825-12.775 9.865-.798 2.733 3.426 3.87 4.24 1.167 1.978-6.675 10.72-6.794 16.245-8.418 6.01-1.75 9.437-5.91 8.61-12.31-.37-2.78-4.74-2.81-4.43 0 1.107 7.66-5.997 8.21-11.89 9.69zm4.313 59.712c15.61-.635 22.553-7.74 22.553-16.453 0-7.577-5.244-13.942-16.852-15.892v-8.08L2 32.33c0 16.586 0 44.603 14.887 56.123C7.863 89.147 2 90.255 2 91.48c0 2.098 16.57 3.796 37.026 3.796 20.456 0 37.027-1.698 37.027-3.795 0-1.22-5.908-2.33-14.887-3.02a31.206 31.206 0 009.127-11.75zm5.435-25.108c6.513 1.47 7.68 4.71 7.606 8.86-.088 4.69-1.477 7.88-10.338 8.98a85.411 85.411 0 002.717-17.87l.015.03zm-30.81 27.33a12.779 12.779 0 01-4.917 1.02c-2.51 0-4.96-.81-6.97-2.32-.7-.59-.8-1.63-.22-2.34.59-.71 1.63-.81 2.34-.22a8.546 8.546 0 008.51.78 1.661 1.661 0 011.27 3.07zm10.34-10.95a13.419 13.419 0 01-12.17-17.45 4.296 4.296 0 00-5.908-.193 13.422 13.422 0 01-2.67 11.55 13.42 13.42 0 01-10.784 4.917 14.295 14.295 0 01-13.293-12.436 14.518 14.518 0 00-3.25-.474l.104-2.952a8.96 8.96 0 003.53-.636c1.7-5.64 7.754-9.467 13.883-9.23 5.686.22 9.35 2.717 11.24 6.07.554.32 1.228.36 1.816.103a6.413 6.413 0 012.526-.576c.96.075 1.893.34 2.747.784a1.68 1.68 0 001.56 0c2.14-3.19 5.91-5.405 11.65-5.21 6.13.22 11.89 4.43 13.17 10.234 1.08.525 2.26.826 3.47.885l-.11 2.96c-1.09-.04-2.18.045-3.25.25a14.296 14.296 0 01-14.28 11.404z"/>
    <path d="M24.612 42.772a11.167 11.167 0 00-8.624 18.75 11.183 11.183 0 0012.08 2.873 11.167 11.167 0 007.28-10.058c.225-6.144-4.57-11.313-10.723-11.564h-.013zm1.27 12.406a2.703 2.703 0 112.85-2.527c-.04.71-.366 1.38-.9 1.85-.535.48-1.237.71-1.95.67v.02zm30.262-11.225a11.167 11.167 0 00-8.624 18.75 11.184 11.184 0 0012.08 2.874 11.17 11.17 0 007.28-10.058c.226-6.15-4.57-11.32-10.723-11.57h-.013zm-4.135 12.82a2.684 2.684 0 01-2.4-1.812c-.36-1.03-.06-2.18.76-2.91.82-.72 1.99-.88 2.98-.4a2.7 2.7 0 011.51 2.6 2.707 2.707 0 01-2.84 2.53H52v.01z"/>
  </g>
</svg>