<svg viewBox="0 0 140 140" height="140" width="140" xmlns="http://www.w3.org/2000/svg">,,,,<g transform="matrix(5.833333333333333,0,0,5.833333333333333,0,0)"><path d="M3.75,18v3.75a1.5,1.5,0,0,0,1.5,1.5h4.5v-6a1.5,1.5,0,0,1,1.5-1.5h1.5a1.5,1.5,0,0,1,1.5,1.5v6h4.5a1.5,1.5,0,0,0,1.5-1.5V18" fill="none" stroke="#000" stroke-linecap="round" stroke-linejoin="round" stroke-width="1.5"></path><path d="M.75,16.5,10.939,6.311a1.5,1.5,0,0,1,2.122,0L23.25,16.5" fill="none" stroke="#000" stroke-linecap="round" stroke-linejoin="round" stroke-width="1.5"></path><path d="M16.5 9.75L16.5 8.25 20.25 8.25 20.25 13.5" fill="none" stroke="#000" stroke-linecap="round" stroke-linejoin="round" stroke-width="1.5"></path><path d="M17.122.75l-.407.543a1.045,1.045,0,0,0,.16,1.436h0a1.045,1.045,0,0,1,.16,1.436l-.407.543" fill="none" stroke="#000" stroke-linecap="round" stroke-linejoin="round" stroke-width="1.5"></path><path d="M20.872.75l-.407.543a1.045,1.045,0,0,0,.16,1.436h0a1.045,1.045,0,0,1,.16,1.436l-.407.543" fill="none" stroke="#000" stroke-linecap="round" stroke-linejoin="round" stroke-width="1.5"></path></g></svg>