<svg xmlns="http://www.w3.org/2000/svg" width="140" height="140">
  <g fill="none" stroke="#000" stroke-linecap="round" stroke-linejoin="round" stroke-width="1.5">
    <path stroke-width="8.749995" d="M21.875 105v21.875a8.75 8.75 0 008.75 8.75h26.25v-35a8.75 8.75 0 018.75-8.75h8.75a8.75 8.75 0 018.75 8.75v35h26.25a8.75 8.75 0 008.75-8.75V105"/>
    <path stroke-width="8.749995" d="M4.375 96.25l59.436-59.436a8.75 8.75 0 0112.378 0l59.436 59.436"/>
    <path stroke-width="8.749995" d="M96.25 56.875v-8.75h21.875V78.75M99.878 4.375l-2.374 3.167a6.096 6.096 0 00.933 8.377h0a6.096 6.096 0 01.934 8.377l-2.374 3.167M121.753 4.375l-2.374 3.167a6.096 6.096 0 00.933 8.377h0a6.096 6.096 0 01.934 8.377l-2.374 3.167"/>
  </g>
</svg>