<svg xmlns="http://www.w3.org/2000/svg" viewBox="0 0 140 140">
  <path d="M87.89 23.252a2.917 2.917 0 00-2.064-.864 2.917 2.917 0 00-2.065.858L20.049 86.975a2.917 2.917 0 000 4.124l28.863 28.863a2.917 2.917 0 004.125 0l63.682-63.682a2.917 2.917 0 000-4.118zM14.175 98a2.917 2.917 0 00-2.852-.74 2.917 2.917 0 00-2.048 2.123L.49 135.998a2.917 2.917 0 00.776 2.742 2.958 2.958 0 002.742.77l36.586-8.75a2.917 2.917 0 001.383-4.9zM135.333 17.057L122.95 4.667a14.583 14.583 0 00-20.603 0l-8.272 8.265a2.917 2.917 0 000 4.125l28.875 28.869a2.917 2.917 0 004.124 0l8.26-8.278a14.583 14.583 0 000-20.591z"/>
</svg>