<?xml version="1.0" encoding="UTF-8"?>
<svg width="158px" height="158px" viewBox="0 0 158 158" version="1.1" xmlns="http://www.w3.org/2000/svg" xmlns:xlink="http://www.w3.org/1999/xlink">
    <!-- Generator: Sketch 42 (36781) - http://www.bohemiancoding.com/sketch -->
    <title>system_avatar_06</title>
    <desc>Created with Sketch.</desc>
    <defs></defs>
    <g id="Page-1" stroke="none" stroke-width="1" fill="none" fill-rule="evenodd">
        <g id="system_avatar_06">
            <g>
                <g id="Group" transform="translate(24.000000, 5.000000)" fill-rule="nonzero" fill="#FF1C32">
                    <g id="Shape">
                        <path d="M51.1307333,83.426142 C53.0670839,81.5722277 56.4116894,81.5722277 58.34804,83.426142 C58.8761356,83.931755 59.5802631,84.1002926 60.2843906,84.1002926 C60.988518,84.1002926 61.6926455,83.931755 62.2207411,83.426142 C63.2769323,82.414916 63.2769323,80.8980771 62.2207411,79.8868511 C60.2843906,78.0329369 57.6439125,77.0217109 54.8274026,77.0217109 C52.0108926,77.0217109 49.3704146,78.0329369 47.434064,79.8868511 C46.3778728,80.8980771 46.3778728,82.414916 47.434064,83.426142 C48.4902552,84.2688303 50.0745421,84.2688303 51.1307333,83.426142 Z"></path>
                        <path d="M65.5653467,89.3249601 L45.3216816,89.3249601 C43.9134266,89.3249601 42.6812035,90.5047237 42.6812035,91.853025 C42.6812035,98.2574561 48.4902552,103.482124 55.53153,103.482124 C62.5728049,103.482124 68.3818566,98.2574561 68.3818566,91.853025 C68.2058247,90.5047237 67.1496335,89.3249601 65.5653467,89.3249601 Z M55.53153,98.4259938 C52.3629564,98.4259938 49.7224783,96.7406172 48.6662871,94.3810899 L62.396773,94.3810899 C61.3405818,96.7406172 58.5240718,98.4259938 55.53153,98.4259938 Z"></path>
                        <path d="M35.9919924,57.4713423 C32.9994506,57.4713423 30.1829407,58.6511059 28.0705583,60.6735578 C27.014367,61.6847838 27.014367,63.2016227 28.0705583,64.2128487 C29.1267495,65.2240747 30.7110363,65.2240747 31.7672275,64.2128487 C32.471355,63.5386981 33.3515144,63.0330851 34.4077056,62.8645474 C33.3515144,63.3701604 32.6473869,64.3813864 32.6473869,65.56115 C32.6473869,67.2465266 34.0556418,68.5948279 35.8159606,68.5948279 C37.5762793,68.5948279 38.9845342,67.2465266 38.9845342,65.56115 C38.9845342,64.3813864 38.2804067,63.3701604 37.4002474,62.8645474 C38.2804067,63.0330851 39.336598,63.5386981 40.0407254,64.2128487 C40.5688211,64.7184617 41.2729485,64.8869993 41.977076,64.8869993 C42.6812035,64.8869993 43.385331,64.7184617 43.9134266,64.2128487 C44.9696178,63.2016227 44.9696178,61.6847838 43.9134266,60.6735578 C41.8010441,58.4825682 38.9845342,57.4713423 35.9919924,57.4713423 Z"></path>
                        <path d="M74.7190039,57.4713423 C71.7264621,57.4713423 68.9099522,58.6511059 66.7975698,60.6735578 C65.7413785,61.6847838 65.7413785,63.2016227 66.7975698,64.2128487 C67.853761,65.2240747 69.4380478,65.2240747 70.494239,64.2128487 C71.1983665,63.5386981 72.0785259,63.0330851 73.1347171,62.8645474 C72.0785259,63.3701604 71.3743984,64.3813864 71.3743984,65.56115 C71.3743984,67.2465266 72.7826534,68.5948279 74.5429721,68.5948279 C76.3032908,68.5948279 77.7115457,67.2465266 77.7115457,65.56115 C77.7115457,64.3813864 77.0074182,63.3701604 75.951227,62.8645474 C76.8313864,63.0330851 77.8875776,63.5386981 78.5917051,64.2128487 C79.1198007,64.7184617 79.8239282,64.8869993 80.5280557,64.8869993 C81.2321831,64.8869993 81.9363106,64.7184617 82.4644062,64.2128487 C83.5205975,63.2016227 83.5205975,61.6847838 82.4644062,60.6735578 C80.3520238,58.4825682 77.7115457,57.4713423 74.7190039,57.4713423 Z"></path>
                        <path d="M88.6255217,135.672817 L88.6255217,143.594087 C88.6255217,145.279463 89.8577448,146.796302 91.6180635,147.133378 C93.7304459,147.470453 95.6667965,145.785076 95.6667965,143.762625 L95.6667965,135.672817 C95.6667965,134.661591 96.5469559,133.98744 97.6031471,133.98744 L97.6031471,133.98744 C98.6593383,133.98744 99.5394977,134.830128 99.3634658,135.841354 L99.3634658,140.391871 C99.3634658,142.077248 100.595689,143.594087 102.356008,143.931162 C104.46839,144.268237 106.404741,142.582861 106.404741,140.560409 L106.404741,117.639287 C108.517123,115.448298 110.10141,112.583157 110.10141,109.380942 L110.10141,48.7073839 C110.10141,22.2469712 87.5693305,0.674150642 59.9323268,0.674150642 L50.7786695,0.674150642 C23.1416659,0.674150642 0.609586457,22.2469712 0.609586457,48.7073839 L0.609586457,109.212404 C0.609586457,112.41462 1.84180955,115.27976 3.954192,117.470749 L3.954192,140.391871 C3.954192,142.077248 5.18641509,143.594087 6.94673379,143.931162 C9.05911624,144.268237 10.9954668,142.582861 10.9954668,140.560409 L10.9954668,135.841354 C10.9954668,134.830128 11.8756262,134.155978 12.7557855,134.155978 L12.7557855,134.155978 C13.8119767,134.155978 14.5161042,134.998666 14.5161042,135.841354 L14.5161042,143.762625 C14.5161042,145.448001 15.7483273,146.96484 17.508646,147.301915 C19.6210285,147.638991 21.557379,145.953614 21.557379,143.931162 L21.557379,135.841354 C21.557379,134.830128 22.4375384,134.155978 23.4937296,134.155978 L23.4937296,134.155978 C24.5499208,134.155978 25.4300802,134.998666 25.4300802,136.009892 L25.4300802,140.560409 C25.4300802,142.245786 26.6623033,143.762625 28.422622,144.0997 C30.5350044,144.436775 32.471355,142.751399 32.471355,140.728947 L32.471355,118.481975 L32.471355,118.481975 L32.471355,111.571931 C35.4638968,114.605609 41.8010441,119.998814 47.6100959,119.998814 L62.7488367,119.998814 C68.5578885,119.998814 74.7190039,114.774147 77.8875776,111.740469 L77.8875776,118.481975 L77.8875776,118.481975 L77.8875776,118.481975 L77.8875776,124.717869 L77.8875776,126.403245 L77.8875776,140.560409 C77.8875776,142.245786 79.1198007,143.762625 80.8801194,144.0997 C82.9925018,144.436775 84.9288524,142.751399 84.9288524,140.728947 L84.9288524,136.009892 C84.9288524,134.998666 85.8090118,134.324516 86.6891711,134.324516 L86.6891711,134.324516 C87.7453623,133.818903 88.6255217,134.661591 88.6255217,135.672817 Z M93.7304459,92.358638 C96.1948921,89.3249601 97.6031471,85.4485939 97.6031471,81.4036901 L97.6031471,76.6846356 C99.5394977,76.3475603 101.475848,75.6734096 102.884103,74.6621837 L102.884103,109.043866 C102.884103,112.246082 100.243625,114.774147 96.8990196,114.774147 L86.3371074,114.774147 C85.6329799,114.774147 84.9288524,114.099996 84.9288524,113.425846 L84.9288524,106.178726 C84.9288524,104.156274 85.6329799,102.30236 86.865203,100.785521 L93.7304459,92.358638 Z M74.7190039,50.5612982 C69.7901116,50.5612982 64.3331236,51.4039865 60.8124862,53.4264384 C59.4042312,52.0781371 57.4678806,51.4039865 55.53153,51.4039865 C53.5951795,51.4039865 51.6588289,52.0781371 50.2505739,53.4264384 C46.7299365,51.4039865 41.2729485,50.5612982 36.3440562,50.5612982 C30.1829407,50.5612982 23.3176977,51.7410618 20.325156,55.111815 L20.325156,35.5614464 C23.1416659,36.235597 25.9581758,36.74121 28.7746857,36.74121 C40.9208848,36.74121 51.482797,29.9997036 56.5877213,20.2245193 C61.3405818,29.9997036 71.902494,36.74121 84.0486931,36.74121 C86.3371074,36.74121 88.4494898,36.5726724 90.5618723,36.0670594 L90.5618723,55.111815 C87.5693305,51.7410618 80.7040875,50.5612982 74.7190039,50.5612982 Z M87.0412349,58.9881812 C87.0412349,65.56115 81.408215,70.7858175 74.7190039,70.7858175 C68.0297929,70.7858175 62.396773,65.3926123 62.396773,58.9881812 C62.396773,57.8084176 66.6215379,55.617428 74.7190039,55.617428 C78.2396413,55.617428 81.7602787,56.123041 84.2247249,56.9657293 C86.1610755,57.6398799 87.0412349,58.4825682 87.0412349,58.9881812 Z M48.4902552,58.9881812 C48.4902552,65.56115 42.8572354,70.7858175 36.1680243,70.7858175 C29.4788132,70.7858175 23.8457934,65.3926123 23.8457934,58.9881812 C23.8457934,57.8084176 28.0705583,55.617428 36.1680243,55.617428 C39.6886617,55.617428 43.2092991,56.123041 45.6737453,56.9657293 C47.6100959,57.6398799 48.4902552,58.4825682 48.4902552,58.9881812 Z M24.0218252,114.774147 L13.6359449,114.774147 C10.2913393,114.774147 7.65086128,112.246082 7.65086128,109.043866 L7.65086128,74.6621837 C9.23514811,75.6734096 10.9954668,76.5160979 12.9318174,76.6846356 L12.9318174,81.2351524 C12.9318174,85.1115186 14.3400724,89.1564225 16.8045185,92.1901004 L23.4937296,100.448446 C24.7259527,101.965285 25.4300802,103.819199 25.4300802,105.841651 L25.4300802,113.425846 C25.4300802,114.099996 24.7259527,114.774147 24.0218252,114.774147 Z M12.9318174,69.9431292 C10.9954668,69.2689785 9.58721185,67.4150642 9.58721185,65.3926123 C9.58721185,63.3701604 10.9954668,61.5162461 12.9318174,60.8420955 L12.9318174,69.9431292 Z M97.779179,60.8420955 C99.7155295,61.5162461 101.123785,63.3701604 101.123785,65.3926123 C101.123785,67.4150642 99.7155295,69.2689785 97.779179,69.9431292 L97.779179,60.8420955 Z M103.060135,55.9545033 C101.475848,54.9432774 99.7155295,54.1005891 97.779179,53.9320514 L97.779179,33.7075321 C98.4833064,33.3704568 99.5394977,32.8648438 99.8915614,32.6963062 C102.003944,37.5838983 103.236167,42.9771035 103.236167,48.5388463 L103.060135,55.9545033 L103.060135,55.9545033 Z M96.5469559,26.6289504 C96.370924,26.797488 96.1948921,26.797488 96.1948921,26.797488 C92.4982228,28.81994 88.4494898,29.8311659 84.2247249,29.8311659 C71.0223346,29.8311659 60.4604224,19.7189063 60.1083587,7.07858175 C75.4231314,7.24711941 88.8015536,14.9998518 96.5469559,26.6289504 Z M50.7786695,7.24711941 L52.5389882,7.24711941 C52.3629564,19.887444 41.6250123,29.9997036 28.422622,29.9997036 C23.4937296,29.9997036 18.7408691,28.6514023 14.6921361,25.9547997 L14.6921361,25.9547997 C22.4375384,14.6627765 35.8159606,7.24711941 50.7786695,7.24711941 Z M11.3475306,31.8536179 C11.8756262,32.1906932 12.4037218,32.5277685 12.9318174,32.8648438 L12.9318174,53.9320514 C10.9954668,54.2691267 9.05911624,54.9432774 7.65086128,55.9545033 L7.65086128,48.5388463 C7.65086128,42.6400281 9.05911624,36.9097477 11.3475306,31.8536179 Z M24.5499208,127.077396 L12.051658,127.077396 C11.5235624,127.077396 10.9954668,126.571783 10.9954668,126.06617 L10.9954668,124.380794 L10.9954668,122.526879 C10.9954668,122.021266 11.5235624,121.515653 12.051658,121.515653 L24.5499208,121.515653 C25.0780165,121.515653 25.6061121,122.021266 25.6061121,122.526879 L25.6061121,124.380794 L25.6061121,126.06617 C25.6061121,126.740321 25.0780165,127.077396 24.5499208,127.077396 Z M74.5429721,104.998963 C72.2545577,107.527027 66.445506,112.920233 62.9248686,112.920233 L47.7861277,112.920233 C44.6175541,112.920233 38.9845342,108.201178 36.1680243,104.998963 L22.4375384,88.1451965 C20.8532516,86.2912822 19.9730922,83.7632173 19.9730922,81.4036901 L19.9730922,66.066763 C22.7896021,71.7970434 28.9507176,75.8419473 35.9919924,75.8419473 C45.6737453,75.8419473 53.5951795,68.2577525 53.5951795,58.9881812 C53.5951795,58.3140306 53.4191476,57.8084176 53.2431157,57.1342669 C53.2431157,57.1342669 54.299307,56.4601163 55.1794663,56.4601163 C56.0596257,56.4601163 56.939785,56.9657293 57.1158169,57.1342669 C56.939785,57.6398799 56.7637531,58.3140306 56.7637531,58.9881812 C56.7637531,68.2577525 64.6851873,75.8419473 74.3669402,75.8419473 C81.408215,75.8419473 87.5693305,71.7970434 90.3858404,66.066763 L90.3858404,81.4036901 C90.3858404,83.931755 89.5056811,86.2912822 87.9213942,88.1451965 L74.5429721,104.998963 Z M98.6593383,127.077396 L86.1610755,127.077396 C85.6329799,127.077396 85.1048843,126.571783 85.1048843,126.06617 L85.1048843,122.526879 C85.1048843,122.021266 85.6329799,121.515653 86.1610755,121.515653 L98.6593383,121.515653 C99.1874339,121.515653 99.7155295,122.021266 99.7155295,122.526879 L99.7155295,126.06617 C99.7155295,126.571783 99.1874339,127.077396 98.6593383,127.077396 Z"></path>
                    </g>
                </g>
                <rect id="Rectangle-8" x="0" y="0" width="158" height="158"></rect>
            </g>
        </g>
    </g>
</svg>