<?xml version="1.0" encoding="UTF-8"?>
<svg width="158px" height="158px" viewBox="0 0 158 158" version="1.1" xmlns="http://www.w3.org/2000/svg" xmlns:xlink="http://www.w3.org/1999/xlink">
    <!-- Generator: Sketch 42 (36781) - http://www.bohemiancoding.com/sketch -->
    <title>system_avatar_04</title>
    <desc>Created with Sketch.</desc>
    <defs></defs>
    <g id="Page-1" stroke="none" stroke-width="1" fill="none" fill-rule="evenodd">
        <g id="system_avatar_04">
            <g>
                <g id="Group" transform="translate(7.000000, 2.000000)" fill-rule="nonzero" fill="#1B93C0">
                    <g transform="translate(0.128668, 0.045866)" id="Shape">
                        <path d="M54.3390169,94.9037664 C56.4783483,94.9037664 58.1898134,95.9278931 58.1898134,93.8796396 C58.1898134,91.831386 56.4783483,90.1927832 54.3390169,90.1927832 C52.1996855,90.1927832 50.4882204,91.831386 50.4882204,93.8796396 C50.4882204,95.9278931 52.1996855,94.9037664 54.3390169,94.9037664 Z"></path>
                        <path d="M66.961072,99.8195749 L41.7169618,99.8195749 C40.2194298,99.8195749 38.935831,101.048527 38.935831,102.482305 C38.935831,110.265668 45.7816914,116.410429 54.3390169,116.410429 C62.8963424,116.410429 69.7422028,110.060843 69.7422028,102.482305 C69.7422028,101.048527 68.458604,99.8195749 66.961072,99.8195749 Z M54.3390169,111.289795 C50.0603542,111.289795 46.2095577,108.831891 44.9259589,105.34986 L63.5381418,105.34986 C62.4684761,108.627065 58.6176797,111.289795 54.3390169,111.289795 Z"></path>
                        <path d="M143.121269,39.6009203 C138.842606,34.275461 130.071348,28.3355257 112.742763,30.3837793 C109.533766,27.925875 105.469037,26.6969229 101.190374,27.5162243 C100.976441,27.5162243 100.762508,27.5162243 100.762508,27.7210497 C96.6977781,19.7328608 90.279784,12.7687987 82.1503248,8.0578155 C73.8069324,3.14200696 63.9660081,0.479277332 54.1250838,0.479277332 L51.343953,0.479277332 C35.2989677,1.29857876 20.7515143,9.08194228 11.5523894,21.9859397 C1.92539824,35.2995878 -0.427866275,51.6856163 4.92046216,67.047518 L7.91552608,75.8550083 C3.20899706,77.6984365 0,82.2045943 0,87.1204028 C0,93.6748142 5.34832844,99.0002735 12.1941888,99.4099242 C12.6220551,104.530558 14.5474533,109.446367 17.9703835,113.542874 L29.9506392,128.085474 C31.4481712,129.724077 39.3636973,138.326742 47.0652902,138.326742 L62.0406098,138.326742 C69.7422028,138.326742 77.6577289,129.724077 79.1552608,127.880649 L90.9215834,113.542874 C94.1305805,109.446367 96.2699118,104.530558 96.6977781,99.4099242 C103.329705,99.0002735 108.678034,93.6748142 108.678034,87.1204028 C108.678034,81.9997689 105.255104,77.4936111 100.548575,75.6501829 L103.971505,65.8185658 C105.255104,61.9268841 106.110836,58.0352023 106.538702,54.1435206 L106.538702,54.1435206 L107.180502,54.1435206 C110.389499,53.5290445 113.17063,51.8904416 115.096028,49.6373627 C118.732891,50.6614895 126.006618,54.3483459 124.936952,67.4571687 C124.509086,72.1681519 122.797621,78.7225633 121.086156,85.6866254 C114.882095,108.012589 106.966569,138.531567 132.638545,152.869342 C133.280345,153.278993 133.922144,153.278993 134.563943,153.278993 C135.633609,153.278993 136.703275,152.869342 137.345074,152.050041 C138.41474,150.821089 138.628673,148.772835 137.345074,147.543883 C137.131141,147.339057 125.364819,132.386806 140.981938,95.3134171 C151.464661,70.529549 152.320394,50.6614895 143.121269,39.6009203 Z M17.9703835,26.0824468 C25.8859096,15.0218776 38.2940316,8.26264085 51.9857524,7.64816479 L54.3390169,7.64816479 C62.8963424,7.64816479 71.2397348,9.9012437 78.5134614,14.2025762 C95.6281124,24.2390186 103.329705,45.1312049 96.6977781,63.9751376 L96.483845,64.3847883 L96.483845,59.6738052 C96.483845,52.9145684 94.7723799,46.1553317 91.3494497,40.2153964 C91.1355165,40.010571 87.4986532,33.8658103 82.1503248,30.3837793 C73.165133,24.6486693 63.9660081,26.2872722 63.5381418,26.2872722 C62.254543,26.4920975 61.1848773,27.3113989 60.757011,28.3355257 C60.3291448,29.3596525 60.3291448,30.79343 60.9709442,31.6127314 L66.961072,40.4202217 C42.5726943,44.9263795 33.8014357,33.0465089 33.3735694,32.4320328 C32.73177,31.6127314 31.8760375,30.9982553 30.8063718,30.79343 C29.7367061,30.5886046 28.6670404,30.79343 27.8113079,31.4079061 L23.5326451,34.4802864 C23.5326451,34.4802864 23.318712,34.4802864 23.318712,34.6851118 C17.3285841,39.8057456 13.4777877,46.7698077 12.408122,54.1435206 C12.1941888,55.7821234 11.9802557,57.4207262 11.9802557,59.2641545 L11.9802557,64.7944391 L11.7663226,64.3847883 C7.70159295,51.6856163 9.62699118,37.5526667 17.9703835,26.0824468 Z M74.0208655,61.1075827 C65.2496069,61.1075827 57.7619471,67.2523433 56.2644151,75.2405322 C55.6226157,75.0357069 54.9808163,75.0357069 54.3390169,75.0357069 C53.6972175,75.0357069 53.0554181,75.0357069 52.4136187,75.2405322 C50.9160867,67.2523433 43.4284269,61.1075827 34.6571683,61.1075827 C28.4531073,61.1075827 22.8908457,64.179963 19.6818486,68.8909462 L19.6818486,59.6738052 C19.6818486,58.2400277 19.6818486,56.8062502 19.8957818,55.577298 C20.5375812,49.8421881 23.5326451,44.7215542 28.2391741,40.6250471 L29.522773,39.6009203 C34.6571683,44.5167288 48.1349559,53.1193938 73.8069324,46.5649824 C74.8765981,46.360157 75.9462638,45.5408556 76.3741301,44.3119035 C76.8019963,43.2877767 76.5880632,42.0588246 75.9462638,41.0346978 L71.2397348,33.8658103 C73.3790661,34.275461 75.7323306,35.0947625 78.0855952,36.52854 C81.9363916,38.9864442 84.9314556,43.9022528 84.9314556,43.9022528 C87.7125863,48.8180613 89.2101183,54.1435206 89.2101183,59.8786305 L89.2101183,69.0957715 C85.7871881,64.179963 80.2249265,61.1075827 74.0208655,61.1075827 Z M86.4289875,78.5177379 C86.4289875,85.0721493 80.8667259,90.3976085 74.0208655,90.3976085 C67.1750051,90.3976085 61.6127436,85.0721493 61.6127436,78.5177379 C61.6127436,71.9633265 67.1750051,66.6378673 74.0208655,66.6378673 C80.8667259,66.6378673 86.4289875,71.9633265 86.4289875,78.5177379 Z M47.2792234,78.5177379 C47.2792234,85.0721493 41.7169618,90.3976085 34.8711014,90.3976085 C28.025241,90.3976085 22.4629794,85.0721493 22.4629794,78.5177379 C22.4629794,71.9633265 28.025241,66.6378673 34.8711014,66.6378673 C41.7169618,66.6378673 47.2792234,71.9633265 47.2792234,78.5177379 Z M7.70159295,87.3252282 C7.70159295,84.6624986 9.62699118,82.614245 12.1941888,82.2045943 L12.1941888,92.4458621 C9.62699118,92.0362114 7.70159295,89.7831325 7.70159295,87.3252282 Z M84.7175224,109.241541 L73.165133,123.579316 C70.3840022,126.856522 65.0356738,131.36268 61.8266767,131.36268 L46.8513571,131.36268 C43.8562932,131.36268 38.2940316,126.651697 35.7268339,123.784142 L23.9605114,109.446367 C21.1793806,106.169161 19.6818486,101.867828 19.6818486,97.7713213 L19.6818486,88.1445296 C22.8908457,92.8555128 28.4531073,95.9278931 34.6571683,95.9278931 C43.64236,95.9278931 51.1300198,89.5783071 52.4136187,81.1804675 L52.4136187,81.1804675 C53.2693512,80.3611661 54.9808163,80.3611661 55.8365489,81.1804675 L55.8365489,81.1804675 C57.1201477,89.3734818 64.6078075,95.9278931 73.5929993,95.9278931 C79.7970603,95.9278931 85.3593218,92.8555128 88.5683189,88.1445296 L88.5683189,97.7713213 C88.9961852,101.867828 87.4986532,105.964336 84.7175224,109.241541 Z M96.483845,92.4458621 L96.483845,82.2045943 C99.0510426,82.614245 100.976441,84.6624986 100.976441,87.3252282 C100.976441,89.7831325 99.0510426,92.0362114 96.483845,92.4458621 Z M106.110836,47.1794585 C105.896903,42.878126 105.04117,38.5767935 103.543639,34.4802864 C106.752636,34.275461 109.747699,36.52854 110.389499,39.8057456 C110.817365,41.4443485 110.389499,43.2877767 109.319833,44.7215542 C108.678034,45.9505063 107.608368,46.7698077 106.110836,47.1794585 Z M126.006618,136.278488 C118.946824,122.96484 123.867287,103.711257 128.145949,87.7348789 C130.071348,80.5659915 131.782813,73.8067547 132.210679,68.4812955 C133.494278,51.4807909 123.867287,45.5408556 118.091092,43.4926021 C118.305025,41.8539992 118.305025,40.2153964 118.091092,38.5767935 C118.091092,38.1671428 117.877159,37.7574921 117.877159,37.3478414 C126.86235,36.9381907 133.494278,39.1912696 137.559007,44.1070781 C144.832734,53.1193938 143.763068,70.7343744 134.35001,92.6506875 C125.792685,112.313922 124.723019,126.651697 126.006618,136.278488 Z"></path>
                        <path d="M26.7416422,75.4453576 C25.6719765,76.4694843 25.6719765,78.1080872 26.7416422,79.3370393 C27.8113079,80.5659915 29.522773,80.3611661 30.8063718,79.3370393 C31.4481712,78.7225633 32.3039037,78.3129125 32.9457032,78.1080872 C32.0899706,78.7225633 31.4481712,79.5418647 31.4481712,80.7708168 C31.4481712,82.614245 32.9457032,83.8431972 34.6571683,83.8431972 C36.3686334,83.8431972 37.8661653,82.4094197 37.8661653,80.7708168 C37.8661653,79.74669 37.2243659,78.7225633 36.3686334,78.1080872 C37.2243659,78.3129125 37.8661653,78.7225633 38.5079647,79.3370393 C39.1497641,79.9515154 39.7915636,80.1563407 40.433363,80.1563407 C41.0751624,80.1563407 41.9308949,79.9515154 42.3587612,79.3370393 C43.4284269,78.3129125 43.4284269,76.6743097 42.3587612,75.4453576 C38.5079647,71.3488504 31.2342381,71.3488504 26.7416422,75.4453576 Z"></path>
                        <path d="M65.8914063,75.4453576 C64.8217406,76.4694843 64.8217406,78.1080872 65.8914063,79.3370393 C66.961072,80.5659915 68.6725371,80.3611661 69.9561359,79.3370393 C70.5979353,78.7225633 71.4536679,78.3129125 72.0954673,78.1080872 C71.2397348,78.7225633 70.5979353,79.5418647 70.5979353,80.7708168 C70.5979353,82.614245 72.0954673,83.8431972 73.8069324,83.8431972 C75.7323306,83.8431972 77.0159295,82.4094197 77.0159295,80.7708168 C77.0159295,79.74669 76.3741301,78.7225633 75.5183975,78.1080872 C76.3741301,78.3129125 77.0159295,78.7225633 77.6577289,79.3370393 C78.2995283,79.9515154 78.9413277,80.1563407 79.5831271,80.1563407 C80.2249265,80.1563407 81.0806591,79.9515154 81.5085254,79.3370393 C82.578191,78.3129125 82.578191,76.6743097 81.5085254,75.4453576 C77.6577289,71.3488504 70.3840022,71.3488504 65.8914063,75.4453576 Z"></path>
                    </g>
                </g>
                <rect id="Rectangle-8" x="0" y="0" width="158" height="158"></rect>
            </g>
        </g>
    </g>
</svg>