<?xml version="1.0" encoding="UTF-8"?>
<svg width="158px" height="158px" viewBox="0 0 158 158" version="1.1" xmlns="http://www.w3.org/2000/svg" xmlns:xlink="http://www.w3.org/1999/xlink">
    <!-- Generator: Sketch 42 (36781) - http://www.bohemiancoding.com/sketch -->
    <title>system_avatar_05</title>
    <desc>Created with Sketch.</desc>
    <defs></defs>
    <g id="Page-1" stroke="none" stroke-width="1" fill="none" fill-rule="evenodd">
        <g id="system_avatar_05">
            <g>
                <g id="Group" transform="translate(21.000000, 10.000000)" fill-rule="nonzero" fill="#A724B3">
                    <g transform="translate(0.486798, 0.506629)" id="Shape">
                        <path d="M62.9090278,87.3947151 L51.6616561,87.3947151 C50.1365888,87.3947151 48.8021549,88.6723382 48.8021549,90.1324788 C48.8021549,91.5926194 50.1365888,92.8702424 51.6616561,92.8702424 L62.9090278,92.8702424 C64.4340951,92.8702424 65.768529,91.5926194 65.768529,90.1324788 C65.768529,88.6723382 64.4340951,87.3947151 62.9090278,87.3947151 Z"></path>
                        <path d="M57.3806586,74.8010024 C60.0495265,74.8010024 62.7183943,73.5233794 64.4340951,71.5156861 C65.3872622,70.238063 65.1966288,68.5954049 63.8621948,67.682817 C62.5277609,66.7702291 60.8120602,66.9527467 59.8588931,68.2303697 C59.2869928,68.96044 58.3338257,69.3254752 57.3806586,69.3254752 C56.4274916,69.3254752 55.4743245,68.7779224 54.9024242,68.0478521 C53.9492571,66.7702291 52.2335564,66.405194 50.8991225,67.3177818 C49.5646885,68.2303697 49.1834217,69.8730279 50.1365888,71.1506509 C51.6616561,73.3408618 54.5211574,74.8010024 57.3806586,74.8010024 Z"></path>
                        <path d="M38.6985837,49.9786122 C35.2671822,49.9786122 32.0264141,51.2562352 30.12008,53.4464461 C29.1669129,54.5415516 29.3575463,56.3667273 30.5013468,57.2793152 C31.073247,57.6443503 31.6451473,58.0093855 32.407681,58.0093855 C33.1702146,58.0093855 34.1233817,57.6443503 34.695282,57.0967976 C35.0765488,56.7317625 35.8390825,56.1842097 36.7922496,56.0016922 C36.2203493,56.5492449 36.0297159,57.2793152 36.0297159,58.0093855 C36.0297159,59.6520437 37.3641498,60.9296667 39.0798506,60.9296667 C40.7955513,60.9296667 42.1299853,59.6520437 42.1299853,58.0093855 C42.1299853,57.2793152 41.7487184,56.5492449 41.3674516,56.0016922 C42.3206187,56.3667273 43.0831523,56.7317625 43.2737858,57.0967976 C44.2269528,58.1919031 46.133287,58.3744206 47.2770875,57.4618328 C48.420888,56.5492449 48.6115214,54.7240691 47.6583544,53.6289637 C45.5613868,51.2562352 42.3206187,49.9786122 38.6985837,49.9786122 Z"></path>
                        <path d="M67.1029629,53.4464461 C66.1497958,54.5415516 66.3404293,56.3667273 67.4842298,57.2793152 C68.05613,57.6443503 68.6280303,58.0093855 69.3905639,58.0093855 C70.1530976,58.0093855 71.1062647,57.6443503 71.678165,57.0967976 C72.0594318,56.7317625 72.8219655,56.1842097 73.7751325,56.0016922 C73.2032323,56.5492449 73.0125989,57.2793152 73.0125989,58.0093855 C73.0125989,59.6520437 74.3470328,60.9296667 76.0627336,60.9296667 C77.7784343,60.9296667 79.1128682,59.6520437 79.1128682,58.0093855 C79.1128682,57.2793152 78.7316014,56.5492449 78.3503346,56.0016922 C79.3035016,56.3667273 80.0660353,56.7317625 80.4473022,57.0967976 C81.4004692,58.1919031 83.3068034,58.3744206 84.4506039,57.4618328 C85.5944044,56.5492449 85.7850378,54.7240691 84.8318708,53.6289637 C82.9255366,51.4387528 79.6847685,50.1611297 76.253367,50.1611297 C72.8219655,50.1611297 69.0092971,51.2562352 67.1029629,53.4464461 Z"></path>
                        <path d="M100.463811,51.2562352 C100.273178,51.2562352 100.273178,51.2562352 100.463811,51.2562352 L100.273178,41.5828037 C100.273178,18.9506243 81.0192024,0.516349217 57.3806586,0.516349217 C33.7421149,0.516349217 14.4881397,18.9506243 14.4881397,41.5828037 L14.4881397,51.2562352 L14.1068729,51.2562352 C6.48153619,51.2562352 0.381266835,57.0967976 0.381266835,64.3975006 L0.381266835,72.9758267 C0.381266835,80.2765297 6.48153619,86.1170921 14.1068729,86.1170921 L14.4881397,86.1170921 L14.4881397,95.0604533 C14.4881397,100.901016 16.5851073,106.741578 20.3977757,111.487035 L32.407681,126.270959 C33.9327483,128.096134 41.9393518,136.856978 49.7553219,136.856978 L65.0059953,136.856978 C72.8219655,136.856978 80.828569,128.096134 82.5442697,126.270959 L94.554175,111.669553 C98.3668434,106.924096 100.463811,101.266051 100.463811,95.2429709 L100.463811,86.2996097 L100.654444,86.2996097 C108.279781,86.2996097 114.38005,80.4590473 114.38005,73.1583443 L114.38005,64.5800182 C113.998784,57.0967976 107.898514,51.2562352 100.463811,51.2562352 Z M13.9162395,78.6338715 C10.484838,78.6338715 7.81597011,76.0786255 7.81597011,72.7933091 L7.81597011,64.2149831 C7.81597011,60.9296667 10.484838,58.3744206 13.9162395,58.3744206 L14.2975063,58.3744206 L14.2975063,78.6338715 C14.2975063,78.8163891 14.1068729,78.6338715 13.9162395,78.6338715 Z M92.6478409,95.0604533 C92.6478409,99.07584 91.3134069,103.091227 88.8351725,106.376543 L88.8351725,83.7443636 C88.8351725,82.284223 87.5007386,81.0066 85.9756713,81.0066 C84.4506039,81.0066 83.11617,82.284223 83.11617,83.7443636 L83.11617,113.494728 L79.3035016,118.240185 L79.3035016,90.4975139 C79.3035016,89.0373733 77.9690677,87.7597503 76.4440004,87.7597503 C74.918933,87.7597503 73.5844991,89.0373733 73.5844991,90.4975139 L73.5844991,124.445783 C72.4406986,125.540888 71.1062647,126.635994 69.7718308,127.366064 L69.7718308,101.448568 C69.7718308,99.9884279 68.4373969,98.7108048 66.9123295,98.7108048 C65.3872622,98.7108048 64.0528283,99.9884279 64.0528283,101.448568 L64.0528283,129.373758 L60.2401599,129.373758 L60.2401599,105.281438 C60.2401599,103.821297 58.905726,102.543674 57.3806586,102.543674 C55.8555913,102.543674 54.5211574,103.821297 54.5211574,105.281438 L54.5211574,129.373758 L50.708489,129.373758 L50.708489,101.448568 C50.708489,99.9884279 49.3740551,98.7108048 47.8489878,98.7108048 C46.3239204,98.7108048 44.9894865,99.9884279 44.9894865,101.448568 L44.9894865,127.548582 C43.6550526,126.635994 42.3206187,125.723406 41.1768182,124.628301 L41.1768182,90.4975139 C41.1768182,89.0373733 39.8423842,87.7597503 38.3173169,87.7597503 C36.7922496,87.7597503 35.4578156,89.0373733 35.4578156,90.4975139 L35.4578156,118.057668 L31.6451473,113.312211 L31.6451473,83.7443636 C31.6451473,82.284223 30.3107134,81.0066 28.785646,81.0066 C27.2605787,81.0066 25.9261448,82.284223 25.9261448,83.7443636 L25.9261448,106.376543 C23.4479103,103.091227 22.1134764,99.07584 22.1134764,95.0604533 L22.1134764,41.5828037 C22.1134764,22.966011 37.9360501,7.81705224 57.3806586,7.81705224 C76.8252672,7.81705224 92.6478409,22.966011 92.6478409,41.5828037 L92.6478409,95.0604533 Z M106.373447,72.7933091 C106.373447,76.0786255 103.704579,78.6338715 100.273178,78.6338715 L100.082544,78.6338715 L100.082544,58.5569382 L100.273178,58.5569382 C103.704579,58.5569382 106.373447,61.1121843 106.373447,64.3975006 L106.373447,72.7933091 Z"></path>
                    </g>
                </g>
                <rect id="Rectangle-8" x="-6.82121026e-13" y="0" width="158" height="158"></rect>
            </g>
        </g>
    </g>
</svg>