<?xml version="1.0" encoding="UTF-8"?>
<svg width="158px" height="158px" viewBox="0 0 158 158" version="1.1" xmlns="http://www.w3.org/2000/svg" xmlns:xlink="http://www.w3.org/1999/xlink">
    <!-- Generator: Sketch 42 (36781) - http://www.bohemiancoding.com/sketch -->
    <title>system_avatar_01</title>
    <desc>Created with Sketch.</desc>
    <defs></defs>
    <g id="Page-1" stroke="none" stroke-width="1" fill="none" fill-rule="evenodd">
        <g id="system_avatar_01">
            <g>
                <g id="Group" transform="translate(18.000000, 11.000000)" fill-rule="nonzero" fill="#1262FE">
                    <g transform="translate(0.147856, 0.358361)" id="Group-3">
                        <g>
                            <ellipse id="Oval" cx="42.6511008" cy="78.5852937" rx="3.22252762" ry="3.08533486"></ellipse>
                            <ellipse id="Oval" cx="78.288465" cy="78.5852937" rx="3.22252762" ry="3.08533486"></ellipse>
                            <path d="M60.6593434,97.823264 C63.1236292,97.823264 65.7774755,96.552832 67.293959,94.5564388 C68.2417613,93.4674971 67.8626404,91.8340845 66.7252777,90.9266331 C65.587915,90.0191817 63.881871,90.3821622 62.9340687,91.471104 C62.3653874,92.0155748 61.4175852,92.5600457 60.6593434,92.5600457 C59.9011016,92.5600457 58.7637389,92.0155748 58.384618,91.471104 C57.8159366,90.7451428 57.0576949,90.200672 56.1098926,90.200672 C54.593409,90.200672 53.4560463,91.2896137 53.4560463,92.741536 C53.4560463,93.2860068 53.6456068,93.8304777 53.8351672,94.1934582 C55.1620904,96.3713417 58.0054971,97.823264 60.6593434,97.823264 Z" id="Shape"></path>
                            <path d="M73.9285747,104.538405 C70.3269262,107.98672 65.587915,109.801623 60.4697829,109.801623 C55.3516508,109.801623 50.6126396,107.98672 47.0109911,104.538405 C45.8736284,103.449463 44.1675844,103.449463 43.2197821,104.538405 C42.0824195,105.627346 42.0824195,107.260759 43.2197821,108.16821 C47.7692329,112.523977 54.0247277,115.064841 60.4697829,115.064841 C66.9148382,115.064841 73.1703329,112.705467 77.7197837,108.16821 C78.8571464,107.079269 78.8571464,105.445856 77.7197837,104.538405 C76.7719814,103.449463 75.0659374,103.449463 73.9285747,104.538405 Z" id="Shape"></path>
                            <path d="M101.983521,16.515616 C90.4203337,5.98917943 75.2554979,0.362980571 59.1428598,0.725961143 C26.1593418,1.45192229 5.31574784e-13,27.949504 0.758241792,59.5288137 C1.13736269,72.0516434 5.68681344,84.0300022 13.6483523,93.6489874 C14.0274732,94.011968 14.406594,94.5564388 14.7857149,94.9194194 C17.4395612,97.823264 20.2829679,100.545618 23.3159351,102.904992 C24.2637373,105.808837 25.5906605,108.531191 27.486265,110.890565 L38.1016501,123.957865 C39.4285732,125.591278 46.6318702,133.39536 53.6456068,133.39536 L67.1043986,133.39536 C74.1181352,133.39536 81.3214322,125.591278 82.8379158,123.957865 L93.2637404,111.072055 C95.1593449,108.712681 96.486268,106.171817 97.4340703,103.267973 L97.4340703,103.267973 C112.219785,92.1970651 120.750005,74.7739977 120.370884,56.6249691 C120.181324,41.3797851 113.546708,27.2235428 101.983521,16.515616 Z M59.3324202,7.80408228 C73.3598934,7.44110171 86.8186852,12.3413394 96.8653889,21.597344 C107.101653,30.8533486 112.788467,43.3761783 113.167587,56.8064594 C113.357148,64.4290514 111.840664,71.6886628 108.807697,78.2223131 C107.480774,73.8665463 103.500005,70.5997211 98.571433,70.4182308 L98.571433,51.9062217 C98.571433,48.0949257 96.486268,44.6466103 93.2637404,42.6502171 C89.8516524,40.653824 85.6813225,40.4723337 82.079674,42.1057463 C69.0000031,48.0949257 51.9395628,48.0949257 38.8598918,42.1057463 C35.2582433,40.4723337 31.0879135,40.653824 27.6758254,42.6502171 C24.2637373,44.6466103 22.3681329,48.0949257 22.3681329,51.9062217 L22.3681329,70.4182308 C17.6291217,70.5997211 13.6483523,73.685056 12.1318687,77.8593325 C9.4780224,72.0516434 8.15109926,65.8809737 7.96153882,59.3473234 C7.20329702,31.5793097 30.3296717,8.53004342 59.3324202,7.80408228 Z M81.3214322,64.2475611 C74.1181352,64.2475611 68.2417613,69.1477988 66.9148382,75.6814491 C62.9340687,73.8665463 58.384618,73.8665463 54.4038486,75.6814491 C53.0769254,69.1477988 47.0109911,64.2475611 39.9972545,64.2475611 C36.0164851,64.2475611 32.4148366,65.6994834 29.7609903,68.2403474 L29.7609903,51.9062217 C29.7609903,50.4542994 30.5192321,49.1838674 31.6565948,48.4579063 C32.4148366,48.0949257 33.1730784,47.7319451 33.9313202,47.7319451 C34.5000015,47.7319451 35.2582433,47.9134354 35.8269247,48.0949257 C50.8022001,54.9915565 70.3269262,54.9915565 85.3022016,48.0949257 C86.6291247,47.3689646 88.1456083,47.5504548 89.4725315,48.276416 C90.7994546,49.0023771 91.3681359,50.2728091 91.3681359,51.7247314 L91.3681359,68.0588571 C88.7142897,65.6994834 85.1126412,64.2475611 81.3214322,64.2475611 Z M90.6098942,78.4038034 C90.6098942,83.3040411 86.4395643,87.2968274 81.3214322,87.2968274 C76.2033001,87.2968274 72.0329702,83.3040411 72.0329702,78.4038034 C72.0329702,73.5035657 76.2033001,69.5107794 81.3214322,69.5107794 C86.4395643,69.5107794 90.6098942,73.5035657 90.6098942,78.4038034 Z M49.096156,78.4038034 C49.096156,83.3040411 44.9258262,87.2968274 39.8076941,87.2968274 C34.689562,87.2968274 30.5192321,83.3040411 30.5192321,78.4038034 C30.5192321,73.5035657 34.689562,69.5107794 39.8076941,69.5107794 C44.9258262,69.5107794 49.096156,73.5035657 49.096156,78.4038034 Z M18.9560448,87.659808 L18.9560448,81.1261577 C18.9560448,79.1297645 20.4725284,77.6778423 22.3681329,77.496352 L22.3681329,91.471104 C21.4203306,91.2896137 20.6620888,90.9266331 20.0934075,90.3821622 C19.903847,90.200672 19.7142866,90.0191817 19.5247261,89.6562011 C19.1456053,89.1117302 18.9560448,88.3857691 18.9560448,87.659808 Z M98.571433,77.496352 C100.467037,77.6778423 101.983521,79.3112548 101.983521,81.1261577 L101.983521,87.659808 C101.983521,89.6562011 100.467037,91.1081234 98.571433,91.2896137 L98.571433,77.496352 Z M87.7664874,106.716288 L77.3406628,119.602098 C74.876377,122.324453 70.1373658,126.498729 67.293959,126.498729 L53.8351672,126.498729 C51.181321,126.498729 46.2527493,122.324453 43.9780239,119.783589 L33.3626389,106.897778 C30.898353,103.993934 29.5714299,100.182638 29.5714299,96.552832 L29.5714299,88.7487497 C32.2252762,91.1081234 35.8269247,92.5600457 39.8076941,92.5600457 C46.6318702,92.5600457 52.3186837,88.2042788 54.0247277,82.2150994 C54.2142881,82.0336091 54.4038486,82.0336091 54.593409,81.8521188 C57.8159366,78.766784 63.1236292,78.766784 66.3461568,81.8521188 C66.5357173,82.0336091 66.7252777,82.2150994 66.9148382,82.2150994 C68.6208822,88.2042788 74.3076956,92.5600457 81.1318718,92.5600457 C85.1126412,92.5600457 88.7142897,91.1081234 91.3681359,88.5672594 L91.3681359,96.3713417 C91.3681359,100.182638 90.0412128,103.812443 87.7664874,106.716288 Z" id="Shape"></path>
                        </g>
                    </g>
                </g>
                <rect id="Rectangle-8" x="0" y="0" width="158" height="158"></rect>
            </g>
        </g>
    </g>
</svg>