<?xml version="1.0" encoding="UTF-8"?>
<svg width="158px" height="158px" viewBox="0 0 158 158" version="1.1" xmlns="http://www.w3.org/2000/svg" xmlns:xlink="http://www.w3.org/1999/xlink">
    <!-- Generator: Sketch 42 (36781) - http://www.bohemiancoding.com/sketch -->
    <title>system_avatar_02</title>
    <desc>Created with Sketch.</desc>
    <defs></defs>
    <g id="Page-1" stroke="none" stroke-width="1" fill="none" fill-rule="evenodd">
        <g id="system_avatar_02">
            <g>
                <g id="Group" transform="translate(22.000000, 0.000000)" fill-rule="nonzero">
                    <g transform="translate(0.147875, 0.746654)">
                        <path d="M112.45133,95.3700499 C112.45133,89.2988861 108.07814,84.2744747 102.174335,83.0183719 L102.174335,61.8739739 C102.174335,61.6646234 102.392994,61.2459225 102.392994,61.036572 L102.392994,59.9898196 L102.392994,59.3617682 L102.392994,40.5202254 C102.392994,23.5628369 87.961469,9.95505604 70.4687113,9.95505604 L67.6261382,9.95505604 C67.4074787,4.51194368 62.8156298,0.115583704 57.1304836,0.115583704 L55.3812078,0.115583704 C49.6960616,0.115583704 45.1042127,4.51194368 44.8855532,9.95505604 L42.0429801,9.95505604 C24.3315629,9.95505604 10.1186973,23.7721874 10.1186973,40.5202254 L10.1186973,59.3617682 L10.1186973,59.9898196 L10.1186973,61.036572 C10.1186973,61.2459225 10.1186973,61.6646234 10.3373568,61.8739739 L10.3373568,83.0183719 C4.43355105,84.2744747 0.0603616294,89.2988861 0.0603616294,95.3700499 C0.0603616294,101.441214 4.43355105,106.465625 10.3373568,107.721728 L10.3373568,152.52273 C10.3373568,154.616234 12.0866325,156.291038 14.2732273,156.291038 C16.459822,156.291038 18.2090977,154.616234 18.2090977,152.52273 L18.2090977,121.74821 L23.2382656,128.028724 L23.2382656,128.866126 L23.2382656,152.52273 C23.2382656,154.616234 24.9875413,156.291038 27.174136,156.291038 C29.3607308,156.291038 31.1100065,154.616234 31.1100065,152.52273 L31.1100065,137.240145 C33.9525797,140.171052 41.3870017,147.498318 48.6027642,147.498318 L65.0022245,147.498318 C71.9993276,147.498318 78.9964307,141.008453 82.2763228,137.658846 L82.2763228,152.73208 C82.2763228,154.825585 84.0255985,156.500389 86.2121932,156.500389 C88.398788,156.500389 90.1480637,154.825585 90.1480637,152.73208 L90.1480637,79.6687643 C90.1480637,77.78461 88.6174474,76.1098062 86.6495122,76.1098062 C60.8476946,73.806951 42.480299,63.7581282 34.3898986,58.7337168 C36.7951528,58.3150158 39.4190664,57.8963149 42.2616396,57.6869644 C42.480299,58.1056653 42.917618,58.3150158 43.1362774,58.5243663 C43.7922558,58.9430672 61.940992,70.0386424 86.6495122,72.9695491 L87.0868311,72.9695491 C89.0547664,72.9695491 90.5853827,71.5040957 90.8040421,69.8292919 C91.0227016,67.7357872 89.4920853,66.0609834 87.5241501,65.6422824 C74.4045818,64.1768291 63.2529488,59.9898196 55.8185268,56.640212 L56.6931646,56.640212 C72.655306,56.640212 88.8361069,60.4085206 95.1772316,61.8739739 L95.1772316,152.313379 C95.1772316,154.406884 96.9265073,156.081688 99.113102,156.081688 C101.299697,156.081688 103.048973,154.406884 103.048973,152.313379 L103.048973,107.721728 C108.07814,106.465625 112.45133,101.441214 112.45133,95.3700499 Z M94.5212531,40.3108749 L94.5212531,47.0100901 C91.4600206,44.7072349 87.5241501,42.6137302 82.7136417,41.1482768 L82.7136417,40.7295759 L82.7136417,39.2641226 C82.7136417,33.4023093 82.7136417,25.4469912 79.8710686,19.1664769 C88.6174474,22.725435 94.5212531,30.8901036 94.5212531,40.3108749 Z M36.7951528,39.2641226 L36.7951528,39.0547721 C36.7951528,31.3088045 36.7951528,20.6319303 43.1362774,16.8636217 L68.938095,16.8636217 C75.2792197,20.6319303 75.2792197,31.099454 75.2792197,39.0547721 C69.8127329,38.0080197 63.6902677,37.3799683 57.1304836,37.3799683 C49.2587426,37.5893188 42.480299,38.2173702 36.7951528,39.2641226 Z M55.1625483,7.23349986 L56.9118241,7.23349986 C58.4424404,7.23349986 59.5357378,8.28025224 59.7543972,9.74570556 L52.3199752,9.74570556 C52.5386347,8.28025224 53.631932,7.23349986 55.1625483,7.23349986 Z M31.9846444,18.9571265 C29.1420713,25.2376407 29.1420713,33.1929588 29.1420713,39.0547721 L29.1420713,40.5202254 L29.1420713,41.1482768 C24.3315629,42.8230806 20.3956924,44.9165854 17.3344598,47.2194406 L17.3344598,40.3108749 C17.5531193,30.8901036 23.456925,22.725435 31.9846444,18.9571265 Z M7.27612418,95.3700499 C7.27612418,93.4858956 8.36942153,91.8110918 9.90003783,90.9736899 L9.90003783,99.9757604 C8.36942153,98.929008 7.27612418,97.2542042 7.27612418,95.3700499 Z M24.3315629,61.2459225 C25.2062008,62.0833244 46.4161695,78.8313624 81.4016849,82.8090214 L81.4016849,125.725869 L81.1830254,125.935219 L77.0284955,131.168981 C74.6232413,133.890537 68.2821166,139.752351 64.3462461,139.752351 L47.9467858,139.752351 C44.4482343,139.752351 38.3257691,134.727939 35.2645365,131.168981 L20.3956924,112.746139 C18.6464167,110.652635 17.7717788,107.931078 17.7717788,105.418873 L17.7717788,101.022513 L17.7717788,75.4817548 C31.7659849,75.4817548 40.0750448,77.5752595 44.2295748,81.9716195 C47.9467858,85.9492785 48.8214237,92.0204423 47.7281263,103.116017 L47.7281263,103.325368 C47.7281263,103.953419 47.9467858,104.37212 48.1654453,104.790821 C49.914721,107.303027 53.1946131,108.977831 56.2558457,108.977831 C59.0984188,108.977831 62.1596514,107.512377 63.9089272,105.209522 C64.7835651,103.953419 64.5649056,102.278616 63.2529488,101.441214 C61.940992,100.603812 60.1917162,100.813162 59.3170783,102.069265 C58.6610999,102.906667 57.3491431,103.534718 56.2558457,103.534718 C55.3812078,103.534718 54.2879105,103.116017 53.631932,102.487966 C54.5065699,93.4858956 54.2879105,84.2744747 48.6027642,78.2033109 C43.1362774,72.5508481 33.7339202,70.0386424 17.9904383,69.8292919 L17.9904383,61.6646234 C19.5210546,61.2459225 21.4889898,60.8272215 24.1129035,60.1991701 C23.894244,60.8272215 24.1129035,61.036572 24.3315629,61.2459225 Z M21.9263087,53.2906044 C28.4860929,48.266193 41.3870017,44.9165854 56.9118241,44.9165854 C72.655306,44.9165854 84.9002364,48.266193 90.8040421,53.4999549 C82.4949822,51.6158006 69.375414,49.3129454 55.8185268,49.3129454 C42.917618,49.3129454 30.2353686,51.4064501 21.9263087,53.2906044 Z M102.174335,99.9757604 L102.174335,90.9736899 C103.704951,91.8110918 104.798248,93.4858956 104.798248,95.3700499 C104.798248,97.2542042 103.704951,98.929008 102.174335,99.9757604 Z" id="Shape" fill="#ED8D00"></path>
                        <path d="M61.940992,115.677046 C60.4103757,117.142499 51.4453373,117.142499 49.914721,115.677046 C48.8214237,114.630294 47.0721479,114.630294 45.7601911,115.677046 C44.6668937,116.723798 44.6668937,118.398602 45.7601911,119.654705 C48.3841047,122.166911 53.631932,122.376261 55.8185268,122.376261 C58.0051215,122.376261 63.2529488,122.166911 65.8768624,119.654705 C66.9701598,118.607953 66.9701598,116.933149 65.8768624,115.677046 C65.0022245,114.630294 63.2529488,114.630294 61.940992,115.677046 Z" id="Shape" fill="#F6A623"></path>
                        <path d="M64.7835651,26.9124445 C64.7835651,22.3067341 60.8476946,18.5384255 56.0371862,18.5384255 C51.2266779,18.5384255 47.2908074,22.3067341 47.2908074,26.9124445 C47.2908074,31.518155 51.2266779,35.2864635 56.0371862,35.2864635 C60.8476946,35.2864635 64.7835651,31.518155 64.7835651,26.9124445 Z M56.0371862,29.8433512 C54.2879105,29.8433512 52.9759536,28.5872483 52.9759536,26.9124445 C52.9759536,25.2376407 54.2879105,23.9815379 56.0371862,23.9815379 C57.786462,23.9815379 59.0984188,25.2376407 59.0984188,26.9124445 C59.0984188,28.5872483 57.786462,29.8433512 56.0371862,29.8433512 Z" id="Shape" fill="#F6A623"></path>
                        <ellipse id="Oval" fill="#F6A623" cx="37.0138122" cy="86.7866804" rx="3.93587048" ry="3.76830855"></ellipse>
                        <ellipse id="Oval" fill="#F6A623" cx="75.0605602" cy="86.7866804" rx="3.93587048" ry="3.76830855"></ellipse>
                    </g>
                </g>
                <rect id="Rectangle-8" x="0" y="0" width="158" height="158"></rect>
            </g>
        </g>
    </g>
</svg>