<?xml version="1.0" encoding="UTF-8"?>
<svg width="158px" height="158px" viewBox="0 0 158 158" version="1.1" xmlns="http://www.w3.org/2000/svg" xmlns:xlink="http://www.w3.org/1999/xlink">
    <!-- Generator: Sketch 42 (36781) - http://www.bohemiancoding.com/sketch -->
    <title>system_avatar_03</title>
    <desc>Created with Sketch.</desc>
    <defs></defs>
    <g id="Page-1" stroke="none" stroke-width="1" fill="none" fill-rule="evenodd">
        <g id="system_avatar_03">
            <g>
                <g id="Group" transform="translate(11.000000, 4.000000)" fill-rule="nonzero" fill="#00BA91">
                    <g transform="translate(0.288882, 0.080835)">
                        <path d="M78.1062685,106.090085 L61.3990453,106.090085 C59.9371633,106.090085 58.6841215,107.289781 58.6841215,108.689426 C58.6841215,110.089072 59.9371633,111.288768 61.3990453,111.288768 L78.1062685,111.288768 C79.5681505,111.288768 80.8211923,110.089072 80.8211923,108.689426 C80.8211923,107.289781 79.5681505,106.090085 78.1062685,106.090085 Z" id="Shape"></path>
                        <path d="M66.202372,93.4932777 C68.2907749,91.4937844 71.4233792,91.4937844 73.5117821,93.4932777 C74.138303,94.0931257 74.7648239,94.293075 75.3913447,94.293075 C76.0178656,94.293075 76.8532268,94.0931257 77.2709073,93.4932777 C78.3151088,92.493531 78.3151088,90.8939364 77.2709073,89.8941898 C75.1825044,87.8946965 72.676421,86.8949499 69.7526569,86.8949499 C66.8288928,86.8949499 64.3228094,87.8946965 62.2344065,89.8941898 C61.190205,90.8939364 61.190205,92.493531 62.2344065,93.4932777 C63.2786079,94.4930243 65.1581705,94.4930243 66.202372,93.4932777 Z" id="Shape"></path>
                        <ellipse id="Oval" cx="50.9570308" cy="75.297889" rx="3.55028493" ry="3.39913855"></ellipse>
                        <ellipse id="Oval" cx="88.548283" cy="75.297889" rx="3.55028493" ry="3.39913855"></ellipse>
                        <path d="M112.773757,71.8987504 L112.773757,71.8987504 L112.773757,42.7061487 L112.773757,42.1063008 C112.773757,28.3097972 112.147236,0.516840866 72.0499001,0.516840866 C52.6277531,0.516840866 43.6476206,8.3148646 36.5470508,14.5132937 C28.1934392,21.7114695 23.8077931,25.710456 5.84752812,14.713243 C4.80332667,14.1133951 3.34144464,13.9134457 2.29724319,14.5132937 C1.25304174,15.1131417 0.41768058,16.1128883 0.41768058,17.5125336 C3.09197112e-14,31.1090878 5.01216696,57.3024496 26.9403974,62.3011827 L26.9403974,71.6988011 L26.9403974,71.6988011 C20.2575081,71.6988011 14.8276606,76.8974836 14.8276606,83.295862 L14.8276606,90.6939871 C14.8276606,97.0923655 20.2575081,102.291048 26.9403974,102.291048 L26.9403974,102.291048 L26.9403974,103.090845 C26.9403974,107.089832 28.4022795,111.088818 30.9083629,114.288008 L44.9006624,131.48365 C45.5271832,132.283447 46.5713847,132.883295 47.6155861,132.883295 C48.4509473,132.883295 49.0774682,132.683346 49.9128293,132.083498 C51.3747114,130.883802 51.7923919,128.684359 50.5393502,127.284714 L36.5470508,110.089072 C34.8763285,108.089579 34.0409673,105.690187 34.0409673,103.090845 L34.0409673,77.8972302 L37.8000925,77.8972302 L37.8000925,80.6965208 C37.8000925,83.6957607 40.5150163,86.2951019 43.6476206,86.2951019 L58.2664409,86.2951019 C61.3990453,86.2951019 64.1139691,83.6957607 64.1139691,80.6965208 L64.1139691,77.4973316 C64.1139691,77.4973316 64.3228094,77.4973316 64.3228094,77.2973822 C67.2465734,74.4980917 72.2587404,74.4980917 75.1825044,77.2973822 C75.1825044,77.2973822 75.3913447,77.2973822 75.3913447,77.4973316 L75.3913447,80.6965208 C75.3913447,83.6957607 78.1062685,86.2951019 81.2388729,86.2951019 L95.8576932,86.2951019 C98.9902975,86.2951019 101.705221,83.6957607 101.705221,80.6965208 L101.705221,77.8972302 L105.464347,77.8972302 L105.464347,103.490744 C105.464347,105.890136 104.628985,108.489477 102.958263,110.289021 L88.9659636,127.484663 C87.7129219,128.884308 88.1306024,131.083751 89.5924845,132.283447 C90.2190053,132.683346 91.0543665,133.083244 91.6808874,133.083244 C92.7250888,133.083244 93.7692903,132.683346 94.6046514,131.683599 L108.596951,114.487957 C111.103034,111.288768 112.564916,107.489731 112.564916,103.490744 L112.564916,102.490997 L112.564916,102.490997 C119.247806,102.490997 124.677653,97.2923149 124.677653,90.8939364 L124.677653,83.4958113 C124.886493,77.0974329 119.456646,71.8987504 112.773757,71.8987504 Z M7.72709073,23.7109627 C25.896196,32.9086318 33.4144464,26.310304 41.3503774,19.5120269 C48.0332667,13.7134964 55.3426769,7.31511797 72.0499001,7.31511797 C98.9902975,7.31511797 104.420145,20.5117735 105.464347,35.507973 C98.9902975,31.9088851 90.010165,29.7094425 81.0300326,35.3080237 C66.202372,44.3057434 52.8365934,39.9068582 52.4189128,39.7069089 C52.2100725,39.7069089 52.2100725,39.7069089 52.0012322,39.5069595 C44.0653012,37.5074663 37.8000925,38.5072129 33.4144464,42.1063008 C29.0288003,45.7053886 27.5669183,51.3039698 27.1492377,55.3029563 C12.3215771,50.7041218 8.77129219,33.1085811 7.72709073,23.7109627 Z M26.7315571,95.6927203 C24.0166334,95.6927203 21.7193902,93.4932777 21.7193902,90.8939364 L21.7193902,83.4958113 C21.7193902,80.8964701 24.0166334,78.6970275 26.7315571,78.6970275 L26.7315571,78.6970275 L26.7315571,95.6927203 L26.7315571,95.6927203 Z M58.6841215,80.6965208 C58.6841215,80.8964701 58.4752812,81.0964194 58.2664409,81.0964194 L43.6476206,81.0964194 C43.4387803,81.0964194 43.2299401,80.8964701 43.2299401,80.6965208 L43.2299401,70.0992065 C43.2299401,69.8992571 43.4387803,69.6993078 43.6476206,69.6993078 L58.2664409,69.6993078 C58.4752812,69.6993078 58.6841215,69.8992571 58.6841215,70.0992065 L58.6841215,80.6965208 Z M96.484214,80.6965208 C96.484214,80.8964701 96.2753737,81.0964194 96.0665335,81.0964194 L81.4477131,81.0964194 C81.2388729,81.0964194 81.0300326,80.8964701 81.0300326,80.6965208 L81.0300326,70.0992065 C81.0300326,69.8992571 81.2388729,69.6993078 81.4477131,69.6993078 L96.0665335,69.6993078 C96.2753737,69.6993078 96.484214,69.8992571 96.484214,70.0992065 L96.484214,80.6965208 Z M101.914062,72.898497 L101.914062,70.0992065 C101.914062,67.0999666 99.1991378,64.5006253 96.0665335,64.5006253 L81.4477131,64.5006253 C78.3151088,64.5006253 75.600185,67.0999666 75.600185,70.0992065 L75.600185,71.2989024 C73.9294627,70.4991051 71.8410598,70.0992065 69.9614972,70.0992065 C68.0819346,70.0992065 65.9935317,70.4991051 64.3228094,71.2989024 L64.3228094,70.0992065 C64.3228094,67.0999666 61.6078856,64.5006253 58.4752812,64.5006253 L43.8564609,64.5006253 C40.7238566,64.5006253 38.0089328,67.0999666 38.0089328,70.0992065 L38.0089328,72.898497 L34.2498076,72.898497 L34.2498076,57.5023989 L34.2498076,57.1025003 C34.4586479,54.3032097 35.0851687,49.9043245 38.0089328,47.3049833 C40.5150163,45.1055407 44.6918221,44.705642 50.1216696,46.1052873 C52.2100725,46.9050846 67.8730943,51.5039191 84.9979981,41.1065541 C94.1869708,35.507973 103.167103,41.7064021 105.882027,44.105794 L105.882027,72.898497 L101.914062,72.898497 L101.914062,72.898497 Z M117.785924,90.8939364 C117.785924,93.4932777 115.48868,95.6927203 112.773757,95.6927203 L112.773757,95.6927203 L112.773757,78.6970275 L112.773757,78.6970275 C115.48868,78.6970275 117.785924,80.8964701 117.785924,83.4958113 L117.785924,90.8939364 Z" id="Shape"></path>
                        <path d="M58.6841215,57.1025003 L43.2299401,57.1025003 C41.768058,57.1025003 40.5150163,58.3021962 40.5150163,59.7018415 C40.5150163,61.1014868 41.768058,62.3011827 43.2299401,62.3011827 L58.6841215,62.3011827 C60.1460036,62.3011827 61.3990453,61.1014868 61.3990453,59.7018415 C61.3990453,58.3021962 60.1460036,57.1025003 58.6841215,57.1025003 Z" id="Shape"></path>
                        <path d="M96.2753737,57.1025003 L80.8211923,57.1025003 C79.3593102,57.1025003 78.1062685,58.3021962 78.1062685,59.7018415 C78.1062685,61.1014868 79.3593102,62.3011827 80.8211923,62.3011827 L96.2753737,62.3011827 C97.7372558,62.3011827 98.9902975,61.1014868 98.9902975,59.7018415 C98.9902975,58.3021962 97.7372558,57.1025003 96.2753737,57.1025003 Z" id="Shape"></path>
                        <path d="M55.5515172,127.284714 C53.6719546,127.284714 52.0012322,128.884308 52.0012322,130.683852 L52.0012322,142.080964 C52.0012322,143.880508 53.6719546,145.480103 55.5515172,145.480103 C57.4310798,145.480103 59.1018021,143.880508 59.1018021,142.080964 L59.1018021,130.683852 C59.1018021,128.684359 57.6399201,127.284714 55.5515172,127.284714 Z" id="Shape"></path>
                        <path d="M64.9493302,119.286741 C63.0697676,119.286741 61.3990453,120.886335 61.3990453,122.685879 L61.3990453,146.2799 C61.3990453,148.079444 63.0697676,149.679038 64.9493302,149.679038 C66.8288928,149.679038 68.4996152,148.079444 68.4996152,146.2799 L68.4996152,122.685879 C68.4996152,120.686386 66.8288928,119.286741 64.9493302,119.286741 Z" id="Shape"></path>
                        <path d="M74.3471433,119.286741 C72.4675807,119.286741 70.7968584,120.886335 70.7968584,122.685879 L70.7968584,146.2799 C70.7968584,148.079444 72.4675807,149.679038 74.3471433,149.679038 C76.2267059,149.679038 77.8974282,148.079444 77.8974282,146.2799 L77.8974282,122.685879 C77.8974282,120.686386 76.2267059,119.286741 74.3471433,119.286741 Z" id="Shape"></path>
                        <path d="M83.536116,127.284714 C81.6565534,127.284714 79.9858311,128.884308 79.9858311,130.683852 L79.9858311,142.080964 C79.9858311,143.880508 81.6565534,145.480103 83.536116,145.480103 C85.4156787,145.480103 87.086401,143.880508 87.086401,142.080964 L87.086401,130.683852 C87.086401,128.684359 85.6245189,127.284714 83.536116,127.284714 Z" id="Shape"></path>
                    </g>
                </g>
                <rect id="Rectangle-8" x="0" y="0" width="158" height="158"></rect>
            </g>
        </g>
    </g>
</svg>