<svg xmlns="http://www.w3.org/2000/svg" viewBox="0 0 71 72" class="primary icon">
  <path fill="#ccc" fill-rule="evenodd" stroke="#ccc" d="M35.45 1.2C16.18 1.2.5 16.9.5 36.17.5 55.43 16.18 71.1 35.45 71.1c19.28 0 34.96-15.67 34.96-34.94C70.4 16.9 54.8 1.2 35.5 1.2zm1.5 3.05c7.7.36 14.7 3.45 20.05 8.34-1.24 1.1-2.4 2.3-3.53 3.4-4.4 4.5-8.6 8.76-16.52 9.24v-21zm-3 21.05c-7.92-.48-12.1-4.74-16.52-9.25-1.13-1.15-2.3-2.34-3.52-3.46 5.4-4.9 12.4-8 20.1-8.4v21.1zM15.3 18.15c4.65 4.76 9.47 9.66 18.65 10.15v6.36H3.55C3.9 27 6.95 20.04 11.8 14.72c1.2 1.1 2.35 2.28 3.5 3.43zm18.65 19.5v6.37c-9.18.5-14 5.4-18.66 10.15-1.2 1.15-2.3 2.34-3.5 3.44-4.9-5.3-7.9-12.22-8.3-19.9h30.4zm-16.5 18.62c4.4-4.5 8.58-8.77 16.5-9.25v21.05c-7.7-.35-14.7-3.45-20.04-8.34 1.3-1.12 2.4-2.3 3.6-3.46zm19.5-9.25c7.92.48 12.1 4.74 16.52 9.25 1.13 1.15 2.3 2.34 3.53 3.46-5.34 4.9-12.34 7.98-20.05 8.34V47.02zm18.66 7.15C51 49.4 46.2 44.5 37 44.02v-6.36h30.4c-.37 7.66-3.43 14.62-8.26 19.95-1.2-1.1-2.38-2.22-3.5-3.4zM37 34.67V28.3c9.18-.5 14-5.4 18.66-10.15 1.14-1.15 2.3-2.34 3.52-3.44 4.83 5.4 7.9 12.3 8.25 20H36.95z"/>
</svg>
