<svg xmlns="http://www.w3.org/2000/svg" viewBox="0 0 400 97.51"><defs><style>.a{fill:#fff;}</style></defs><title>espressive-logo-wht</title><path class="a" d="M49.43,47.28a.72.72,0,0,1-.56,1c-3.41,1.14-6.13,3.44-9.09,5.34A24.31,24.31,0,0,0,29.72,67.08a114.31,114.31,0,0,0-2.94,12,20.88,20.88,0,0,1-1.44,4.74c-.43.9-.74.9-2.17.61-.85-.18-1-.67-1-1.37a23,23,0,0,0-1.93-10.79A47.92,47.92,0,0,0,4.95,51.85,19.05,19.05,0,0,0,.82,49.78c-.93-.42-1.09-1-.38-1.77a9.24,9.24,0,0,1,1.25-1A34.46,34.46,0,0,0,14.3,29.28c2.07-6.19,3.58-12.53,5.08-18.87.6-2.55,1.22-5.09,1.84-7.63a3.7,3.7,0,0,1,.31-.89c.39-.71.79-.84,1.39-.33A3.39,3.39,0,0,1,24.39,4,46.82,46.82,0,0,0,34.64,29.59a132.53,132.53,0,0,0,11.1,12.63c.73.7,1.51,1.35,2.27,2A3.69,3.69,0,0,1,49.43,47.28Z" transform="translate(0 -1.24)"/><path class="a" d="M55.74,56.45a1.76,1.76,0,0,1,2,1.55,55.14,55.14,0,0,1,1.35,7.24,13.7,13.7,0,0,0,3.14,7.09,52.75,52.75,0,0,0,4.47,4.6c.83.82,1.7,1.59,2.52,2.42S70,80.43,69,80.89,67.13,82,66.17,82.63a12.4,12.4,0,0,0-4.48,4.92,28.52,28.52,0,0,0-3.11,9.39c0,.26,0,.54-.1.8-.21,1-.43,1.14-1.44.94-1.68-.32-1.88-.5-1.85-2.18a10.66,10.66,0,0,0-1.42-4.88,26.92,26.92,0,0,0-9-10.83,9.89,9.89,0,0,0-3.12-1.58c-.57-.14-1.17-.38-1.31-1a1.61,1.61,0,0,1,.82-1.62,8.45,8.45,0,0,1,.94-.6A16.4,16.4,0,0,0,47.7,71c.83-1.18,1.72-2.31,2.6-3.46a27.42,27.42,0,0,0,3.54-7.32,19.31,19.31,0,0,0,.39-2.53C54.44,56.79,54.8,56.47,55.74,56.45Z" transform="translate(0 -1.24)"/><path class="a" d="M52,4.82c.71,0,1.16.3,1.29,1A38.32,38.32,0,0,1,54,9.59,9.25,9.25,0,0,0,56.6,15.3c1.13,1.2,2.36,2.31,3.53,3.48.67.67.68.86-.17,1.27-3.67,1.8-5.22,5-6,8.77-.09.42-.15.84-.23,1.26s-.1.88-.69.91a1.27,1.27,0,0,1-1.41-1c-.47-4.43-3.08-7.49-6.43-10.08a7.54,7.54,0,0,0-2-1c-1-.37-1-1-.24-1.64a2.74,2.74,0,0,1,.39-.28c3.62-2.16,5.74-5.48,7.23-9.29a9.69,9.69,0,0,0,.41-2A.9.9,0,0,1,52,4.82Z" transform="translate(0 -1.24)"/><path class="a" d="M157.14,37.75a16.88,16.88,0,0,0-3.17,0c-.6,0-.83-.19-.88-.82-.24-3.09-.26-3.08,2.8-3.08,1.87,0,3.74,0,5.61,0a2,2,0,0,1,2.12,1.06,2,2,0,0,0,.18.27c1.06,1.43.78,1.39,2.39.63a21.65,21.65,0,0,1,5.33-2.14,10,10,0,0,1,12.11,8,24.54,24.54,0,0,1,.32,5.9,34,34,0,0,1-1.26,9.34,18.38,18.38,0,0,1-1,2.69c-2.05,4.25-5.64,6.06-10.27,5.18a18.13,18.13,0,0,1-6.79-2.41.6.6,0,0,0-.25.64q0,6.49,0,13c0,1.09,0,1.09,1.18,1.11a14.84,14.84,0,0,1,1.76,0,2,2,0,0,1,0,4,7.17,7.17,0,0,1-1.12,0H154.62a6.82,6.82,0,0,1-1.12,0,1.89,1.89,0,0,1-1.68-2,1.85,1.85,0,0,1,1.72-2,23.42,23.42,0,0,1,2.88,0c.6,0,.9-.2.85-.83,0-.32,0-.64,0-1q0-18,0-35.92A3.05,3.05,0,0,0,157.14,37.75Zm19.26,11c0-.77-.06-2.06-.2-3.33a12.48,12.48,0,0,0-1.82-5.74,5.35,5.35,0,0,0-9,0A9.43,9.43,0,0,0,164,42.75a30.3,30.3,0,0,0-.43,10.51,12.69,12.69,0,0,0,1.55,5.34,5.46,5.46,0,0,0,9.41,0,10.22,10.22,0,0,0,1-2.51A29.14,29.14,0,0,0,176.4,48.78Z" transform="translate(0 -1.24)"/><path class="a" d="M239.48,49c-2.51,0-5,0-7.54,0-.82,0-1.13.24-1.1,1.09.05,1.82,0,3.63,0,5.45a7,7,0,0,0,.55,2.65A4.34,4.34,0,0,0,235.19,61a14.87,14.87,0,0,0,4.78-.28c2.91-.67,3.95-1.87,4.22-4.83.18-1.88.18-1.9,2.06-1.87s2.3-.52,2,2.16a18.35,18.35,0,0,1-.44,2.68,7.68,7.68,0,0,1-6.23,6,21.29,21.29,0,0,1-9.38-.19,9.65,9.65,0,0,1-6.94-6.09,20.78,20.78,0,0,1-1.35-5.42A32.87,32.87,0,0,1,224,42c1.12-5,4-7.64,9-8.37A20.22,20.22,0,0,1,241,34a8.59,8.59,0,0,1,6.52,6.39,32.89,32.89,0,0,1,.84,7.62c0,.78-.3,1-1,1-2.62,0-5.24,0-7.86,0Zm-2.87-3.19v0c1.65,0,3.3,0,5,0,.86,0,1.09-.32,1.08-1.13a19.75,19.75,0,0,0-.29-3.66,4.43,4.43,0,0,0-2.68-3.53,9.51,9.51,0,0,0-6.72-.17,2.76,2.76,0,0,0-2,2.77c0,1.54,0,3.09-.1,4.63,0,.87.33,1.09,1.13,1.07C233.51,45.81,235.06,45.84,236.6,45.84Z" transform="translate(0 -1.24)"/><path class="a" d="M391.25,49H384c-1.44,0-1.44,0-1.45,1.51q0,2.57,0,5.13a6.16,6.16,0,0,0,.86,3.21A4.24,4.24,0,0,0,386.84,61a15.16,15.16,0,0,0,5.41-.41,4.32,4.32,0,0,0,3.55-4.36C396,54,396,54,398.08,54s2,0,1.87,2a13.69,13.69,0,0,1-.48,2.84,7.65,7.65,0,0,1-6.23,6,21.34,21.34,0,0,1-9.38-.19,9.7,9.7,0,0,1-7-6.25,24.73,24.73,0,0,1-1.5-7.19,29.3,29.3,0,0,1,.46-9.73c1.2-4.69,4-7.18,8.8-7.87a22.31,22.31,0,0,1,6.87.1c4.51.74,7.17,3.38,8.07,8a36.31,36.31,0,0,1,.45,6.39c0,.82-.33,1-1.05,1C396.38,49,393.81,49,391.25,49Zm-3-3.19h0c1.71,0,3.42,0,5.12,0,.6,0,.9-.21.89-.83a19.46,19.46,0,0,0-.29-4.14,4.43,4.43,0,0,0-2.69-3.36,9.51,9.51,0,0,0-6.58-.18,2.79,2.79,0,0,0-2.11,2.87c0,1.49,0,3,0,4.48,0,1.09,0,1.11,1.19,1.13C385.27,45.86,386.77,45.84,388.26,45.84Z" transform="translate(0 -1.24)"/><path class="a" d="M106.67,49c-2.51,0-5,0-7.53,0C98,49,98,49.07,98,50.2c0,1.76,0,3.53,0,5.29a7,7,0,0,0,.36,2.21,4.42,4.42,0,0,0,4,3.35,15.18,15.18,0,0,0,5.09-.37c2.4-.62,3.37-1.75,3.76-4.19.12-.78-.25-1.83.37-2.28s1.66-.11,2.51-.15h.48c.59,0,.91.2.87.84a15,15,0,0,1-1.27,5.91,7.83,7.83,0,0,1-6.4,4.25,22.2,22.2,0,0,1-8.44-.35,9.72,9.72,0,0,1-7-6.05A20.78,20.78,0,0,1,91,53.38a37.29,37.29,0,0,1-.15-10.22c.84-5.79,3.83-8.76,9.69-9.58a19.28,19.28,0,0,1,7.63.46,8.6,8.6,0,0,1,6.43,6.29,32.33,32.33,0,0,1,.85,7.78c0,.85-.45.93-1.12.93C111.8,49,109.23,49,106.67,49Zm-2.83-3.19v0c1.65,0,3.3,0,5,0,.65,0,1-.19,1-.91a18.07,18.07,0,0,0-.36-4.13,4.38,4.38,0,0,0-2.87-3.38,9.87,9.87,0,0,0-6.28-.14,2.88,2.88,0,0,0-2.22,3c0,1.49,0,3-.07,4.48,0,.81.23,1.15,1.08,1.12C100.64,45.81,102.24,45.84,103.84,45.84Z" transform="translate(0 -1.24)"/><path class="a" d="M304.51,34.41c.34-.45.2-1,.36-1.51a1.91,1.91,0,0,1,2-1.44,1.7,1.7,0,0,1,1.65,1.66c.1,1.06.07,2.13.07,3.2,0,1.76,0,3.53,0,5.29,0,1.1,0,1.1-1.17,1.13h-.16a6.14,6.14,0,0,1-2.37-.1c-.74-.36-.41-1.42-.6-2.16A4.19,4.19,0,0,0,301,37.15a9.64,9.64,0,0,0-6.28.44,5,5,0,0,0-2.24,6.94,3.77,3.77,0,0,0,2.43,1.7,34.9,34.9,0,0,0,4.12.6,15.79,15.79,0,0,1,6,2.06,9,9,0,0,1,2.75,12.27,8.36,8.36,0,0,1-5.67,3.58,23.31,23.31,0,0,1-6.87.31,8.64,8.64,0,0,1-3.85-1.32c-.46.34-.28.75-.38,1.09a2,2,0,0,1-2.14,1.56,1.9,1.9,0,0,1-1.84-1.87,7.17,7.17,0,0,1,0-.8c0-2.51,0-5,0-7.54,0-1.36,0-1.36,1.43-1.38h.16c.85.05,1.86-.32,2.51.18s.23,1.5.36,2.28c.43,2.6,1.55,3.7,4.18,4.09a14.35,14.35,0,0,0,3.19.22,5.29,5.29,0,0,0,4.8-3.2,4,4,0,0,0-1.53-5.2A7.54,7.54,0,0,0,298.39,52a19.63,19.63,0,0,1-3.8-.55c-4.56-1.19-7.39-4.61-7.13-10,.23-4.58,3.28-7.67,8-8.34C298.94,32.58,300.66,32.84,304.51,34.41Z" transform="translate(0 -1.24)"/><path class="a" d="M141.56,34.45a15.21,15.21,0,0,1,.34-1.69,1.84,1.84,0,0,1,2-1.3,1.74,1.74,0,0,1,1.63,1.5,5.33,5.33,0,0,1,.1,1.11c0,2.51,0,5,0,7.54,0,1.11,0,1.11-1.17,1.14h-.32c-.8,0-1.74.29-2.35-.15s-.31-1.39-.49-2.1A4.16,4.16,0,0,0,138,37.15a9.64,9.64,0,0,0-6.28.43,5,5,0,0,0-2.26,6.94,3.75,3.75,0,0,0,2.42,1.71,33.78,33.78,0,0,0,4.12.6,15.76,15.76,0,0,1,6,2.05,9,9,0,0,1,2.77,12.27,8.35,8.35,0,0,1-5.67,3.59,24.11,24.11,0,0,1-6.87.32,9.7,9.7,0,0,1-3.88-1.31c-.44.31-.26.73-.36,1.06a2,2,0,0,1-2.13,1.57,1.9,1.9,0,0,1-1.85-1.86,5.26,5.26,0,0,1,0-.64c0-2.62,0-5.24,0-7.86,0-1.2,0-1.2,1.26-1.22h.32c.85.05,1.86-.32,2.51.17s.24,1.5.37,2.27c.43,2.6,1.55,3.71,4.18,4.1a14.57,14.57,0,0,0,3.19.22,5.31,5.31,0,0,0,4.74-3A4.06,4.06,0,0,0,139,53.06,7.67,7.67,0,0,0,135.37,52a18.42,18.42,0,0,1-3.8-.55,9.17,9.17,0,0,1-7.15-10c.3-4.58,3.28-7.68,8-8.35C135.91,32.58,137.69,32.85,141.56,34.45Z" transform="translate(0 -1.24)"/><path class="a" d="M261.15,54.91c.25.95.16,1.92.35,2.86a4,4,0,0,0,3.34,3.44,14.46,14.46,0,0,0,4,.34,5.29,5.29,0,0,0,5-4.18,3.89,3.89,0,0,0-1.74-4.17A7.7,7.7,0,0,0,268.35,52c-1-.09-1.92-.16-2.87-.32-5.22-.88-8.26-4.56-8.18-9.86.08-4.77,3.17-8.11,8.11-8.76,3.07-.4,6.09-.35,8.88,1.46.4-.5.28-1.06.42-1.54a1.9,1.9,0,0,1,2-1.53A1.78,1.78,0,0,1,278.43,33a4.76,4.76,0,0,1,.08,1c0,2.51,0,5,0,7.54,0,1.19,0,1.19-1.25,1.22h-.48a5.28,5.28,0,0,1-2.06-.1c-.65-.32-.35-1.25-.48-1.89a4.3,4.3,0,0,0-3.7-3.7,9.63,9.63,0,0,0-6,.55,5,5,0,0,0-2.17,7,3.69,3.69,0,0,0,2.29,1.63,32.77,32.77,0,0,0,4.28.64,16,16,0,0,1,5.74,1.91,9,9,0,0,1,3.13,12.18,8.4,8.4,0,0,1-6,3.85,25.2,25.2,0,0,1-6.39.3,11.24,11.24,0,0,1-4.19-1.32c-.36.3-.21.65-.29.94a2,2,0,0,1-2.21,1.66A1.83,1.83,0,0,1,257,64.46c-.07-1.71,0-3.42,0-5.13,0-1.23,0-2.46,0-3.69,0-.61.22-.88.85-.85A23.62,23.62,0,0,1,261.15,54.91Z" transform="translate(0 -1.24)"/><path class="a" d="M354.49,57.44c.64-.33.58-1,.72-1.42,1.66-5.58,3.25-11.17,4.93-16.74a2.06,2.06,0,0,0-.53-2.43,13.07,13.07,0,0,1-1-1.22,1.33,1.33,0,0,1-.15-1.36c.17-.59.67-.43,1.07-.43,2.62,0,5.24,0,7.86,0,.82,0,1.18.26,1.11,1.11s.33,1.86-.13,2.51-1.5.23-2.27.21-1,.56-1.21,1.19q-2.18,7-4.39,14.06c-1.13,3.62-2.27,7.23-3.36,10.86-.25.83-.56,1.26-1.53,1.19a40.12,40.12,0,0,0-4.33,0,1.24,1.24,0,0,1-1.46-1.06c-1.32-4.34-2.72-8.66-4.09-13q-1.89-6-3.77-11.91c-.42-1.33-.43-1.34-1.73-1.31-2.41.05-2.09.29-2.12-2.11,0-.05,0-.11,0-.16,0-1.57,0-1.58,1.58-1.58q5,0,9.94,0c.4,0,1-.19,1.16.28a1.42,1.42,0,0,1-.21,1.65,1.4,1.4,0,0,1-.1.12c-1.64,1.3-1.48,2.81-.89,4.66,1.69,5.34,3.17,10.75,4.73,16.13Z" transform="translate(0 -1.24)"/><path class="a" d="M201.32,37c3.06-2.95,6.45-4.08,10.42-3a5,5,0,0,1,3.92,5,9.35,9.35,0,0,1-.38,2.85c-.39,1.4-2.3,2.45-4.16,2.37a3.26,3.26,0,0,1-3.31-3.06,9.72,9.72,0,0,1,.06-2.08c.07-.9-.05-1-1-.95a3.86,3.86,0,0,0-3.3,2.21,10.63,10.63,0,0,0-1,3.84,80.06,80.06,0,0,0-.3,8.65c0,2.24,0,4.49,0,6.73,0,.79.17,1.21,1.05,1.11a17.42,17.42,0,0,1,1.92,0c1.18,0,1.18,0,1.22,1.26.08,2.6.08,2.6-2.58,2.6-3.9,0-7.8,0-11.7,0-1.12,0-1.12,0-1.15-1.16-.08-2.71-.08-2.7,2.65-2.68.32,0,.64,0,1,0,.47,0,.68-.21.66-.67s0-.64,0-1q0-9.86,0-19.72a4.64,4.64,0,0,1,0-.64c.13-.92-.37-1.09-1.14-1s-1.5,0-2.24.07-.95-.25-.92-.93,0-1.39,0-2.08.12-.9.78-.89q3.61,0,7.21,0a1.09,1.09,0,0,1,1.11.71C200.43,35.35,200.86,36.14,201.32,37Z" transform="translate(0 -1.24)"/><path class="a" d="M327.67,47.23c0,4.06,0,8.13,0,12.19,0,1.2,0,1.21,1.25,1.23.69,0,1.39,0,2.08,0s.87.3.9,1c.14,2.93.16,2.93-2.78,2.93H317.58c-1.23,0-1.23,0-1.27-1.23-.08-2.64-.08-2.64,2.57-2.65,2,0,1.8.24,1.8-1.8q0-9.62,0-19.25c0-.21,0-.43,0-.64,0-1.15,0-1.16-1.13-1.19-.75,0-1.5,0-2.25,0s-1-.31-1-1c.06-3.58-.38-2.83,2.68-2.89,2.35,0,4.71,0,7.06,0,1.93,0,1.62.12,1.62,1.69C327.67,39.42,327.67,43.33,327.67,47.23Z" transform="translate(0 -1.24)"/><path class="a" d="M323.57,25.73a3.92,3.92,0,0,1-3.93-4.13,4,4,0,0,1,4-3.92,4.13,4.13,0,0,1,4,4A4.06,4.06,0,0,1,323.57,25.73Z" transform="translate(0 -1.24)"/></svg>