<svg xmlns="http://www.w3.org/2000/svg" viewBox="0 0 1214 361">
  <g fill="#FFF" fill-rule="nonzero">
    <path d="M527.102 209.835c16.895-17.364 37.185-39.587 38.096-65.398.525-14.548-14.08-30.946-27.91-17.64-13.167 12.67-2.54 31.222 12.48 34.34 18.853 3.95 49.69 8.283 63.326-8.805l-18.026-13.803c-9.352 12.636-17.216 26.308-23.438 40.745-3.92 9.193-11.042 23.05-8.557 33.54 4.555 20.016 30.863 31.444 48.75 27.828 14.467-2.926 8.283-25.038-6.1-22.085-5.52 1.077-18.136-4.748-19.71-11.042-1.02-3.948 7.012-20.428 8.144-22.913 5.673-12.202 12.593-23.784 20.65-34.562 7.618-10.407-9.94-24.127-18.028-13.802-8.09 10.324-37.848 4.665-48.366.994l8.006 8.005-14.88 2.32-1.656 5.88c-3.258 5.217-5.025 11.042-8.558 16.342-6.148 8.56-13.03 16.567-20.566 23.933-10.297 10.6 5.907 26.833 16.232 16.232l.11-.11zM937.214 86.88c-14.3 0-21.256 17.17-21.256 29.012 0 7.758 6.128 12.257 13.5 12.257 12.67 0 21.67-12.258 21.67-24.1 0-8.172-4.5-17.17-13.914-17.17zM268.242 203.458c-1.53.075-3.043.354-4.5.828C214.303 223.196 162.79 237 109.62 237c-17.172 0-84.613-4.087-84.613-27.8s46.654-46.737 65.04-53.14c13.757-4.857 28.018-8.144 42.513-9.8 2.987-.343 5.993-.482 9-.415 12.67 0 24.844 2.457 37.598 2.457 6.957 0 14.714-3.672 14.714-11.843 0-13.804-23.3-15.13-33.127-15.13-11.397.19-22.753 1.42-33.927 3.672-19.628-3.67-94.412-21.67-94.412-49.856 0-8.585 8.585-15.542 14.714-20.014 21.256-15.542 62.113-20.428 87.455-20.428 29.428 0 82.955 7.343 101.34 33.927-2.75 1.22-4.515 3.95-4.5 6.958 0 7.343 8.587 9 14.3 9 8.586 0 22.472-4.086 22.472-14.715-.21-3.12-1.345-6.11-3.257-8.585-27.8-37.185-85-46.93-128.312-46.93-36.385 0-128.312 11.042-128.312 60.484 0 34.342 52.313 53.528 78.87 60.9C56.81 146.78.136 175.38.136 213.81c0 42.513 75.197 42.9 104.625 42.9 25.757 0 172.454-15.93 172.454-44.17 0-4.973-4-9.02-8.972-9.082zM358.513 202.823c-4.858-20.594-27.274-37.682-41.657-51.264 3.258-9.8 7.343-21.257 7.343-31.886 0-6.956-2.043-13.085-10.215-13.085-13.803 0-23.3 24.844-23.3 36.384-.11 4.91.83 9.785 2.76 14.3-3.67 9-11.04 19.627-11.04 29.84-.21 2.116.54 4.213 2.043 5.715 1.502 1.5 3.6 2.25 5.713 2.043 7.76 0 14.3-15.93 17.586-22.085 10.214 8.585 31.885 25.342 31.885 39.642.093 2.946-.463 5.877-1.628 8.585-6.91 4.982-15.196 7.693-23.713 7.758-11.043 0-17.586-6.543-22.472-6.543-4.952.268-8.774 4.458-8.586 9.414 0 14.713 22.085 21.256 33.928 21.256 14.088-.578 27.18-7.422 35.694-18.66 4.11-7.835 6.242-16.553 6.212-25.4 0-1.628-.277-3.808-.553-6.017zM455.686 132.345c-17.97 0-35.142 8.586-48.642 19.628-.414-8.585.415-43.727-12.67-43.727-6.13 0-11.844 6.956-11.844 12.67-.063.84.08 1.684.415 2.458 2.914 15.772 4.42 31.773 4.5 47.813.066 2.19-.073 4.38-.415 6.542-2.8 4.143-5.372 8.438-7.702 12.864l-.165.22-.36.663-.137.276c-1.243 2.926-2.485 5.88-3.92 8.75-1.795 4.06-3.672 8.062-5.328 12.175-.47 1.132-.8 2.32-1.215 3.45-1.215 4.335-2.208 8.697-3.45 13.03l-.498 1.63c-.3 1.866-.725 3.71-1.27 5.52-3.56 15.543-5.41 31.428-5.52 47.373 0 18.386 6.956 76.414 31.47 76.414 6.957 0 11.042-5.3 13.085-11.457 5.715-20.842 5.328-98.912 5.715-123.01 12.677 5.366 26.29 8.18 40.056 8.28 7.504-.05 14.98-.89 22.306-2.512.526-.143 1.042-.318 1.546-.524 5.124-2.42 9.62-5.992 13.14-10.434 3.79-4.533 7.04-9.49 9.69-14.77 1.546-3.064 2.76-6.238 4.39-9.137 1.13-3.575 1.734-7.295 1.794-11.043-.028-28.214-13.5-53.142-44.97-53.142zm-70.008 196.582c-6.543-13.086-8.282-38.014-8.282-52.314-.317-20.863 3.58-41.576 11.456-60.898.22 37.6-.193 75.612-3.174 113.212zm54.77-116.47c-8.282 0-30.367-4.085-32.686-13.085-.34-3.116-.48-6.25-.414-9.386-.066-3.005.072-6.012.414-9 2.043-13.802 29.842-26.556 42.9-26.556 18.8 0 27.385 17.97 27.385 34.728.11 19.214-22.36 23.3-37.49 23.3h-.11zM936.36 226.15h-.774c-10.215 0-10.215-11.042-10.215-18.385 0-17.585 7.76-38.814 7.76-50.685.205-2.733-.732-5.43-2.59-7.445-1.86-2.015-4.47-3.168-7.21-3.183-12.59 0-17.145 23.217-18.746 42.044l.635 35.446c2.76 12.284 9.496 22.305 24.458 22.94 2.383-.723 4.7-1.647 6.93-2.76 1.937-4.472 2.605-9.39 1.93-14.218-.56-1.34-1.294-2.602-2.18-3.754zM1020.115 145.9c-1.69-.014-3.363.324-4.914.994-1.465 2.17-2.566 4.567-3.257 7.094-.276.967-.33 1.96-.524 2.954 1.256 10.537 1.928 21.136 2.014 31.747.405 2.838.303 5.726-.304 8.53v.192c0 9.8-18.468 32.52-26.556 31.885-9-.718-15.93-16.757-15.93-26.143 0-22.885 16.344-49.442 16.344-53.94-.397-5.47-4.746-9.82-10.214-10.216-14.41 0-23.52 28.49-27.192 48.78v.22c0 .94-.332 1.85-.387 2.76-.193 3.066-.276 6.13-.386 9.194.22 2.595.413 5.19.69 7.757.468 4.25 1.545 8.28 2.4 12.532 7.537 16.095 23.852 28.793 31.527 28.683 10.407-.166 39.227-19.324 46.598-38.013h.193c.332-.8.718-1.602 1.105-2.43.745-2.263 1.628-4.5 2.236-6.874 1.02-4.085 1.434-8.28 2.51-12.395 0 0 0-.248.14-.386.78-4.485 1.177-9.03 1.186-13.582-.22-10.85-2.982-29.345-17.28-29.345zM1151.325 176.266c-4.086 0-4.914 1.215-7.343 4.5-12.257 16.343-26.97 35.556-49.856 35.556-12.67 0-21.257-7.757-24.1-20.014 24.1-.828 48.64-24.845 48.64-49.442 0-13.803-8.28-24.514-22.47-24.514-29.013 0-46.93 34.038-48.862 60.54l-.276.36c0 4.416.36 8.97.828 13.553 0 0 .138 0 .166.248.303 1.52.58 3.037.828 4.555.72 1.97 1.21 4.018 1.463 6.1l.304-.192c6.183 17.31 20.428 30.367 41.077 30.367 26.97 0 55.57-24.846 67.027-48.228.828-1.353 1.25-2.914 1.216-4.5.044-2.327-.844-4.576-2.467-6.246-1.624-1.67-3.847-2.622-6.175-2.644zm-58.44-34.728c3.67 0 5.713 7.343 5.713 10.214 0 11.043-13.472 23.3-24.514 23.3-1.665-.076-3.316-.354-4.914-.83 1.132-11.068 9.414-32.71 23.714-32.71v.026zM1197.096 194.624c5.328 0 11.843-4.5 11.843-10.214-.158-2.187-1.146-4.232-2.762-5.714-3.672-9-3.672-46.93-3.672-58.856 0-36.77 6.543-71.527 6.957-107.884v-2.76c0-4.914-5.328-8.586-9.8-8.586-8.282 0-13.085 6.543-13.5 13.803-2.76 40.47-4.913 81.74-4.913 122.598-.083 13.887-3.782 57.614 15.846 57.614zM1199.138 214.666c-9 0-21.67 15.128-21.67 23.713.534 8.662 7.665 15.442 16.343 15.54 11.043 0 20.015-13.8 20.015-24.098-.203-8.106-6.592-14.7-14.687-15.156zM850.477 153.768c3.257-9.8 7.343-21.257 7.343-31.885 0-6.957-2.043-13.085-10.214-13.085-13.803 0-23.3 24.845-23.3 36.384-.11 4.91.832 9.785 2.76 14.3-2.76 6.736-7.563 14.383-9.827 22.085-5.202 9.036-11.518 17.383-18.8 24.845-4.086-21.257-27.385-38.814-42.1-52.727 3.258-9.8 7.344-21.257 7.344-31.885 0-6.957-2.043-13.085-10.214-13.085-13.803 0-23.3 24.845-23.3 36.384-.11 4.908.832 9.784 2.76 14.3-2.76 6.597-7.342 14.05-9.66 21.587-12.203 16.26-26.86 35.197-49.69 35.197-12.672 0-21.258-7.757-24.1-20.014 24.1-.828 48.64-24.845 48.64-49.442 0-13.803-8.28-24.514-22.47-24.514-27.745 0-45.385 31.112-48.504 57.034-1.062 5.99-1.062 12.12 0 18.11.723 5.91 2.6 11.622 5.52 16.81.075.344.186.677.332.995 1.16 2.124 2.548 4.114 4.14 5.935.173.162.357.31.553.442 7.847 10.457 20.222 16.53 33.294 16.343 25.535 0 52.45-22.334 65.01-44.473 4.805-5.08 8.697-14.162 11.044-18.47 10.214 8.587 31.885 25.343 31.885 39.643.22 2.927-.205 5.867-1.243 8.613-6.91 4.98-15.196 7.69-23.713 7.757-11.042 0-17.585-6.542-22.47-6.542-4.953.27-8.775 4.46-8.587 9.414 0 14.714 22.085 21.257 33.928 21.257 15.868-.595 30.344-9.217 38.427-22.884 9.386-5.825 27.965-24.183 35.308-38.87 4.748-5.08 8.613-14.078 10.877-18.357 10.214 8.584 31.884 25.34 31.884 39.64.093 2.947-.463 5.878-1.628 8.586-6.91 4.98-15.196 7.69-23.714 7.757-11.042 0-17.585-6.542-22.47-6.542-4.953.27-8.774 4.46-8.586 9.414 0 14.714 22.084 21.257 33.927 21.257 14.392-.567 27.734-7.685 36.22-19.323 3.627-8.297 5.506-17.253 5.52-26.308v-2.762c-4.113-21.45-27.412-39.035-42.126-52.92zm-177.7-12.257c3.673 0 5.716 7.344 5.716 10.215 0 11.042-13.472 23.3-24.514 23.3-1.667-.077-3.317-.355-4.915-.83 1.16-11.04 9.33-32.684 23.713-32.684z"/>
  </g>
</svg>
