<svg xmlns="http://www.w3.org/2000/svg" viewBox="0 0 84 69" class="primary icon">
  <path fill="#ccc" fill-rule="evenodd" d="M66.6.7H17.3c-.5 0-1 .3-1.4.8L0 22.3c0 .7 0 1.7.2 2.4l40 43.5v.2s.6 0 .6.2h.3v.2h2s.5 0 .6-.2 0-.2.4-.2V68l40-43c.7 0 .7-1 .2-2l-16-21c-.3-.5-1-.8-1.6-.8zM20.2 4.5h18L25.6 19.7 20.2 4.5zm26 0H64l-5.5 15.2L46 4.5zm-4 1l13 16H29l13-16zM17 6.5l5.3 15H6l11-15zm50.2 0l10.8 15H62l5.5-15zm-60.6 19h17.2L36.6 58l-30-32.7zm21.3 0h28L42 61.7 28 25.3zm32 0h17L47 58l13-32.7z"/>
</svg>
