<svg viewBox="0 0 100 100" xmlns="http://www.w3.org/2000/svg" class="primary icon">
  <path d="M82.843 15.45c7.11 8.224 10.554 18.19 10.252 29.652 1.87 1.475 2.947 3.757 2.904 6.158v11.157c.015 2.77-1.445 5.336-3.82 6.707-1.925 1.212-4.12 1.905-6.38 2.014h-.554c-2.677.028-5.097-1.608-6.1-4.123-.568-1.337-.9-2.765-.978-4.218l.22-13.772c.28-2.874 2.21-5.307 4.92-6.2-.053-4.847-1.203-9.616-3.36-13.942-5.36-10.64-13.874-16.872-25.31-18.612-17.827-2.68-34.49 9.59-37.47 27.6-.214 1.443-.343 2.898-.384 4.356v.622c2.252.716 3.99 2.544 4.61 4.85.335 1.1.507 2.245.51 3.397V62.45c-.024 1.214-.228 2.42-.603 3.573-.442 1.462-1.322 2.748-2.52 3.68.824 9.928 9.008 17.565 18.84 17.58h2.467c.87-1.556 2.5-2.515 4.265-2.51h9.42c2.712 0 4.91 2.228 4.91 4.977v5.273c0 2.75-2.198 4.977-4.91 4.977h-9.42c-1.775-.012-3.404-.997-4.257-2.573H37.63C22.318 97.402 9.68 85.28 8.814 69.787c-.517-.263-1.01-.57-1.478-.916-1.996-1.345-3.222-3.59-3.29-6.02-.062-3.826-.062-7.865 0-12.01.03-2.277 1.093-4.413 2.884-5.79-.4-11.37 3.638-22.44 11.24-30.812C24.12 7.34 32.184 2.67 41.067.97c16.6-3.237 30.682 1.635 41.776 14.48zM70.01 46.43c-.002 3.055-1.208 5.982-3.35 8.13L51.245 70.2c-.324.328-.764.513-1.223.513-.46 0-.9-.185-1.223-.514L33.353 54.53c-3.11-2.846-4.42-7.196-3.406-11.316 1.012-4.12 4.186-7.337 8.25-8.368 4.067-1.03 8.36.294 11.17 3.444l.636.643.625-.633c3.243-3.297 8.13-4.286 12.374-2.505 4.245 1.78 7.01 5.98 7.005 10.636z"
  fill="#FFF" fill-rule="evenodd" />
</svg>