<svg xmlns="http://www.w3.org/2000/svg" viewBox="0 0 96 96" class="primary barista icon">
  <g fill="#F00">
    <path d="M46.16 33.29c1-9.05 20.93-4.53 16.78-16.27-.64-1.8-3.5-1-2.87.79 1.82 5.15-5.1 5.77-8.62 7-4.23 1.41-7.74 3.79-8.26 8.52-.22 1.9 2.76 1.88 3 0"/>
    <path d="M60.31 27c-3.89.92-7.43 2.59-8.65 6.69-.54 1.84 2.32 2.62 2.87.78 1.34-4.52 7.26-4.6 11-5.7 4.07-1.18 6.39-4 5.83-8.33-.25-1.88-3.21-1.9-3 0 .75 5.19-4.06 5.56-8.05 6.56m-4.75 36.2c-1.99 5.87-7.497 9.82-13.695 9.82S30.16 69.07 28.17 63.2c-.09-.277-.04-.58.13-.816.168-.236.44-.38.73-.384H54.7c.283.032.54.184.703.417.165.233.222.525.157.803M34.07 49.58c1.117-.004 2.127.666 2.557 1.697.43 1.03.197 2.22-.592 3.01-.788.792-1.976 1.03-3.01.604-1.03-.422-1.705-1.43-1.705-2.55-.003-.73.286-1.43.802-1.95s1.217-.81 1.948-.81m15.58 0c1.117 0 2.127.67 2.557 1.7.43 1.03.197 2.22-.592 3.01-.788.79-1.976 1.03-3.01.605-1.03-.426-1.705-1.433-1.705-2.55-.003-.73.286-1.433.802-1.95.516-.52 1.217-.81 1.948-.81m17.25.83c4.41 1 5.2 3.19 5.15 6-.06 3.18-1 5.34-7 6.08 1.042-3.95 1.662-8 1.85-12.08m-3.68 17C73.8 67 78.5 62.19 78.5 56.29c0-5.12-3.55-9.44-11.41-10.76v-5.47H17c0 11.23 0 27.54 10.08 35.32C20.97 75.85 17 76.6 17 77.43 17 78.85 28.22 80 42.06 80c13.84 0 25.07-1.15 25.07-2.57 0-.83-4-1.58-10.08-2.05 2.667-2.115 4.783-4.842 6.17-7.95"/>
  </g>
</svg>