<svg xmlns="http://www.w3.org/2000/svg" viewBox="0 0 96 96" class="primary barista icon">
  <g fill="#F00">
    <path d="M46.08 33.24c1-9 20.87-4.51 16.73-16.22-.64-1.79-3.49-1-2.86.79 1.82 5.13-5.08 5.76-8.6 6.93-4.22 1.41-7.72 3.77-8.23 8.5-.22 1.9 2.75 1.88 3 0"/>
    <path d="M60.19 26.92c-3.87.92-7.41 2.58-8.62 6.66-.54 1.84 2.31 2.62 2.86.78 1.33-4.51 7.24-4.58 11-5.69 4.06-1.17 6.37-4 5.82-8.31-.24-1.87-3.2-1.9-3 0 .67 5.22-4.13 5.6-8.11 6.54m-5.88 36.44c-2.21 3.9-7.49 6.4-13.42 5.91-5.93-.49-10.73-3.83-12.27-8-.14-.35.18-.84.88-.8l24.08 2c.54 0 .94.56.73.93M33.84 46.92c1.113-.004 2.12.663 2.548 1.69.43 1.028.196 2.212-.59 3-.786.79-1.97 1.027-2.998.602-1.03-.425-1.7-1.43-1.7-2.542 0-1.515 1.225-2.744 2.74-2.75m16.46 1.62c1.113-.004 2.12.663 2.548 1.69.43 1.028.196 2.212-.59 3-.786.79-1.97 1.027-2.998.602-1.03-.425-1.7-1.43-1.7-2.542-.003-.728.285-1.428.8-1.944.513-.516 1.212-.806 1.94-.806m16.46 1.76c4.4 1 5.18 3.18 5.13 6-.06 3.17-1 5.32-7 6.06 1.038-3.924 1.658-7.946 1.85-12m-3.67 17c10.57-.55 15.26-5.31 15.26-11.19 0-5.11-3.54-9.41-11.37-10.73v-5.45L17 38.81c0 11.2 0 28.58 10 36.35-6.09.47-10 1.21-10 2 0 1.5 11.19 2.65 25 2.65s25-1.15 25-2.56c0-.83-4-1.58-10-2 2.662-2.11 4.775-4.83 6.16-7.93"/>
  </g>
</svg>