<svg xmlns="http://www.w3.org/2000/svg" viewBox="0 0 96 96" class="primary barista icon">
  <g fill="#F00">
    <path d="M46.16 33.29c1-9.05 20.93-4.53 16.78-16.27-.64-1.8-3.5-1-2.87.79 1.82 5.15-5.1 5.77-8.62 7-4.23 1.41-7.74 3.79-8.26 8.52-.21 1.87 2.76 1.84 2.97-.04z"/>
    <path d="M60.31 27c-3.89.92-7.43 2.58-8.65 6.68-.54 1.84 2.32 2.62 2.87.79 1.34-4.52 7.26-4.6 11-5.7 4.07-1.18 6.39-4 5.83-8.33-.25-1.88-3.21-1.9-3 0 .75 5.19-4.06 5.56-8.05 6.56zm2.92 40.43C73.8 67 78.5 62.19 78.5 56.29c0-5.12-3.55-9.44-11.41-10.76v-5.47L17 37.39c0 11.23 0 30.2 10.08 38-6.11.47-10.08 1.22-10.08 2.05C17 78.85 28.22 80 42.06 80c13.84 0 25.07-1.15 25.07-2.57 0-.83-4-1.58-10.08-2.05 2.67-2.113 4.79-4.84 6.18-7.95zm3.68-17c4.41 1 5.2 3.19 5.15 6-.06 3.18-1 5.34-7 6.08 1.04-3.957 1.656-8.013 1.84-12.1l.01.02zM45.39 68.9c-1.056.453-2.19.69-3.34.7-1.713 0-3.378-.562-4.74-1.6-.455-.404-.508-1.096-.12-1.565.388-.47 1.078-.546 1.56-.175 1.693 1.2 3.898 1.402 5.78.53.558-.174 1.157.107 1.38.647.223.54-.002 1.162-.52 1.433v.03zm7.88-6.25c-6.25-.59-7-4.27-7-4.27-.6-1.53-.79-6.92-.79-6.92-.01-.154-.004-.308.02-.46l-1.37-.85c-.755-.395-1.635-.477-2.45-.23l-1.5.58c.002.172-.018.343-.06.51 0 0-1.19 5.26-2.06 6.65 0 0-1.42 3.48-7.67 2.89-6.25-.59-7-4.27-7-4.27-.6-1.53-.79-6.92-.79-6.92s-.45-4.52 9.18-3.62c4.86.45 6.94 1.79 7.81 3l1.43-.56c1.355-.465 2.844-.327 4.09.38l1.3.81c1.08-1 3.37-2 8.23-1.5 9.63.9 8.34 5.26 8.34 5.26s-1.19 5.26-2.06 6.65c.02-.02-1.42 3.46-7.65 2.87z"/>
  </g>
</svg>