<svg xmlns="http://www.w3.org/2000/svg" viewBox="0 0 96 96" class="primary barista icon">
  <g fill="#F00">
    <path d="M46.17 32.79c1-9.05 20.93-4.53 16.78-16.27-.64-1.8-3.5-1-2.87.79 1.82 5.15-5.1 5.77-8.62 7-4.23 1.41-7.74 3.79-8.26 8.52-.21 1.86 2.76 1.84 2.97-.04z"/>
    <path d="M60.32 26.5c-3.89.92-7.43 2.59-8.65 6.68-.54 1.85 2.32 2.62 2.87.79 1.34-4.52 7.26-4.6 11-5.7 4.07-1.18 6.39-4 5.83-8.33-.25-1.88-3.21-1.9-3 0 .75 5.19-4.06 5.56-8.05 6.56zm2.92 40.43c10.57-.43 15.27-5.24 15.27-11.14 0-5.13-3.55-9.44-11.41-10.76v-5.47L17 36.89c0 11.23 0 30.2 10.08 38-6.11.47-10.08 1.22-10.08 2.05 0 1.42 11.22 2.57 25.07 2.57s25.07-1.15 25.07-2.57c0-.83-4-1.58-10.08-2.05 2.672-2.116 4.792-4.847 6.18-7.96zm3.68-17c4.41 1 5.2 3.19 5.15 6-.06 3.18-1 5.34-7 6.08 1.04-3.957 1.657-8.013 1.84-12.1l.01.02zM46.06 68.44c-1.053.45-2.185.684-3.33.69-1.703.006-3.36-.546-4.72-1.57-.478-.395-.545-1.102-.15-1.58s1.102-.545 1.58-.15c1.686 1.196 3.884 1.398 5.76.53.574-.237 1.233.036 1.47.61.237.574-.036 1.233-.61 1.47zm7-7.41c-2.818-.13-5.416-1.56-7.03-3.875-1.614-2.313-2.06-5.246-1.21-7.935-1.087-1.1-2.844-1.156-4-.13.644 2.746-.024 5.635-1.808 7.82-1.785 2.183-4.483 3.414-7.302 3.33-4.63-.288-8.405-3.82-9-8.42-.72-.19-1.457-.296-2.2-.32l.07-2c.817.02 1.63-.127 2.39-.43 1.15-3.82 5.25-6.41 9.4-6.25 3.85.15 6.33 1.84 7.61 4.11.375.218.832.244 1.23.07.538-.245 1.12-.378 1.71-.39.65.05 1.282.23 1.86.53.332.173.728.173 1.06 0 1.45-2.16 4-3.66 7.89-3.53 4.15.15 8.05 3 8.92 6.93.735.356 1.534.56 2.35.6l-.07 2c-.737-.026-1.475.03-2.2.17-.943 4.566-5.008 7.812-9.67 7.72z"/>
    <path d="M32.31 43.96c-3.057-.12-5.885 1.616-7.163 4.395-1.28 2.78-.756 6.056 1.324 8.3 2.09 2.243 5.31 3.01 8.18 1.946 2.87-1.06 4.81-3.75 4.928-6.81.153-4.16-3.094-7.66-7.26-7.83zm.86 8.4c-.74-.042-1.382-.526-1.625-1.227-.243-.7-.04-1.478.515-1.97.555-.49 1.352-.6 2.018-.274.666.32 1.07 1.02 1.022 1.76-.028.48-.248.93-.61 1.25-.362.32-.837.482-1.32.452zm20.49-7.6c-3.057-.12-5.885 1.616-7.163 4.395-1.28 2.78-.756 6.056 1.324 8.3 2.09 2.243 5.31 3.01 8.18 1.946 2.87-1.06 4.81-3.75 4.928-6.81.153-4.16-3.094-7.66-7.26-7.83zm-2.8 8.68c-.74-.042-1.382-.526-1.625-1.227-.243-.7-.04-1.478.515-1.97.555-.49 1.352-.6 2.018-.274.666.32 1.07 1.02 1.022 1.76-.06 1-.918 1.76-1.92 1.71h-.01z"/>
  </g>
</svg>