<svg xmlns="http://www.w3.org/2000/svg" viewBox="0 0 96 96" class="primary barista icon">
  <g fill="#F00">
    <path d="M46.62 32.78c1-9 20.92-4.52 16.77-16.26-.64-1.79-3.5-1-2.86.79 1.82 5.15-5.1 5.77-8.62 7-4.23 1.41-7.73 3.78-8.25 8.52-.19 1.85 2.75 1.83 2.96-.05z"/>
    <path d="M60.76 26.5c-3.88.92-7.43 2.58-8.65 6.68-.54 1.85 2.32 2.62 2.86.78 1.33-4.52 7.26-4.6 11-5.7 4.07-1.18 6.39-4 5.83-8.33-.25-1.88-3.21-1.9-3 0 .76 5.2-4.05 5.57-8.04 6.57zM32.29 43.98c-3.052-.12-5.875 1.612-7.153 4.387-1.277 2.775-.757 6.046 1.32 8.287 2.074 2.24 5.295 3.01 8.16 1.95 2.864-1.06 4.807-3.742 4.923-6.794.158-4.163-3.087-7.667-7.25-7.83zm.86 8.4c-.74-.042-1.382-.526-1.625-1.227-.243-.7-.04-1.478.515-1.97.555-.49 1.352-.6 2.018-.274.666.322 1.07 1.02 1.022 1.76-.06 1-.918 1.764-1.92 1.71h-.01zm20.48-7.61c-3.058-.123-5.89 1.61-7.17 4.388-1.282 2.78-.76 6.057 1.318 8.302 2.08 2.246 5.307 3.016 8.176 1.952 2.87-1.064 4.814-3.754 4.926-6.812.158-4.163-3.087-7.667-7.25-7.83zm-2.79 8.73c-.74-.042-1.382-.526-1.625-1.227-.243-.7-.04-1.478.515-1.97.555-.49 1.352-.6 2.018-.274.666.322 1.07 1.02 1.022 1.76-.028.48-.248.932-.61 1.253-.362.32-.837.484-1.32.454z"/>
    <path d="M63.2 66.94c10.57-.44 15.27-5.24 15.27-11.14 0-5.12-3.55-9.43-11.4-10.76v-5.46L17 36.91c0 11.22 0 30.19 10.07 38-6.11.47-10.07 1.22-10.07 2.05 0 1.42 11.22 2.57 25.06 2.57 13.84 0 25.05-1.15 25.05-2.57 0-.83-4-1.58-10.07-2.05 2.666-2.12 4.78-4.856 6.16-7.97zm3.67-17c4.41 1 5.2 3.19 5.15 6-.06 3.18-1 5.34-7 6.08 1.047-3.956 1.67-8.012 1.86-12.1l-.01.02zM42.63 69.26c-.7-.045-1.23-.65-1.185-1.348.044-.7.647-1.23 1.346-1.187.7.044 1.236.646 1.19 1.345-.02.337-.172.652-.425.875-.253.224-.585.337-.922.315zm10.4-8.22c-2.814-.133-5.406-1.565-7.018-3.875-1.61-2.31-2.06-5.238-1.212-7.925-1.085-1.104-2.846-1.16-4-.13.644 2.74-.022 5.626-1.802 7.808-1.78 2.182-4.473 3.413-7.288 3.332-4.627-.287-8.4-3.813-9-8.41-.73-.2-1.483-.313-2.24-.34l.07-2c.817.02 1.63-.127 2.39-.43 1.15-3.81 5.25-6.4 9.4-6.25 3.85.15 6.33 1.84 7.61 4.11.375.218.832.244 1.23.07.538-.245 1.12-.378 1.71-.39.646.05 1.275.23 1.85.53.332.173.728.173 1.06 0 1.45-2.16 4-3.66 7.89-3.53 4.15.15 8 3 8.91 6.93.735.356 1.534.56 2.35.6l-.07 2c-.734-.025-1.47.032-2.19.17-.934 4.565-4.99 7.815-9.65 7.73z"/>
  </g>
</svg>