<svg xmlns="http://www.w3.org/2000/svg" viewBox="0 0 96 96" class="primary barista icon">
  <g fill="#F00">
    <path d="M45.746 26.26c1.477-13.293 30.898-6.676 24.768-24.015C69.57-.4 65.344.768 66.29 3.412c2.688 7.606-7.532 8.522-12.73 10.338-6.248 2.083-11.417 5.583-12.185 12.584-.28 2.732 4.06 2.702 4.37-.074z"/>
    <path d="M66.63 16.985c-5.73 1.358-10.973 3.81-12.775 9.865-.798 2.733 3.426 3.87 4.224 1.152 1.96-6.675 10.72-6.793 16.24-8.418 6.01-1.743 9.43-5.908 8.61-12.303-.37-2.77-4.74-2.8-4.43 0 1.12 7.68-5.98 8.23-11.88 9.71zM24.582 42.8c-4.507-.176-8.677 2.382-10.564 6.48-1.886 4.1-1.118 8.93 1.95 12.24 3.062 3.308 7.82 4.445 12.05 2.88 4.23-1.566 7.1-5.527 7.272-10.034.233-6.15-4.56-11.324-10.708-11.565zm1.27 12.407c-1.093-.062-2.04-.776-2.4-1.812-.36-1.034-.06-2.183.76-2.91.82-.723 1.998-.885 2.98-.404.985.48 1.582 1.51 1.51 2.6-.088 1.48-1.355 2.61-2.835 2.53h-.015zM56.1 43.967c-4.517-.18-8.7 2.38-10.59 6.482-1.893 4.1-1.122 8.94 1.947 12.26 3.072 3.31 7.838 4.45 12.075 2.88 4.24-1.57 7.11-5.55 7.275-10.06.234-6.15-4.56-11.33-10.707-11.57zm-4.12 12.895c-1.094-.062-2.042-.777-2.4-1.813-.36-1.04-.06-2.19.76-2.91.82-.73 1.996-.89 2.98-.41.984.47 1.58 1.5 1.51 2.6-.042.71-.367 1.37-.9 1.85-.536.47-1.238.71-1.95.67z"/>
    <path d="M70.234 76.71c15.61-.648 22.552-7.738 22.552-16.452 0-7.56-5.243-13.927-16.836-15.89v-8.065L2 32.36c0 16.57 0 44.587 14.873 56.12C7.85 89.177 2 90.284 2 91.51c0 2.097 16.57 3.796 37.012 3.796 20.44 0 36.997-1.7 36.997-3.796 0-1.226-5.91-2.333-14.88-3.028 3.93-3.13 7.06-7.17 9.1-11.77zm5.42-25.106c6.513 1.477 7.68 4.71 7.606 8.86-.088 4.698-1.477 7.888-10.338 8.98 1.546-5.842 2.466-11.832 2.747-17.87l-.02.03zm-35.8 28.534c-1.034-.067-1.817-.96-1.75-1.99.064-1.035.955-1.818 1.987-1.754 1.04.065 1.83.954 1.76 1.986-.03.498-.25.963-.63 1.293-.37.33-.86.497-1.36.465zm15.36-12.14c-4.157-.197-7.985-2.312-10.366-5.724-2.377-3.41-3.042-7.736-1.79-11.704-1.602-1.63-4.203-1.713-5.907-.192.96 4.047-.03 8.31-2.66 11.532-2.63 3.222-6.6 5.04-10.76 4.92-6.83-.423-12.4-5.63-13.29-12.42-1.08-.296-2.19-.462-3.31-.502l.11-2.954c1.207.03 2.408-.188 3.53-.635 1.7-5.63 7.754-9.46 13.883-9.24 5.687.22 9.35 2.72 11.24 6.07.554.32 1.23.36 1.817.1.792-.36 1.65-.56 2.523-.577.954.073 1.883.34 2.73.782.49.255 1.076.255 1.567 0 2.142-3.19 5.908-5.406 11.654-5.214 6.13.22 11.814 4.43 13.16 10.236 1.083.524 2.264.825 3.47.884l-.11 2.96c-1.083-.037-2.17.047-3.233.25-1.38 6.743-7.37 11.543-14.25 11.418z"/>
  </g>
</svg>
