<svg xmlns="http://www.w3.org/2000/svg" viewBox="0 0 96 96" class="primary barista icon">
  <g fill="#F00">
    <path d="M45.74 25.935C47.24 12.36 77.135 19.14 70.91 1.53c-.96-2.7-5.25-1.5-4.305 1.185 2.73 7.725-7.65 8.655-12.93 10.5-6.345 2.115-11.61 5.685-12.39 12.78-.33 2.85 4.14 2.82 4.5 0"/>
    <path d="M66.965 16.5C61.13 17.88 55.82 20.385 53.99 26.535c-.81 2.76 3.48 3.93 4.305 1.17 2.01-6.78 10.89-6.9 16.5-8.55 6.105-1.77 9.585-6 8.745-12.495-.375-2.82-4.815-2.85-4.5 0 1.125 7.785-6.09 8.34-12.075 9.84M59.84 70.8c-2.985 8.805-11.246 14.73-20.543 14.73-9.296 0-17.557-5.925-20.542-14.73-.135-.415-.06-.87.195-1.224.252-.354.66-.57 1.095-.576H58.55c.425.048.81.276 1.055.626.247.35.333.787.235 1.204M27.605 50.37c1.675-.006 3.19 1 3.835 2.546.645 1.545.296 3.33-.888 4.515-1.18 1.19-2.963 1.548-4.514.91-1.546-.634-2.558-2.146-2.558-3.826-.005-1.093.43-2.143 1.203-2.923.774-.78 1.826-1.216 2.922-1.216m23.37.002c1.675 0 3.19 1.005 3.835 2.55s.296 3.33-.888 4.515c-1.18 1.185-2.963 1.545-4.514.908-1.546-.64-2.558-2.15-2.558-3.825-.005-1.096.43-2.15 1.203-2.926.774-.78 1.826-1.215 2.922-1.215m25.875 1.246c6.615 1.5 7.8 4.785 7.725 9-.09 4.77-1.5 8.01-10.5 9.12 1.563-5.925 2.493-12 2.775-18.12m-5.52 25.5c15.87-.624 22.92-7.84 22.92-16.69 0-7.68-5.325-14.16-17.115-16.14V36.09H2C2 52.935 2 77.4 17.12 89.07 7.955 89.775 2 90.9 2 92.145 2 94.275 18.83 96 39.59 96c20.76 0 37.605-1.725 37.605-3.855 0-1.245-6-2.37-15.12-3.075 4-3.172 7.174-7.263 9.255-11.925"/>
  </g>
</svg>
