<svg xmlns="http://www.w3.org/2000/svg" viewBox="0 0 96 96" class="primary barista icon">
  <g fill="#F00">
    <path d="M45.74 25.935C47.24 12.36 77.135 19.14 70.91 1.53c-.96-2.7-5.25-1.5-4.305 1.185 2.73 7.725-7.65 8.655-12.93 10.5-6.345 2.115-11.61 5.685-12.39 12.78-.315 2.805 4.14 2.76 4.455-.06z"/>
    <path d="M66.965 16.5C61.13 17.88 55.82 20.37 53.99 26.52c-.81 2.76 3.48 3.93 4.305 1.185 2.01-6.78 10.89-6.9 16.5-8.55 6.105-1.77 9.585-6 8.745-12.495-.375-2.82-4.815-2.85-4.5 0 1.125 7.785-6.09 8.34-12.075 9.84zm4.38 60.645C87.2 76.5 94.25 69.285 94.25 60.435c0-7.68-5.325-14.16-17.115-16.14V36.09L2 32.085c0 16.845 0 45.3 15.12 57C7.955 89.79 2 90.915 2 92.16 2 94.275 18.83 96 39.59 96c20.76 0 37.605-1.725 37.605-3.855 0-1.245-6-2.37-15.12-3.075 4.005-3.17 7.185-7.26 9.27-11.925zm5.52-25.5c6.615 1.5 7.8 4.785 7.725 9-.09 4.77-1.5 8.01-10.5 9.12 1.56-5.935 2.484-12.02 2.76-18.15l.015.03zM44.585 79.35c-1.584.68-3.285 1.035-5.01 1.05-2.57 0-5.067-.843-7.11-2.4-.683-.606-.762-1.644-.18-2.347.582-.706 1.617-.82 2.34-.263 2.54 1.8 5.847 2.103 8.67.795.837-.26 1.736.16 2.07.97.334.81-.003 1.743-.78 2.15v.045zm11.82-9.375c-9.375-.885-10.5-6.405-10.5-6.405-.9-2.295-1.185-10.38-1.185-10.38-.015-.23-.006-.462.03-.69l-2.055-1.275c-1.133-.593-2.453-.715-3.675-.345l-2.25.87c.003.258-.027.514-.09.765 0 0-1.785 7.89-3.09 9.975 0 0-2.13 5.22-11.505 4.335-9.375-.885-10.5-6.405-10.5-6.405-.9-2.295-1.185-10.38-1.185-10.38s-.675-6.78 13.77-5.43c7.29.675 10.41 2.685 11.715 4.5l2.145-.84c2.033-.698 4.266-.49 6.135.57l1.95 1.215c1.62-1.5 5.055-3 12.345-2.25 14.445 1.35 12.51 7.89 12.51 7.89s-1.785 7.89-3.09 9.975c.03-.03-2.13 5.19-11.475 4.305z"/>
  </g>
</svg>
