<svg xmlns="http://www.w3.org/2000/svg" viewBox="0 0 96 96" class="primary barista icon">
  <g fill="#F00">
    <path d="M45.62 25.86c1.5-13.5 31.305-6.765 25.095-24.33-.96-2.685-5.235-1.5-4.29 1.185 2.73 7.695-7.62 8.64-12.9 10.395-6.33 2.115-11.58 5.655-12.345 12.75-.33 2.85 4.125 2.82 4.5 0"/>
    <path d="M66.785 16.38c-5.805 1.38-11.115 3.87-12.93 9.99-.81 2.76 3.465 3.93 4.29 1.17 1.995-6.765 10.86-6.87 16.5-8.535 6.09-1.755 9.555-6 8.73-12.465-.36-2.805-4.8-2.85-4.5 0 1.005 7.83-6.195 8.4-12.165 9.81m-8.82 54.66c-3.315 5.85-11.235 9.6-20.13 8.865-8.895-.735-16.095-5.745-18.405-12-.21-.525.27-1.26 1.32-1.2l36.12 3c.81 0 1.41.84 1.095 1.395M27.26 46.38c1.67-.006 3.18.994 3.822 2.535.645 1.542.294 3.318-.885 4.5-1.18 1.185-2.955 1.54-4.497.903-1.545-.637-2.55-2.145-2.55-3.813 0-2.273 1.838-4.116 4.11-4.125m24.69 2.43c1.67-.006 3.18.994 3.822 2.535.645 1.542.294 3.318-.885 4.5-1.18 1.185-2.955 1.54-4.497.903-1.545-.637-2.55-2.145-2.55-3.813-.005-1.092.427-2.142 1.2-2.916.77-.777 1.818-1.21 2.91-1.21m24.69 2.64c6.6 1.5 7.77 4.77 7.695 9-.09 4.753-1.5 7.98-10.5 9.09 1.557-5.888 2.487-11.92 2.775-18m-5.505 25.5c15.855-.827 22.89-7.967 22.89-16.787 0-7.665-5.31-14.115-17.055-16.095v-8.176L2 34.214c0 16.8 0 42.87 15 54.526-9.135.705-15 1.815-15 3 0 2.25 16.785 3.975 37.5 3.975S77 93.99 77 91.875c0-1.245-6-2.37-15-3 3.993-3.165 7.162-7.245 9.24-11.895"/>
  </g>
</svg>
