<svg xmlns="http://www.w3.org/2000/svg" viewBox="0 0 95.84 45.86">
  <defs>
    <style>
      .a{fill:#000;}
    </style>
  </defs>
  <path d="M19.2 6.03h4.61l7.28 19.2h-6l-.63-1.73h-5.82l-.63 1.73h-6zm-3 16.9l.55-1.44h9.5l.55 1.44h.81l-5.56-14.6h-1.13l-5.52 14.6zm5.3-13.91l4.49 11.78h-9zm1.29 10.25l-1.28-3.34-1.3 3.37zm7.86-3.62a10.35 10.35 0 0 1 .81-4.16 9.7 9.7 0 0 1 2.19-3.18 9.54 9.54 0 0 1 3.22-2 10.86 10.86 0 0 1 3.92-.71 12.23 12.23 0 0 1 2.92.32 13.83 13.83 0 0 1 2.2.72 10.34 10.34 0 0 1 1.84 1l-3 5.33a10.36 10.36 0 0 0-1-.66 9.88 9.88 0 0 0-1.17-.45 5.06 5.06 0 0 0-1.54-.22 4.18 4.18 0 0 0-1.64.32 4.22 4.22 0 0 0-1.31.86 4 4 0 0 0-.88 1.28 3.92 3.92 0 0 0-.32 1.57 3.77 3.77 0 0 0 .33 1.57 4 4 0 0 0 .91 1.28 4.29 4.29 0 0 0 1.35.86 4.45 4.45 0 0 0 1.7.32 5.37 5.37 0 0 0 1.64-.23 6 6 0 0 0 1.21-.52 4.46 4.46 0 0 0 1-.75l3 5.33a8.52 8.52 0 0 1-1.84 1.12 15.61 15.61 0 0 1-2.22.75 11.55 11.55 0 0 1-3 .35 11.41 11.41 0 0 1-4.15-.73 9.78 9.78 0 0 1-3.28-2.06 9.35 9.35 0 0 1-2.16-3.18 10.52 10.52 0 0 1-.73-4.13zm3.63 0a7 7 0 0 1 .48-2.59 6.3 6.3 0 0 1 1.34-2.1 6.22 6.22 0 0 1 2.1-1.41 7.09 7.09 0 0 1 2.76-.52 8 8 0 0 1 1.34.1 6.1 6.1 0 0 1 1 .24 3.84 3.84 0 0 1 .84.35l.4-.69q-.46-.2-1-.37a11.08 11.08 0 0 0-1.12-.26 8.33 8.33 0 0 0-1.47-.12 7.71 7.71 0 0 0-2.81.52 7.17 7.17 0 0 0-2.36 1.48 7.27 7.27 0 0 0-2.26 5.37 7.56 7.56 0 0 0 .59 3.05 6.86 6.86 0 0 0 1.63 2.32 7.22 7.22 0 0 0 2.42 1.48 8.3 8.3 0 0 0 2.94.52 7.65 7.65 0 0 0 1.55-.14 9.33 9.33 0 0 0 1.18-.32 5.82 5.82 0 0 0 1-.46l-.4-.69a3.64 3.64 0 0 1-.86.43 6.47 6.47 0 0 1-1 .3 6.8 6.8 0 0 1-1.41.13 7.47 7.47 0 0 1-2.85-.52 6.31 6.31 0 0 1-2.14-1.41 6.16 6.16 0 0 1-1.35-2.1 7 7 0 0 1-.55-2.59zm15.1-9.62h5.07l5 7.37 5-7.37h5.07v19.2h-6.13v-6.9l-3.92 5.76-3.94-5.76v6.91H49.4zm3.63 16.9V9.72l6.45 9.39 6.42-9.39v13.21h.75V8.33h-.71L59.5 17.8l-6.45-9.47h-.75v14.6zM72.4 6.03h11.32v5h-5.18v2.13h5.1v4.78h-5.1v2.22h5.38v5H72.4zm9.39 16.9v-.69h-5.76v-6.31h5.47v-.69h-5.47V9.03h5.76v-.69h-6.51v14.59zM16.35 36.29v1.55a3.08 3.08 0 0 1-.28 1.23 2.12 2.12 0 0 1-.66.83 2 2 0 0 1-1.28.38 2 2 0 0 1-1.29-.38 2.08 2.08 0 0 1-.65-.83 3.08 3.08 0 0 1-.28-1.23v-6.65a3.07 3.07 0 0 1 .28-1.21 1.95 1.95 0 0 1 1.94-1.23 2.07 2.07 0 0 1 1.28.38 2.16 2.16 0 0 1 .66.85 3.07 3.07 0 0 1 .28 1.21v1.55H14.8v-1.55a1 1 0 0 0-.25-.71.56.56 0 0 0-.89.29 1.69 1.69 0 0 0-.08.41v6.65a1.06 1.06 0 0 0 .26.71.44.44 0 0 0 .32.12.54.54 0 0 0 .57-.41 1.07 1.07 0 0 0 .06-.41v-1.55zm6.89 1.56a3.08 3.08 0 0 1-.28 1.23 2.12 2.12 0 0 1-.66.83 2 2 0 0 1-1.28.38 2 2 0 0 1-1.29-.38 2.08 2.08 0 0 1-.65-.83 3.08 3.08 0 0 1-.28-1.23V31.2a3.07 3.07 0 0 1 .28-1.21 1.95 1.95 0 0 1 1.94-1.23 2.07 2.07 0 0 1 1.28.38 2.16 2.16 0 0 1 .66.85 3.07 3.07 0 0 1 .28 1.21zm-1.66-6.65a1 1 0 0 0-.21-.71.48.48 0 0 0-.34-.12.51.51 0 0 0-.49.41 1.19 1.19 0 0 0-.06.41v6.65a1 1 0 0 0 .23.71.44.44 0 0 0 .32.12.48.48 0 0 0 .49-.41 1.07 1.07 0 0 0 .06-.41zm7.22 8.97l-.86-4.76h-.45v4.76h-1.66v-11.3h1.66c2 0 2.83 1.12 2.83 3.26a3.11 3.11 0 0 1-.92 2.57l1.06 5.47zm-1.31-6.3a1.15 1.15 0 0 0 .78-.25 1.81 1.81 0 0 0 .45-1.43 1.85 1.85 0 0 0-.45-1.44 1.14 1.14 0 0 0-.78-.23zm5.43-5h1.66a2.83 2.83 0 0 1 2 .71 3.52 3.52 0 0 1 .92 2.67 3.49 3.49 0 0 1-.92 2.66 2.86 2.86 0 0 1-2 .74v4.52h-1.66zm1.66 5.09c.51 0 .83-.09 1-.35a2.26 2.26 0 0 0 .23-1.29 2.57 2.57 0 0 0-.23-1.35 1.11 1.11 0 0 0-1-.4zm9.76 3.89a3.08 3.08 0 0 1-.28 1.23 2.12 2.12 0 0 1-.66.83 2 2 0 0 1-1.28.38 2 2 0 0 1-1.29-.38 2.08 2.08 0 0 1-.65-.83 3.08 3.08 0 0 1-.28-1.23V31.2a3.07 3.07 0 0 1 .28-1.21 1.95 1.95 0 0 1 1.94-1.23 2.07 2.07 0 0 1 1.28.38 2.16 2.16 0 0 1 .66.85 3.07 3.07 0 0 1 .28 1.21zm-1.66-6.65a1 1 0 0 0-.21-.71.48.48 0 0 0-.34-.12.51.51 0 0 0-.49.41 1.19 1.19 0 0 0-.06.41v6.65a1 1 0 0 0 .23.71.44.44 0 0 0 .32.12.48.48 0 0 0 .49-.41 1.07 1.07 0 0 0 .06-.41zm7.24 8.97l-.86-4.76h-.45v4.76h-1.69v-11.3h1.66c2 0 2.83 1.12 2.83 3.26a3.11 3.11 0 0 1-.92 2.57l1.06 5.47zm-1.31-6.3a1.15 1.15 0 0 0 .78-.25 1.8 1.8 0 0 0 .45-1.43 1.85 1.85 0 0 0-.45-1.44 1.13 1.13 0 0 0-.78-.23zm5.21 6.3l1.71-11.29h2l1.71 11.29h-1.61l-.31-2.3h-1.6l-.31 2.3zm2.81-7.62v-.29h-.09v.29l-.48 3.56h1.14zm4.03-1.97v-1.71h4.79v1.71h-1.53v9.59h-1.66v-9.59zm7.14-1.71h1.66v11.29H67.8zm8.68 8.98a3.07 3.07 0 0 1-.28 1.23 2.11 2.11 0 0 1-.66.83 2 2 0 0 1-1.28.38 2 2 0 0 1-1.29-.38 2.07 2.07 0 0 1-.65-.83 3.07 3.07 0 0 1-.28-1.23V31.2a3.06 3.06 0 0 1 .28-1.21 1.95 1.95 0 0 1 1.94-1.23 2.07 2.07 0 0 1 1.28.38 2.16 2.16 0 0 1 .66.85 3.06 3.06 0 0 1 .28 1.21zm-1.66-6.65a1 1 0 0 0-.22-.71.48.48 0 0 0-.34-.12.51.51 0 0 0-.49.41 1.18 1.18 0 0 0-.06.41v6.65a1 1 0 0 0 .23.71.44.44 0 0 0 .32.12.49.49 0 0 0 .49-.41 1.07 1.07 0 0 0 .06-.41zm6.01 3.08l-.14-.52h-.09v6.41h-1.52v-11.3h1.48l1.61 5.89.14.52h.09v-6.41h1.52v11.29h-1.47z" class="a"/>
  <path d="M4.79 13.54C4.79 4.69 5.52 0 11.73 0h.25a.9.9 0 0 1 .93.93v.68a.9.9 0 0 1-.93.93h-.25c-3.72 0-3.91 4-3.91 10.85 0 4.45-.63 8.21-3.76 9.53 3.13 1.22 3.76 5.23 3.76 9.48 0 6.75.2 10.9 3.91 10.9h.25a.9.9 0 0 1 .93.93v.7a.9.9 0 0 1-.93.93h-.25c-6.21 0-6.94-4.69-6.94-13.59 0-5.38-1.08-8.07-3.52-8.07H.92a.9.9 0 0 1-.93-.93v-.78a.9.9 0 0 1 .93-.93h.34c2.46 0 3.53-2.69 3.53-8.02zm90.13 8.02a.9.9 0 0 1 .93.93v.78a.9.9 0 0 1-.93.93h-.34c-2.45 0-3.52 2.69-3.52 8.07 0 8.9-.73 13.59-6.94 13.59h-.24a.9.9 0 0 1-.96-.93v-.68a.9.9 0 0 1 .93-.93h.24c3.72 0 3.91-4.16 3.91-10.9 0-4.25.63-8.26 3.76-9.48-3.13-1.32-3.76-5.08-3.76-9.53 0-6.89-.2-10.85-3.91-10.85h-.24a.9.9 0 0 1-.93-.93v-.7a.9.9 0 0 1 .93-.93h.24c6.21 0 6.94 4.69 6.94 13.54 0 5.33 1.08 8 3.52 8z" class="a"/>
</svg>
