<svg xmlns="http://www.w3.org/2000/svg" viewBox="0 0 411 528">
  <path fill="#FFF" fill-rule="evenodd" d="M381.092 88.003h-87.944c0 16.182-13.134 29.315-29.315 29.315h-117.26c-16.18 0-29.314-13.133-29.314-29.315H29.312V498.41H381.09V88.002zm-175.89-58.63c-8.09 0-14.656 6.567-14.656 14.658 0 8.094 6.566 14.66 14.657 14.66 8.09 0 14.658-6.566 14.658-14.657 0-8.09-6.564-14.657-14.655-14.657zM0 527.723V58.69h133.382C140.418 24.948 169.88 0 205.202 0c35.326 0 64.787 24.976 71.734 58.22l133.47.468v469.036H0z"/>
</svg>
