<svg xmlns="http://www.w3.org/2000/svg" viewBox="0 0 411 528" xmlns:xlink="http://www.w3.org/1999/xlink">
  <defs>
    <path id="a" d="M204.543 156.557V0H0v156.557h204.543z"/>
  </defs>
  <g fill="none" fill-rule="evenodd">
    <path fill="#FFF" d="M381.092 88.003h-87.944c0 16.182-13.134 29.315-29.315 29.315h-117.26c-16.18 0-29.314-13.133-29.314-29.315H29.312V498.41H381.09V88.002zm-175.89-58.63c-8.09 0-14.656 6.567-14.656 14.658 0 8.094 6.566 14.66 14.657 14.66 8.09 0 14.658-6.566 14.658-14.657 0-8.09-6.564-14.657-14.655-14.657zM0 527.723V58.69h133.382C140.418 24.948 169.88 0 205.202 0c35.326 0 64.787 24.976 71.734 58.22l133.47.468v469.036H0z"/>
    <g transform="translate(105 232)">
      <mask id="b" fill="#fff">
        <use xlink:href="#a"/>
      </mask>
      <path fill="#00E1AF" d="M54.538 56.103l22.29 33.34L153.21 9.24c11.31-11.883 30.156-12.37 42.073-1.07 11.917 11.293 12.398 30.097 1.072 41.987l-86.88 91.243c-9.302 9.76-21.71 15.157-34.52 15.157-18.096-1.397-30.96-9.162-39.205-21.507L5.003 89.037C-4.12 75.387-.424 56.962 13.25 47.86c13.697-9.105 32.164-5.408 41.288 8.243z" mask="url(#b)"/>
    </g>
  </g>
</svg>
