<svg xmlns="http://www.w3.org/2000/svg" viewBox="0 0 422 316">
  <path fill="#FFF" fill-rule="evenodd" d="M.822 269.708V46.456c.328-.874.602-1.767.82-2.675C5.977 19.06 27.498.57 52.63.55 158.17.45 263.71.45 369.243.548c23.926 0 44.65 16.81 50.28 40.06.477 1.96 1.052 3.903 1.536 5.86V269.71c-.3.59-.54 1.21-.72 1.847-3.9 21.8-19.06 38.576-40.59 42.615-10.08 1.904-20.67 1.428-31.02 1.436-98.29.093-196.58.093-294.87 0-24.17 0-44.47-15.283-51.03-38.092-.75-2.528-1.35-5.17-2.02-7.806zm142.988-115.46c-6.567 6.485-12.772 12.608-18.878 18.805L58.055 239.74c-4.04 4.015-5.902 8.562-4.203 14.086 3.037 10.03 14.774 12.443 22.662 4.62 27.786-27.68 55.54-55.434 83.26-83.26 1.023-1.205 1.95-2.49 2.774-3.84 2.298 2.1 3.817 3.414 5.32 4.77l33.42 30.367c6.353 5.746 12.985 5.68 19.37-.082 11.563-10.46 23.12-20.94 34.67-31.43 1.05-.98 2.217-1.95 3.522-3.15 10.448 10.48 20.667 20.74 30.886 30.99l55.68 55.68c3.777 3.79 8.102 5.57 13.372 4.16 10.202-2.762 13.132-14.64 5.4-22.43-18.604-18.732-37.266-37.404-55.985-56.014-9.948-9.94-19.96-19.855-30.08-29.983 1.32-1.247 2.395-2.28 3.495-3.282L322.28 114l41.597-37.82c4.005-3.636 5.597-8.11 4.276-13.31-1.033-4.697-4.675-8.377-9.357-9.46-5.253-1.394-9.505.526-13.428 4.105-43.654 39.768-87.37 79.5-131.144 119.21-1.05.98-2.183 1.916-3.35 2.93l-62.558-56.85c-24.076-21.824-48.166-43.68-72.27-65.564-3.8-3.46-8.043-5.13-13.132-3.7-4.646 1.12-8.246 4.79-9.275 9.46-1.27 5.25.41 9.668 4.41 13.288 17.22 15.616 34.43 31.252 51.62 46.906l34.13 31.075z"/>
</svg>
