<svg xmlns="http://www.w3.org/2000/svg" viewBox="0 0 448 294">
  <path fill="#FFF" fill-rule="evenodd" d="M5.704 155.68l57.392 19.727c.94.47 1.88.47 2.822.47 1.41 0 2.352-.47 3.293-.94 1.89-.94 3.3-2.348 4.24-4.696L119.08 37.8l3.293 1.41c11.29 4.226 23.99 3.287 34.81-1.88l5.646-2.817c7.05-3.29 15.05-3.76 22.58-1.41l105.84 36.632c-.94 4.227-3.3 9.863-7.53 12.68-4.71 3.29-11.29 3.29-20.23 0l-47.04-15.968c-1.88-.94-4.24-.47-6.59.47-1.88.94-3.3 2.818-3.77 5.166 0 .47-6.59 24.895-27.29 36.167-13.18 7.045-29.64 7.514-48.93.94-4.23-1.41-8.94.938-10.35 5.165-1.41 4.228.94 8.925 5.173 10.334 10.82 3.75 21.17 5.63 31.05 5.63 11.29 0 21.165-2.35 30.574-7.52 18.814-9.87 28.222-27.71 32.46-38.05l39.51 13.62c14.113 4.69 25.403 4.22 34.81-2.35 14.586-9.86 15.056-30.06 15.056-31 0-3.29-1.88-6.58-5.172-7.99l-111.94-38.5c-11.29-3.76-23.99-3.29-34.81 2.346l-5.645 2.82c-7.056 3.29-15.054 3.757-22.58 1.41l-9.41-3.29c-.47-.468-.94-.468-1.41-.938L59.803 1.16c-1.882-.47-4.234-.47-6.116.47-1.88.94-3.296 2.348-4.236 4.696L.53 145.35c-.47 1.877-.47 4.226.47 6.104.94 1.88 2.823 3.288 4.704 4.227zM61.684 17.6l42.338 14.56-43.278 125.4L18.406 143 61.684 17.598zm-7.056 120.236c-1.882 5.166-7.527 7.984-12.7 6.106-5.176-1.88-7.998-7.515-6.117-12.682 1.89-5.166 7.53-7.984 12.71-6.105 5.18 1.41 8 7.045 6.12 12.68zm321.297 28.65L356.168 184.8c-17.876 16.44-38.104 30.06-59.744 40.862L191.99 276.856c-2.35.94-4.703 1.41-7.526.47-2.352-.94-4.234-2.35-5.645-4.697-.95-2.35-1.42-4.7-.47-7.52.94-2.35 2.35-4.23 4.7-5.64l58.33-28.65c3.76-1.88 5.64-6.58 3.76-10.8-1.88-3.76-6.59-5.64-10.82-3.76l-56.92 28.18-28.7 14.09c-4.71 2.34-10.35.47-12.7-4.23-2.36-4.7-.47-10.34 4.23-12.68l6.11-2.82 15.52-7.52 62.57-30.99c3.76-1.88 5.64-6.58 3.76-10.81-1.88-3.76-6.59-5.64-10.82-3.76l-77.62 38.04-6.118 2.812-10.35 5.17c-2.355.94-4.707 1.41-7.53.47-2.35-.94-4.233-2.35-5.644-4.694-.94-2.345-1.41-4.693-.47-7.51.94-2.35 2.35-4.23 4.703-5.638l10.35-5.168 75.266-36.635c3.762-1.88 5.644-6.577 3.762-10.804-1.88-3.76-6.587-5.637-10.82-3.76L144.45 181.5l-26.81 13.15c-2.355.94-4.707 1.41-7.53.47-2.352-.94-4.234-2.35-5.645-4.698-.94-2.347-1.413-4.696-.47-7.514.94-2.35 2.35-4.23 4.702-5.638l39.993-19.25c3.763-1.88 5.644-6.576 3.763-10.803-1.88-4.227-6.59-5.636-10.82-3.757l-39.987 19.26c-6.117 2.818-10.82 7.985-13.174 14.56-2.35 6.575-1.88 13.62 1.414 19.726 1.88 3.757 4.71 7.044 8 9.393-1.88 2.34-3.29 4.69-4.232 7.51-2.35 6.57-1.88 13.62 1.41 19.72 2.825 6.102 8 10.8 14.585 13.15 2.82.94 5.64 1.41 8.46 1.41 0 4.223.47 8.45 2.353 12.21 4.23 8.92 13.64 14.56 23.05 14.56 3.76 0 7.524-.94 11.29-2.82l6.113-2.82c0 3.29.94 6.58 2.35 9.393 2.825 6.106 8 10.803 14.585 13.15 2.824.94 5.646 1.41 8.47 1.41 3.76 0 7.526-.94 11.29-2.817l104.44-51.195c23.05-11.275 44.69-25.834 63.504-43.21l23.52-21.607 53.63-26.3c3.76-1.88 5.643-6.578 3.76-10.805L382.51 4.914c-1.88-3.758-6.585-5.637-10.82-3.758l-54.567 26.77c-1.882.94-3.293 2.35-4.234 4.692-.47 1.88-.47 4.22.47 6.1l62.56 127.75zm-4.235-147.48l58.334 118.828-40.457 19.726-58.332-118.826 40.456-19.727zm22.582 118.358c-2.352-4.697-.47-10.333 4.233-12.68 4.705-2.35 10.35-.47 12.702 4.226 2.352 4.697.47 10.333-4.234 12.68-4.704 2.82-10.35.47-12.7-4.226z"/>
</svg>
