<svg xmlns="http://www.w3.org/2000/svg" viewBox="0 0 434 382">
  <g fill="#FFF" fill-rule="evenodd">
    <path d="M302.186 220.95l-33.1 33.157c-1.614 1.615-3.717 2.415-5.842 2.415-2.11 0-4.228-.8-5.842-2.415-3.226-3.232-3.226-8.465 0-11.696l27.26-27.3-11.304-11.31-28.002 28.05c-1.613 1.615-3.722 2.415-5.842 2.415-2.11 0-4.228-.8-5.84-2.414-3.228-3.232-3.228-8.47 0-11.696l28-28.05-11.776-11.807-19.37 19.4c-1.612 1.612-3.72 2.412-5.84 2.412-2.11 0-4.23-.8-5.837-2.415-3.22-3.22-3.22-8.472 0-11.7l19.36-19.4-52.03-52.11-5.81 5.81c-5.66 5.68-13.19 8.8-21.2 8.8-8 0-15.53-3.11-21.19-8.78-11.693-11.73-11.693-30.78-.01-42.48l22.777-22.81c5.67-5.684 13.203-8.805 21.208-8.805 8.02 0 15.545 3.123 21.21 8.803 11.684 11.694 11.69 30.74 0 42.452l-5.29 5.31L302.19 209.25c1.545 1.555 2.415 3.656 2.415 5.85 0 2.19-.87 4.307-2.417 5.85M413.65.557H20.143C9.467.557.773 9.263.773 19.96v270.778c0 10.697 8.688 19.404 19.37 19.404h159.865l-3.25 34.89c-.142 2.045-2.36 19.955-36.188 19.955-4.57 0-8.26 3.706-8.26 8.272 0 4.56 3.69 8.27 8.26 8.27h152.653c4.56 0 8.26-3.71 8.26-8.27 0-4.57-3.7-8.28-8.26-8.28-33.828 0-36.057-17.91-36.228-20.32l-3.215-34.538h159.87c10.682 0 19.375-8.7 19.375-19.405V19.955c0-10.7-8.688-19.4-19.375-19.4"/>
    <path d="M182.417 64.43c-3.595 0-6.98 1.402-9.53 3.955L150.11 91.197c-5.248 5.26-5.248 13.82.005 19.085 5.076 5.073 13.962 5.09 19.05-.01l22.772-22.82c5.247-5.26 5.247-13.812.005-19.067-2.544-2.553-5.93-3.954-9.525-3.954"/>
  </g>
</svg>
