<svg xmlns="http://www.w3.org/2000/svg" viewBox="0 0 337 337">
  <g fill="#FFF" fill-rule="evenodd" transform="translate(.78 .78)">
    <ellipse cx="154.664" cy="167.725" rx="41.92" ry="41.912"/>
    <path d="M299.58 196.645c-7.098-2.864-15.3.614-18.164 7.81l-21.184 52.92-41.305-30.973c-2.417-1.816-5.352-2.794-8.384-2.794H98.757c-3.018 0-5.966.978-8.384 2.794l-41.305 30.974-21.17-52.922c-2.864-7.18-10.954-10.66-18.164-7.81C2.564 199.51-.914 207.64 1.95 214.82l27.947 69.856c1.62 4.037 5.016 7.097 9.208 8.27 4.178 1.146 8.678.322 12.157-2.277l47.51-35.628v80.332h111.785v-80.332l47.51 35.625c2.46 1.843 5.407 2.793 8.383 2.793 1.258 0 2.543-.194 3.787-.515 4.192-1.174 7.588-4.234 9.208-8.27l27.947-69.855c2.823-7.18-.67-15.31-7.81-18.175zM167.757 83.9c23.154 0 41.92-18.763 41.92-41.912 0-23.15-18.766-41.913-41.92-41.913-23.154 0-41.92 18.763-41.92 41.913 0 23.15 18.766 41.912 41.92 41.912zm0-69.854c15.413 0 27.947 12.532 27.947 27.942s-12.534 27.94-27.947 27.94c-15.412 0-27.946-12.53-27.946-27.94 0-15.41 12.538-27.942 27.95-27.942zm111.786 27.942l-55.893 97.795h111.786l-55.893-97.795zm0 28.165l31.803 55.66h-63.62l31.817-55.66zm-167.68 41.69L55.97 55.957.08 111.842l55.893 55.883 55.894-55.883zM55.97 75.713l36.136 36.13L55.97 147.97l-36.134-36.128 36.135-36.13z"/>
  </g>
</svg>
