<?xml version="1.0" encoding="utf-8"?>
<!-- Generator: Adobe Illustrator 14.0.0, SVG Export Plug-In . SVG Version: 6.00 Build 43363)  -->
<!DOCTYPE svg PUBLIC "-//W3C//DTD SVG 1.1//EN" "http://www.w3.org/Graphics/SVG/1.1/DTD/svg11.dtd">
<svg version="1.1" id="Layer_1" xmlns="http://www.w3.org/2000/svg" xmlns:xlink="http://www.w3.org/1999/xlink" x="0px" y="0px"
	 width="612px" height="792px" viewBox="0 0 612 792" enable-background="new 0 0 612 792" xml:space="preserve">
<g>
	<polygon fill-rule="evenodd" clip-rule="evenodd" fill="#FFFFFF" points="209,300 401.756,300 401.756,492.756 209,492.756 
		209,300 	"/>
	
		<path fill-rule="evenodd" clip-rule="evenodd" fill="#414042" stroke="#A7A9AC" stroke-width="0.4253" stroke-miterlimit="2.6131" d="
		M305.378,316.257c44.129,0,80.12,35.992,80.12,80.121c0,44.128-35.991,80.12-80.12,80.12s-80.12-35.992-80.12-80.12
		C225.258,352.249,261.249,316.257,305.378,316.257L305.378,316.257z"/>
	
		<path fill-rule="evenodd" clip-rule="evenodd" fill="#ED1C24" stroke="#FFFFFF" stroke-width="0.8507" stroke-miterlimit="2.6131" d="
		M305.378,331.257c35.868,0,65.121,29.253,65.121,65.121c0,35.868-29.253,65.12-65.121,65.12c-35.868,0-65.121-29.252-65.121-65.12
		C240.257,360.51,269.51,331.257,305.378,331.257L305.378,331.257z"/>
	
		<path fill-rule="evenodd" clip-rule="evenodd" stroke="#FFFFFF" stroke-width="0.4255" stroke-linejoin="round" stroke-miterlimit="2.6131" d="
		M322.124,353.301c-12.542,10.797-21.55,21.846-22.777,33.453l7.178-0.052l-3.193,5.373l-5.166-0.043
		c-15.649,23.142-28.477,29.416-37.68,17.042c11.939,0.262,19.435-5.535,22.486-17.393l-7.115,0.14
		c-2.581-2.362-3.544-4.724-2.893-7.085l12.537,0.134c3.722-10.21,13.057-19.86,19.213-24.709l-21.109,0.102
		c-4.934,1.464-10.373,6.718-16.923,20.305c-6.867-8.079-3.837-23.228,11.816-27.267H322.124L322.124,353.301z"/>
	
		<path fill-rule="evenodd" clip-rule="evenodd" stroke="#FFFFFF" stroke-width="0.4255" stroke-linejoin="round" stroke-miterlimit="2.6131" d="
		M361.262,380.815c-12.543,10.797-21.55,21.847-22.777,33.453l14.449-0.051l-5.92,5.373l-9.71-0.045
		c-14.74,23.164-28.98,30.232-38.892,17.045c11.939,0.26,20.646-5.537,23.697-17.395l-8.326,0.141
		c-2.58-2.363-3.241-4.725-2.591-7.086l13.446,0.135c3.722-10.211,13.056-19.86,19.213-24.709l-21.108,0.101
		c-4.935,1.465-10.373,6.718-16.923,20.306c-6.867-8.08-3.837-23.228,11.815-27.267H361.262L361.262,380.815z"/>
</g>
</svg>
