<svg xmlns="http://www.w3.org/2000/svg" viewBox="0 0 356 74" xmlns:xlink="http://www.w3.org/1999/xlink">
  <defs>
    <path id="a" d="M0 .312v36.362h28.463V.312H0z"/>
    <path id="c" d="M28.985 36.674V.312H.523v36.362h28.462z"/>
  </defs>
  <g fill="none" fill-rule="evenodd">
    <g transform="translate(.907 18.304)">
      <mask id="b" fill="#fff">
        <use xlink:href="#a"/>
      </mask>
      <path fill="#FFF" d="M14.328 4.233c-3.594 0-5.83 1.197-5.83 3.597l-.078 6.64s13.494.08 13.494 0c0-4.88.48-10.237-7.586-10.237m0 32.39C4.346 36.143.513 30.866.033 17.748-.527 3.512 5.943.312 14.328.312c13.496 0 14.135 8.32 14.135 17.757H8.42v7.19c0 4.48 2.475 6.72 5.908 6.72 9.504 0 9.424-3.68 9.424-8.08h4.71c0 10.31-4.95 13.2-14.134 12.72" mask="url(#b)"/>
    </g>
    <path fill="#FFF" d="M53.01 54.768c-4.07.08-6.228.16-9.103-1.84l-.08 1.04c.08 2.96-4.55 3.04-4.55.16V43.012h4.87c.16 5.678 1.038 7.756 8.464 7.756 7.03 0 9.83-10.557-1.03-11.036-6.87-.32-11.98-4-11.9-11.597.08-6.32 4.8-10.158 12.22-10.158 4.72 0 6.23 1.28 7.59 2.16l.08-1.52c.16-3.04 4.39-3.04 4.39 0v10.637h-4.63c0-5.758-3.03-6.797-7.42-6.797-2.072 0-6.863 1.04-7.024 5.2-.16 4.158 1.2 5.677 6.39 6.077 3.91.32 13.416 2 13.257 11.197-.16 7.12-5.354 9.68-11.5 9.84m38.81-31.83c-5.51 0-7.51 5.76-7.51 13.36 0 9.36 2.236 14.16 7.507 14.16 4.95 0 7.506-4.32 7.506-14.15 0-7.597-2.077-13.357-7.507-13.357zm16.13 9.2c.08 8.56-.96 22.48-12.06 22.48-2.155 0-9.58-1.6-10.46-3.68v17.59h3.114c3.035 0 3.035 4.56 0 4.56H73.38c-3.035 0-3.035-4.554 0-4.554h3.992l.08-45.11-4.873.08v-4.4h11.18l2.15 2.96c3.51-1.44 5.75-3.44 10.06-3.44 8.06 0 11.98 6 12.05 13.51h-.08zm29.87-1.44c-3.753-1.28-2.077-5.68-2.395-6.8-6.55-.24-6.39 6.64-6.47 15.92l-.08 10 4.79-.08.08 4.4h-17.73v-4.4l4.95.08v-26.4l-4.95.08-.08-4.393h10.06l1.998 3.917c1.038-2.4 5.91-4.24 8.306-4.24 6.79 0 9.11 3.84 7.51 9.76-.4 1.518-3.67 2.96-5.99 2.16m29.87-8.157c-3.59 0-5.83 1.196-5.83 3.596l-.08 6.64s13.5.08 13.5 0c0-4.88.48-10.24-7.584-10.24m0 32.39c-9.984-.48-13.817-5.756-14.297-18.874-.56-14.235 5.91-17.436 14.294-17.436 13.496 0 14.134 8.32 14.134 17.755H161.8v7.196c0 4.48 2.475 6.72 5.91 6.72 9.502 0 9.42-3.68 9.42-8.08h4.714c0 10.32-4.95 13.2-14.135 12.72m37.77-.16c-4.07.08-6.23.16-9.1-1.84l-.08 1.04c.08 2.96-4.55 3.04-4.55.16V43.01h4.87c.16 5.678 1.04 7.756 8.46 7.756 7.03 0 9.823-10.557-1.038-11.036-6.87-.32-11.98-4-11.9-11.597.08-6.32 4.79-10.158 12.22-10.158 4.71 0 6.23 1.28 7.582 2.16l.08-1.52c.16-3.04 4.393-3.04 4.393 0v10.637h-4.63c0-5.758-3.035-6.797-7.428-6.797-2.08 0-6.87 1.04-7.03 5.2-.16 4.158 1.2 5.677 6.39 6.077 3.91.32 13.412 2 13.253 11.197-.16 7.12-5.354 9.68-11.5 9.84m34.58 0c-4.073.08-6.23.16-9.106-1.84l-.08 1.04c.08 2.96-4.55 3.04-4.55.16V43.01h4.87c.16 5.678 1.04 7.756 8.468 7.756 7.03 0 9.82-10.557-1.04-11.036-6.863-.32-11.976-4-11.9-11.597.08-6.32 4.796-10.158 12.22-10.158 4.714 0 6.23 1.28 7.588 2.16l.08-1.52c.16-3.04 4.396-3.04 4.396 0v10.637h-4.63c0-5.758-3.04-6.797-7.43-6.797-2.077 0-6.867 1.04-7.027 5.2-.16 4.158 1.194 5.677 6.39 6.077 3.91.32 13.41 2 13.25 11.197-.16 7.12-5.35 9.68-11.5 9.84m28.19-44.95c-2.555 0-4.63-2.08-4.63-4.56 0-2.56 2.075-4.64 4.55-4.64 2.557 0 4.63 2.08 4.63 4.56 0 2.55-2.073 4.63-4.55 4.63zm-8.385 44.31v-4.4h5.03V23.49h-5.03v-4.4h12.93v30.64h4.87v4.4h-17.81zm56.064-30.72l-9.74 31.19h-7.51l-9.9-31.19-3.91.08v-4.4h14.53l.16 1.6-2.477 2.96c2.32 7.67 4.634 15.35 6.71 23.19l6.79-23.12-2.556-3.04.16-1.6h11.41l.08 4.32v.08l-3.75-.08z"/>
    <g transform="translate(326.874 18.304)">
      <mask id="d" fill="#fff">
        <use xlink:href="#c"/>
      </mask>
      <path fill="#FFF" d="M14.85 4.233c-3.59 0-5.83 1.197-5.83 3.597l-.077 6.64s13.496.08 13.496 0c0-4.88.47-10.237-7.59-10.237m0 32.39c-9.98-.48-13.82-5.757-14.3-18.875C0 3.512 6.46.312 14.85.312c13.497 0 14.136 8.32 14.136 17.757H8.943v7.19c0 4.48 2.473 6.72 5.908 6.72 9.51 0 9.43-3.68 9.43-8.08h4.71c0 10.31-4.95 13.2-14.13 12.72" mask="url(#d)"/>
    </g>
  </g>
</svg>
