<svg xmlns="http://www.w3.org/2000/svg" viewBox="0 0 382 227">
  <g fill="#FFF" fill-rule="evenodd">
    <path d="M61.957 112.83c15.464 0 32.066-20.55 32.066-41.662 0-21.116-14.353-34.794-32.066-34.794-17.707 0-32.067 13.678-32.067 34.794.004 21.11 16.1 41.66 32.067 41.66zm200.728 0c15.464 0 32.066-20.55 32.066-41.662 0-21.116-14.35-34.794-32.06-34.794s-32.07 13.678-32.07 34.794c0 21.11 16.1 41.66 32.07 41.66zm-99.82 8.113c23.71 0 49.17-31.518 49.17-63.892S190.023 3.7 162.865 3.7c-27.156 0-49.173 20.978-49.173 53.355 0 32.375 24.686 63.893 49.172 63.893zm87.965 55.123c-5.942-11.784-10.274-17.72-18.343-26.11-6.975-7.253-27.793-17.472-41.23-12.976-10.716 2.347-11.223 8.52-28.39 8.52-17.166 0-17.677-6.173-28.397-8.52-13.436-4.496-34.25 5.723-41.23 12.975-8.072 8.39-12.4 14.33-18.34 26.11-2.98 5.91-9.19 23.14-5.338 30.556 4.875 9.39 16.743 13.27 49.364 17.26 19.54 2.39 43.942 2.39 43.942 2.39s24.395 0 43.938-2.39c32.62-3.99 44.48-7.87 49.363-17.25 3.85-7.41-2.36-24.64-5.34-30.55zm69.215-27.292c-3.868-7.686-6.697-11.55-11.96-17.03-4.548-4.73-18.122-11.39-26.883-8.46-6.997 1.532-7.32 5.556-18.514 5.556-11.194 0-11.524-4.024-18.514-5.557-7.044-2.354-17.185 1.49-23.262 5.543 8.36 3.445 15.787 8.226 20.21 12.823 9.184 9.54 14.142 16.6 20.41 29.02 1.214 2.41 2.85 6.3 4.318 10.8 5.266-.087 16.203-.39 25.486-1.53 21.274-2.6 29.013-5.136 32.193-11.255 2.51-4.834-1.54-16.074-3.49-19.925zm-255.84 21.898c6.266-12.43 11.224-19.478 20.41-29.026 4.302-4.47 11.45-9.118 19.534-12.538-6.02-4.155-16.47-8.23-23.68-5.82-6.99 1.53-7.32 5.556-18.51 5.556-11.2 0-11.53-4.025-18.52-5.557-8.77-2.93-22.34 3.73-26.89 8.462-5.267 5.47-8.088 9.34-11.967 17.02-1.94 3.85-5.99 15.09-3.48 19.92 3.18 6.12 10.915 8.65 32.185 11.25 9.952 1.214 21.8 1.482 26.53 1.54 1.994-6.025 4.156-10.398 4.37-10.825z"/>
    <path d="M338.95 18.088h-11.83V53.68h11.83V18.088zm.778-11.01c-.077-3.49-2.57-6.148-6.615-6.148-4.046 0-6.692 2.658-6.692 6.148 0 3.418 2.57 6.152 6.54 6.152h.08c4.13 0 6.7-2.734 6.7-6.152zm41.877 26.195c0-10.933-5.835-16.02-13.62-16.02-6.278 0-9.09 3.454-10.66 5.877v-5.04h-11.83c.157 3.34 0 35.59 0 35.59h11.83V33.804c0-1.063.077-2.124.39-2.886.854-2.125 2.8-4.325 6.07-4.325 4.28 0 5.992 3.263 5.992 8.046v19.04h11.827V33.27z" style="mix-blend-mode:screen"/>
  </g>
</svg>
