<svg xmlns="http://www.w3.org/2000/svg" viewBox="0 0 328 247" xmlns:xlink="http://www.w3.org/1999/xlink">
  <defs>
    <path id="a" d="M163.728 245.59H0V0h327.456v245.59H163.728z"/>
  </defs>
  <g fill="none" fill-rule="evenodd" transform="translate(.21 .668)">
    <mask id="b" fill="#fff">
      <use xlink:href="#a"/>
    </mask>
    <path fill="#FFF" d="M177.843 148.5h78.452v-17.054h-78.452V148.5zm0 30.7h64.808v-17.055h-64.803V179.2zm0 30.698h34.11v-17.055h-34.11v17.055zm-27.287 3.41H55.048v-21.324c0-12.862 10.575-23.017 23.195-23.017h49.118c12.81 0 23.2 10.384 23.2 23.194v21.15zm-47.562-106.543c14.667 0 26.606 11.938 26.606 26.605s-11.94 26.606-26.606 26.606c-14.667 0-26.605-11.94-26.605-26.606 0-14.667 11.933-26.605 26.6-26.605zM0 80.63v113.38c0 28.352 20.85 51.58 46.486 51.58h234.48c25.636 0 46.486-23.228 46.486-51.58V80.63H0zm209.36-59.615c6.406 0 11.6 5.192 11.6 11.598 0 6.404-5.194 11.597-11.6 11.597-6.404 0-11.596-5.193-11.596-11.597 0-6.406 5.192-11.598 11.597-11.598zm35.134 0c6.405 0 11.597 5.192 11.597 11.598 0 6.404-5.19 11.597-11.592 11.597S232.9 39.017 232.9 32.613c0-6.406 5.19-11.598 11.596-11.598zm37.18 0c6.404 0 11.597 5.192 11.597 11.598 0 6.404-5.19 11.597-11.592 11.597s-11.597-5.193-11.597-11.597c0-6.406 5.19-11.598 11.597-11.598zm45.778 42.473v-11.91c.342-28.693-20.85-51.58-46.486-51.58H46.486C20.85 0 0 23.23 0 51.58v11.91h327.452z" mask="url(#b)"/>
  </g>
</svg>
