<svg viewBox="0 0 1000 1000" xmlns="http://www.w3.org/2000/svg"><g fill="#7f7f7f"><path d="m698.98 15.97c-28.17 7.66-55.12 20.21-78.7 36.13-9.8 6.74-61.25 56.04-114.22 109.02l-96.46 96.77h36.75c37.97 0 65.23 4.29 98.91 15.62l19.6 6.43 63.39-63.08c76.56-75.94 82.99-79.92 128.92-79.92 26.03 0 30.93.92 46.85 8.88 20.82 10.72 38.28 28.48 50.22 51.45 7.34 14.39 8.27 19.6 8.57 45.32 0 48.08.62 47.16-125.25 173.94-59.1 59.41-114.22 112.69-122.8 118.51-41.65 28.78-99.52 23.88-135.35-11.33-11.33-11.02-15-12.86-29.4-14.08-21.74-1.84-28.17 1.84-63.08 37.05l-28.78 29.09 11.33 15.62c41.95 56.96 124.33 93.4 199.05 88.2 46.24-3.37 86.67-17.46 122.19-43.18 23.27-16.84 245.59-239.78 259.07-259.99 15.01-22.05 27.26-49.92 34.29-78.7 9.5-37.05 7.35-91.56-4.9-128-24.19-71.96-77.17-124.63-150.05-149.44-33.99-11.66-95.54-13.5-130.15-4.31z"/><path d="m405.93 322.5c-24.19 3.98-57.88 16.54-82.07 30.93-17.15 10.11-44.71 35.83-140.25 130.76-65.54 64.92-124.64 126.16-131.37 136.27-17.46 25.11-31.54 57.26-37.67 85.74-7.96 35.52-5.21 89.73 5.82 122.8 24.8 72.88 77.48 125.86 149.44 150.05 36.44 12.25 90.95 14.39 128 4.9 31.54-7.96 59.1-20.51 83.91-38.28 10.41-7.66 61.25-56.34 113.61-108.71l94.93-95.23h-36.75c-37.97 0-65.22-4.29-98.91-15.62l-19.6-6.43-63.08 62.47c-77.17 76.25-83.91 80.54-129.23 80.54-23.88-.31-31.54-1.53-43.79-7.35-21.44-10.41-42.57-30.93-52.67-51.45-8.27-15.92-9.19-20.82-9.19-46.85 0-49-.92-47.46 124.94-173.94 59.41-59.41 114.84-112.69 123.1-118.51 41.65-28.79 99.53-23.89 135.36 11.33 11.33 11.02 15 12.86 29.4 14.08 21.74 1.84 28.17-1.84 63.08-37.36l28.79-29.09-12.55-16.84c-23.89-31.54-70.43-63.08-112.39-76.25-34.92-11.02-75.34-13.78-110.86-7.96z"/></g></svg>