<svg xmlns="http://www.w3.org/2000/svg" width="48" height="48" viewBox="0 0 48 48" class="primary icon">
  <path fill="#F00" d="M8,0 L40,0 C44.418278,-8.11624501e-16 48,3.581722 48,8 L48,40 C48,44.418278 44.418278,48 40,48 L8,48 C3.581722,48 5.41083001e-16,44.418278 0,40 L0,8 C-5.41083001e-16,3.581722 3.581722,8.11624501e-16 8,0 Z M8,2.5 C4.96243388,2.5 2.5,4.96243388 2.5,8 L2.5,40 C2.5,43.0375661 4.96243388,45.5 8,45.5 L40,45.5 C43.0375661,45.5 45.5,43.0375661 45.5,40 L45.5,8 C45.5,4.96243388 43.0375661,2.5 40,2.5 L8,2.5 Z M13.3898911,22.8514664 C9.48788327,22.8640351 6.01787549,20.0528824 5.17068482,16.0811725 C4.41034241,12.5163214 6.24354086,8.77903893 9.59924514,7.05289008 C14.4182023,4.57417252 20.3782335,7.1494855 21.7361479,12.3472794 C22.5072763,15.2982412 21.8151518,17.9516496 19.7393385,20.1698137 C18.0708716,21.9527336 15.9625603,22.8161611 13.3898911,22.8514664 Z M12.3915564,15.061413 C12.412428,15.0248366 12.4335798,14.9882603 12.4545914,14.951684 C11.6124436,14.4778863 10.9710272,13.8480389 10.7892062,12.8648557 C10.6040233,11.8645847 10.8705914,10.9974855 11.5904514,10.2912374 C12.658965,9.24295115 14.3922879,9.19168779 15.515572,10.1518519 C16.0936732,10.6459855 16.4556342,11.270184 16.5155875,12.0279779 C16.62807,13.4437221 15.9114319,14.3894817 14.6989183,15.0448901 C14.8570661,15.0975656 14.9789339,15.109287 15.1008016,15.1101344 C15.7773774,15.1139473 16.4540934,15.1075924 17.1305292,15.1197374 C17.7523346,15.1308939 18.2794475,15.3852336 18.7389027,15.7984473 C19.2186693,16.2298786 19.4622646,16.7868557 19.574607,17.4299779 C20.6990117,15.7062298 20.8367082,12.1158176 18.2596965,9.66633282 C15.6029805,7.14129466 11.325284,7.17250458 8.63943191,9.81532137 C6.23415564,12.1817679 6.27225681,15.6856115 7.54780545,17.6039626 C7.62274708,17.2987832 7.66953307,16.9717145 7.78327626,16.6706305 C8.1462179,15.7086305 9.09664591,15.0742641 10.1630584,15.0629664 C10.9058911,15.055058 11.6487237,15.061413 12.3915564,15.061413 Z M32.0148455,9.99881227 C29.9682181,9.99897987 27.9214541,10.002332 25.8749632,9.9969686 C25.2847894,9.99546015 24.8956189,9.41956676 25.0247962,8.76456345 C25.1168316,8.29644057 25.4610769,8.00195725 25.9308126,8.00145443 C27.6932772,7.99944316 29.4556053,8.0004488 31.21807,8.0004488 C33.5033887,8.0004488 35.7889805,7.99894034 38.0742993,8.00145443 C38.691237,8.00229246 39.1012999,8.56561542 38.9781308,9.22933422 C38.8869147,9.72075431 38.5727107,9.9969686 38.0865889,9.99747142 C36.0627654,9.9998179 34.0388055,9.99847706 32.0148455,9.99881227 Z M32.0065738,14.9971489 C29.9831273,14.9974837 27.9594078,15.0090347 25.9360979,14.9822498 C25.6902152,14.9792365 25.4031018,14.8335936 25.2123755,14.639738 C24.9724999,14.395828 24.9513385,14.0056056 25.0716176,13.6364762 C25.1921697,13.2663424 25.4276764,13.0723193 25.7404566,13.0068638 C25.7848275,12.9976564 25.8312462,13.0013394 25.8767092,13.0013394 C29.9577336,13.0010046 34.0388944,13.0015068 38.1200552,13.0000001 C38.4698339,12.9998327 38.7387894,13.1725953 38.9020741,13.5516016 C39.045426,13.8844039 39.0299986,14.2215588 38.8649391,14.5433123 C38.6815852,14.9005559 38.4063495,15.0008318 38.0771862,14.9999948 C36.0537397,14.9938008 34.0300202,14.9969815 32.0065738,14.9971489 Z M31.9837357,19.9987977 C29.948529,19.9991329 27.9130492,20.0021495 25.8777059,19.9971218 C25.2862888,19.9956135 24.8972453,19.4243041 25.0239678,18.7683624 C25.1120454,18.312354 25.4534314,18.0033206 25.8934096,18.0021475 C27.3830815,17.9984606 28.8726169,18.0006392 30.3621523,18.0006392 C32.9318329,18.0004716 35.5016501,17.9991309 38.0714673,18.0014772 C38.6895125,18.0019799 39.0997219,18.5613906 38.9788712,19.2258792 C38.8890185,19.7182544 38.5749433,19.9969542 38.0897656,19.997457 C36.0545588,19.9998032 34.019079,19.9984625 31.9837357,19.9987977 Z M35.4860821,42.9999999 C31.3662101,42.999446 27.9988926,39.6192953 28.0000003,35.4853229 C28.001108,31.3499657 31.3825489,27.9977856 35.5506066,28.0000011 C39.653032,28.0023551 43.0045647,31.3978758 42.9999953,35.5474951 C42.9957029,39.6392347 39.6066464,43.0006922 35.4860821,42.9999999 Z M41.3291445,35.3746866 C41.249112,32.1147264 38.5720399,29.5350612 35.2638466,29.6747757 C32.0045314,29.8124133 29.6228039,32.4518968 29.6729281,35.5782351 C29.7305293,39.1602727 32.8279796,41.669873 36.1512655,41.2950392 C39.0440653,40.9686693 41.3834226,38.5013019 41.3291445,35.3746866 Z M34.8807513,36.0546505 C35.0712509,35.8335968 35.2362783,35.6180897 35.4255584,35.4267984 C36.1391867,34.7056006 36.8570151,33.9885966 37.5810761,33.2776803 C37.9501521,32.915255 38.4173232,32.9107907 38.7548299,33.245618 C39.0724196,33.560694 39.0907108,34.0585383 38.7553719,34.3983711 C37.6466535,35.5216324 36.5296702,36.6367766 35.4049639,37.743939 C35.0587858,38.0847189 34.5971698,38.0844483 34.2509917,37.7485387 C33.5713715,37.0891655 32.9029971,36.418158 32.2416682,35.7403862 C31.9113425,35.4017709 31.9261109,34.8962154 32.2464104,34.5869567 C32.5808008,34.2640343 33.0418748,34.2614639 33.3968598,34.6010262 C33.7960147,34.9826618 34.1805366,35.3797197 34.5725105,35.7689311 C34.650824,35.846584 34.7340151,35.9189608 34.8807513,36.0546505 Z"/>
</svg>
