<svg xmlns="http://www.w3.org/2000/svg" width="48" height="48" viewBox="0 0 48 48" class="primary icon">
  <path fill="#F00" d="M36,27 L36,28.0138944 C39.8949822,28.2530982 43.0043966,31.5504676 42.9999953,35.5474951 C42.9957029,39.6392347 39.6066464,43.0006922 35.4860821,42.9999999 C31.3662101,42.999446 27.9988926,39.6192953 28.0000003,35.4853229 C28.0010588,31.5336768 31.0887827,28.2971689 35,28.0193404 L35,27 L34,27 L34,26 L37,26 L37,27 L36,27 Z M8,0 L40,0 C44.418278,-8.11624501e-16 48,3.581722 48,8 L48,40 C48,44.418278 44.418278,48 40,48 L8,48 C3.581722,48 5.41083001e-16,44.418278 0,40 L0,8 C-5.41083001e-16,3.581722 3.581722,8.11624501e-16 8,0 Z M8,2.5 C4.96243388,2.5 2.5,4.96243388 2.5,8 L2.5,40 C2.5,43.0375661 4.96243388,45.5 8,45.5 L40,45.5 C43.0375661,45.5 45.5,43.0375661 45.5,40 L45.5,8 C45.5,4.96243388 43.0375661,2.5 40,2.5 L8,2.5 Z M23.3505026,26.1602922 C22.2083171,26.2799328 21.1134728,26.4727141 20.0163586,26.4874068 C18.9218385,26.5020995 17.8248865,26.3385422 16.6932393,26.2503859 C16.6679475,26.3603391 16.6212549,26.4857922 16.6134728,26.6135057 C16.5847763,27.0919068 16.4119488,27.4605161 15.8851978,27.5284901 C15.2462549,27.6108339 14.5810473,27.7280526 14.0578632,27.2178443 C13.9241083,27.0872245 13.8401265,26.8114536 13.87012,26.6243234 C14.0609436,25.4338911 13.6165532,24.6065786 12.6159047,23.9316828 C12.1254702,23.6010161 11.779653,23.024287 11.4398346,22.5118182 C10.8067283,21.5572766 9.96885538,20.9655318 8.82099546,20.8074641 C8.44907588,20.7561203 8.0855869,20.6445526 7.71885538,20.5575266 C7.26489948,20.4498339 7.01846628,20.1543651 7.01295396,19.6969536 C7.00014591,18.6486047 6.99074254,17.5996099 7.01506161,16.5515839 C7.02738327,16.0121516 7.28159857,15.7433234 7.83834306,15.6023703 C8.22988003,15.5032349 8.63179313,15.4451099 9.02900454,15.3689016 C10.0043612,15.1819328 10.7809501,14.6951359 11.3271563,13.859912 C11.3712549,13.7925839 11.412273,13.7210578 11.4662613,13.6621255 C12.0636997,13.0080578 12.2901913,12.2508182 12.200535,11.3666724 C12.1493029,10.8619536 12.1792964,10.3443182 12.2193418,9.83620885 C12.2639267,9.27094323 12.5533236,9.14500573 13.0286803,9.47163594 C13.3613651,9.70009948 13.687727,9.94487031 13.9823119,10.219188 C14.3506647,10.5619641 14.6804313,10.5810161 15.1327659,10.3331776 C16.7295558,9.45855781 18.4680447,9.09915156 20.2773833,9.14613594 C24.0332198,9.24381823 28.460749,11.5707557 29.5233301,16.3271568 C29.6131485,16.7285422 29.7945687,16.9789641 30.1908074,17.1463964 C30.4685311,17.263938 30.7541991,17.4941776 30.9048152,17.7507349 C31.1851329,18.2281672 30.9427529,18.7890734 30.307701,19.0354589 C29.8093223,19.2288859 29.6147698,19.5382401 29.5014429,20.0226151 C29.1003405,21.7347193 28.1648671,23.1331099 26.7897049,24.2101984 C26.3031615,24.5912401 26.1215791,24.9916568 26.1647049,25.5764589 C26.1959955,26.0030318 26.172487,26.4376776 26.1317931,26.8647349 C26.0891537,27.3158495 25.8589332,27.5278443 25.4156777,27.5993703 C25.3363975,27.6121255 25.254037,27.6069589 25.1732977,27.6108339 C23.6867542,27.6846203 23.5539721,27.5795109 23.3505026,26.1602922 Z M20.9868515,22.3062818 C21.5110084,22.0169484 22.0230058,21.8125422 22.4414559,21.4886568 C23.5970979,20.5936932 23.6236868,19.0091411 22.5118191,18.0615422 C22.2110733,17.8049849 21.8373703,17.6196307 21.4733949,17.4533286 C20.9348087,17.2074276 20.3676881,17.023688 19.8269942,16.7818234 C19.5210603,16.6450682 19.0636997,16.547063 19.1327659,16.111287 C19.2044261,15.6616255 19.6729734,15.6249745 20.0405156,15.5955891 C20.3848735,15.5684641 20.7396077,15.6128651 21.0839656,15.6637245 C21.3209955,15.6989224 21.5479734,15.7999953 21.7801394,15.8695839 C22.3209955,16.0318495 22.4114624,15.9948755 22.6789721,15.4970995 C22.7297179,15.4024849 22.7715467,15.3030266 22.8133755,15.2038911 C23.0744001,14.5837297 23.0037127,14.4035422 22.3600681,14.1858964 C21.9331874,14.0415526 21.4925259,13.9380578 21.0896401,13.8251984 C20.9119488,12.7288964 20.8427205,12.6520422 20.0872082,12.6538182 C19.2874351,12.6555943 19.2332847,12.7227609 19.0787776,13.9031828 C18.6710279,14.1048443 18.2360409,14.2659797 17.8602302,14.5152714 C16.5478113,15.3852089 16.5072795,17.0446776 17.7788424,17.9603078 C18.1457361,18.2244536 18.5739137,18.4128755 18.9918774,18.5953234 C19.3861706,18.7672766 19.8132134,18.8641516 20.2084792,19.0333599 C20.5985571,19.2006307 21.0500811,19.3556307 21.0549449,19.889412 C21.0580253,20.2197557 20.5838035,20.4821255 19.956858,20.5341151 C19.2721952,20.5911099 18.6159047,20.4889068 17.9806907,20.2134589 C17.7976492,20.1340214 17.4458333,20.0586203 17.3897374,20.1367661 C17.1309825,20.4973026 16.8631485,20.8927141 16.7652237,21.3141203 C16.6765402,21.6956464 17.1186608,21.8178703 17.4087062,21.9200734 C17.9108139,22.0973547 18.4341602,22.216188 18.93643,22.3563339 C19.1736219,23.5417609 19.2375,23.5990786 20.2238813,23.5304589 C20.8625,23.4860578 20.8908722,23.4405266 20.9868515,22.3062818 Z M41.3291445,35.3746866 C41.249112,32.1147264 38.5720399,29.5350612 35.2638466,29.6747757 C32.0045314,29.8124133 29.6228039,32.4518968 29.6729281,35.5782351 C29.7305293,39.1602727 32.8279796,41.669873 36.1512655,41.2950392 C39.0440653,40.9686693 41.3834226,38.5013019 41.3291445,35.3746866 Z M36.3574009,33.1304358 C36.3581344,33.4102367 36.3608853,33.6900376 36.3574009,33.9696855 C36.3526327,34.3841091 36.3469475,34.7582988 36.7372048,35.1249925 C37.2046699,35.5640458 37.0086244,36.3168616 36.462851,36.7028308 C35.8763648,37.1177133 35.0169918,37.0958371 34.4657168,36.6518884 C33.924895,36.2166596 33.8291646,35.515704 34.3158858,35.0293798 C34.5656652,34.779869 34.6232501,34.5369363 34.6177484,34.2366361 C34.6030771,33.4230871 34.600693,32.6089261 34.6170148,31.7953771 C34.6294854,31.1631097 35.365986,30.7855544 35.9394515,31.1311368 C36.1417324,31.2529091 36.2204074,31.5183299 36.3522659,31.7198049 C36.3652867,31.7396923 36.3566673,31.7698294 36.3566673,31.7952241 C36.3568507,32.2403967 36.3568507,32.6854163 36.3574009,33.1304358 Z"/>
</svg>
