<svg xmlns="http://www.w3.org/2000/svg" width="48" height="48" viewBox="0 0 48 48" class="primary icon">
  <path fill="#F00" fill-rule="evenodd" d="M8,0 L40,0 C44.418278,-8.11624501e-16 48,3.581722 48,8 L48,40 C48,44.418278 44.418278,48 40,48 L8,48 C3.581722,48 5.41083001e-16,44.418278 0,40 L0,8 C-5.41083001e-16,3.581722 3.581722,8.11624501e-16 8,0 Z M8,2.5 C4.96243388,2.5 2.5,4.96243388 2.5,8 L2.5,40 C2.5,43.0375661 4.96243388,45.5 8,45.5 L40,45.5 C43.0375661,45.5 45.5,43.0375661 45.5,40 L45.5,8 C45.5,4.96243388 43.0375661,2.5 40,2.5 L8,2.5 Z M40.1746582,14 C41.1828553,14 42,14.7861976 42,15.7575207 L42,32.2424793 C42,33.2132166 41.1828553,34 40.1746582,34 L7.82534183,34 C6.81775314,34 6,33.2132166 6,32.2424793 L6,15.7575207 C6,14.7861976 6.81775314,14 7.82534183,14 L40.1746582,14 Z M38.2337114,19.9205015 C38.6352866,19.9205015 38.9608059,19.607077 38.9608059,19.2204224 C38.9608059,18.8337678 38.6352866,18.5191716 38.2337114,18.5191716 L27.263407,18.5191716 C26.8618318,18.5191716 26.535704,18.8337678 26.535704,19.2204224 C26.535704,19.607077 26.8618318,19.9205015 27.263407,19.9205015 L38.2337114,19.9205015 Z M38.2337114,24.5896482 C38.6352866,24.5896482 38.9608059,24.2762237 38.9608059,23.8889833 C38.9608059,23.5023287 38.6352866,23.1889042 38.2337114,23.1889042 L27.263407,23.1889042 C26.8618318,23.1889042 26.535704,23.5023287 26.535704,23.8889833 C26.535704,24.2762237 26.8618318,24.5896482 27.263407,24.5896482 L38.2337114,24.5896482 Z M38.2337114,29.2587949 C38.6352866,29.2587949 38.9608059,28.9453704 38.9608059,28.5587158 C38.9608059,28.1720613 38.6352866,27.8586367 38.2337114,27.8586367 L27.263407,27.8586367 C26.8618318,27.8586367 26.535704,28.1720613 26.535704,28.5587158 C26.535704,28.9453704 26.8618318,29.2587949 27.263407,29.2587949 L38.2337114,29.2587949 Z M21.3833725,22.6493453 C21.4935014,22.5720144 21.5397434,22.4355136 21.4977606,22.3107297 C21.4557777,22.1859457 21.3346967,22.1015847 21.1984045,22.1015847 L17.3530177,22.1015847 L16.1647202,18.580099 C16.1227373,18.455315 16.0016563,18.370954 15.8653641,18.370954 C15.7296804,18.370954 15.6085994,18.455315 15.5666165,18.580099 L14.378319,22.1015847 L10.5329322,22.1015847 C10.3972485,22.1015847 10.2761675,22.1859457 10.2335761,22.3107297 C10.1922017,22.4355136 10.2378353,22.5720144 10.3479642,22.6493453 L13.4589552,24.8257418 L12.2706576,28.3472275 C12.2286748,28.4720115 12.2743083,28.6079264 12.3850457,28.6858432 C12.4951747,28.7625882 12.6442443,28.7625882 12.7549817,28.6858432 L15.8653641,26.5094467 L18.9769635,28.6858432 C19.0317238,28.7239228 19.0968276,28.7438414 19.161323,28.7438414 C19.2264269,28.7438414 19.2915308,28.7239228 19.346291,28.6858432 C19.45642,28.6085123 19.502662,28.4720115 19.4606791,28.3472275 L18.2723816,24.8257418 L21.3833725,22.6493453 Z"/>
</svg>
