<svg xmlns="http://www.w3.org/2000/svg" width="48" height="48" viewBox="0 0 48 48" class="primary icon">
  <path fill="#F00" fill-rule="evenodd" d="M8,0 L40,0 C44.418278,-8.11624501e-16 48,3.581722 48,8 L48,40 C48,44.418278 44.418278,48 40,48 L8,48 C3.581722,48 5.41083001e-16,44.418278 0,40 L0,8 C-5.41083001e-16,3.581722 3.581722,8.11624501e-16 8,0 Z M8,2.5 C4.96243388,2.5 2.5,4.96243388 2.5,8 L2.5,40 C2.5,43.0375661 4.96243388,45.5 8,45.5 L40,45.5 C43.0375661,45.5 45.5,43.0375661 45.5,40 L45.5,8 C45.5,4.96243388 43.0375661,2.5 40,2.5 L8,2.5 Z M18.5535125,14.1986719 C18.5535125,13.7546968 18.5462575,13.3677302 18.5548316,12.9810294 C18.5800265,11.8149471 19.3195153,11.0261307 20.4729386,11.0164299 C22.9784419,10.9954338 25.4843409,10.9931747 27.9898442,11.0177588 C29.1337699,11.0289213 29.8525488,11.8005954 29.8885603,12.961628 C29.900828,13.3580295 29.8904071,13.7552284 29.8904071,14.1986719 L30.3044733,14.1986719 C33.4035727,14.1986719 36.5026722,14.198539 39.6019035,14.1986719 C40.6023108,14.1988047 40.9998883,14.5994587 40.9998883,15.6079371 C41.0000202,21.9296315 41.0005479,28.2511929 40.9972501,34.5728872 C40.9971182,34.7925492 40.9775955,35.0165965 40.9311631,35.2306772 C40.8446299,35.6276103 40.5021909,35.9274031 40.1006561,35.9776343 C39.9376151,35.997966 39.7718039,35.9992949 39.6073118,35.9992949 C29.5734267,36.0002251 19.5398055,35.9999593 9.50592039,35.9998264 C9.45091382,35.9998264 9.39603915,36.000358 9.34103258,35.9995607 C8.33561265,35.9865377 8.00042871,35.6468789 8.0002968,34.6370716 C7.99990107,28.2821555 7.99990107,21.9272395 8.0002968,15.5723235 C8.00042871,14.5909539 8.38732147,14.1989376 9.35303641,14.1988047 C12.2764314,14.1984061 15.1996944,14.1986719 18.1229575,14.1986719 L18.5535125,14.1986719 Z M28.2932377,14.1821939 L28.2932377,13.1480682 C28.2929739,12.6340618 28.2776723,12.617451 27.7504271,12.6171852 C25.3995226,12.6163879 23.04875,12.6165208 20.6979775,12.6169194 C20.5993086,12.6169194 20.4837552,12.5914051 20.4060601,12.633796 C20.307655,12.6872166 20.175481,12.7943234 20.1702046,12.8848193 C20.1454054,13.3112533 20.159256,13.7399464 20.159256,14.1821939 L28.2932377,14.1821939 Z M23.4591228,20.219909 C22.9893904,20.4125949 22.5368063,20.5559799 22.1244549,20.7759076 C21.1980492,21.2703797 20.6231844,22.0283664 20.6057722,23.1222911 C20.588492,24.1909674 21.1584761,24.9295526 22.0442535,25.4042245 C22.6973411,25.7543814 23.4013461,26.0123148 24.093743,26.2826067 C24.6253413,26.490176 25.1820026,26.6411355 25.6009495,27.0619883 C26.0043311,27.467559 25.9520946,28.0054851 25.4409424,28.2363096 C25.0489051,28.4130491 24.6145247,28.5424809 24.1885865,28.5842074 C23.3417227,28.6669959 22.5353553,28.4513205 21.7667143,28.0868118 C21.288012,27.8597082 21.0846064,27.9410349 20.8560059,28.430723 C20.7536436,28.6499864 20.6557662,28.8716417 20.5589441,29.0935628 C20.3387859,29.5982671 20.3949796,29.8433105 20.9199824,30.0264286 C21.6085539,30.2669539 22.325618,30.4285443 23.0367462,30.5966462 C23.2326329,30.6430237 23.3335443,30.6987033 23.3257616,30.9090632 C23.3175831,31.130187 23.3203532,31.3519752 23.3252339,31.5732318 C23.3342038,31.992357 23.5172952,32.1873021 23.9252936,32.1984646 C24.2546735,32.2076337 24.5845811,32.2071022 24.9140929,32.1981988 C25.3234104,32.1873021 25.5070294,31.9952805 25.5178461,31.5754909 C25.5244416,31.3210125 25.5330158,31.0653382 25.5157355,30.8119229 C25.5008297,30.5923938 25.5975199,30.5308672 25.7923513,30.4544572 C26.289521,30.2591135 26.8058178,30.0705471 27.2442874,29.7742093 C28.8770725,28.6703181 28.9286494,26.4513731 27.3357012,25.2936626 C26.8207236,24.9194532 26.198503,24.6895589 25.6137448,24.419267 C24.9483895,24.1117668 24.2653583,23.8428038 23.5996072,23.535968 C23.3609816,23.4260705 23.1508486,23.2044152 23.2318415,22.9341233 C23.2933116,22.7296104 23.5031808,22.5635018 23.6666176,22.4003168 C23.7299346,22.3369297 23.8457518,22.3232424 23.9401995,22.295469 C24.7873271,22.0461732 25.6374887,22.1209886 26.423278,22.4589199 C27.5517702,22.9443556 27.4647095,22.5506118 27.8244287,21.8412617 C28.2200276,21.0614815 28.2837402,20.8560384 27.1888851,20.5026922 C27.1578862,20.4925928 27.1233257,20.4948519 27.0914035,20.4868787 C26.615867,20.3695396 26.1405944,20.2511374 25.6377525,20.1262237 C25.6377525,19.983769 25.6380163,19.8527425 25.6377525,19.7217161 C25.6373568,19.5777996 25.6425013,19.4336173 25.6348505,19.2900995 C25.6116343,18.8582172 25.4818346,18.7128389 25.0598537,18.6909126 C24.7098958,18.6725742 24.3574316,18.6691191 24.0074737,18.686926 C23.5947266,18.7081879 23.4673013,18.8540977 23.4601781,19.2683061 C23.4546379,19.5993273 23.4591228,19.9302156 23.4591228,20.219909 Z"/>
</svg>
