<svg xmlns="http://www.w3.org/2000/svg" width="48" height="48" viewBox="0 0 48 48" class="primary icon">
  <path fill="#F00" fill-rule="evenodd" d="M8,0 L40,0 C44.418278,-8.11624501e-16 48,3.581722 48,8 L48,40 C48,44.418278 44.418278,48 40,48 L8,48 C3.581722,48 5.41083001e-16,44.418278 0,40 L0,8 C-5.41083001e-16,3.581722 3.581722,8.11624501e-16 8,0 Z M8,2.5 C4.96243388,2.5 2.5,4.96243388 2.5,8 L2.5,40 C2.5,43.0375661 4.96243388,45.5 8,45.5 L40,45.5 C43.0375661,45.5 45.5,43.0375661 45.5,40 L45.5,8 C45.5,4.96243388 43.0375661,2.5 40,2.5 L8,2.5 Z M14.4572515,20.356842 C14.4572515,19.7452387 14.4266154,19.123834 14.462595,18.5061717 C14.5938672,16.2506171 15.5215001,14.3251001 17.0073513,12.6660013 C19.2245506,10.1900058 22.0555408,8.80463153 25.2888971,8.26288498 C29.1046957,7.62365969 32.7685606,8.12263678 36.166675,10.0629448 C38.6421439,11.4764756 40.5643816,13.4244465 41.4720654,16.1754141 C42.7008939,19.8990306 41.7299786,23.1552125 39.1271562,25.9853036 C38.2670296,26.9207074 37.2581755,27.679509 36.1474384,28.2928944 C35.8551485,28.4541709 35.7995761,28.6163384 35.8813317,28.9305158 C36.3369548,30.6787176 37.4510761,31.9225962 38.8843829,32.9310646 C39.0001589,33.0125047 39.1170035,33.0921629 39.2336701,33.1728902 C39.2212019,33.2186892 39.20909,33.2646664 39.1967999,33.3106436 C38.5244086,33.1912455 37.836343,33.1272695 37.182832,32.9415787 C35.3115357,32.4099899 33.6871095,31.4248666 32.2404439,30.1309121 C32.1200369,30.0234538 31.9018437,29.9592996 31.739223,29.976051 C30.7827351,30.0737079 29.8298097,30.204333 28.8747468,30.3167811 C28.6652813,30.3413735 28.4814646,30.3255132 28.4335512,30.6261468 C27.9419485,33.7114291 26.1527641,35.864337 23.5100435,37.3742773 C21.3115465,38.6304521 18.9205051,39.1246176 16.4136877,38.9086318 C15.7619579,38.8524969 15.2876326,39.0169811 14.7709154,39.3210007 C13.1701787,40.2622854 11.481096,40.9539032 9.58860385,40.9991676 C8.75252307,41.0191267 8.18415201,40.6798223 7.90575527,40.0174302 C7.61827458,39.3329405 7.80191312,38.6946063 8.39130197,38.0840722 C8.86348991,37.5952529 9.2920392,37.0638423 9.73198797,36.5443715 C9.97654249,36.2556776 9.95837456,36.051097 9.59822217,35.8144393 C8.41748516,35.0388863 7.44639176,34.0569707 6.78522178,32.7851138 C6.01575673,31.3045775 5.82677468,29.7397497 6.15272863,28.1285883 C6.88977641,24.4848082 9.30094504,22.3147925 12.5957517,20.9654159 C13.1933339,20.7207389 13.8254708,20.560888 14.4572515,20.356842 Z M26.5553084,30.3030592 C25.7876245,30.1661969 25.0641136,30.0854695 24.3660734,29.905125 C20.1569927,28.8180677 16.7969953,26.6491213 15.0167167,22.4867614 C14.9761061,22.3919557 14.7582691,22.2921603 14.6528239,22.317822 C12.3303575,22.8830917 10.361275,24.0079287 9.00580532,26.0346666 C8.06018264,27.4483756 7.70537375,29.0078572 8.04753634,30.6922613 C8.32433002,32.0557162 9.14723015,33.0622243 10.2148629,33.8965852 C10.6916819,34.2692142 11.2028774,34.6062019 11.6390857,35.0217785 C12.0671007,35.4293359 12.2202812,35.9530836 11.8902306,36.5149675 C11.5462868,37.1007309 11.1993151,37.6850687 10.8323942,38.2562193 C10.6654987,38.5156874 10.4471274,38.7418309 10.1956263,39.053157 C11.797966,38.7803234 13.108194,38.0897748 14.4120098,37.3496848 C14.864783,37.0928899 15.437607,36.9726007 15.964833,36.9398108 C16.7389291,36.891517 17.526384,37.0483383 18.2990552,36.9932726 C20.6135063,36.8286102 22.6730722,36.0047634 24.3824602,34.4055418 C25.5623066,33.3019115 26.3287437,31.9655439 26.5553084,30.3030592 Z"/>
</svg>
