<svg xmlns="http://www.w3.org/2000/svg" width="48" height="48" viewBox="0 0 48 48" class="primary icon">
  <path fill="#F00" fill-rule="evenodd" d="M8,0 L40,0 C44.418278,-8.11624501e-16 48,3.581722 48,8 L48,40 C48,44.418278 44.418278,48 40,48 L8,48 C3.581722,48 5.41083001e-16,44.418278 0,40 L0,8 C-5.41083001e-16,3.581722 3.581722,8.11624501e-16 8,0 Z M8,2.5 C4.96243388,2.5 2.5,4.96243388 2.5,8 L2.5,40 C2.5,43.0375661 4.96243388,45.5 8,45.5 L40,45.5 C43.0375661,45.5 45.5,43.0375661 45.5,40 L45.5,8 C45.5,4.96243388 43.0375661,2.5 40,2.5 L8,2.5 Z M13.2006001,14.6226841 C14.3095265,13.4862197 15.3681812,12.3921607 16.4376971,11.310334 C16.8501116,10.8932934 17.3678796,10.9030792 17.7357632,11.3005482 C18.0955786,11.6895361 18.0920099,12.2662494 17.6999214,12.686552 C16.9761013,13.4624075 16.2389375,14.2245628 15.5073595,14.9925896 C14.986178,15.5396191 14.4673239,16.0894213 13.9430393,16.6333519 C13.4972654,17.0957338 12.9919103,17.1324307 12.536982,16.676899 C11.7698724,15.9088722 11.0223129,15.118501 10.2871662,14.316713 C9.8977153,13.8920067 9.91447255,13.254458 10.276305,12.8884669 C10.6587737,12.5015993 11.223555,12.5382962 11.6535026,12.987304 C12.1659951,13.5221012 12.6722812,14.0635854 13.2006001,14.6226841 Z M13.2006001,24.6226841 C14.3095265,23.4862197 15.3681812,22.3921607 16.4376971,21.310334 C16.8501116,20.8932934 17.3678796,20.9030792 17.7357632,21.3005482 C18.0955786,21.6895361 18.0920099,22.2662494 17.6999214,22.686552 C16.9761013,23.4624075 16.2389375,24.2245628 15.5073595,24.9925896 C14.986178,25.5396191 14.4673239,26.0894213 13.9430393,26.6333519 C13.4972654,27.0957338 12.9919103,27.1324307 12.536982,26.676899 C11.7698724,25.9088722 11.0223129,25.118501 10.2871662,24.316713 C9.8977153,23.8920067 9.91447255,23.254458 10.276305,22.8884669 C10.6587737,22.5015993 11.223555,22.5382962 11.6535026,22.987304 C12.1659951,23.5221012 12.6722812,24.0635854 13.2006001,24.6226841 Z M13.2006001,34.6226841 C14.3095265,33.4862197 15.3681812,32.3921607 16.4376971,31.310334 C16.8501116,30.8932934 17.3678796,30.9030792 17.7357632,31.3005482 C18.0955786,31.6895361 18.0920099,32.2662494 17.6999214,32.686552 C16.9761013,33.4624075 16.2389375,34.2245628 15.5073595,34.9925896 C14.986178,35.5396191 14.4673239,36.0894213 13.9430393,36.6333519 C13.4972654,37.0957338 12.9919103,37.1324307 12.536982,36.676899 C11.7698724,35.9088722 11.0223129,35.118501 10.2871662,34.316713 C9.8977153,33.8920067 9.91447255,33.254458 10.276305,32.8884669 C10.6587737,32.5015993 11.223555,32.5382962 11.6535026,32.987304 C12.1659951,33.5221012 12.6722812,34.0635854 13.2006001,34.6226841 Z M30.0376775,13.000662 C32.3406817,13.000662 34.6436859,12.9984988 36.9468464,13.0019932 C37.5892692,13.0028252 37.9693797,13.3377925 37.9982825,13.9070539 C38.0296849,14.5230743 37.627702,14.9775183 37.0205876,14.9941585 C36.6045438,15.0056403 36.1878752,14.9966546 35.771519,14.9966546 C31.5429652,14.9966546 27.3140988,14.997653 23.0853887,14.9956561 C22.2872034,14.9953233 21.7981998,14.318067 22.0806658,13.6065318 C22.2525201,13.1735537 22.5804494,12.9983324 23.0114913,13.0003292 C23.8832615,13.0041564 24.7550316,13.000662 25.626958,13.000662 C27.0970937,13.0004956 28.5673856,13.000662 30.0376775,13.000662 Z M30.0376775,22.000662 C32.3406817,22.000662 34.6436859,21.9984988 36.9468464,22.0019932 C37.5892692,22.0028252 37.9693797,22.3377925 37.9982825,22.9070539 C38.0296849,23.5230743 37.627702,23.9775183 37.0205876,23.9941585 C36.6045438,24.0056403 36.1878752,23.9966546 35.771519,23.9966546 C31.5429652,23.9966546 27.3140988,23.997653 23.0853887,23.9956561 C22.2872034,23.9953233 21.7981998,23.318067 22.0806658,22.6065318 C22.2525201,22.1735537 22.5804494,21.9983324 23.0114913,22.0003292 C23.8832615,22.0041564 24.7550316,22.000662 25.626958,22.000662 C27.0970937,22.0004956 28.5673856,22.000662 30.0376775,22.000662 Z M30.0376775,31.000662 C32.3406817,31.000662 34.6436859,30.9984988 36.9468464,31.0019932 C37.5892692,31.0028252 37.9693797,31.3377925 37.9982825,31.9070539 C38.0296849,32.5230743 37.627702,32.9775183 37.0205876,32.9941585 C36.6045438,33.0056403 36.1878752,32.9966546 35.771519,32.9966546 C31.5429652,32.9966546 27.3140988,32.997653 23.0853887,32.9956561 C22.2872034,32.9953233 21.7981998,32.318067 22.0806658,31.6065318 C22.2525201,31.1735537 22.5804494,30.9983324 23.0114913,31.0003292 C23.8832615,31.0041564 24.7550316,31.000662 25.626958,31.000662 C27.0970937,31.0004956 28.5673856,31.000662 30.0376775,31.000662 Z"/>
</svg>
