<svg xmlns="http://www.w3.org/2000/svg" width="48" height="48" viewBox="0 0 48 48" class="primary icon">
  <path fill="#F00" d="M8,0 L40,0 C44.418278,-8.11624501e-16 48,3.581722 48,8 L48,40 C48,44.418278 44.418278,48 40,48 L8,48 C3.581722,48 5.41083001e-16,44.418278 0,40 L0,8 C-5.41083001e-16,3.581722 3.581722,8.11624501e-16 8,0 Z M8,2.5 C4.96243388,2.5 2.5,4.96243388 2.5,8 L2.5,40 C2.5,43.0375661 4.96243388,45.5 8,45.5 L40,45.5 C43.0375661,45.5 45.5,43.0375661 45.5,40 L45.5,8 C45.5,4.96243388 43.0375661,2.5 40,2.5 L8,2.5 Z M38.9459045,27.3651732 C37.5694395,26.5125722 36.1124331,26.0629056 34.5144076,26.0011076 L34.5144076,11.7324914 L29.2229427,11.7324914 C29.5166369,12.0749712 29.7040892,12.4382742 29.7453631,12.8766177 C29.8412866,13.894653 29.0469554,14.8311227 28.0312548,14.8348652 C25.3881019,14.844749 22.744949,14.8413904 20.1018917,14.8331379 C19.2827197,14.830547 18.5374968,14.0858045 18.4591529,13.2460621 C18.4058408,12.6731833 18.5642484,12.1771682 18.9831975,11.7289409 L13.4545032,11.7289409 C13.4502038,11.8130975 13.4419873,11.8977338 13.4419873,11.9822742 C13.4413185,20.3224106 13.4423694,28.6626429 13.4365414,37.0027793 C13.4363503,37.2391278 13.510586,37.2935369 13.7344395,37.293153 C17.5957452,37.2869157 21.457051,37.2904662 25.3183567,37.2840369 C25.5413503,37.283749 25.6441529,37.3366227 25.714949,37.5688449 C26.209949,39.1895066 27.1026879,40.5560672 28.3743439,41.6718854 C28.4342484,41.7244712 28.4946306,41.7766732 28.5531975,41.8307944 C28.5629427,41.8398146 28.5643758,41.8578551 28.5770828,41.8917288 C28.4952994,41.896047 28.4202994,41.9033399 28.3452038,41.9033399 C22.7164777,41.9039157 17.0877516,41.8973904 11.4590255,41.9103449 C10.5571146,41.9124561 9.84571338,41.615653 9.35205096,40.8469207 C9.1366051,40.51135 9.02835669,40.1382591 9.00542675,39.7406025 C8.99940764,39.6369662 9.00256051,39.532754 9.00256051,39.4288298 C9.00246497,29.4494157 9.00361146,19.4700015 8.99998089,9.49068333 C8.99978981,8.80956212 9.20109554,8.21950657 9.67956688,7.73279949 C10.1361592,7.26835505 10.7003312,7.07461263 11.3410318,7.07470859 C13.9365096,7.07547626 16.5318917,7.07240556 19.1272739,7.07979444 C19.3424331,7.0803702 19.4546943,7.02135505 19.5648535,6.82367828 C20.6267006,4.91926414 22.2365732,3.89969343 24.4262866,4.01906717 C26.3492484,4.12385505 27.7475924,5.14323384 28.6639299,6.82924394 C28.7664459,7.01790051 28.8702038,7.08085 29.0808726,7.08017828 C31.5648535,7.07221364 34.0488344,7.07480455 36.5328153,7.07518838 C37.9844713,7.0753803 38.9453312,8.03411263 38.9455223,9.48598131 C38.9462866,15.355254 38.9458089,21.2245268 38.9459045,27.0937995 L38.9459045,27.3651732 Z M24.9181338,9.41477929 C24.9246306,8.93123889 24.5810637,8.55574899 24.1258089,8.5488399 C23.6740892,8.54193081 23.3027197,8.91857222 23.2972739,9.38896616 C23.2919236,9.84688535 23.6481019,10.2306278 24.0880701,10.2412793 C24.5519236,10.2525066 24.9117325,9.89428939 24.9181338,9.41477929 Z M23.996044,24.9993856 C21.3270719,24.9993856 18.6580998,24.9993856 15.9891277,24.9993161 C15.8921218,24.9993161 15.7950189,24.9993161 15.698013,24.9971621 C15.294356,24.9879905 15.0041152,24.7835733 15.0000369,24.506547 C14.9962499,24.2437646 15.2845486,24.0238528 15.6632501,24.00141 C15.7033537,23.9990476 15.7440398,24.0003677 15.7844346,24.0003677 C21.2679362,24.0002982 26.7514377,24.0000203 32.2349392,24.0007846 C32.7134627,24.0008541 33.0172978,24.2152768 32.9992367,24.531908 C32.9852539,24.7760692 32.7088988,24.9806948 32.3668051,24.9974401 C32.2781501,25.001748 32.1889124,24.9993161 32.0999661,24.9993161 C29.3986587,24.9993856 26.6973514,24.9993856 23.996044,24.9993856 Z M23.9829226,19.9984808 C21.249055,19.9984113 18.5151873,19.9987586 15.7813196,19.9979252 C15.4049042,19.9977863 15.1465799,19.8843047 15.0449011,19.6835242 C14.8832056,19.3639839 15.1750344,19.0352761 15.6507007,19.0018706 C15.690809,18.9990232 15.7314999,19.0002733 15.7719966,19.0002733 C21.2557558,19.0002038 26.7397093,19.0000649 32.2235656,19.0005511 C32.6880638,19.0006205 32.9904781,19.193067 32.9998011,19.4885081 C33.0086385,19.7677673 32.7220539,19.9884105 32.330003,19.9972307 C32.095666,20.0025089 31.8609404,19.9986197 31.6264091,19.9986197 C29.0785156,19.9986197 26.5307191,19.9986197 23.9829226,19.9984808 Z M19.9927949,29.9933692 C18.5330799,29.9933692 17.0732767,29.9955304 15.6135617,29.9917657 C15.271167,29.9908594 15.0185562,29.787705 15.0008462,29.5230606 C14.9841053,29.2745904 15.2175963,29.0511485 15.5392851,29.0134317 C15.633034,29.0024862 15.7290736,29.0004644 15.824056,29.0004644 C18.6119382,28.999837 21.3997322,28.9997673 24.1875262,29.0007433 C24.2970467,29.0007433 24.4084175,29.0039503 24.5154709,29.0200548 C24.8194497,29.0657192 25.0124983,29.2721503 24.9993699,29.5262675 C24.9863297,29.7786418 24.7697558,29.9684803 24.4604023,29.9940663 C24.3730855,30.0012472 24.2845351,29.9997831 24.1965134,29.9997831 C22.7953033,30.000062 21.3940932,29.9999923 19.9927949,29.9999923 C19.9927949,29.9977613 19.9927949,29.9955304 19.9927949,29.9933692 Z M35.4860821,42.9999999 C31.3662101,42.999446 27.9988926,39.6192953 28.0000003,35.4853229 C28.001108,31.3499657 31.3825489,27.9977856 35.5506066,28.0000011 C39.653032,28.0023551 43.0045647,31.3978758 42.9999953,35.5474951 C42.9957029,39.6392347 39.6066464,43.0006922 35.4860821,42.9999999 Z M41.3291445,35.3746866 C41.249112,32.1147264 38.5720399,29.5350612 35.2638466,29.6747757 C32.0045314,29.8124133 29.6228039,32.4518968 29.6729281,35.5782351 C29.7305293,39.1602727 32.8279796,41.669873 36.1512655,41.2950392 C39.0440653,40.9686693 41.3834226,38.5013019 41.3291445,35.3746866 Z M34.8807513,36.0546505 C35.0712509,35.8335968 35.2362783,35.6180897 35.4255584,35.4267984 C36.1391867,34.7056006 36.8570151,33.9885966 37.5810761,33.2776803 C37.9501521,32.915255 38.4173232,32.9107907 38.7548299,33.245618 C39.0724196,33.560694 39.0907108,34.0585383 38.7553719,34.3983711 C37.6466535,35.5216324 36.5296702,36.6367766 35.4049639,37.743939 C35.0587858,38.0847189 34.5971698,38.0844483 34.2509917,37.7485387 C33.5713715,37.0891655 32.9029971,36.418158 32.2416682,35.7403862 C31.9113425,35.4017709 31.9261109,34.8962154 32.2464104,34.5869567 C32.5808008,34.2640343 33.0418748,34.2614639 33.3968598,34.6010262 C33.7960147,34.9826618 34.1805366,35.3797197 34.5725105,35.7689311 C34.650824,35.846584 34.7340151,35.9189608 34.8807513,36.0546505 Z"/>
</svg>
