<svg xmlns="http://www.w3.org/2000/svg" width="48" height="48" viewBox="0 0 48 48" class="primary icon">
  <path fill="#F00" fill-rule="evenodd" d="M8,0 L40,0 C44.418278,-8.11624501e-16 48,3.581722 48,8 L48,40 C48,44.418278 44.418278,48 40,48 L8,48 C3.581722,48 5.41083001e-16,44.418278 0,40 L0,8 C-5.41083001e-16,3.581722 3.581722,8.11624501e-16 8,0 Z M8,2.5 C4.96243388,2.5 2.5,4.96243388 2.5,8 L2.5,40 C2.5,43.0375661 4.96243388,45.5 8,45.5 L40,45.5 C43.0375661,45.5 45.5,43.0375661 45.5,40 L45.5,8 C45.5,4.96243388 43.0375661,2.5 40,2.5 L8,2.5 Z M23.9601085,13.0863724 C28.2950397,13.0862345 32.6298332,13.085269 36.9646267,13.0866483 C38.8548615,13.0873379 40.3384729,14.2335448 40.7975417,16.0655448 C40.8773798,16.3840276 40.9068372,16.7230621 40.9072502,17.0525793 C40.9137198,22.3615448 40.9123433,27.6703724 40.9115174,32.9792 C40.9112421,35.3088552 39.2327158,36.9956138 36.8970397,36.9975448 C31.4728696,37.0020966 26.0485619,36.9989241 20.6242543,36.9989241 C17.4246753,36.9989241 14.225234,37.0014069 11.0257927,36.9978207 C9.65560648,36.9963034 8.52617328,36.4848552 7.71223806,35.3587862 C7.25027854,34.7196138 7.0052583,33.9940966 7.00457004,33.2029241 C7.00030283,27.7561655 6.99658623,22.3094069 7.0052583,16.8626483 C7.00856194,14.8106483 8.73168745,13.0929931 10.7836632,13.089131 C15.1758575,13.0809931 19.5680518,13.0866483 23.9601085,13.0863724 Z M23.9484081,18.6723034 L33.9613393,18.6723034 C35.7963757,18.6723034 37.6315498,18.6674759 39.4665862,18.6776828 C39.7318413,18.6790621 39.8368696,18.6117517 39.8222785,18.3321655 C39.8013555,17.9310621 39.8175984,17.5280276 39.8169101,17.1256828 C39.8138818,15.3476138 38.6412259,14.177131 36.8615255,14.1769931 C28.9819223,14.1767172 21.102319,14.1768552 13.2228534,14.1768552 C12.4085053,14.1768552 11.5940194,14.1666483 10.7798089,14.1801655 C9.47624615,14.2018207 8.33001943,15.1844414 8.15905587,16.4677517 C8.08224615,17.0444414 8.10509636,17.6350621 8.09367126,18.2196138 C8.08486154,18.6714759 8.09243239,18.6721655 8.53333117,18.6721655 C13.671736,18.6723034 18.8100032,18.6723034 23.9484081,18.6723034 Z M23.9603838,22.2689931 C18.8108291,22.2689931 13.6614121,22.2717517 8.51185749,22.2622345 C8.18796275,22.2616828 8.08320972,22.341131 8.08444858,22.6798897 C8.09656194,26.0928552 8.09133117,29.5060966 8.09201943,32.9192 C8.09229474,34.7245793 9.2532502,35.8902345 11.0607563,35.8906483 C19.6509182,35.8921655 28.2409425,35.8920276 36.8311045,35.8906483 C38.6603595,35.8905103 39.8163595,34.7298207 39.8167725,32.8992 C39.817736,29.5204414 39.8171854,26.1418207 39.8170478,22.7632 C39.8170478,22.2694069 39.8166348,22.2689931 39.3055336,22.2689931 C34.1905296,22.2688552 29.0753879,22.2688552 23.9603838,22.2689931 Z M33.5182891,33.3602309 C32.2424426,34.1767318 31.1874264,34.1578428 30.4795276,33.3059078 C29.8249041,32.518223 29.8424324,31.3786789 30.5203812,30.6380098 C31.2914926,29.7953125 32.3128323,29.7882808 33.4982764,30.6170527 C34.6165053,29.7798704 35.74826,29.7954504 36.501705,30.6584154 C37.1804819,31.4356217 37.1637816,32.6239738 36.4638879,33.3514068 C35.6349465,34.213131 34.5813104,34.2163021 33.5182891,33.3602309 Z M33.4931697,32.2763887 C34.0747812,33.2820553 34.5673705,33.5718703 35.338758,33.3988361 C35.9402443,33.2638557 36.4086803,32.7046311 36.4535365,32.0675068 C36.4965983,31.4585091 36.0963436,30.817662 35.4863002,30.6341493 C35.2161973,30.5529404 34.8982018,30.5685204 34.6130548,30.6120891 C34.0308912,30.7010191 33.7748662,31.184274 33.4931697,31.6945526 C33.0942951,30.8273134 32.5027462,30.3535719 31.5610435,30.6125028 C30.9271228,30.7869157 30.5383236,31.3715094 30.5532296,32.0127701 C30.5677216,32.6365205 30.9933718,33.2296624 31.5752594,33.3781548 C32.5296599,33.6219193 33.0959513,33.1194996 33.4931697,32.2763887 Z"/>
</svg>
