<svg xmlns="http://www.w3.org/2000/svg" width="48" height="48" viewBox="0 0 48 48" class="primary icon">
  <path fill="#F00" d="M8,0 L40,0 C44.418278,-8.11624501e-16 48,3.581722 48,8 L48,40 C48,44.418278 44.418278,48 40,48 L8,48 C3.581722,48 5.41083001e-16,44.418278 0,40 L0,8 C-5.41083001e-16,3.581722 3.581722,8.11624501e-16 8,0 Z M8,2.5 C4.96243388,2.5 2.5,4.96243388 2.5,8 L2.5,40 C2.5,43.0375661 4.96243388,45.5 8,45.5 L40,45.5 C43.0375661,45.5 45.5,43.0375661 45.5,40 L45.5,8 C45.5,4.96243388 43.0375661,2.5 40,2.5 L8,2.5 Z M15.9085712,29.99569 C15.5797152,29.99569 15.2504644,30.0069239 14.9221348,29.9931184 C14.406677,29.9714628 14.1133516,29.7332511 14.0521599,29.2124337 C13.9957057,28.7339801 14.0066281,28.2465936 13.9992587,27.7628614 C13.9914946,27.2454277 13.9626753,27.2490821 13.4423485,27.1483835 C12.5099976,26.9681005 11.5802787,26.7650792 10.6616137,26.5234838 C10.2749875,26.4218378 9.9074425,26.2197639 9.55174111,26.0240513 C9.01812321,25.7306178 8.88060639,25.3653148 9.10010692,24.7884635 C9.31473844,24.2243349 9.56082116,23.6715755 9.81966861,23.1272076 C10.1232584,22.4889085 10.4936984,22.3815779 11.1402249,22.6318355 C11.9247945,22.9354201 12.7076534,23.2752778 13.5209108,23.46111 C14.9250298,23.7818837 16.3292805,23.7638825 17.6449678,23.033141 C18.2720181,22.6847564 18.5546843,22.233237 18.3872954,21.6567917 C18.2901783,21.3224833 18.0639664,20.9910171 17.8134094,20.7482036 C17.2199158,20.1732472 16.4581121,19.8945665 15.6960452,19.6363234 C14.3446957,19.1784426 12.98953,18.7316603 11.7626694,17.9630216 C10.7043821,17.2998185 9.84230296,16.4621525 9.46146691,15.2068039 C8.91074166,13.3913872 9.61095887,11.3794457 11.1939156,10.2007039 C12.0212537,9.58460178 12.9434717,9.18180746 13.9354351,8.94819757 C14.1730958,8.89229903 14.2763979,8.79417206 14.26337,8.52144673 C14.2387617,8.00401302 14.2519212,7.48441375 14.2583694,6.96576192 C14.2658703,6.36887919 14.4661579,6.07138526 15.0316218,6.03294656 C15.7713176,5.98273261 16.5193038,5.99301903 17.2595259,6.04282693 C17.7562972,6.07639312 17.9813247,6.38755716 17.9979057,6.90796851 C18.0121179,7.35867587 18.0200136,7.81073671 18.0002744,8.26076734 C17.9889572,8.51643887 18.0860743,8.61524259 18.313997,8.66829883 C19.0797485,8.84628086 19.8456316,9.02534568 20.6037507,9.23351022 C20.9927456,9.3401641 21.37674,9.48376785 21.7428374,9.65606529 C22.2350028,9.88764496 22.3979175,10.3217046 22.1876286,10.8321002 C21.9490468,11.4105757 21.6851987,11.978494 21.4135866,12.5415398 C21.1235511,13.1423477 20.7432414,13.2790487 20.1429048,12.9992853 C18.9568387,12.4465259 17.7158975,12.1677099 16.4146857,12.2034417 C15.765659,12.2213075 15.1355819,12.3448798 14.5441938,12.6477877 C14.1578308,12.8455305 13.8593732,13.1068866 13.8276588,13.5742417 C13.79476,14.058786 14.0592661,14.4064938 14.442076,14.6116807 C15.0997881,14.9643965 15.7764498,15.2831399 16.4604808,15.5788744 C17.618254,16.0792543 18.8161636,16.4901695 19.9453807,17.0494256 C21.3821353,17.7609477 22.4446337,18.8770236 22.8553418,20.5190602 C23.3480337,22.4889085 22.559911,24.4858263 20.8307521,25.7277755 C20.032365,26.3013785 19.1566,26.706203 18.2139847,26.9486105 C17.9074999,27.0273828 17.7923542,27.1711219 17.8109091,27.5059717 C17.8393336,28.0227287 17.8263057,28.5434107 17.8045925,29.0611151 C17.7791947,29.6715326 17.4550761,29.9814785 16.8617141,29.9931184 C16.5441752,29.9994798 16.2262416,29.9942012 15.9085712,29.9942012 L15.9085712,29.99569 Z M30.7981873,39.7312703 C28.8989095,35.5035676 27.0092111,31.2973514 25.0929333,27.0320811 C29.759973,28.0337027 34.3656238,29.0220811 39.0387349,30.0249189 C37.9400762,31.2819459 36.8735286,32.5022162 35.7863381,33.746 C37.846981,35.2646486 39.8844175,36.7662703 41.9396635,38.2811351 C41.0316476,39.5232973 40.1398222,40.7432973 39.2214175,42.0000541 C37.4059254,40.0905946 35.6122905,38.2042432 33.7904571,36.2882973 C32.7896159,37.4399189 31.8056397,38.5720811 30.7981873,39.7312703 Z"/>
</svg>
