<svg xmlns="http://www.w3.org/2000/svg" width="48" height="48" viewBox="0 0 48 48" class="primary icon">
  <path fill="#F00" fill-rule="evenodd" d="M8,0 L40,0 C44.418278,-8.11624501e-16 48,3.581722 48,8 L48,40 C48,44.418278 44.418278,48 40,48 L8,48 C3.581722,48 5.41083001e-16,44.418278 0,40 L0,8 C-5.41083001e-16,3.581722 3.581722,8.11624501e-16 8,0 Z M8,2.5 C4.96243388,2.5 2.5,4.96243388 2.5,8 L2.5,40 C2.5,43.0375661 4.96243388,45.5 8,45.5 L40,45.5 C43.0375661,45.5 45.5,43.0375661 45.5,40 L45.5,8 C45.5,4.96243388 43.0375661,2.5 40,2.5 L8,2.5 Z M36.2206618,24.0874178 C36.9946018,24.1530075 37.7346381,24.1411896 38.4425243,24.2877323 C41.0618785,24.8295859 42.9528875,27.1866785 42.9990667,29.8906284 C43.046415,32.683213 41.2880982,35.0810776 38.6669902,35.7346109 C38.0444479,35.8900172 37.3891709,35.9762883 36.7490921,35.9774701 C29.1271862,35.9940152 21.5041112,35.9922425 13.8822052,35.98397 C12.8516492,35.9827882 11.7924504,36.0661048 10.7952135,35.8640176 C7.40308834,35.1785758 4.93805442,32.01018 5.00118547,28.5746983 C5.06782381,24.9536745 7.58722059,21.9028674 11.0565059,21.3096057 C11.8713642,21.1707447 12.7131116,21.2008805 13.6454638,21.1476996 C14.5538495,17.3594517 16.7587601,14.4888686 20.4431587,12.8946254 C22.8064815,11.8723716 25.2545635,11.7571465 27.738303,12.3911802 C32.1791051,13.5251137 36.3884267,17.7825348 36.2206618,24.0874178 Z M23.4401302,28.8181483 C23.3968738,28.8423751 23.3536173,28.8666019 23.3097763,28.8902379 C22.787776,28.3259301 22.2716211,27.7551226 21.7420217,27.1979056 C21.2866598,26.7204599 20.7786886,26.661961 20.402825,27.0224089 C20.022285,27.3864021 20.0632033,27.7763949 20.5466235,28.3052487 C21.5812714,29.4374095 22.6176729,30.5689795 23.6575816,31.6964131 C24.0124016,32.0804969 24.5864265,32.0550883 24.9511837,31.6544593 C25.3095109,31.262103 25.6672536,30.8685648 26.0285035,30.478572 C26.7381434,29.7127681 27.4512905,28.9505095 28.1603458,28.1847055 C28.4976293,27.8201213 28.5853113,27.4360376 28.2059404,27.0436812 C27.8815169,26.7074602 27.3752994,26.702733 26.9994358,27.0489993 C26.7743853,27.2558136 26.5844076,27.5010364 26.3751398,27.7255776 C26.0068753,28.1202976 25.6356881,28.5120631 25.1423306,29.0361897 L25.1423306,28.1864782 C25.1423306,25.6137077 25.1429151,23.0409372 25.1423306,20.4681668 C25.1423306,19.5280478 24.8711008,19.1002376 24.2824622,19.1073284 C23.6955772,19.1138283 23.4401302,19.5298205 23.4401302,20.4853028 L23.4401302,28.8181483 Z"/>
</svg>
