<svg xmlns="http://www.w3.org/2000/svg" width="48" height="48" viewBox="0 0 48 48" class="primary icon">
  <path fill="#F00" fill-rule="evenodd" d="M8,0 L40,0 C44.418278,-8.11624501e-16 48,3.581722 48,8 L48,40 C48,44.418278 44.418278,48 40,48 L8,48 C3.581722,48 5.41083001e-16,44.418278 0,40 L0,8 C-5.41083001e-16,3.581722 3.581722,8.11624501e-16 8,0 Z M8,2.5 C4.96243388,2.5 2.5,4.96243388 2.5,8 L2.5,40 C2.5,43.0375661 4.96243388,45.5 8,45.5 L40,45.5 C43.0375661,45.5 45.5,43.0375661 45.5,40 L45.5,8 C45.5,4.96243388 43.0375661,2.5 40,2.5 L8,2.5 Z M41.8851366,31.4525297 C41.3865512,31.3478713 40.9031854,31.2331634 40.4142585,31.149896 C40.1785024,31.1098416 40.1133805,30.9941287 40.1296244,30.7856733 C40.1381122,30.6787178 40.1307951,30.5704703 40.1307951,30.462797 L40.1307951,15.3179059 L40.1307951,14.7496782 L39.6884049,14.7496782 C29.2011366,14.7496782 18.714161,14.7496782 8.22718537,14.7498218 C7.75816098,14.7498218 7.75728293,14.750396 7.75728293,15.2237277 C7.75699024,20.8462822 7.7561122,26.4686931 7.75772195,32.0912475 C7.75816098,34.0210396 8.9790878,35.2192277 10.9539659,35.2199455 C18.331478,35.2223861 25.7089902,35.2241089 33.0865024,35.2111881 C33.4295268,35.2106139 33.5888927,35.3233119 33.7039171,35.6124505 C33.8751366,36.0425693 34.0735756,36.4622079 34.2800634,36.9305149 L33.8849415,36.9305149 C26.178161,36.9305149 18.4713805,36.9320941 10.7647463,36.9295099 C8.44655122,36.9286485 6.58025854,35.4487871 6.10962439,33.2368911 C6.04289268,32.9230594 6.00747805,32.5967376 6.00718537,32.2761584 C6.00147805,25.732495 5.99401463,19.1888317 6.00791707,12.6451683 C6.0126,10.4400198 7.45391707,8.64704455 9.58303902,8.14069307 C9.95738049,8.0515396 10.3533805,8.01421287 10.7395756,8.01392574 C19.5437707,8.00703465 28.3481122,8.00473762 37.1523073,8.01091089 C39.8779171,8.01277723 41.8813317,9.97659406 41.8946488,12.7469554 C41.9240634,18.9434802 41.9028439,25.1402921 41.9019659,31.3369604 C41.9019659,31.360505 41.8953805,31.3840495 41.8851366,31.4525297 Z M10.9049415,11.3954406 C10.9039171,10.6926931 10.3476732,10.1490149 9.63367317,10.1528911 C8.91938049,10.1570545 8.38889268,10.6958515 8.3921122,11.4142475 C8.39518537,12.1096733 8.92420976,12.6298069 9.63499024,12.6361238 C10.3506,12.6425842 10.9058195,12.1000545 10.9049415,11.3954406 Z M14.4946976,10.153896 C13.8020634,10.1579158 13.2159659,10.7436584 13.2298683,11.4179802 C13.2437707,12.096896 13.8006,12.6322475 14.4985024,12.6375594 C15.2056244,12.6428713 15.7845512,12.0829703 15.7826488,11.3954406 C15.7807463,10.7135099 15.1959659,10.1498762 14.4946976,10.153896 Z M34.8120182,19.1123448 C34.8858391,19.4539677 34.9894551,19.7122572 34.9903445,19.9709907 C35.0020551,23.4477589 34.9998316,26.9245272 34.9998316,30.4015915 C34.9998316,30.4374115 34.9864904,30.4732316 34.9734458,30.538359 C33.6298465,30.2500222 32.2899531,29.9624254 30.8588954,29.6551424 C31.3624486,30.7890996 31.8397643,31.8635541 32.334127,32.976789 C32.1885606,32.98567 32.0723446,32.9988435 31.9561286,32.9988435 C26.4490614,32.9997316 20.9421425,33.0010637 15.4349271,32.9985474 C14.244306,32.9981034 13.3915118,32.4061839 13.1159435,31.3773187 C13.0403438,31.0953465 13.0062498,30.7939842 13.0058051,30.5012068 C12.9982452,27.1353032 12.9986899,23.7693996 13.0035816,20.403496 C13.0043228,19.9248094 13.0662849,19.4530796 13.3548978,19 C13.9719989,19.5371532 14.5662718,20.0503277 15.1560976,20.5683868 C17.6193136,22.7319493 20.0814918,24.8964 22.542929,27.0618868 C22.8854993,27.3631012 23.2190274,27.6746767 23.561746,27.975743 C23.9175093,28.2885026 24.1457907,28.3031563 24.5046669,27.9958733 C26.1051569,26.6252371 27.6991246,25.246904 29.2950193,23.8707911 C31.104965,22.3102493 32.9144659,20.7491153 34.8120182,19.1123448 Z M23.9979042,27 C20.6800898,24.0829832 17.3860778,21.1867276 14,18.2095184 C14.4076347,18.1254283 14.705988,18.0107192 15.004491,18.0102711 C20.951497,17.9983222 26.898503,17.995335 32.845509,18.0092256 C33.2269461,18.0101217 33.6079341,18.161723 33.9892216,18.243274 C33.9928144,18.2844976 33.9964072,18.3260199 34,18.3672434 C30.679491,21.2333282 27.358982,24.0991142 23.9979042,27 Z M36.3691593,38.9162148 C35.2404885,36.5644058 34.1300817,34.2510069 33.0037556,31.9045199 C35.7571892,32.4576485 38.4722436,33.0030257 41.2306135,33.5571955 C40.5839663,34.2511226 39.9602726,34.9208699 39.3159701,35.6123674 C40.5328762,36.4531091 41.726582,37.2776537 42.941637,38.117007 C42.4019828,38.8100085 41.8781245,39.4827638 41.3418022,40.171369 C40.2770557,39.1248094 39.2214411,38.0872739 38.136456,37.0209307 C37.5500309,37.6497226 36.9736017,38.2678708 36.3691593,38.9162148 Z"/>
</svg>
