<svg xmlns="http://www.w3.org/2000/svg" width="48" height="48" viewBox="0 0 48 48" class="primary icon">
  <path fill="#F00" fill-rule="evenodd" d="M8,0 L40,0 C44.418278,-8.11624501e-16 48,3.581722 48,8 L48,40 C48,44.418278 44.418278,48 40,48 L8,48 C3.581722,48 5.41083001e-16,44.418278 0,40 L0,8 C-5.41083001e-16,3.581722 3.581722,8.11624501e-16 8,0 Z M8,2.5 C4.96243388,2.5 2.5,4.96243388 2.5,8 L2.5,40 C2.5,43.0375661 4.96243388,45.5 8,45.5 L40,45.5 C43.0375661,45.5 45.5,43.0375661 45.5,40 L45.5,8 C45.5,4.96243388 43.0375661,2.5 40,2.5 L8,2.5 Z M40.1746273,14 C41.1828415,14 42,14.8255075 42,15.8453968 L42,33.1546032 C42,34.1738774 41.1828415,35 40.1746273,35 L7.82537268,35 C6.8171585,35 6,34.1738774 6,33.1546032 L6,15.8453968 C6,14.8255075 6.8171585,14 7.82537268,14 L40.1746273,14 Z M38.2336477,20.2165266 C38.6358382,20.2165266 38.9613629,19.8874308 38.9613629,19.4814435 C38.9613629,19.0754562 38.6358382,18.7451302 38.2336477,18.7451302 L27.2631579,18.7451302 C26.8615759,18.7451302 26.5360511,19.0754562 26.5360511,19.4814435 C26.5360511,19.8874308 26.8615759,20.2165266 27.2631579,20.2165266 L38.2336477,20.2165266 Z M38.2336477,25.1191306 C38.6358382,25.1191306 38.9613629,24.7900349 38.9613629,24.3834324 C38.9613629,23.9774452 38.6358382,23.6483494 38.2336477,23.6483494 L27.2631579,23.6483494 C26.8615759,23.6483494 26.5360511,23.9774452 26.5360511,24.3834324 C26.5360511,24.7900349 26.8615759,25.1191306 27.2631579,25.1191306 L38.2336477,25.1191306 Z M38.2336477,30.0217347 C38.6358382,30.0217347 38.9613629,29.6926389 38.9613629,29.2866516 C38.9613629,28.8806643 38.6358382,28.5515686 38.2336477,28.5515686 L27.2631579,28.5515686 C26.8615759,28.5515686 26.5360511,28.8806643 26.5360511,29.2866516 C26.5360511,29.6926389 26.8615759,30.0217347 27.2631579,30.0217347 L38.2336477,30.0217347 Z M21.6294493,29.4816486 C22.9510192,28.1677261 23.770003,26.3598524 23.770003,24.3668239 C23.770003,20.3598524 20.46547,17.1008817 16.4046243,17.1008817 C12.3431701,17.1008817 9.03924551,20.3598524 9.03924551,24.3668239 C9.03924551,26.4066024 9.89777913,28.2532294 11.2735017,29.5745335 C11.2801947,29.5794546 11.2874962,29.5837605 11.2935808,29.5880664 C12.6194098,30.8515481 14.4198357,31.6339963 16.4046243,31.6339963 C18.3267417,31.6339963 20.0736234,30.8970679 21.3866748,29.7030962 C21.4669912,29.646504 21.5509583,29.5942178 21.6288409,29.5345499 L21.6294493,29.4816486 Z M16,18 C19.3082149,18 22,20.3982979 22,23.3458156 C22,24.2326241 21.7523162,25.0678014 21.3218036,25.8048227 L21.3187153,25.7565957 L21.3014206,25.6646809 C21.1649166,24.6485106 20.2007412,23.8434043 19.0284126,23.8434043 L17.0333539,23.8434043 L17.0333539,23.7316312 C17.9777641,23.3968794 18.6473132,22.5770213 18.6473132,21.6141844 C18.6473132,20.3534752 17.5052502,19.332766 16.0957381,19.332766 C14.6868437,19.332766 13.5441631,20.3534752 13.5441631,21.6141844 C13.5441631,22.5350355 14.1575046,23.3236879 15.0364422,23.684539 L15.0364422,23.8133333 L13.0821495,23.8133333 C11.8548487,23.8133333 10.857937,24.6524823 10.7992588,25.7378723 L10.7992588,26 C10.293391,25.2170213 10,24.3120567 10,23.3458156 C10,20.3982979 12.6917851,18 16,18 Z"/>
</svg>
