<svg xmlns="http://www.w3.org/2000/svg" width="48" height="48" viewBox="0 0 48 48" class="primary icon">
  <path fill="#F00" d="M8,0 L40,0 C44.418278,-8.11624501e-16 48,3.581722 48,8 L48,40 C48,44.418278 44.418278,48 40,48 L8,48 C3.581722,48 5.41083001e-16,44.418278 0,40 L0,8 C-5.41083001e-16,3.581722 3.581722,8.11624501e-16 8,0 Z M8,2.5 C4.96243388,2.5 2.5,4.96243388 2.5,8 L2.5,40 C2.5,43.0375661 4.96243388,45.5 8,45.5 L40,45.5 C43.0375661,45.5 45.5,43.0375661 45.5,40 L45.5,8 C45.5,4.96243388 43.0375661,2.5 40,2.5 L8,2.5 Z M29.4503386,24.0067644 C29.6806955,22.8171468 29.9003536,21.6255402 30.1291956,20.4356385 C30.157221,20.2896946 30.2093898,20.1478231 30.2571086,20.0063305 C30.4035789,19.5713402 30.7204735,19.3383603 31.1636716,19.282199 C31.6132132,19.2250905 32.0070828,19.3595748 32.2512631,19.752231 C32.4873008,20.1319123 32.6890643,20.5347969 32.8826853,20.9386286 C33.5014205,22.2294883 34.1085099,23.5259358 34.7218483,24.8193526 C34.9354468,25.2696855 35.2701414,25.4511446 35.7633306,25.4445151 C36.8122925,25.4304037 37.8617279,25.4207436 38.9106899,25.4360861 C39.6298807,25.4465986 40.0073707,25.8672882 39.999891,26.5859268 C39.9926953,27.2772896 39.5712737,27.7303691 38.8891028,27.7348203 C37.3585973,27.7451434 35.8279025,27.7476058 34.297397,27.7330209 C33.7456954,27.727812 33.3817447,27.4041973 33.145991,26.9198645 C32.7563819,26.1191148 32.3623229,25.3205433 31.9694001,24.5214036 C31.9318121,24.4448801 31.8889219,24.3709138 31.8106214,24.2254435 C31.7388538,24.5700831 31.6786372,24.8456812 31.6243854,25.1224158 C31.2467061,27.0473405 30.866281,28.9717916 30.4947559,30.8979475 C30.1855304,32.5007729 29.8877611,34.1057765 29.5830802,35.709549 C29.5581793,35.8408132 29.5248519,35.9710357 29.486033,36.0988904 C29.2662803,36.8234955 28.8125727,37.1032607 28.0655459,36.9664088 C27.6507519,36.8903589 27.3813868,36.6224321 27.2851917,36.2291129 C27.1736584,35.7723399 27.105962,35.3033496 27.0435678,34.8363482 C26.9006954,33.7671981 26.7732558,32.6960592 26.6384312,31.6258674 C26.5045534,30.562968 26.3696341,29.5000686 26.2345254,28.4371692 C26.0825637,27.2419638 25.9298446,26.0468531 25.7775041,24.8516478 C25.6621836,23.9465306 25.5566152,23.0399929 25.4252937,22.1371488 C25.3930078,21.915155 25.2774979,21.7052837 25.2001442,21.4900142 C25.0541473,21.8156177 24.9984754,22.1253104 24.9478215,22.4357607 C24.6988125,23.9639568 24.4495196,25.4921528 24.2031617,27.0207277 C24.0230799,28.1378944 23.8499098,29.2560081 23.667177,30.3727011 C23.6368794,30.5578538 23.587835,30.7429118 23.5225057,30.9187831 C23.3018061,31.5134499 22.7362813,31.8046747 22.1176408,31.6527642 C21.8605841,31.5896892 21.6396005,31.4535002 21.5207768,31.221278 C21.2635307,30.7186667 21.0196345,30.2081 20.795053,29.6900513 C20.4325225,28.8541652 20.0905376,28.0094713 19.7386113,27.1690393 C19.703485,27.0850339 19.6603108,27.0043434 19.5951708,26.8688173 C19.4898864,27.1735852 19.4028753,27.4293895 19.3132132,27.6843414 C18.8209708,29.0841144 18.3451081,30.4900434 17.8239882,31.8791145 C17.6837669,32.2530187 17.44006,32.6038144 17.1820565,32.9139806 C16.8246387,33.343762 16.4627709,33.3797508 16.0297984,33.033217 C15.7333546,32.7959754 15.4382365,32.5164943 15.2490654,32.1935426 C14.668297,31.2019578 14.1394134,30.1798772 13.5889427,29.1705821 C13.4795871,28.9700869 13.3657815,28.7719593 13.2502716,28.5749683 C12.9620651,28.0836271 12.5374244,27.7966642 11.9639464,27.785394 C10.7813906,27.762096 9.59836146,27.7630431 8.41590039,27.739461 C8.14388416,27.7340627 7.8658084,27.6965586 7.60354424,27.6256229 C7.32215467,27.5493835 7.1326049,27.341217 7.06348836,27.0496134 C6.85746423,26.1800115 7.14131548,25.5594897 8.08461436,25.464593 C8.25683765,25.4473563 8.43029178,25.4328661 8.60317783,25.4324873 C10.1417312,25.4290778 11.6803791,25.4361809 13.2188378,25.4251948 C13.9494849,25.4198912 14.4562134,25.7242803 14.7883515,26.3824009 C15.2349581,27.2676295 15.7175431,28.1346743 16.1852633,29.009201 C16.2068503,29.0495463 16.2337395,29.0870503 16.2758722,29.1540084 C16.4778251,28.5872802 16.6754227,28.0503849 16.8609012,27.5092277 C17.3064662,26.2086131 17.7448356,24.9054415 18.1901166,23.6048269 C18.2588544,23.4040476 18.3360188,23.2042153 18.4311724,23.0148955 C18.8615886,22.1584579 19.9467184,22.0943411 20.4607372,22.9043721 C20.6320137,23.1742878 20.7321854,23.488337 20.8782769,23.7752999 C21.2096577,24.4266964 21.5484234,25.0743045 21.8873786,25.7217232 C21.9222209,25.7882077 21.9792184,25.8430432 22.0542051,25.9396446 C22.1743543,25.2343597 22.2888226,24.572072 22.3996931,23.909216 C22.6280618,22.5450529 22.8542528,21.1806056 23.0816746,19.8163478 C23.29622,18.5298446 23.5110494,17.2433414 23.7259734,15.956933 C23.8813437,15.026529 24.0357671,14.0959357 24.1943564,13.1660052 C24.2140499,13.0504624 24.2544783,12.9381396 24.289226,12.8255327 C24.5356785,12.0260142 25.1882145,11.9010953 25.8316612,12.0599194 C26.208015,12.1528272 26.4218029,12.4315506 26.501997,12.786608 C26.6057665,13.2457487 26.6763033,13.7135078 26.7387922,14.1805092 C26.8786349,15.2266454 27.003234,16.2747705 27.1368278,17.3216643 C27.2733566,18.3916668 27.4068557,19.4621427 27.553326,20.5309139 C27.7071813,21.6535736 27.872777,22.7746232 28.0371419,23.8958623 C28.2198746,25.1424937 28.4066787,26.3886516 28.5927253,27.6348095 C28.6017199,27.6950433 28.6203719,27.7537618 28.6345739,27.8131432 C28.9486282,26.5513586 29.2037913,25.2799139 29.4503386,24.0067644 Z"/>
</svg>
