<svg xmlns="http://www.w3.org/2000/svg" width="48" height="48" viewBox="0 0 48 48" class="primary icon">
  <path fill="#F00" d="M8,0 L40,0 C44.418278,-8.11624501e-16 48,3.581722 48,8 L48,40 C48,44.418278 44.418278,48 40,48 L8,48 C3.581722,48 5.41083001e-16,44.418278 0,40 L0,8 C-5.41083001e-16,3.581722 3.581722,8.11624501e-16 8,0 Z M8,2.5 C4.96243388,2.5 2.5,4.96243388 2.5,8 L2.5,40 C2.5,43.0375661 4.96243388,45.5 8,45.5 L40,45.5 C43.0375661,45.5 45.5,43.0375661 45.5,40 L45.5,8 C45.5,4.96243388 43.0375661,2.5 40,2.5 L8,2.5 Z M8.04724813,20 C9.14324978,20.2402439 10.2362714,20.4810522 11.3296241,20.7193768 C14.2902634,21.3649193 17.2510131,22.0092199 20.211542,22.6544237 C21.0637302,22.8400256 21.9141524,23.0343206 22.7687688,23.2075039 C22.9587204,23.2460016 23.0001102,23.3283032 22.9999998,23.5075829 C22.996799,30.251684 22.9975716,36.9956723 22.9970197,43.7395477 C22.9970197,43.8127046 22.9864239,43.8856358 22.9775941,44 C17.9800252,42.8407782 13.002765,41.6862981 8.00486499,40.5269635 L8.00486499,40.2020472 C8.00486499,38.0293531 8.00817617,35.8565461 8.00000858,33.6839649 C7.9991256,33.459075 8.06623225,33.3386144 8.25872237,33.2214278 C8.92702952,32.8143228 9.34059631,32.1802958 9.60913327,31.455387 C10.2047048,29.8477402 10.1891422,28.2372709 9.53187232,26.6501712 C9.24280603,25.9523577 8.80308089,25.3696986 8.14249984,24.9846084 C8.07826288,24.9471268 8.01148735,24.8446167 8.01126661,24.7721371 C8.00707244,23.2015203 8.01225996,21.6310164 8.01612301,20.0605126 C8.01623338,20.0522711 8.0242906,20.0439168 8.04724813,20 Z M39.9964041,20 L39.9964041,21.1274733 C39.9964041,22.4332258 39.9934,23.7389782 39.999986,25.0446171 C40.0009103,25.2216471 39.9564264,25.328501 39.79432,25.4320618 C38.8936646,26.0076649 38.4256012,26.8829357 38.1837703,27.8694891 C37.7747491,29.5381587 37.8781599,31.1645864 38.8509138,32.6437352 C39.0992151,33.0211872 39.5013037,33.3000748 39.8262097,33.6304021 C39.8972685,33.7026221 39.9888939,33.8010731 39.9892405,33.8877145 C39.9979062,35.9503014 39.9953643,38.0130019 39.9940933,40.0755888 C39.9940933,40.1032959 39.9847343,40.131003 39.9761842,40.1792632 C35.0057684,41.4479972 30.0286511,42.7183209 25.0073965,44 L25.0073965,43.6545701 C25.007281,37.097533 25.0093607,30.5406096 25.0000018,23.9836861 C24.9995396,23.7079781 25.0892007,23.617703 25.3489407,23.5549079 C30.1225873,22.4000681 34.893923,21.2352357 39.6657209,20.0730149 C39.7670519,20.0482603 39.8693072,20.0279342 39.9964041,20 Z M13,19.1950606 C13.8169847,17.9219262 14.8927288,17.1080225 16.2641981,16.7786076 C16.7602638,16.6593651 17.279213,16.6100233 17.7888108,16.6009773 C19.126835,16.5771288 20.4654093,16.5929887 21.8037635,16.5929887 L22.1012489,16.5929887 C22.2014742,16.3500393 22.1200618,16.2404302 21.9252221,16.1262393 C19.6655872,14.801766 18.5320842,12.7605452 18.6373703,10.0046915 C18.7509076,7.02914956 20.9576244,4.49192677 23.726527,4.06981992 C26.930766,3.58157165 29.8112255,5.69739248 30.5184135,9.05920975 C31.1350576,11.9894043 29.7183714,14.9744621 27.0983215,16.2658059 C26.8477033,16.3893953 26.8477033,16.3893953 26.8934703,16.7028328 L27.2117488,16.7028328 C28.7058869,16.7035377 30.200575,16.677927 31.6940529,16.7117613 C33.5050392,16.7527619 34.9063231,17.642793 36,19.2109205 C35.8794216,19.252626 35.7911881,19.2896323 35.7000942,19.3138332 C32.3377611,20.2043342 28.975428,21.0958924 25.6107845,21.9766425 C25.443889,22.0203452 25.2497094,21.9962617 25.0773131,21.9572583 C21.1328811,21.0644077 17.1895494,20.1652132 13.2462176,19.2664887 C13.1747067,19.2502764 13.104956,19.225723 13,19.1950606 Z M43,28.9513087 C42.9903516,29.7800457 42.8726558,30.5419061 42.4962898,31.2126044 C42.3842607,31.4122225 42.2415249,31.5994219 42.0834742,31.7469737 C41.7038921,32.1011349 41.2410729,32.0785973 40.8706032,31.7101778 C40.4152119,31.2572195 40.1929913,30.6418991 40.0864755,29.9676131 C39.9059117,28.8250986 39.9866983,27.7226916 40.5337499,26.7234054 C40.7313134,26.362621 40.9909791,26.0766244 41.3656604,26.0127834 C41.7892731,25.9405713 42.1088971,26.1813089 42.3617476,26.5578235 C42.8365124,27.2649499 42.9853742,28.1003102 43,28.9513087 Z M8,28.9513087 C7.99035155,29.7800457 7.87265582,30.5419061 7.49628985,31.2126044 C7.38426066,31.4122225 7.24152492,31.5994219 7.08347418,31.7469737 C6.70389205,32.1011349 6.24107293,32.0785973 5.87060323,31.7101778 C5.41521188,31.2572195 5.19299131,30.6418991 5.08647553,29.9676131 C4.90591175,28.8250986 4.98669834,27.7226916 5.53374993,26.7234054 C5.73131335,26.362621 5.99097908,26.0766244 6.36566041,26.0127834 C6.78927314,25.9405713 7.10889707,26.1813089 7.36174762,26.5578235 C7.83651244,27.2649499 7.98537418,28.1003102 8,28.9513087 Z"/>
</svg>
