<svg xmlns="http://www.w3.org/2000/svg" width="48" height="48" viewBox="0 0 48 48" class="primary icon">
  <path fill="#F00" fill-rule="evenodd" d="M8,0 L40,0 C44.418278,-8.11624501e-16 48,3.581722 48,8 L48,40 C48,44.418278 44.418278,48 40,48 L8,48 C3.581722,48 5.41083001e-16,44.418278 0,40 L0,8 C-5.41083001e-16,3.581722 3.581722,8.11624501e-16 8,0 Z M8,2.5 C4.96243388,2.5 2.5,4.96243388 2.5,8 L2.5,40 C2.5,43.0375661 4.96243388,45.5 8,45.5 L40,45.5 C43.0375661,45.5 45.5,43.0375661 45.5,40 L45.5,8 C45.5,4.96243388 43.0375661,2.5 40,2.5 L8,2.5 Z M14.3738644,20.3561976 L14.3738644,6.07007809 L34.0565681,6.07007809 L34.0565681,20.3375522 C34.4950171,20.3937753 34.9008875,20.4104127 35.2889616,20.5017753 C37.1082023,20.9297594 38.3576745,22.4380303 38.5611838,24.3141896 C38.6906375,25.5070661 38.9123736,26.6900462 39.1023921,27.8758948 C39.3697671,29.5437992 39.7312903,31.202094 39.8903088,32.8797514 C40.0064153,34.1054725 39.4610449,35.1833211 38.5472625,36.0387155 C38.059156,36.4958151 37.493119,36.8262693 36.8468551,36.9947952 C36.5958412,37.060341 36.5197764,37.1671936 36.5570912,37.4157514 C36.7729431,38.8518789 36.9803273,40.2891538 37.1881421,41.7264287 C37.1999106,41.8078948 37.1895773,41.8925163 37.1895773,41.9999426 L11.174406,41.9999426 C11.5214338,40.3564207 11.8670264,38.7200701 12.1938181,37.1726438 C11.577119,36.8084845 10.9588412,36.5480223 10.4701606,36.1346677 C9.17031343,35.0354486 8.78927176,33.6196876 9.10472546,31.9451857 C9.48332731,29.9354964 9.76979028,27.9084526 10.0927069,25.8884367 C10.2091005,25.1602614 10.2782764,24.4224765 10.4337069,23.7029068 C10.8094384,21.9637195 12.1642532,20.7196398 13.9216375,20.4442614 C14.0615681,20.4223171 14.1999199,20.3903331 14.3738644,20.3561976 Z M36.2740727,35.3382215 C37.5122069,35.0829227 38.3318412,33.8503171 38.1365125,32.6370741 C37.6943319,29.8907474 37.2696606,27.1415522 36.8251838,24.3955124 C36.772656,24.0703649 36.6901329,23.7320223 36.5368551,23.4450263 C36.063531,22.5596558 35.2948458,22.1019825 34.2915079,22.1006916 C28.5046977,22.0925163 22.717744,22.0948112 16.9309338,22.0939506 C16.1180449,22.0938072 15.304869,22.0846279 14.4921236,22.0995442 C13.320869,22.1210582 12.2667255,23.0134566 12.0880449,24.1317514 C11.9565819,24.9544446 11.8549708,25.7818709 11.7239384,26.6045641 C11.4244153,28.4830183 11.1415403,30.3644845 10.7995356,32.2351936 C10.5961699,33.3477514 10.8022625,34.2758629 11.7415912,34.9614406 C11.9798319,35.1351299 12.2704569,35.2369625 12.5745727,35.3910024 C13.0035495,33.3590821 13.4211884,31.4195283 13.8160079,29.4753849 C13.8838921,29.1412016 13.9918181,29.0095363 14.3616653,29.01011 C21.2245773,29.022588 28.0874894,29.0192892 34.9504014,29.0192892 L35.3789477,29.0192892 C35.5333736,30.0962773 35.6833505,31.1313849 35.8300264,32.1670661 C35.9784245,33.2147952 36.1236653,34.2629546 36.2740727,35.3382215 Z M15.3120449,30.7854406 C14.6412394,33.949855 13.9717255,37.1079586 13.2970449,40.2901578 L35.2335634,40.2901578 C34.7840634,37.107098 34.3390125,33.9553052 33.8913782,30.7854406 L15.3120449,30.7854406 Z M16.1243597,20.3586359 L32.3247301,20.3586359 L32.3247301,7.7992255 L16.1243597,7.7992255 L16.1243597,20.3586359 Z M33.9999999,26.4975856 C33.9997177,27.3417642 33.35365,27.9933144 32.5101492,27.999947 C31.6567698,28.0068619 30.9898157,27.3364017 31.0001177,26.4817802 C31.0101376,25.6376015 31.6635437,24.9956475 32.5085969,25.0000222 C33.3532266,25.0041147 34.0002822,25.6538303 33.9999999,26.4975856 Z"/>
</svg>
