<svg xmlns="http://www.w3.org/2000/svg" width="48" height="48" viewBox="0 0 48 48" class="primary icon">
  <path fill="#F00" d="M8,0 L40,0 C44.418278,-8.11624501e-16 48,3.581722 48,8 L48,40 C48,44.418278 44.418278,48 40,48 L8,48 C3.581722,48 5.41083001e-16,44.418278 0,40 L0,8 C-5.41083001e-16,3.581722 3.581722,8.11624501e-16 8,0 Z M8,2.5 C4.96243388,2.5 2.5,4.96243388 2.5,8 L2.5,40 C2.5,43.0375661 4.96243388,45.5 8,45.5 L40,45.5 C43.0375661,45.5 45.5,43.0375661 45.5,40 L45.5,8 C45.5,4.96243388 43.0375661,2.5 40,2.5 L8,2.5 Z M24.5509538,42.0000084 C24.3164044,41.560252 24.0989575,41.1543035 23.8830271,40.7473433 C22.1865875,37.5500037 20.4899795,34.3526642 18.7946352,31.1546501 C17.9159172,29.4971326 17.0403165,27.8378445 16.1622725,26.1799897 C15.451126,24.8374511 14.7484044,23.4903597 14.0221773,22.1560834 C13.5936864,21.3688047 13.3485216,20.5233527 13.1975473,19.6535354 C12.6279392,16.3715494 13.2807853,13.3511747 15.2752982,10.6726735 C17.1159722,8.20064543 19.5789099,6.68611616 22.628474,6.18742763 C25.6267304,5.69725433 28.4173128,6.29820984 30.9217011,8.01213021 C33.5873421,9.83641124 35.229441,12.3654323 35.7989648,15.561423 C36.1481773,17.5216103 35.9962762,19.4523738 35.3210198,21.3251326 C35.1207597,21.8804768 34.8052469,22.3953527 34.5309319,22.922622 C33.7555875,24.4137133 32.9738403,25.9014323 32.1952945,27.3907532 C30.2652322,31.0825658 28.3356755,34.7746314 26.4056974,38.466444 C25.82817,39.5710623 25.2498842,40.675259 24.671767,41.7796244 C24.6395839,41.8409171 24.605126,41.9011138 24.5509538,42.0000084 Z M24.4768989,8.00521686 C19.3467194,8.01912787 15.2349429,12.1737977 15.2982982,17.3459944 C15.3598,22.366519 19.4329905,26.4002052 24.4842286,26.4028187 C29.7639502,26.4056009 33.8676388,21.9867906 33.6702432,16.844355 C33.4918037,12.1948749 29.6834923,8.02975082 24.4768989,8.00521686 Z M20.5552053,15.3094616 C21.2236848,15.3094616 21.8922505,15.3019531 22.5603848,15.3143004 C22.7468309,15.317721 22.8187002,15.2552332 22.8730551,15.0903788 C23.2855487,13.8390372 23.7076191,12.5905322 24.1281365,11.34161 C24.2330502,11.0300886 24.495248,10.9047792 24.7068009,11.0791444 C24.7970473,11.1534791 24.8545083,11.2811244 24.8934195,11.3952544 C25.2720059,12.5044341 25.6429137,13.6160333 26.0176176,14.7265478 C26.0814631,14.9157633 26.0989775,15.1747248 26.2359001,15.2705006 C26.3749798,15.367778 26.6353658,15.3082936 26.8426048,15.3085439 C28.0356525,15.3103793 29.2287865,15.3093782 30.4218342,15.3096285 C30.4937035,15.3096285 30.5665219,15.3056239 30.637097,15.315385 C30.8035266,15.3384947 30.9387238,15.405571 30.9858314,15.579102 C31.032335,15.7505472 30.9608971,15.877692 30.8223352,15.9761374 C30.4409878,16.2470292 30.0590366,16.5170868 29.6761362,16.7858094 C28.9332854,17.3072365 28.1926779,17.831667 27.4438739,18.3450016 C27.3047943,18.4402767 27.2902996,18.5272091 27.3393054,18.6716235 C27.7588737,19.9065297 28.17223,21.1432714 28.5873982,22.3795125 C28.600685,22.4190575 28.613109,22.4588528 28.6262232,22.4984813 C28.6814409,22.6657551 28.6630638,22.8172609 28.508713,22.9275532 C28.3544485,23.0378454 28.1969917,23.0134009 28.0500609,22.9106172 C27.6200529,22.6101084 27.1920294,22.3069298 26.7628842,22.0051695 C26.0611016,21.5115241 25.3572483,21.0207152 24.6591756,20.5222309 C24.5414928,20.4382185 24.4604781,20.4434745 24.3450386,20.5251508 C23.2509514,21.2991155 22.1528954,22.0677408 21.0558747,22.8377009 C21.0035904,22.8744093 20.9520827,22.9127029 20.8965198,22.944072 C20.7591658,23.0214935 20.618188,23.0214935 20.4937756,22.9254675 C20.36712,22.8277729 20.311816,22.7008784 20.3663435,22.5390274 C20.6649505,21.6517671 20.960883,20.7637559 21.2581096,19.8761618 C21.3946871,19.468531 21.5253115,19.0586476 21.6731052,18.6548544 C21.726166,18.5097725 21.6920863,18.4363556 21.5660346,18.3487559 C20.4485661,17.5711203 19.337741,16.7847249 18.2215667,16.0054208 C18.0593647,15.8921251 17.9562629,15.7575552 18.0182103,15.5670049 C18.0833499,15.36661 18.261427,15.3093782 18.4637482,15.3094616 C19.1608718,15.3096285 19.8580817,15.309545 20.5552053,15.3094616 Z"/>
</svg>
