<svg xmlns="http://www.w3.org/2000/svg" width="48" height="48" viewBox="0 0 48 48" class="primary icon">
  <path fill="#F00" fill-rule="evenodd" d="M8,0 L40,0 C44.418278,-8.11624501e-16 48,3.581722 48,8 L48,40 C48,44.418278 44.418278,48 40,48 L8,48 C3.581722,48 5.41083001e-16,44.418278 0,40 L0,8 C-5.41083001e-16,3.581722 3.581722,8.11624501e-16 8,0 Z M8,2.5 C4.96243388,2.5 2.5,4.96243388 2.5,8 L2.5,40 C2.5,43.0375661 4.96243388,45.5 8,45.5 L40,45.5 C43.0375661,45.5 45.5,43.0375661 45.5,40 L45.5,8 C45.5,4.96243388 43.0375661,2.5 40,2.5 L8,2.5 Z M13.0979711,26.6696254 C13.0979711,25.9585522 13.0981042,25.2522576 13.0979711,24.545963 C13.0979711,23.7053383 13.093445,22.8647136 13.1008997,22.0240889 C13.1027634,21.8211337 13.0499149,21.7364474 12.8261409,21.7179969 C9.32163443,21.4284971 6.34295039,18.831361 5.68959942,15.3751498 C5.15898472,12.5686872 5.986323,10.1422512 8.08082669,8.17681145 C9.59878942,6.75240856 11.4355736,6.04770676 13.5001254,6.02315038 C17.6828761,5.9736394 21.068773,8.94535984 21.6214856,12.7842524 C21.6351969,12.878894 21.7668522,13.0304799 21.844594,13.0311436 C23.5069915,13.0454792 25.1697883,13.042028 26.8171433,13.042028 C26.9903319,12.4156412 27.1120032,11.7981477 27.330985,11.217157 C28.1390209,9.07318576 29.6115898,7.53595625 31.7420358,6.67900488 C34.7770294,5.45822086 37.6119443,5.89147508 40.1585222,7.91492095 C41.7048394,9.14340374 42.6292218,10.7877522 42.9047794,12.75213 C43.2579457,15.2702874 42.5380349,17.4639024 40.7797913,19.3035072 C39.5312626,20.6099068 37.9857441,21.3671725 36.2055358,21.657867 C35.9677842,21.6966262 35.7280358,21.7235719 35.47218,21.758349 C35.4649915,21.8677245 35.4531439,21.9643572 35.4530107,22.0611226 C35.4518127,23.6980377 35.456605,25.3350856 35.4471535,26.9721335 C35.4458223,27.2088039 35.5081223,27.2916319 35.7554585,27.3175157 C38.0625542,27.5586992 39.9483263,28.5813066 41.3757677,30.4088324 C42.6373421,32.0239786 43.1494532,33.8756625 42.9626864,35.9004358 C42.8038747,37.6219045 42.1004708,39.1294009 40.9243592,40.3990322 C37.8740568,43.6923749 32.6286123,43.8873659 29.33124,40.8174199 C27.9479943,39.5294708 27.1406239,37.9298548 26.8853006,36.0568002 C26.8782452,36.0041035 26.8655989,35.9520706 26.8518875,35.8818526 C26.7451256,35.8748175 26.6478152,35.8627384 26.5506379,35.8626057 C24.8312652,35.8614111 23.1118925,35.8656586 21.3925199,35.8572962 C21.1527715,35.8561016 21.0537305,35.9133113 21.0014145,36.1708215 C20.7116131,37.5969499 20.0613239,38.84906 19.0548067,39.9019314 C17.1783529,41.8648491 14.8526204,42.6592813 12.1714587,42.4207525 C8.74243107,42.1155897 5.76321456,39.4381476 5.14553964,36.0617115 C4.68268281,33.5328024 5.32352054,31.2722878 7.07257888,29.3592793 C8.59560016,27.6938257 10.5173146,26.8646164 12.7574512,26.7305518 C12.8457094,26.7252423 12.9335684,26.7136942 13.0214273,26.7041371 C13.0315444,26.7029425 13.0409959,26.6956419 13.0979711,26.6696254 Z M14.1811652,21.7556943 C14.1701163,21.8164879 14.1556062,21.8585656 14.1556062,21.9006433 C14.1540088,23.4588453 14.157603,25.0170473 14.1489503,26.5751165 C14.1476191,26.7965222 14.2747483,26.8052828 14.4334268,26.8496171 C15.1015541,27.0361128 15.7836589,27.1922118 16.4252953,27.4475982 C17.4326113,27.8484645 18.2988205,28.4813555 19.0721122,29.3122903 C20.5816884,27.828023 22.0747578,26.3599495 23.5779442,24.8820536 C21.9186085,23.2615978 20.284033,21.6653002 18.6547823,20.0741794 C17.1920642,21.1107242 15.9380776,21.5713223 14.1811652,21.7556943 Z M29.5546147,29.2295951 C30.9105708,28.1245579 32.4176178,27.4450761 34.1497699,27.3088878 C34.3281502,27.2948176 34.3999016,27.2242014 34.3993692,27.0404932 C34.39471,25.3595093 34.3944437,23.6785254 34.3999016,21.9975415 C34.400301,21.7987011 34.3221598,21.7548979 34.1332631,21.7152094 C33.3791406,21.5565885 32.6087775,21.4287626 31.8889999,21.167934 C31.2122198,20.9227683 30.5913501,20.5242913 29.911242,20.1753252 C28.3389665,21.7189261 26.7311481,23.2974369 25.1112157,24.887894 C26.6084118,26.3507907 28.0797827,27.7884673 29.5546147,29.2295951 Z M24.3440475,24.1391234 C25.9649117,22.5526484 27.5534278,20.9978976 29.1603144,19.4249618 C27.7102427,17.934323 26.9187136,16.1739623 26.8371113,14.1357826 C26.7760094,14.1141464 26.7552427,14.1004745 26.7344761,14.1003417 C25.1263914,14.0974215 23.5184398,14.0979525 21.9104882,14.0905192 C21.702156,14.08959 21.6845843,14.2005583 21.6760646,14.3620995 C21.5945954,15.9140628 21.0669093,17.3042195 20.1318773,18.5423921 C19.9215483,18.8208748 19.6951119,19.0871456 19.464815,19.3729288 C21.0928677,20.9631205 22.7068096,22.5397729 24.3440475,24.1391234 Z M12.0276895,35.1263124 C12.0469919,35.0976412 12.0662942,35.06897 12.0857297,35.0402987 C11.2393553,34.5998767 10.6347261,33.9711006 10.477645,33.0249498 C10.3171028,32.0580921 10.6069041,31.2271572 11.3469159,30.5800633 C12.4259834,29.6364346 14.0346005,29.6624511 15.0775926,30.6177607 C15.5903692,31.0872522 15.8988073,31.669703 15.938477,32.3574144 C16.0135564,33.6603628 15.339705,34.5312516 14.205393,35.1294981 C14.3531557,35.180071 14.4685704,35.1918846 14.5839851,35.1925483 C15.2269527,35.1966632 15.8700535,35.190159 16.512888,35.2023709 C17.1286993,35.2140517 17.6461351,35.4670488 18.0907546,35.8835782 C18.5243251,36.2898867 18.7439724,36.8041106 18.8415491,37.4035518 C20.0755677,35.3324533 19.8684336,31.9146031 17.2662118,29.8032852 C14.4511317,27.5195417 10.4490243,27.8912059 8.05526773,30.6440427 C6.06845779,32.9288481 6.37809396,36.1445395 7.43280051,37.5632347 C7.58668676,36.0406063 8.53955681,35.1516652 10.0225091,35.1483468 C10.5881342,35.1470194 11.1536263,35.1491432 11.7191183,35.1470194 C11.8218866,35.1466212 11.9249212,35.1334802 12.0276895,35.1263124 Z M29.2546962,16.9097246 C29.4486515,15.3113032 30.3711702,14.4454585 31.8440054,14.4413436 C32.4315953,14.4397508 33.0191852,14.4422728 33.6069082,14.439618 C33.6942347,14.4392198 33.781428,14.4203711 33.8687545,14.4100176 C33.8814008,14.3810809 33.8939141,14.3522769 33.9064273,14.3233402 C33.0931997,13.9024306 32.5070741,13.3033876 32.3264308,12.3925449 C32.142992,11.4671012 32.386734,10.660059 33.0478059,9.99185992 C34.0925285,8.93580276 35.8387913,8.91270649 36.9257128,9.92562406 C37.4434149,10.407991 37.7469276,11.0041138 37.7734184,11.7054972 C37.822007,12.9838891 37.1534804,13.8365929 36.0368733,14.4213003 C36.210195,14.4730678 36.357159,14.4847487 36.5039899,14.4859433 C37.1469576,14.4917837 37.7908571,14.473466 38.4324935,14.5033319 C39.5491007,14.5553649 40.3728447,15.3642654 40.679286,16.6701339 C41.7755259,14.9499926 41.7819156,11.7048335 39.5558898,9.50511261 C37.1943482,7.17159263 33.3410684,6.9666464 30.7463013,9.08486664 C28.1880089,11.1733537 27.8537456,14.5755409 29.2546962,16.9097246 Z M40.6762243,37.9380845 C41.8571282,35.9360094 41.7327945,32.6327114 39.2302792,30.432725 C36.7684986,28.2687105 32.8253631,28.3429106 30.4067132,30.6165661 C28.0435741,32.8383213 27.9917906,36.1529019 29.2626834,38.1306862 C29.2713362,38.0584772 29.2791902,38.0077716 29.28345,37.9569332 C29.3951374,36.6381891 30.4021871,35.6970824 31.7287239,35.680623 C32.3494605,35.6729242 32.9704634,35.6802248 33.5913332,35.6777028 C33.6821208,35.6774373 33.7729084,35.6604469 33.8296173,35.6546065 C33.4212064,35.2352897 32.9768532,34.8589797 32.6347358,34.4062131 C32.2691894,33.922386 32.2107499,33.3198919 32.2906217,32.7239019 C32.3708928,32.1247261 32.6444536,31.6115641 33.0829495,31.1926455 C34.096389,30.2243276 35.7239091,30.1612775 36.7895315,31.0438471 C37.3427765,31.5020559 37.6947447,32.0835776 37.7598402,32.7965091 C37.8824433,34.1414024 37.2023353,35.0404315 36.037672,35.6608451 C36.1786457,35.7091615 36.2838101,35.7228334 36.3891077,35.7232316 C36.9434177,35.7254882 37.4978608,35.7227007 38.0521708,35.7248245 C39.4809434,35.730134 40.4022641,36.496824 40.6762243,37.9380845 Z M19.3709657,16.6926993 C20.5687758,14.7315071 20.4433772,11.3208248 17.8572628,9.13849246 C15.2744764,6.95894764 11.2159263,7.17902592 8.91774958,9.55595096 C6.5950789,11.9579633 6.86331488,15.3419655 7.96274961,16.861541 C8.13540572,15.3225859 9.07243455,14.445193 10.5491302,14.4413436 C11.1146222,14.4398835 11.6801143,14.44214 12.2454732,14.4400162 C12.3494396,14.439618 12.4532729,14.426477 12.5572393,14.4191765 C12.5762754,14.39316 12.5954446,14.3670108 12.6144807,14.3408615 C11.7585217,13.8777415 11.1340577,13.2334351 10.9982757,12.2592768 C10.8596982,11.2652079 11.1865068,10.4272379 11.9765716,9.79222317 C13.0949093,8.89359233 14.7289523,8.99858746 15.7250863,10.0215931 C16.1926023,10.5017035 16.4596402,11.0783139 16.4760139,11.7431945 C16.507297,13.0063217 15.8367736,13.8432298 14.7382707,14.4211676 C14.8812412,14.4724041 14.9955909,14.4850141 15.1100737,14.4858106 C15.7640903,14.4904564 16.4183731,14.483554 17.0722566,14.4974914 C17.6506612,14.509836 18.1428043,14.7470374 18.5702513,15.1267985 C19.0341731,15.5390803 19.2759183,16.0683035 19.3709657,16.6926993 Z"/>
</svg>
