<svg xmlns="http://www.w3.org/2000/svg" width="48" height="48" viewBox="0 0 48 48" class="primary icon">
  <path fill="#F00" fill-rule="evenodd" d="M8,0 L40,0 C44.418278,-8.11624501e-16 48,3.581722 48,8 L48,40 C48,44.418278 44.418278,48 40,48 L8,48 C3.581722,48 5.41083001e-16,44.418278 0,40 L0,8 C-5.41083001e-16,3.581722 3.581722,8.11624501e-16 8,0 Z M8,2.5 C4.96243388,2.5 2.5,4.96243388 2.5,8 L2.5,40 C2.5,43.0375661 4.96243388,45.5 8,45.5 L40,45.5 C43.0375661,45.5 45.5,43.0375661 45.5,40 L45.5,8 C45.5,4.96243388 43.0375661,2.5 40,2.5 L8,2.5 Z M35.4860821,42.9999999 C31.3662101,42.999446 27.9988926,39.6192953 28.0000003,35.4853229 C28.001108,31.3499657 31.3825489,27.9977856 35.5506066,28.0000011 C39.653032,28.0023551 43.0045647,31.3978758 42.9999953,35.5474951 C42.9957029,39.6392347 39.6066464,43.0006922 35.4860821,42.9999999 Z M41.3291445,35.3746866 C41.249112,32.1147264 38.5720399,29.5350612 35.2638466,29.6747757 C32.0045314,29.8124133 29.6228039,32.4518968 29.6729281,35.5782351 C29.7305293,39.1602727 32.8279796,41.669873 36.1512655,41.2950392 C39.0440653,40.9686693 41.3834226,38.5013019 41.3291445,35.3746866 Z M38.2213365,17.1388185 L37.9147019,17.1388185 L7.04989423,17.1388185 C6.72643269,17.1388185 6.72604808,17.139114 6.72604808,17.4733499 C6.72595192,23.3590722 6.72979808,29.2447946 6.71970192,35.1304185 C6.71874038,35.684129 7.02460577,36.1938066 7.75056731,36.1917379 C13.5997981,36.1748931 19.4490288,36.1822812 25.2983558,36.1822812 L25.6101827,36.1822812 C25.7219135,36.7695827 25.8312404,37.3446693 25.947875,37.9579767 L25.6623942,37.9579767 C19.6769135,37.9579767 13.6914327,37.948126 7.70604808,37.9653648 C6.334125,37.9693051 5.317875,37.0280663 5.07816346,35.9203499 C5.03354808,35.7138782 5.00335577,35.4992304 5.00325962,35.288523 C4.99960577,26.3901469 4.99922115,17.4918693 5.00104808,8.59349313 C5.00143269,7.07805433 6.14018269,5.92522149 7.65297115,5.91803045 C9.60806731,5.90896776 11.5631635,5.91566627 13.5182596,5.91556776 L13.8773942,5.91556776 C13.8706635,5.46075881 13.944125,5.06653194 14.4765288,5.05480955 C14.8208558,5.04712597 14.9507596,5.24611104 15.0634519,5.90295881 C15.1457596,5.90699761 15.2322981,5.91497672 15.3188365,5.91497672 C20.2706635,5.91556776 25.2224904,5.91458269 30.1743173,5.91881851 C30.3758558,5.91901552 30.4780673,5.88916776 30.4723942,5.64240657 C30.4644135,5.29112896 30.6997019,5.06140955 31.0180673,5.05333194 C31.3389327,5.04515582 31.5913365,5.28620358 31.6169135,5.62940358 C31.6230673,5.71008119 31.617875,5.79154687 31.617875,5.89931403 C31.7338365,5.90522448 31.834125,5.9147797 31.9345096,5.91487821 C33.7213365,5.91586328 35.5081635,5.91192299 37.2948942,5.91714388 C38.4075865,5.92039463 39.2404712,6.42898866 39.7126827,7.45967224 C39.8730673,7.80986627 39.9511442,8.23216776 39.9521058,8.62176478 C39.9664327,14.9835737 39.9623942,21.3453827 39.9619135,27.7071916 C39.9619135,27.7718125 39.954125,27.8364334 39.9470096,27.9478454 C39.8269135,27.8632275 39.7354712,27.7902334 39.6365288,27.7303409 C39.2371058,27.4886036 38.8412404,27.2399707 38.4318173,27.0174424 C38.2777788,26.9336125 38.2163365,26.8520484 38.2167212,26.6676424 C38.2231635,23.6057349 38.2213365,20.5438275 38.2213365,17.4820185 L38.2213365,17.1388185 Z M31.6185481,7.69668119 C31.6185481,8.73376776 31.6147981,9.73411104 31.6267212,10.7341588 C31.6275865,10.8046901 31.7322019,10.9007349 31.8100865,10.9390543 C32.5940288,11.3254006 33.024125,12.1782782 32.856625,13.0346036 C32.6810481,13.9319081 31.9406635,14.5597946 31.0473942,14.5688573 C30.1929712,14.577526 29.4230673,13.9664842 29.2352788,13.1309439 C29.0305673,12.2197499 29.444125,11.3265827 30.2624904,10.9497916 C30.4224904,10.8762066 30.4688365,10.7874513 30.4674904,10.618314 C30.4605673,9.73194388 30.4646058,8.84547522 30.4636442,7.95900657 C30.4635481,7.87931403 30.4549904,7.79942448 30.4498942,7.71106328 L15.0460481,7.71106328 C15.041625,7.80444836 15.0347019,7.88433791 15.0346058,7.96422746 C15.0339327,8.85069612 15.0383558,9.73716478 15.030375,10.6235349 C15.0289327,10.7945439 15.0777788,10.8786693 15.2359519,10.9521558 C16.0475865,11.3289469 16.4695096,12.23492 16.2599904,13.1132125 C16.051625,13.9870722 15.3049904,14.58452 14.4402788,14.5691528 C13.5715288,14.5536872 12.8308558,13.9461916 12.6509519,13.1013916 C12.4597019,12.2029051 12.8768173,11.3218543 13.6894135,10.9478215 C13.8505673,10.8736454 13.8930673,10.7846931 13.8918173,10.6165409 C13.8847019,9.73017075 13.8887404,8.84370209 13.887875,7.95733194 C13.887875,7.87793493 13.8797981,7.79863642 13.8742212,7.69668119 L13.5718173,7.69668119 C11.6170096,7.69668119 9.66200962,7.71362448 7.70749038,7.68692896 C7.07758654,7.67835881 6.71825962,8.16626627 6.72085577,8.69475881 C6.73277885,11.0174663 6.72585577,13.3401737 6.72652885,15.6629797 C6.726625,15.7498633 6.73479808,15.8367469 6.73931731,15.9256991 L38.2104712,15.9256991 C38.2144135,15.8339887 38.2208558,15.7540006 38.2208558,15.673914 C38.2214327,13.310129 38.2218173,10.9463439 38.2209519,8.5824603 C38.2207596,8.05534687 37.8650865,7.69717373 37.3427788,7.69697672 C35.5242212,7.69628716 33.7055673,7.69668119 31.8870096,7.69668119 L31.6185481,7.69668119 Z M22.2126456,27.6416377 C20.8333948,26.8706786 20.3132208,25.9054144 20.6559973,24.7093516 C20.9514943,23.6785363 21.9712817,22.9491582 23.0421231,23.0027731 C24.1513045,23.0583447 25.0890481,23.853861 25.2927672,24.8805672 C25.4949964,25.8998377 25.0232938,27.1142939 23.6164301,27.6141454 C23.7229084,27.6274513 23.779326,27.6404637 23.8357435,27.6406593 C24.373697,27.6422247 24.9115512,27.639681 25.4494054,27.6421269 C26.316925,27.6458447 26.9608601,28.250578 26.9907574,29.103427 C27.0060537,29.534988 26.9994982,29.9674295 26.991552,30.3993818 C26.9898635,30.4914468 26.9567877,30.5929043 26.9085149,30.6726418 C26.5005801,31.3476223 26.1745898,32.05802 25.9496148,32.8113683 C25.9111753,32.9397311 25.8642931,33.0002925 25.7167929,32.9999989 C23.5238576,32.9956941 21.3309224,32.9967703 19.1379871,32.9961833 C19.1057059,32.9961833 19.0734247,32.9887476 19.0122394,32.9814098 C19.0083657,32.8960956 19.0011149,32.8105856 19.0010155,32.7251736 C19.0003202,31.5676587 18.9991283,30.4102418 19.0010155,29.2527269 C19.0026048,28.2615358 19.6384944,27.6420291 20.6505343,27.6416377 C21.1713043,27.641442 21.691975,27.6416377 22.2126456,27.6416377 Z M16.7451426,23.658354 L18.8316032,23.658354 C18.3691119,24.7050438 18.416711,25.68599 19,26.6488542 C17.6585253,26.8780234 16.9680384,27.656825 16.9261391,29 L12.0136319,29 C12.009332,28.9119487 12.0014321,28.824094 12.0013321,28.7362393 C12.0005321,27.5900987 11.9987322,26.4440564 12.0014321,25.2979158 C12.0037321,24.2780541 12.5948209,23.6805633 13.6332013,23.6545214 C14.0827928,23.6433184 14.5328843,23.6523594 14.9826758,23.6505905 C15.0613743,23.6501974 15.1399729,23.6414513 15.2258712,23.6154093 C14.5183846,23.3278669 13.9920945,22.8723785 13.7255996,22.1619737 C13.5346032,21.6530256 13.5293033,21.1358227 13.6943001,20.6211748 C14.0260939,19.5862775 15.0215751,18.9434836 16.1843531,19.0039206 C17.1897342,19.0560045 18.1174167,19.8537726 18.3237128,20.8437597 C18.5724081,22.0374637 18.0425181,22.9618055 16.7451426,23.658354 Z M33.9930652,26.0866557 C33.471411,26.2796737 32.9598451,26.444662 32.4686518,26.6557543 C31.3241664,27.1474331 30.3361969,27.8615127 29.4861337,28.7642609 C29.403958,28.8516361 29.2771194,28.8982234 29.1121803,29 C29.1498891,28.3030281 28.9983684,27.747751 28.5780871,27.285455 C28.1666209,26.8329211 27.6432037,26.6030779 27,26.5683791 C27.5660232,25.6155641 27.6310586,24.6524072 27.1657227,23.6066111 L29.0978804,23.6066111 C29.1040509,23.5819644 29.1101235,23.5572209 29.1160981,23.5324775 C28.5347955,23.2814671 28.0773932,22.8998772 27.8110812,22.329522 C27.5434959,21.7564606 27.513035,21.1651315 27.7238123,20.5681965 C28.0489892,19.6472774 28.9226571,18.9696363 30.016407,19.0010488 C31.1176987,19.0327514 32.0073316,19.75408 32.2662978,20.759958 C32.5577816,21.8915829 32.0870587,22.7993571 30.790465,23.5578009 C30.8887037,23.5660164 30.9552082,23.5759718 31.0219087,23.5762618 C31.4544331,23.5777116 31.8869574,23.5764551 32.3194818,23.5771317 C33.3094102,23.5787748 33.9272463,24.143234 33.9897351,25.1212757 C34.0106952,25.4497059 33.9930652,25.7805525 33.9930652,26.0866557 Z M34.8807513,36.0546505 C35.0712509,35.8335968 35.2362783,35.6180897 35.4255584,35.4267984 C36.1391867,34.7056006 36.8570151,33.9885966 37.5810761,33.2776803 C37.9501521,32.915255 38.4173232,32.9107907 38.7548299,33.245618 C39.0724196,33.560694 39.0907108,34.0585383 38.7553719,34.3983711 C37.6466535,35.5216324 36.5296702,36.6367766 35.4049639,37.743939 C35.0587858,38.0847189 34.5971698,38.0844483 34.2509917,37.7485387 C33.5713715,37.0891655 32.9029971,36.418158 32.2416682,35.7403862 C31.9113425,35.4017709 31.9261109,34.8962154 32.2464104,34.5869567 C32.5808008,34.2640343 33.0418748,34.2614639 33.3968598,34.6010262 C33.7960147,34.9826618 34.1805366,35.3797197 34.5725105,35.7689311 C34.650824,35.846584 34.7340151,35.9189608 34.8807513,36.0546505 Z"/>
</svg>
