<svg xmlns="http://www.w3.org/2000/svg" width="48" height="48" viewBox="0 0 48 48" class="primary icon">
  <path fill="#F00" d="M8,0 L40,0 C44.418278,-8.11624501e-16 48,3.581722 48,8 L48,40 C48,44.418278 44.418278,48 40,48 L8,48 C3.581722,48 5.41083001e-16,44.418278 0,40 L0,8 C-5.41083001e-16,3.581722 3.581722,8.11624501e-16 8,0 Z M8,2.5 C4.96243388,2.5 2.5,4.96243388 2.5,8 L2.5,40 C2.5,43.0375661 4.96243388,45.5 8,45.5 L40,45.5 C43.0375661,45.5 45.5,43.0375661 45.5,40 L45.5,8 C45.5,4.96243388 43.0375661,2.5 40,2.5 L8,2.5 Z M18.4960299,36 C18.1735423,35.6779792 17.85755,35.3624573 17.5249948,35.0302007 C17.5513005,35.0095667 17.5962798,34.9812964 17.6326531,34.9447401 C22.3231747,30.2518798 27.0128845,25.5580446 31.7029191,20.8645344 C32.9871861,19.5793757 34.2675559,18.2901551 35.5620529,17.0153946 C35.741808,16.8382994 35.747329,16.6615292 35.6995891,16.4610379 C35.6721468,16.3461697 35.6128779,16.2277272 35.5365591,16.1375548 C35.3050046,15.8634635 35.0047632,15.6788945 34.6770794,15.5214585 C28.5613445,21.639204 22.4496691,27.7527253 16.3472494,33.8573106 C16.1960732,33.7081607 16.0395385,33.5536492 15.8747223,33.3908516 C15.9046003,33.3588444 15.9380507,33.3208258 15.9737744,33.2852443 C20.6665694,28.5878348 25.3595268,23.8905877 30.0526466,19.1935031 C31.3734491,17.8714631 32.6926279,16.5477983 34.0199257,15.2322572 C34.1620086,15.0915558 34.18052,14.9472801 34.1545391,14.7747342 C34.1042012,14.4392281 33.8885599,14.2302883 33.6043942,14.0847128 C33.1995797,13.8770727 33.1973064,13.8814595 32.8777416,14.2012057 C27.4540722,19.6294172 22.0305652,25.0574663 16.6068958,30.4855154 C16.0332056,31.0596938 15.4587036,31.6332223 14.8843639,32.2067508 C14.8515631,32.2395703 14.8169761,32.2704401 14.7921318,32.2938362 C14.6313752,32.1321759 14.4761395,31.9758772 14.3264247,31.8249401 C20.4467063,25.701508 26.5838754,19.5613412 32.7226683,13.4192248 C32.6409909,13.1662548 32.4854305,12.9737247 32.285053,12.8333483 C31.9930929,12.6287953 31.6801858,12.4546246 31.3786453,12.2637192 C31.2743971,12.1977553 31.2079835,12.2315496 31.1272804,12.3122985 C28.4806414,14.9646647 25.8318915,17.6149187 23.183304,20.2653352 C19.8173196,23.6333935 16.4511729,27.0012892 13.0858381,30.3696724 C13.046542,30.4089908 13.0152026,30.4564328 12.9882474,30.4899022 C12.6524446,30.1534213 12.3372642,29.837412 12,29.4993064 C12.033288,29.4737982 12.0871983,29.4414661 12.1303915,29.3984109 C16.8074356,24.7187108 21.4836678,20.038036 26.1600624,15.3578485 C27.6179141,13.8990065 29.0746291,12.4393521 30.5378394,10.9860342 C30.6502066,10.8744155 30.799759,10.7796939 30.9496362,10.7293274 C32.5591512,10.1894307 34.1722386,9.66025729 35.7843517,9.12750944 C36.8716512,8.76828239 37.9584636,8.40710567 39.0459254,8.04820356 C39.5307935,7.88816799 39.9567174,8.1388633 39.9981244,8.61880754 C40.008192,8.73562539 39.976203,8.86219159 39.9386931,8.97608492 C39.2726085,11.0016316 38.6024644,13.0258784 37.9336193,15.0504503 C37.7127819,15.7182129 37.4990893,16.3884126 37.2678595,17.0526009 C37.215573,17.2025631 37.127238,17.3552874 37.015845,17.4669061 C31.39943,23.095284 25.7789555,28.7191127 20.1586433,34.3434288 C19.6383764,34.8641536 19.1174599,35.3842286 18.5965434,35.9046285 C18.560495,35.940535 18.5226603,35.9748167 18.4960299,36 Z M36.2039428,15.9243907 C36.220668,15.8902714 36.2279751,15.8790608 36.2320346,15.8665504 C36.6085949,14.731029 36.9858047,13.5958325 37.3566816,12.4585239 C37.3712958,12.4138439 37.3391445,12.3329326 37.3019594,12.2950764 C36.7821796,11.7680151 36.2555798,11.2472902 35.7361247,10.7197415 C35.6550969,10.6373679 35.5867347,10.6198208 35.4774526,10.6563772 C34.4060664,11.0160916 33.3327317,11.3704445 32.259884,11.7262596 C32.1842147,11.7512804 32.1085454,11.7767886 32.0180995,11.8068461 C32.1934704,11.9225266 32.349518,12.018548 32.4984209,12.1248051 C32.8964154,12.4089698 33.231731,12.7454506 33.3928124,13.224745 C33.4041791,13.2588642 33.4530556,13.2871345 33.4907278,13.3046815 C33.6774654,13.3929042 33.8765438,13.4593555 34.0525642,13.5651252 C34.505768,13.8367795 34.7925319,14.225739 34.8404341,14.7692101 C34.8438441,14.8086909 34.8842769,14.8603573 34.9212996,14.8792041 C35.4173719,15.1315241 35.8804809,15.4234875 36.2039428,15.9243907 Z M25.074048,31.7653657 C25.393888,31.4437495 25.703008,31.1329616 26.017408,30.8165172 C28.924288,33.7529212 31.835488,36.693204 34.732448,39.6195879 C36.344288,37.9971232 37.945888,36.3848404 39.539328,34.7808 C39.178528,34.4160323 38.804608,34.0380121 38.420448,33.6494869 C38.390848,33.6777697 38.354208,33.7113859 38.319328,33.7467798 C37.866368,34.2056081 37.417888,34.6689616 36.959968,35.1222949 C36.570528,35.5079111 35.958688,35.3369212 35.828288,34.8108606 C35.775648,34.5978505 35.813568,34.3945374 35.961888,34.2321131 C36.182368,33.9908202 36.414528,33.7605172 36.643648,33.5269818 C36.911808,33.2536889 37.182048,32.9821737 37.451008,32.7095273 C37.457248,32.7032242 37.459968,32.693204 37.455488,32.7017697 C36.846048,32.0863354 36.240768,31.4749414 35.606368,30.8344566 C35.590848,30.8590222 35.570208,30.9099313 35.534528,30.9459717 C34.608608,31.8830222 33.680288,32.8178101 32.754208,33.754699 C32.557888,33.9533253 32.333568,34.0677495 32.053088,33.9909818 C31.536128,33.8495677 31.376928,33.2433455 31.754048,32.8546586 C32.138208,32.4591838 32.528448,32.0700121 32.916128,31.6779313 C33.471008,31.1164768 34.025888,30.5548606 34.581568,29.9940525 C34.617568,29.9576889 34.660288,29.9282747 34.683808,29.9090424 C34.063008,29.2819717 33.457088,28.6697697 32.840288,28.0465778 C32.826528,28.0596687 32.789568,28.0928 32.754688,28.1281939 C32.304128,28.5828202 31.844448,29.0285576 31.407328,29.4959515 C31.155648,29.765204 30.675808,29.7614869 30.443648,29.5184162 C30.183168,29.2456081 30.180128,28.8292848 30.456448,28.5479111 C30.904768,28.0911838 31.356128,27.637204 31.807808,27.1838707 C31.843808,27.1479919 31.892928,27.1253657 31.944608,27.0906182 C31.548448,26.6938505 31.183328,26.3281131 30.826688,25.9709414 C31.153248,25.6407596 31.463808,25.3265778 31.779008,25.0077091 C31.805568,25.0330828 31.839488,25.0637899 31.871808,25.0964364 C34.738048,27.9909818 37.604128,30.8856889 40.470208,33.7805576 C40.949728,34.2649212 41.045088,34.9047596 40.717888,35.4778505 C40.660768,35.5780525 40.586688,35.6721131 40.505568,35.7540525 C38.919808,37.3592242 37.332448,38.9627798 35.744128,40.5653657 C35.180608,41.1342545 34.361728,41.1492848 33.800128,40.5833051 C30.904288,37.6645172 28.013408,34.7408808 25.120768,31.8188606 C25.104768,31.802699 25.090688,31.784598 25.074048,31.7653657 Z M15.231105,10.390149 C14.8787081,10.0397846 14.5522584,9.71506045 14.237485,9.40185829 C12.6279407,11.0124963 11.01045,12.6310862 9.39068885,14.2517856 L18.1655841,23.0324812 C17.831026,23.3654816 17.5149552,23.6803066 17.193695,24 C17.1829918,23.9901009 17.1521793,23.963 17.1231508,23.9339517 C14.2347281,21.0437286 11.3463055,18.1536679 8.4583694,15.262958 C7.97039771,14.7746547 7.86368938,14.1443557 8.17846274,13.5736137 C8.23895242,13.4639118 8.31792956,13.3597275 8.40647477,13.2707975 C10.0134244,11.6585367 11.6226444,10.04871 13.2323509,8.43920793 C13.8022188,7.86927736 14.5814491,7.85321155 15.1753183,8.39571664 C15.2135906,8.43060704 15.2517007,8.46565971 15.2883513,8.50217292 C18.1636381,11.3787644 21.0387627,14.2555181 23.9143739,17.131785 C23.9442133,17.1616447 23.9811882,17.1838771 24,17.1984824 C23.6704691,17.528075 23.3550471,17.8437113 23.0323273,18.1663258 C22.6421446,17.7753911 22.2440155,17.3763423 21.8387509,16.9701532 C21.7909105,17.0146181 21.7529626,17.0478857 21.7174472,17.0834253 C21.26418,17.5365136 20.8133454,17.9921984 20.3574835,18.4426902 C20.0474131,18.7492388 19.640689,18.7503748 19.3541333,18.453563 C19.1060121,18.1968346 19.1089312,17.7757156 19.3697017,17.5116846 C19.8265366,17.0488594 20.2883988,16.5909027 20.7478285,16.130674 C20.7841547,16.0943231 20.8188592,16.0565116 20.8405901,16.03363 C20.221098,15.4140415 19.6067953,14.799646 18.9842219,14.1768118 C18.968167,14.1917417 18.9302191,14.2254961 18.8943793,14.2611979 C18.1422316,15.0154796 17.3900838,15.7694367 16.6384225,16.5243675 C16.4457637,16.7179686 16.2581322,16.9167628 16.0630408,17.1079297 C15.8118384,17.3547589 15.5129577,17.4146406 15.2382405,17.2818948 C14.8250296,17.0819647 14.7212403,16.5399465 15.0407166,16.2098671 C15.358409,15.8814105 15.6855074,15.5617171 16.0085514,15.2382913 C16.6513962,14.5948475 17.2940787,13.9510791 17.9380586,13.3087712 C17.9742227,13.2729072 18.0223874,13.2488896 18.0530377,13.2277931 C17.4135985,12.5879194 16.8018906,11.9759581 16.178182,11.3518257 C16.156289,11.3717863 16.1185032,11.4039179 16.0833121,11.4388083 C15.6259907,11.8948177 15.1709397,12.3535858 14.7108614,12.8071609 C14.3321927,13.1805693 13.7365397,13.0565867 13.5742068,12.572665 C13.481283,12.295327 13.5479352,12.0522301 13.7514594,11.8474316 C14.2031049,11.3927205 14.6568585,10.9401191 15.1107744,10.4875176 C15.1471006,10.4511667 15.1908867,10.4222807 15.231105,10.390149 Z M11.0769386,30 C13.3354924,32.2592308 15.5803386,34.5045846 17.8392309,36.7643231 C17.6290462,36.9562308 17.4120924,37.1544 17.195477,37.3527385 C17.1555386,37.3891231 17.1157693,37.4258462 17.0775232,37.4637538 C16.1907539,38.3500154 15.3044924,39.2366154 14.4175539,40.1225385 C13.5064155,41.0328308 12.2162001,41.0343538 11.3067539,40.1257538 C10.0965847,38.9164308 8.88675394,37.7067692 7.6776001,36.4964308 C6.77441548,35.5922308 6.77424625,34.2981231 7.67641548,33.3952769 C8.77116933,32.3000154 9.86643086,31.2052615 10.9616924,30.1103385 C10.9992616,30.0729385 11.0385232,30.0367231 11.0769386,30 Z"/>
</svg>
