<svg xmlns="http://www.w3.org/2000/svg" width="48" height="48" viewBox="0 0 48 48" class="primary icon">
  <path fill="#F00" d="M8,0 L40,0 C44.418278,-8.11624501e-16 48,3.581722 48,8 L48,40 C48,44.418278 44.418278,48 40,48 L8,48 C3.581722,48 5.41083001e-16,44.418278 0,40 L0,8 C-5.41083001e-16,3.581722 3.581722,8.11624501e-16 8,0 Z M8,2.5 C4.96243388,2.5 2.5,4.96243388 2.5,8 L2.5,40 C2.5,43.0375661 4.96243388,45.5 8,45.5 L40,45.5 C43.0375661,45.5 45.5,43.0375661 45.5,40 L45.5,8 C45.5,4.96243388 43.0375661,2.5 40,2.5 L8,2.5 Z M22.9937675,36 C22.6948886,35.3405817 22.3140208,34.7506169 21.8072519,34.2409334 C20.8172526,33.2452703 19.5930558,32.7057374 18.2151667,32.508985 C17.5659804,32.4163152 16.9031457,32.3841247 16.246344,32.3817836 C12.9499728,32.3694926 9.65360166,32.3761258 6.3572305,32.3761258 L6,32.3761258 L6,11.0036572 L6.25170311,11.0036572 C9.93537068,11.0036572 13.6191372,10.9906835 17.3027058,11.013607 C18.1341667,11.018777 18.9270563,11.3065409 19.7004623,11.5970362 C20.639033,11.9494738 21.518362,12.4030677 22.1776362,13.1850051 C22.5648338,13.6443544 22.7795479,14.1705233 22.7898336,14.768487 C22.8505588,18.2945214 22.9262181,21.8203608 22.9612291,25.3465903 C22.9960422,28.857505 22.9889214,32.3687122 22.9999983,35.879822 C23.0000972,35.9199138 22.9959433,35.9599081 22.9937675,36 Z M14.4642464,26.9680179 C15.3124216,26.9680179 16.1604979,26.969286 17.0086731,26.9676277 C17.7249143,26.9661645 18.4414522,26.973383 19.1571989,26.9533859 C19.5831657,26.9414851 19.8532644,26.582707 19.7900666,26.1668637 C19.7334952,25.7946241 19.4424295,25.5816788 18.9791771,25.5815812 C16.0066079,25.5807033 13.0339398,25.5805082 10.0612717,25.5828493 C9.92281025,25.5829469 9.77851366,25.5888973 9.64677749,25.6260627 C9.15434929,25.7649697 8.99976699,26.3689813 9.34295354,26.7431719 C9.53135999,26.9485085 9.76644773,26.9684081 10.0176563,26.9683106 C11.499886,26.9677253 12.9820168,26.9680179 14.4642464,26.9680179 Z M14.4833343,17.8342943 C16.0231244,17.8342943 17.5630133,17.8352697 19.1027045,17.8336114 C19.5620008,17.8331237 19.8654292,17.4714191 19.7873963,17.0255314 C19.7257809,16.673484 19.4386713,16.4606362 19.0094408,16.460246 C17.1978707,16.4585877 15.3863996,16.4590755 13.5748295,16.4595632 C12.3480612,16.4600509 11.1210951,16.4567343 9.89432676,16.4659038 C9.44808533,16.4692204 9.13239326,16.784395 9.15138226,17.177022 C9.16938224,17.5484813 9.50900836,17.8486337 9.91351355,17.8428784 C11.4365893,17.8215156 12.9600607,17.8342943 14.4833343,17.8342943 Z M14.486598,22.2716136 C16.0102672,22.2716136 17.5339364,22.2729792 19.0576056,22.2707356 C19.4860449,22.2701504 19.7798798,22.0064806 19.8008468,21.6168775 C19.8237919,21.1921575 19.5086932,20.8915174 19.032188,20.8913223 C16.1247946,20.8902493 13.2174012,20.890737 10.3100078,20.8908346 C10.1453376,20.8908346 9.98037065,20.8860548 9.81589824,20.8935659 C9.52512923,20.9069299 9.27589865,21.0989025 9.19005256,21.3659864 C9.04071201,21.8308958 9.37341506,22.268297 9.89076632,22.2696626 C11.4227432,22.2736621 12.9546212,22.2711258 14.486598,22.2716136 Z M30.6860396,28.0465959 C31.3374857,29.777096 31.9641495,31.4418745 32.6085854,33.1539725 C32.4857605,33.1539725 32.3929507,33.1533658 32.3001409,33.1539725 C31.0992409,33.1631735 29.8964649,33.1336493 28.6977371,33.1908777 C26.8871555,33.2772257 25.2691049,33.87054 24.0233797,35.2930586 C23.5868773,35.7915316 23.2498986,36.3573439 23.0133323,37 C23.0086918,36.9423672 22.9998058,36.8847344 23.0000032,36.8272028 C23.0158007,32.7498352 23.0296234,28.6724677 23.05016,24.5951002 C23.0585524,22.9187952 23.0744486,21.2425913 23.1004156,19.5664885 C23.1228282,18.1098958 23.1768356,16.6537075 23.1932254,15.1971149 C23.2071469,13.9606389 23.7843451,13.0707686 24.7605268,12.4180015 C25.7773868,11.7379347 26.8975225,11.3138788 28.0916099,11.1100408 C28.5309756,11.035017 28.9824855,11.0064029 29.4286639,11.0053918 C32.8427822,10.9971007 36.2569992,11.0008418 39.6712162,11.0008418 L40,11.0008418 L40,29.9895284 C36.9150604,29.3459624 33.8331816,28.7031041 30.6860396,28.0465959 Z M31.5077029,27.5483252 C32.9711362,27.5483252 34.4346683,27.5485274 35.8981016,27.5479207 C35.9965393,27.5478196 36.0953719,27.5457974 36.1934146,27.5374053 C36.5521147,27.5067689 36.7937165,27.2675423 36.8233366,26.917499 C36.8564125,26.5265061 36.6662511,26.2350056 36.3053788,26.1460286 C36.1873918,26.11701 36.0617036,26.1121567 35.9394711,26.1120556 C33.0207993,26.1103368 30.1021276,26.1100334 27.1834558,26.1125612 C27.0204462,26.1126623 26.8524012,26.1185267 26.6957105,26.1587685 C26.4114557,26.23177 26.2150741,26.5101263 26.2022387,26.8133556 C26.1900944,27.102935 26.3802558,27.4119276 26.6556246,27.4973657 C26.801257,27.5424608 26.9628844,27.5459996 27.1174028,27.546303 C28.5808362,27.5496396 30.0442695,27.5483252 31.5077029,27.5483252 Z M31.5042472,18.0809783 C33.0498271,18.0809783 34.595407,18.0818883 36.1409869,18.0803716 C36.5410565,18.0799672 36.8096126,17.816373 36.8282733,17.4150669 C36.8495011,16.9580491 36.5423401,16.6573475 36.0417594,16.6567408 C34.167297,16.6548197 32.2928345,16.6555275 30.4184709,16.6561342 C29.2593353,16.6565386 28.100101,16.6531009 26.9410642,16.6629086 C26.5072276,16.6665485 26.1956235,16.9777655 26.2036209,17.3787684 C26.2116184,17.7853322 26.5351692,18.0947293 26.9662413,18.0888649 C28.4787454,18.0685417 29.9915456,18.0809783 31.5042472,18.0809783 Z M31.5145155,22.6802764 C33.052098,22.6802764 34.5896804,22.682703 36.1272629,22.6785575 C36.5430312,22.6774453 36.8314328,22.3763393 36.8324202,21.9667421 C36.8333088,21.5551227 36.5468818,21.2513878 36.1320021,21.2509834 C33.0568372,21.2480512 29.9816723,21.2475457 26.9065073,21.2563422 C26.7622571,21.2567467 26.5982602,21.3234794 26.4780023,21.4098274 C26.2240588,21.5923312 26.1489224,21.8998072 26.2456816,22.1965654 C26.3413547,22.4899871 26.5961868,22.6779508 26.9264516,22.6784564 C28.4557404,22.6811863 29.9851279,22.6796697 31.5145155,22.6802764 Z M42.2256802,40 C41.0348792,38.7187214 39.8652921,37.4602079 38.6791346,36.1839675 C38.0257828,36.9528466 37.3870896,37.704372 36.7253615,38.4831408 C35.4813892,35.6504824 34.2522575,32.8515049 33,30 C36.0553482,30.6709149 39.0623505,31.3311937 42.1072283,31.9998694 C41.3885049,32.8400291 40.696003,33.6494934 39.9816499,34.4844284 C41.3215855,35.4950458 42.6529627,36.4992256 44,37.5150678 C43.4082869,38.3437517 42.8253143,39.1602135 42.2256802,40 Z"/>
</svg>
