<svg xmlns="http://www.w3.org/2000/svg" width="48" height="48" viewBox="0 0 48 48" class="primary icon">
  <path fill="#F00" fill-rule="evenodd" d="M8,0 L40,0 C44.418278,-8.11624501e-16 48,3.581722 48,8 L48,40 C48,44.418278 44.418278,48 40,48 L8,48 C3.581722,48 5.41083001e-16,44.418278 0,40 L0,8 C-5.41083001e-16,3.581722 3.581722,8.11624501e-16 8,0 Z M8,2.5 C4.96243388,2.5 2.5,4.96243388 2.5,8 L2.5,40 C2.5,43.0375661 4.96243388,45.5 8,45.5 L40,45.5 C43.0375661,45.5 45.5,43.0375661 45.5,40 L45.5,8 C45.5,4.96243388 43.0375661,2.5 40,2.5 L8,2.5 Z M30.2192065,33.9999591 L29.7830546,33.9999591 C23.4886322,33.9999591 17.1943649,34.0001226 10.8999425,33.9997957 C10.1828977,33.9997957 10.017557,33.8237686 10.0169366,33.0635994 C10.0166264,32.7367152 10.0451655,32.4065622 10.0105774,32.0837641 C9.9510175,31.5295319 10.1447421,31.1416839 10.5473916,30.7814575 C11.9149418,29.5577666 13.2604673,28.3066174 14.5991682,27.0479498 C14.7392269,26.9160521 14.851522,26.6648416 14.8526078,26.4683842 C14.8678079,23.2678612 14.8605181,20.0671747 14.8637752,16.8666517 C14.8656365,15.0730382 15.8907175,14.0005312 17.5926715,14.0003677 C21.1985246,13.9998774 24.8046879,13.9998774 28.4105411,14.0003677 C30.1066011,14.0005312 31.1408332,15.0826813 31.1426945,16.8692668 C31.1457966,20.0289293 31.1467272,23.1887552 31.1381965,26.3484177 C31.137421,26.6295381 31.2059768,26.8299181 31.4073016,27.0214722 C32.8254156,28.3719942 34.2413582,29.7251313 35.635276,31.1029481 C35.8181434,31.2840419 35.9144629,31.6014465 35.9712309,31.8742313 C36.0276886,32.1448914 35.9836392,32.4387603 35.9836392,32.754367 C35.5657895,32.6621856 35.1891975,32.5793205 34.7583191,32.4843606 C34.8887614,32.0111958 34.5334186,31.8234008 34.2728443,31.5717 C33.0253444,30.3669684 31.7826528,29.1563528 30.5250712,27.9632255 C30.3874941,27.8326353 30.1660059,27.7329356 29.9831385,27.7322819 C25.3432083,27.7198603 20.7032782,27.7193699 16.063348,27.733426 C15.8685377,27.7339163 15.6371228,27.8481623 15.4854313,27.985944 C14.2034984,29.1493248 12.9459168,30.342452 11.6584001,31.4986414 C11.3007308,31.8196417 11.1488841,32.1561689 11.3047635,32.7050075 L11.7550298,32.7050075 C17.5582384,32.7050075 23.3614471,32.7087666 29.1646557,32.6960181 C29.5350436,32.6952009 29.7676993,32.7609047 29.8713086,33.1731056 C29.9386237,33.4418044 30.0845764,33.688602 30.2192065,33.9999591 Z M16.1229079,26.3915664 L29.8765822,26.3915664 L29.8765822,25.8798292 C29.8765822,22.8837722 29.8497492,19.887225 29.8914721,16.8918218 C29.9054315,15.8703087 29.3286004,15.286657 28.3697488,15.3010399 C26.418543,15.3301326 24.4668719,15.3097023 22.5153559,15.3097023 C20.8610187,15.3097023 19.2068367,15.30627 17.5526547,15.3111733 C16.5868233,15.3141153 16.123063,15.8068932 16.123063,16.8110814 C16.1229079,19.8344332 16.1229079,22.8576215 16.1229079,25.8809733 L16.1229079,26.3915664 Z M40.1596358,13.2491661 L6.83551187,13.2491661 L6.83551187,13.7561049 C6.83551187,19.8146684 6.83535934,25.8733873 6.83566441,31.9319508 C6.83566441,33.7891211 8.14333921,35.132206 9.97878198,35.1413722 C11.8726453,35.1508491 13.7665086,35.1437026 15.660372,35.1437026 C20.7316731,35.1437026 25.8031267,35.1485187 30.8744277,35.1337595 C31.2429501,35.132672 31.4183643,35.2575813 31.5431372,35.5881868 C31.7188565,36.0541106 31.9343872,36.5044985 32.1493077,36.9996299 L31.716416,36.9996299 C24.4843169,36.9996299 17.2520653,37.0007175 10.0199662,36.9991639 C7.48622233,36.9986978 5.53104029,35.3579436 5.06520116,32.8378534 C5.01623771,32.5729651 5.006323,32.2973569 5.00617046,32.0265649 C5.00311978,25.0100533 4.99213733,17.9932309 5.00983128,10.9767193 C5.01608518,8.46315419 6.62989591,6.53964533 9.05305256,6.07045894 C9.3623917,6.01064544 9.68500131,6.00396497 10.0015096,6.00380961 C19.0005636,6.0003917 27.9994651,5.99743987 36.9982141,6.00349889 C39.4372343,6.00489713 41.3478764,7.52462604 41.8780849,9.86356682 C41.9516063,10.188424 41.9946209,10.5285065 41.994926,10.8614424 C42.001485,17.942739 42.0024002,25.0240356 41.9934007,32.1053323 C41.9927905,32.501655 41.9107272,32.9009295 41.8323246,33.2913485 C41.8160035,33.3730677 41.6357082,33.4908304 41.5507467,33.4759158 C41.053028,33.3876715 40.5608004,33.2649373 40.0339477,33.1465532 C40.084894,32.7943527 40.1759569,32.4564453 40.176567,32.1182271 C40.1852615,25.9043039 40.1832785,19.6903807 40.1826684,13.4764574 C40.1826684,13.4138474 40.1704657,13.3513928 40.1596358,13.2491661 Z M10.0680144,9.61996276 C10.0643536,8.85978759 9.48655446,8.26584733 8.74600142,8.2605651 C8.04586992,8.25559358 7.37090655,8.94725512 7.38524475,9.65538478 C7.4001931,10.3966061 8.00605852,11.0017322 8.73532403,11.0031305 C9.49357102,11.0048394 10.0718278,10.4046848 10.0680144,9.61996276 Z M17.4361739,9.61934132 C17.4311403,10.3931882 18.0167187,11.0015769 18.767644,11.0031305 C19.5103326,11.0048394 20.1320615,10.3774968 20.1291634,9.62912898 C20.1264178,8.90142399 19.5141459,8.27221708 18.7966255,8.26025438 C18.0479882,8.24767024 17.441055,8.85419464 17.4361739,9.61934132 Z M13.7572041,11.0032858 C14.5047737,11.0037519 15.1022497,10.3894595 15.0984364,9.62415747 C15.094623,8.88013971 14.5035534,8.27081884 13.7752031,8.2605651 C13.0381583,8.25015599 12.410328,8.87485748 12.4051418,9.62400211 C12.3999557,10.3787397 13.0114649,11.0026644 13.7572041,11.0032858 Z M32.0052444,33.0684167 C35.3215407,33.7345278 38.5705778,34.3871667 41.8914667,35.05425 C41.1108741,35.8934167 40.3645037,36.6956389 39.5935407,37.5243889 C41.0453926,38.52675 42.4791704,39.51675 43.9461333,40.5293889 C43.3093926,41.34675 42.6805037,42.15425 42.021837,43.0000833 C40.7408,41.7411944 39.4704296,40.4932778 38.1720593,39.2175833 C37.4565037,39.9864722 36.7622815,40.7321667 36.0514667,41.4959167 C34.7055407,38.6925833 33.3696889,35.9102222 32.0052444,33.0684167 Z M23.0315325,24.99937 C21.3179654,24.99937 19.6043983,25.0001285 17.8908312,24.9990666 C17.1969656,24.9986116 17.0002628,24.7986867 17.0002628,24.0989496 C16.9999625,21.685744 16.9998123,19.2723868 17.0004129,16.8590295 C17.0005631,16.2078326 17.2038727,16.0010817 17.8537429,16.00093 C21.280727,15.9997165 24.7078612,15.9997165 28.1348453,16.0007784 C28.812344,16.00093 28.9994369,16.1925121 28.9995871,16.8784456 C29.0000375,19.3043929 29.0003378,21.7303403 28.9992868,24.1562877 C28.9991366,24.7877652 28.7970282,24.9970947 28.1720837,24.9983082 C26.4585166,25.001342 24.7449495,24.99937 23.0315325,24.99937 Z"/>
</svg>
