<svg xmlns="http://www.w3.org/2000/svg" width="48" height="48" viewBox="0 0 48 48" class="primary icon">
  <path fill="#F00" d="M8,0 L40,0 C44.418278,-8.11624501e-16 48,3.581722 48,8 L48,40 C48,44.418278 44.418278,48 40,48 L8,48 C3.581722,48 5.41083001e-16,44.418278 0,40 L0,8 C-5.41083001e-16,3.581722 3.581722,8.11624501e-16 8,0 Z M8,2.5 C4.96243388,2.5 2.5,4.96243388 2.5,8 L2.5,40 C2.5,43.0375661 4.96243388,45.5 8,45.5 L40,45.5 C43.0375661,45.5 45.5,43.0375661 45.5,40 L45.5,8 C45.5,4.96243388 43.0375661,2.5 40,2.5 L8,2.5 Z M19.8922237,40.0000139 L12.9399868,40.0000139 C12.9139342,39.6193802 12.8794605,39.2889248 12.8706447,38.9576376 C12.8422237,37.8964099 12.8469605,36.8335188 12.7932763,35.7738158 C12.7484079,34.8897366 12.3694605,34.1154396 11.8182763,33.4789248 C11.2086711,32.774905 10.5253816,32.1397762 9.85498684,31.4968851 C9.00498684,30.6815584 8.11814474,29.9083703 7.27893421,29.0812614 C6.17196053,27.9899545 5.57564474,26.6284891 5.42801316,25.0337366 C5.34011842,24.0838158 5.14301316,23.1433208 5.08314474,22.1924297 C5.00722368,20.985796 4.99011842,19.7725089 5.00472368,18.5628257 C5.01735526,17.5266871 5.09419737,16.4899941 5.17327632,15.4562119 C5.23801316,14.6074792 5.32064474,13.7581921 5.44485526,12.9172218 C5.57603947,12.0299545 6.23814474,11.8094198 6.90051316,12.405598 C7.37498684,12.8328059 7.52314474,13.417895 7.58261842,14.0399941 C7.70643421,15.3342317 7.80985526,16.6308257 7.95814474,17.9218752 C8.06827632,18.8805287 8.21275,19.8366871 8.38919737,20.7842515 C8.46130263,21.1708455 8.64880263,21.5359545 8.80525,21.9007861 C8.83577632,21.9717564 8.97630263,22.0489644 9.04761842,22.0328851 C9.61143421,21.9050832 10.1165658,22.077796 10.5101184,22.463697 C11.1399868,23.0812218 11.7699868,23.7164891 12.2955132,24.4293802 C12.8359079,25.1625089 13.45525,25.7718554 14.1795921,26.2783505 C15.3449868,27.0932614 16.5172237,27.8973604 17.6790658,28.7176772 C19.0344605,29.6748059 19.8695921,30.9779149 19.9065658,32.7313802 C19.9397237,34.2999347 19.8985395,35.8702911 19.89275,37.4398158 C19.8895921,38.2931228 19.8922237,39.1465683 19.8922237,40.0000139 Z M35.0843103,40 L28.0020984,40 L28.0020984,39.6044605 C28.0020984,37.5778243 27.999586,35.5510491 28.0039497,33.5241349 C28.0051398,33.0296062 27.9776351,32.5261796 28.0528764,32.0422172 C28.2943365,30.4877259 29.1775303,29.3971768 30.4067816,28.5642498 C31.5699157,27.7759513 32.7132146,26.955537 33.8747619,26.1644579 C34.751344,25.5671862 35.3596224,24.7093729 36.0190755,23.8847876 C36.5154835,23.264159 37.1178114,22.7224992 37.7338916,22.2294999 C37.9828891,22.0304093 38.3978407,21.9784122 38.7294847,21.9985715 C39.0580872,22.0185918 39.2061898,21.8856794 39.2757451,21.6179081 C39.480444,20.8298877 39.7372433,20.0454821 39.8373448,19.2409171 C40.0639946,17.4207401 40.211436,15.5894407 40.3861177,13.7621731 C40.4684997,12.8987986 40.9756188,12.1873835 41.6383778,12.0261091 C41.9717408,11.9450547 42.2633177,12.0489099 42.3598488,12.3912011 C42.5054389,12.9070013 42.6273591,13.4428219 42.6649137,13.9773911 C42.8007184,15.913936 42.9407547,17.8522883 42.9940452,19.792587 C43.0337155,21.2347422 42.8708027,22.6735608 42.6356899,24.0991715 C42.5515888,24.6099666 42.5027943,25.1271572 42.4312554,25.6404549 C42.2272177,27.1056891 41.5165898,28.2763193 40.4874092,29.2449393 C39.2248349,30.4332263 37.9260283,31.5793872 36.6799832,32.7861652 C35.9521649,33.4910458 35.3843502,34.3455225 35.1916846,35.3922772 C35.0944923,35.9210072 35.0970048,36.4736503 35.0885418,37.0161443 C35.073467,37.9864326 35.0843103,38.9572771 35.0843103,40 Z M19.000535,26 L19.000535,25.5094824 C19.000535,24.1782241 18.9991463,22.8468192 19.0008437,21.5155609 C19.0025411,20.345414 19.7867398,19.596737 21.0266134,19.5835432 C21.5537332,19.5779724 22.0808531,19.5835432 22.6079729,19.5816374 C22.7284883,19.5811976 22.8490037,19.5709357 23.0264592,19.562433 C21.2819949,18.6085185 20.6669189,17.5129901 21.0502227,16.1184014 C21.3881596,14.8891754 22.5484096,14.0145705 23.8604998,14.0002039 C25.246504,13.9851043 26.4215677,14.8098658 26.7951501,16.0602019 C27.2139449,17.4612409 26.6315824,18.5258371 24.816136,19.582517 C25.5284267,19.582517 26.1664948,19.5580351 26.8014767,19.5916061 C27.1912615,19.6121298 27.6075874,19.6553763 27.9564803,19.8053462 C28.6340515,20.0963437 28.9769263,20.6649981 28.9877279,21.3617794 C29.01072,22.8638246 28.9946718,24.3663096 28.9929744,25.868648 C28.9929744,25.902952 28.9750746,25.937256 28.9574833,26 L19.000535,26 Z M30.8199784,14.6044281 C29.1641536,13.4121617 28.6442642,12.3647393 29.0879338,10.9942596 C29.4714865,9.80927915 30.5815041,9.02065223 31.8939565,9.0003974 C33.2237386,8.97999686 34.369489,9.74662032 34.7841737,10.9342237 C35.2677168,12.318838 34.7803397,13.3289566 32.9970729,14.5541553 C33.6628074,14.5541553 34.2687317,14.5519695 34.8748092,14.5545924 C36.2668554,14.5604212 36.9982278,15.2578285 36.9994547,16.5803669 C37.0006816,17.9160199 36.9994547,19.251673 36.9994547,20.587326 L36.9994547,21 L30.8107768,21 C30.3606661,18.9342988 30.0142265,18.5936096 28,18.2690952 C28.7937899,17.1246244 28.905129,15.9234692 28.3031922,14.6044281 L30.8199784,14.6044281 Z M11.0179988,21 C11.0117808,20.8644971 11.0013657,20.7452722 11.0013657,20.6260473 C11.0001221,19.257967 10.9991894,17.8898867 11.0010548,16.5216597 C11.0022984,15.3512611 11.7913578,14.6015959 13.0386809,14.5872244 C13.5695394,14.5810652 14.1003979,14.5869311 14.6312564,14.5851713 C14.7526621,14.5847314 14.8742232,14.5747593 15.0520569,14.566547 C13.2777615,13.5778454 12.6729093,12.4889831 13.0776986,11.0860005 C13.4394285,9.83274569 14.6234839,8.99069219 16.0111775,9.00007767 C17.3391787,9.00887655 18.5149953,9.87072755 18.8656883,11.0923064 C19.2651924,12.4834105 18.6430853,13.6061485 16.9636138,14.5936769 L19.6617429,14.5936769 C19.0727465,15.9303745 19.1434758,17.1427145 20,18.3307109 C19.2000592,18.3443492 18.549505,18.5829457 18.0239317,19.0978272 C17.4896534,19.6212144 17.2908341,20.2614801 17.2808853,21 L11.0179988,21 Z"/>
</svg>
