<svg xmlns="http://www.w3.org/2000/svg" width="48" height="48" viewBox="0 0 48 48" class="primary icon">
  <path fill="#F00" fill-rule="evenodd" d="M8,0 L40,0 C44.418278,-8.11624501e-16 48,3.581722 48,8 L48,40 C48,44.418278 44.418278,48 40,48 L8,48 C3.581722,48 5.41083001e-16,44.418278 0,40 L0,8 C-5.41083001e-16,3.581722 3.581722,8.11624501e-16 8,0 Z M8,2.5 C4.96243388,2.5 2.5,4.96243388 2.5,8 L2.5,40 C2.5,43.0375661 4.96243388,45.5 8,45.5 L40,45.5 C43.0375661,45.5 45.5,43.0375661 45.5,40 L45.5,8 C45.5,4.96243388 43.0375661,2.5 40,2.5 L8,2.5 Z M19.2914126,38.2225472 L19.2914126,33.995689 L40.9681227,33.995689 L40.9681227,38.2225472 L19.2914126,38.2225472 Z M19,13 L19,9 L41,9 L41,13 L19,13 Z M19,26 L19,22 L41,22 L41,26 L19,26 Z M26.1721004,37.7057205 L40.4606877,37.7057205 L40.4606877,34.5001732 L26.1721004,34.5001732 L26.1721004,37.7057205 Z M34.0417825,12.5276916 L40.4791868,12.5276916 L40.4791868,9.48840424 L34.0417825,9.48840424 L34.0417825,12.5276916 Z M37.6729092,25.5220597 L40.4806331,25.5220597 L40.4806331,22.4875261 L37.6729092,22.4875261 L37.6729092,25.5220597 Z M10.3334944,36.7881516 C9.30444238,36.205065 8.72271375,35.3648642 8.81795539,34.1723169 C8.87650558,33.437872 9.22078067,32.8355571 9.8082342,32.3807028 C10.931487,31.51075 12.5636059,31.7238209 13.423513,32.8594626 C13.9348513,33.5345335 14.0537732,34.2978209 13.842342,35.1029429 C13.6286989,35.9163799 13.0801487,36.4616594 12.312881,36.8069902 C12.3202974,36.833624 12.3277138,36.8602579 12.3351301,36.8868917 C12.4414312,36.8975453 12.5476022,36.9158642 12.6540335,36.9175531 C13.2819517,36.9279469 13.9127323,36.901313 14.537658,36.9495138 C15.7111338,37.039939 16.607342,38.0157776 16.644684,39.1968917 C16.6534015,39.4747933 16.6459851,39.7532146 16.6459851,40.000065 L6.05737918,40.000065 C6.00845725,39.0637224 6.00819703,38.2072815 6.72055762,37.5396161 C7.15851301,37.1293248 7.67115242,36.9050807 8.27031599,36.8953366 C8.83356877,36.8861122 9.39708178,36.8936476 9.96046468,36.8918287 C10.0637732,36.891439 10.1670818,36.8809154 10.2705204,36.8750689 C10.2914684,36.8460965 10.3125465,36.817124 10.3334944,36.7881516 Z M10.3292918,24.3951965 C9.32027695,23.8296492 8.74453346,23.0073776 8.81180112,21.8430232 C8.85356691,21.1202713 9.17767472,20.5179563 9.73728439,20.0475114 C10.7805186,19.1702831 12.4035297,19.2912398 13.3067639,20.3280114 C13.8883625,20.9955469 14.0530836,21.7766335 13.861039,22.6325547 C13.6667825,23.4975705 13.0859647,24.0489563 12.3088086,24.4340429 C12.3172658,24.460287 12.325723,24.4865311 12.3341803,24.5127752 C12.4308532,24.5229091 12.527526,24.5408382 12.624329,24.5417476 C13.1987714,24.5468146 13.7733439,24.5433067 14.3476561,24.5512319 C15.6024517,24.5682516 16.611987,25.5646177 16.6462063,26.8142004 C16.6694963,27.6683028 16.6694963,27.6688224 15.8215595,27.6621965 C12.6456673,27.6368618 9.46977509,27.6111374 6.29362268,27.5851531 C6.20813941,27.5845035 6.12265613,27.5780075 6.02234015,27.5735902 C6.04276766,27.1425114 6.01427323,26.7152004 6.09142937,26.3078972 C6.29622491,25.2260429 7.22639219,24.5084878 8.39245167,24.4914681 C9.0171171,24.4823736 9.64204275,24.4899091 10.2669684,24.4899091 C10.2876561,24.4583382 10.308474,24.4267673 10.3292918,24.3951965 Z M6.00003903,15.1874689 C6.04531784,14.6805161 6.03282714,14.1964295 6.14094981,13.7409256 C6.35107993,12.8560319 7.18314312,12.1901854 8.09314312,12.1402957 C8.7093513,12.1065161 9.32842193,12.1244453 9.94619145,12.1169098 C10.0582175,12.1154807 10.1702435,12.1032681 10.3144071,12.0537681 C9.21054089,11.3602484 8.62308736,10.4335201 8.86210223,9.11845709 C8.97477881,8.49769331 9.30057807,7.99294921 9.80085688,7.60942165 C10.8667305,6.79247677 12.4120651,6.92564606 13.2758755,7.90369331 C13.8710056,8.5777248 14.0534219,9.35946102 13.8643699,10.2298035 C13.6741468,11.1059925 13.0831803,11.6588075 12.3016004,12.052339 C12.31279,12.0771539 12.3239796,12.1019689 12.335039,12.1267839 C12.4462844,12.1330201 12.5573996,12.1419846 12.6687751,12.1448429 C13.3717677,12.1632917 14.0845186,12.1137917 14.775671,12.2134413 C15.8333476,12.365839 16.614277,13.3364807 16.6448532,14.4039138 C16.6530502,14.6931185 16.6460242,14.982713 16.6460242,15.292965 C13.0634033,15.2574965 9.54583829,15.2226776 6.00003903,15.1874689 Z"/>
</svg>
