<svg xmlns="http://www.w3.org/2000/svg" width="48" height="48" viewBox="0 0 48 48" class="primary icon">
  <path fill="#F00" fill-rule="evenodd" d="M8,0 L40,0 C44.418278,-8.11624501e-16 48,3.581722 48,8 L48,40 C48,44.418278 44.418278,48 40,48 L8,48 C3.581722,48 5.41083001e-16,44.418278 0,40 L0,8 C-5.41083001e-16,3.581722 3.581722,8.11624501e-16 8,0 Z M8,2.5 C4.96243388,2.5 2.5,4.96243388 2.5,8 L2.5,40 C2.5,43.0375661 4.96243388,45.5 8,45.5 L40,45.5 C43.0375661,45.5 45.5,43.0375661 45.5,40 L45.5,8 C45.5,4.96243388 43.0375661,2.5 40,2.5 L8,2.5 Z M14.0128577,24.5014046 C14.0128577,20.3330411 14.0116355,16.1646777 14.013591,11.9963142 C14.0140798,10.5322378 14.9579434,9.36166328 16.3828437,9.06521908 C16.6095519,9.0180185 16.8481148,9.01507612 17.0811781,9.01495352 C21.3586901,9.01213375 25.6364465,9.03714393 29.9135918,9.00011905 C31.4743948,8.98651057 33.0002444,10.1402891 33,12.0870374 C32.9986556,20.3623423 33.0014666,28.6377697 32.9975557,36.9131972 C32.9968224,38.4567177 32.0612694,39.6335448 30.6115595,39.9344025 C30.3848514,39.9814805 30.1464107,39.9850359 29.9132252,39.9852811 C25.6357132,39.9879783 21.358079,39.9613743 17.0809337,39.9998704 C15.3342422,40.015563 13.9837706,38.604572 14.0001474,36.8837735 C14.0392561,32.7566032 14.0128577,28.6289426 14.0128577,24.5014046 Z M15.2992889,34.269474 L31.6989031,34.269474 L31.6989031,12.8896926 L15.2992889,12.8896926 L15.2992889,34.269474 Z M19.341613,20.1141584 C19.7553913,19.6335042 20.1458264,19.1799675 20.5670698,18.6906689 C20.5328253,18.6205661 20.4687204,18.501794 20.4156355,18.3781668 C20.2972608,18.1020186 20.2858854,17.796503 20.5186061,17.6109437 C20.7878227,17.3961355 21.1100057,17.2082079 21.4391799,17.1183295 C21.8272451,17.0122279 22.0778583,17.1908006 22.2715947,17.6082201 C22.3656783,17.8111867 22.4631982,17.8689741 22.6934305,17.8335675 C23.061589,17.7770826 23.4391083,17.7702144 23.8127174,17.7678461 C23.9847696,17.7667803 24.073284,17.7303079 24.1337156,17.5557614 C24.3030424,17.0672918 24.6424069,16.9055343 25.1314284,17.0518976 C25.1597483,17.0604236 25.1883052,17.0682391 25.2163881,17.0772388 C26.0783077,17.3551632 26.1808043,17.5348017 25.9792474,18.3959293 C26.3853236,18.7459696 26.7863046,19.0916285 27.2088514,19.455642 C27.2678611,19.4261562 27.3499769,19.3678951 27.4412166,19.3430276 C27.5998791,19.3000423 27.7700353,19.2336104 27.9247874,19.2543333 C28.5099069,19.3328437 28.6009097,19.8629962 28.7784126,20.2826656 C28.9082811,20.5897206 28.7322002,20.914775 28.3724548,21.1011632 C28.1429335,21.2199353 28.089256,21.3420231 28.1374828,21.603606 C28.2065643,21.9779218 28.2019431,22.3672766 28.2091712,22.750592 C28.2121335,22.9105733 28.2472075,22.9887284 28.413098,23.0474632 C28.9588777,23.2411932 29.1067573,23.5752473 28.9280695,24.139859 C28.8925215,24.2524735 28.8567366,24.3652063 28.8166859,24.4762814 C28.6608673,24.908503 28.3179479,25.1109959 27.8901874,24.9699614 C27.6329387,24.8851749 27.5087578,24.9563435 27.3647885,25.1630994 C27.1577809,25.460681 26.9075232,25.7281848 26.6516964,26.0373713 C26.684519,26.0931456 26.7339306,26.1735507 26.7795505,26.2562057 C26.9851363,26.6280347 26.9123814,26.9922851 26.5769271,27.2543417 C26.4996696,27.3147343 26.413762,27.3642325 26.3304613,27.4166912 C25.6588417,27.8405053 25.4371409,27.7925464 24.9562954,27.1502532 C24.9049879,27.0815714 24.7683652,27.0392966 24.675585,27.0456911 C24.2244814,27.0767163 23.7757476,27.1412535 23.3245254,27.1660027 C23.1627822,27.1748839 23.0835102,27.2140799 23.0195239,27.3655351 C22.7493593,28.0049863 22.4636722,28.1236401 21.8168177,27.887872 C21.0743393,27.6172894 20.9936454,27.4722287 21.130979,26.6838091 C21.1399845,26.6317056 21.1127311,26.5489322 21.0729173,26.5163676 C20.6549918,26.1747349 20.2311415,25.840444 19.7833557,25.4837723 C19.7138002,25.5181132 19.6007576,25.5776769 19.4845158,25.6297803 C19.3949349,25.6699237 19.3039321,25.7153957 19.2087821,25.7329214 C18.7813771,25.811195 18.4431974,25.5079293 18.1744548,24.81673 C18.0346328,24.456861 18.1550219,24.1025577 18.4878694,23.8948545 C18.9222655,23.6237982 18.9095867,23.625456 18.8400312,23.1157897 C18.8015209,22.8343128 18.8031798,22.5457308 18.8072086,22.2607014 C18.80946,22.1058121 18.7577969,22.0405644 18.6109838,21.9884609 C18.0388986,21.7852575 17.8937444,21.4772552 18.0711287,20.8906179 C18.1079801,20.768767 18.1396178,20.644666 18.1864226,20.5266044 C18.355394,20.1007773 18.6883599,19.9392566 19.1362642,20.0595682 C19.2115074,20.0798175 19.2869876,20.0994747 19.341613,20.1141584 Z M23.4936152,25.0508401 C24.9593763,25.0514322 26.0958447,23.9297874 26.0967926,22.4815489 C26.0977406,21.0206397 24.9708701,19.8806403 23.5246604,19.8793377 C22.0625727,19.8780351 20.9226679,21.0042981 20.921957,22.4506421 C20.921246,23.9151037 22.0439692,25.0501296 23.4936152,25.0508401 Z"/>
</svg>
