<svg xmlns="http://www.w3.org/2000/svg" width="48" height="48" viewBox="0 0 48 48" class="primary icon">
  <path fill="#F00" d="M8,0 L40,0 C44.418278,-8.11624501e-16 48,3.581722 48,8 L48,40 C48,44.418278 44.418278,48 40,48 L8,48 C3.581722,48 5.41083001e-16,44.418278 0,40 L0,8 C-5.41083001e-16,3.581722 3.581722,8.11624501e-16 8,0 Z M8,2.5 C4.96243388,2.5 2.5,4.96243388 2.5,8 L2.5,40 C2.5,43.0375661 4.96243388,45.5 8,45.5 L40,45.5 C43.0375661,45.5 45.5,43.0375661 45.5,40 L45.5,8 C45.5,4.96243388 43.0375661,2.5 40,2.5 L8,2.5 Z M30.2627152,25.8686662 C29.5525733,26.533407 28.9311783,27.1121622 28.3127859,27.6939582 C25.4320152,30.4041073 22.5530795,33.1161145 19.6709742,35.8249121 C19.146667,36.3176818 18.4924089,36.431372 17.9012078,36.1519612 C17.3308589,35.8823484 16.9623591,35.2583198 17.0030626,34.61081 C17.031922,34.1536845 17.2346052,33.7830514 17.5655711,33.4720507 C22.1176859,29.1935526 26.6691335,24.9145478 31.216077,20.630475 C31.6119349,20.2574769 31.946237,19.8138659 32.3587766,19.4631665 C34.1023527,17.9818166 36.0923182,17.6165893 38.2060622,18.4071831 C40.3081291,19.1932159 41.5666,20.7779512 41.9232557,23.0392524 C42.0014931,23.534725 41.9911504,24.0474285 41.9916509,24.5521923 C41.9963218,29.3229533 41.9893154,34.0937143 41.9999917,38.8646442 C42.0016599,39.5537109 41.7504328,40.0904026 41.2406387,40.5196545 C40.3700183,41.2524742 39.3332478,41.5965852 38.2435962,41.7950784 C36.2666425,42.1552378 34.3182145,42.0638465 32.42517,41.33525 C32.0905342,41.2065251 31.7700778,41.0289794 31.4621328,40.8414667 C30.6347182,40.3375476 30.2426971,39.6221277 30.2502039,38.6066876 C30.2803979,34.5538804 30.2627152,30.5005665 30.2627152,26.4474214 L30.2627152,25.8686662 Z M6.99996607,25.0370333 L24.6988054,25.0370333 C24.7368054,25.0787 24.7746357,25.1203667 24.8126357,25.1620333 C24.6779393,25.2505333 24.527975,25.3233667 24.4104125,25.4303667 C21.7365018,27.8633667 19.0614036,30.2955333 16.3973321,32.7392 C15.4685375,33.5912 15.1524929,34.6478667 15.5228232,35.8472 C15.8831446,37.0140333 16.7218589,37.7078667 17.9388768,37.9180333 C18.8532518,38.0757 19.6889125,37.8365333 20.3747786,37.2220333 C21.9090286,35.8472 23.4232607,34.4507 24.9466536,33.0640333 C25.2533679,32.7848667 25.5644929,32.5102 25.924475,32.1878667 L25.924475,41.9105333 L6.99996607,41.9105333 L6.99996607,25.0370333 Z M40.9569677,12.0066129 C40.9553548,14.7195161 38.744871,16.9348387 36.0416452,16.9327419 C33.3363226,16.9304839 31.1324516,14.7166129 31.1329355,12.0012903 C31.1332581,9.26951613 33.3124516,7.09403226 36.047129,7.09548387 C38.7813226,7.09693548 40.9587419,9.27483871 40.9569677,12.0066129 Z"/>
</svg>
