<svg xmlns="http://www.w3.org/2000/svg" width="48" height="48" viewBox="0 0 48 48" class="primary icon">
  <path fill="#F00" fill-rule="evenodd" d="M8,0 L40,0 C44.418278,-8.11624501e-16 48,3.581722 48,8 L48,40 C48,44.418278 44.418278,48 40,48 L8,48 C3.581722,48 5.41083001e-16,44.418278 0,40 L0,8 C-5.41083001e-16,3.581722 3.581722,8.11624501e-16 8,0 Z M8,2.5 C4.96243388,2.5 2.5,4.96243388 2.5,8 L2.5,40 C2.5,43.0375661 4.96243388,45.5 8,45.5 L40,45.5 C43.0375661,45.5 45.5,43.0375661 45.5,40 L45.5,8 C45.5,4.96243388 43.0375661,2.5 40,2.5 L8,2.5 Z M20.598163,33.9963916 C18.6997509,34.0831473 17.0954196,32.5950341 17.0039783,30.6628434 C16.9128867,28.7334456 18.3971029,27.0985285 20.3257623,27.0040922 C22.2337906,26.9105287 23.9176741,28.4335537 23.9967017,30.3240249 C24.079401,32.3040447 22.5976325,33.9050974 20.598163,33.9963916 Z M20.4799712,31.8899913 C21.2697232,31.8922606 21.9120851,31.2717043 21.91226,30.5064387 C21.9124348,29.7394276 21.2552115,29.091291 20.4860905,29.1003681 C19.7082276,29.1092706 19.1071279,29.7085307 19.1010085,30.4811277 C19.0945395,31.3046959 19.6650422,31.8875475 20.4799712,31.8899913 Z M10.5606123,33.9989188 C8.65175067,34.0467606 7.04499472,32.5008052 7.00089042,30.573861 C6.95730911,28.6696155 8.51926347,27.0395003 10.42429,27.0007379 C12.3622639,26.9614517 13.9479265,28.4957086 13.9988295,30.4593199 C14.0485122,32.3668829 12.5104404,33.9500293 10.5606123,33.9989188 Z M11.8809519,30.5377177 C11.8867046,29.7210886 11.3157894,29.1180019 10.5222608,29.102462 C9.74790793,29.0872714 9.09889497,29.7167235 9.08895843,30.4926695 C9.07954487,31.2441708 9.70310634,31.8807817 10.4575861,31.8893374 C11.2966136,31.8987661 11.8751991,31.3494578 11.8809519,30.5377177 Z M11.3249326,23.460073 C11.0186736,22.1396788 11.2106114,20.7967518 11.1689741,19.4648613 C11.1428601,18.635438 11.1598342,17.8044818 11.1652021,16.9741387 C11.1731813,15.7285474 11.9934508,14.8555912 13.1740933,14.8488467 C14.6367668,14.8404161 16.0995855,14.8442482 17.5624041,14.8471606 C18.8623005,14.8496131 19.6753161,15.6667737 19.6937409,17.050781 C19.7172435,18.8259708 19.7083938,20.601927 19.6917098,22.3771168 C19.688228,22.7269124 19.5853679,23.075635 19.5241451,23.4507226 C19.8235855,23.6093723 19.9123731,23.3990657 19.9905699,23.1314307 C20.8424663,20.2151898 21.6952332,17.299562 22.5533679,14.3853139 C23.3679793,11.6180657 24.1876684,8.85235036 25.008228,6.08694161 C25.2383212,5.31132117 25.5743212,5.04675182 26.3253886,5.04613869 C28.4651399,5.04414599 30.6050363,5.04031387 32.7447876,5.05043066 C33.6040829,5.05456934 34.1591503,5.90177372 33.8398342,6.71755474 C33.6493472,7.20438686 33.294342,7.48167883 32.7746736,7.4819854 C30.9854301,7.48305839 29.1961865,7.49424818 27.4072332,7.47845985 C27.1061969,7.47585401 26.9898446,7.58330657 26.9055544,7.87240146 C25.9252642,11.2354672 24.9345285,14.5950073 23.9452435,17.9551606 C23.2596062,20.2844745 22.5735337,22.613635 21.8842694,24.9417226 C21.6702798,25.6649197 21.2965596,25.9483431 20.5736373,25.9486496 C17.0556477,25.9495693 13.537658,25.9497226 10.0196684,25.9484964 C9.25684974,25.9481898 8.8638342,25.5796934 8.6893057,24.7792409 C8.13075648,22.2180073 7.55856995,19.660146 6.99218653,17.1007518 C6.6746114,15.6666204 6.35674611,14.2324891 6.04192746,12.7975912 C5.87218653,12.0238102 6.22704663,11.3941168 6.92704663,11.2150803 C7.54246632,11.0576569 8.14831088,11.4991168 8.31108808,12.2338102 C9.11075648,15.8455036 9.9082487,19.4578102 10.705886,23.0699635 C10.8094715,23.5390146 10.823544,23.549438 11.3249326,23.460073 Z M40.7302927,30.1997111 C39.48148,31.552546 38.2828815,32.8510654 37.0594802,34.1764536 C39.3831818,35.7998555 41.6807112,37.4047671 44,39.0248465 C42.9766948,40.3519682 41.9710407,41.6559769 40.9344973,43 C38.8883434,40.9604189 36.8656229,38.9440953 34.8095783,36.8946912 C33.6812798,38.1250271 32.5716974,39.335139 31.4347255,40.575009 C29.2928603,36.0564103 27.1614944,31.5600578 25,27 C30.2618428,28.0704225 35.4562768,29.1269772 40.7302927,30.1997111 Z"/>
</svg>
