<svg xmlns="http://www.w3.org/2000/svg" width="48" height="48" viewBox="0 0 48 48" class="primary icon">
  <path fill="#F00" fill-rule="evenodd" d="M25,20 L25,20.0117493 L25,21.0138944 C28.8949822,21.2530982 32.0043966,24.5504676 31.9999953,28.5474951 C31.9957029,32.6392347 28.6066464,36.0006922 24.4860821,35.9999999 C20.3662101,35.999446 16.9988926,32.6192953 17.0000003,28.4853229 C17.0010588,24.5336768 20.0887827,21.2971689 24,21.0193404 L24,20 L23,20 L23,19 L26,19 L26,20 L25,20 Z M8,0 L40,0 C44.418278,-8.11624501e-16 48,3.581722 48,8 L48,40 C48,44.418278 44.418278,48 40,48 L8,48 C3.581722,48 5.41083001e-16,44.418278 0,40 L0,8 C-5.41083001e-16,3.581722 3.581722,8.11624501e-16 8,0 Z M8,2.5 C4.96243388,2.5 2.5,4.96243388 2.5,8 L2.5,40 C2.5,43.0375661 4.96243388,45.5 8,45.5 L40,45.5 C43.0375661,45.5 45.5,43.0375661 45.5,40 L45.5,8 C45.5,4.96243388 43.0375661,2.5 40,2.5 L8,2.5 Z M39.1317394,39.8010905 L39.1317394,39.284116 C39.1317394,36.4031451 39.1304439,33.5221742 39.1347621,30.6412033 C39.1349061,30.4518365 39.1494439,30.2519664 39.2064439,30.0749563 C39.3332545,29.6807767 39.6506409,29.4707124 40.0405727,29.4810611 C40.4155348,29.490792 40.7326333,29.7385444 40.8342545,30.1362766 C40.8808909,30.3185383 40.8915424,30.5164004 40.8916864,30.7071573 C40.8951409,33.5623336 40.8939894,36.4178187 40.8939894,39.2729949 L40.8939894,39.7983103 C41.417353,39.2353069 41.8516182,38.746135 42.3109288,38.285538 C42.4696939,38.1264451 42.6784061,37.983416 42.8858227,37.9299732 C43.2753227,37.8295747 43.6281182,38.0336152 43.7952318,38.378059 C43.9727091,38.7433547 43.9147015,39.1987001 43.6239439,39.51426 C42.8315576,40.3736704 42.0313985,41.2247399 41.2341182,42.0790531 C41.0390803,42.2881907 40.8502318,42.5045879 40.6469894,42.7039946 C40.2416561,43.1015723 39.7541333,43.1014178 39.3627621,42.6868496 C38.3733227,41.6385358 37.3900727,40.5837347 36.4107091,39.5249177 C36.030853,39.114211 36.0183303,38.5583127 36.358747,38.1780344 C36.7026182,37.7942036 37.2544818,37.7980651 37.6432621,38.2046014 C38.1199894,38.7030409 38.5852015,39.2136826 39.1317394,39.8010905 Z M30.3291445,28.3746866 C30.249112,25.1147264 27.5720399,22.5350612 24.2638466,22.6747757 C21.0045314,22.8124133 18.6228039,25.4518968 18.6729281,28.5782351 C18.7305293,32.1602727 21.8279796,34.669873 25.1512655,34.2950392 C28.0440653,33.9686693 30.3834226,31.5013019 30.3291445,28.3746866 Z M15.6013284,6.96824063 C15.6521185,6.36157098 15.812884,6.14220938 16.1685547,6.13852634 C16.5287029,6.13454866 16.6862502,6.34374509 16.761386,6.94496384 L31.6677975,6.94496384 C31.7732955,6.30882991 31.9281844,6.11583884 32.2996658,6.13999955 C32.6419045,6.16224509 32.7903572,6.37527188 32.8362502,6.95012009 C32.9516823,6.95601295 33.0732708,6.9673567 33.1948593,6.9673567 C34.8619786,6.96853527 36.5290979,6.96278973 38.1963572,6.97000848 C39.3435424,6.97487009 40.2336988,7.45720045 40.7045218,8.60026741 C40.8398222,8.92849955 40.9208346,9.31006205 40.9215342,9.66746384 C40.9342667,16.0506067 40.9306288,22.4338969 40.9300691,28.8170397 C40.9300691,28.8491558 40.3708647,28.8757719 39.252456,28.8968879 L39.252456,28.4867451 C39.252456,25.2091379 39.2525959,21.9316781 39.252316,18.654071 C39.252316,18.1649638 39.2514765,18.1637853 38.8006617,18.1636379 C28.9024642,18.1634906 19.0044066,18.1659951 9.10634897,18.1539147 C8.72997037,18.1534728 8.6748428,18.2850308 8.67540247,18.6362451 C8.68491687,24.4424772 8.68211852,30.2487094 8.68239835,36.0549415 C8.68239835,36.8540129 8.97832428,37.1689862 9.72940247,37.1689862 C18.1702173,37.1691335 25.6110321,37.1683969 34.0518469,37.1729638 C34.2862091,37.1731112 34.5205712,37.2302719 34.8517564,37.2734371 C34.4118551,37.7628388 34.1425136,38.2241022 34.0963407,38.7986558 C34.0927029,38.8446201 34.0077728,38.9057585 33.9519457,38.9190174 C33.862958,38.940379 33.7666947,38.9291826 33.6735095,38.9291826 C25.337493,38.9293299 18.0016165,38.9173969 9.66587984,38.9409683 C8.28055473,38.944946 7.26517202,37.9646692 7.0681679,36.8522451 C7.02577284,36.613879 7.01667819,36.3662317 7.01653827,36.1228567 C7.01401975,27.3458879 7.02829136,18.5690665 6.99988807,9.79209777 C6.99569053,8.43541473 7.89690041,6.9673567 9.68057119,6.9680933 C11.5225877,6.96868259 13.3646041,6.96824063 15.2066206,6.96824063 L15.6013284,6.96824063 Z M32.8172214,8.74552634 C32.8172214,9.72241473 32.8268757,10.6299147 32.8113449,11.5369728 C32.8067276,11.8033299 32.8765465,11.9410754 33.1130074,12.0689504 C33.8836741,12.4851335 34.2268922,13.4198879 33.9691638,14.2948299 C33.727386,15.1159996 32.9327934,15.6970353 32.1563901,15.6199862 C31.2814848,15.5332138 30.662349,14.9523254 30.4868922,14.0536647 C30.3299045,13.2494371 30.7292296,12.4488924 31.4777893,12.0054549 C31.5879045,11.9401915 31.6948016,11.7550085 31.6980198,11.6222719 C31.7183078,10.8125933 31.6921432,10.0015888 31.7156494,9.19205759 C31.7260033,8.83907545 31.6266617,8.73727634 31.2884807,8.73801295 C26.5781514,8.74891473 21.8678222,8.74493705 17.157493,8.74626295 C17.0230321,8.74626295 16.8884313,8.76438348 16.730884,8.77572723 C16.730884,9.69840134 16.7419374,10.5812987 16.7247276,11.4636067 C16.718851,11.7641424 16.7823737,11.9354772 17.0619292,12.0878076 C17.7897811,12.4841022 18.1159292,13.3665576 17.91053,14.2242629 C17.7192626,15.0231871 16.9802173,15.6213121 16.180028,15.6248478 C15.4103407,15.6283835 14.6866864,15.0726871 14.4607193,14.3045531 C14.2151638,13.4699772 14.5026947,12.5442094 15.2250897,12.1376022 C15.5850979,11.9350353 15.641065,11.6950487 15.6295918,11.3289549 C15.6100033,10.7035754 15.624135,10.0770174 15.624135,9.45090134 L15.624135,8.78810223 C15.5071638,8.77012902 15.4283901,8.74758884 15.3494765,8.74744152 C13.4373613,8.74567366 11.5252461,8.74051741 9.61313086,8.7500933 C8.99861235,8.75333437 8.68323786,9.11707098 8.68281811,9.77530312 C8.68141893,12.0587853 8.68211852,14.3421201 8.68295802,16.6254549 C8.68295802,16.7327049 8.69289218,16.8396603 8.69904856,16.9656201 L39.252456,16.9656201 L39.252456,16.5182049 C39.252456,14.3207585 39.2530156,12.1234594 39.2521761,9.92601295 C39.2518963,9.06889687 38.9477152,8.74611562 38.1374519,8.74552634 C36.505172,8.74405312 34.8728922,8.74537902 33.2406123,8.74552634 L32.8172214,8.74552634 Z M25.3574009,26.1304358 C25.3581344,26.4102367 25.3608853,26.6900376 25.3574009,26.9696855 C25.3526327,27.3841091 25.3469475,27.7582988 25.7372048,28.1249925 C26.2046699,28.5640458 26.0086244,29.3168616 25.462851,29.7028308 C24.8763648,30.1177133 24.0169918,30.0958371 23.4657168,29.6518884 C22.924895,29.2166596 22.8291646,28.515704 23.3158858,28.0293798 C23.5656652,27.779869 23.6232501,27.5369363 23.6177484,27.2366361 C23.6030771,26.4230871 23.600693,25.6089261 23.6170148,24.7953771 C23.6294854,24.1631097 24.365986,23.7855544 24.9394515,24.1311368 C25.1417324,24.2529091 25.2204074,24.5183299 25.3522659,24.7198049 C25.3652867,24.7396923 25.3566673,24.7698294 25.3566673,24.7952241 C25.3568507,25.2403967 25.3568507,25.6854163 25.3574009,26.1304358 Z"/>
</svg>
