<svg xmlns="http://www.w3.org/2000/svg" width="48" height="48" viewBox="0 0 48 48" class="primary icon">
  <path fill="#F00" fill-rule="evenodd" d="M8,0 L40,0 C44.418278,-8.11624501e-16 48,3.581722 48,8 L48,40 C48,44.418278 44.418278,48 40,48 L8,48 C3.581722,48 5.41083001e-16,44.418278 0,40 L0,8 C-5.41083001e-16,3.581722 3.581722,8.11624501e-16 8,0 Z M8,2.5 C4.96243388,2.5 2.5,4.96243388 2.5,8 L2.5,40 C2.5,43.0375661 4.96243388,45.5 8,45.5 L40,45.5 C43.0375661,45.5 45.5,43.0375661 45.5,40 L45.5,8 C45.5,4.96243388 43.0375661,2.5 40,2.5 L8,2.5 Z M39.6759835,24.6309291 L39.67493,24.6897645 C39.5901235,24.7545375 39.4989959,24.8128331 39.4115556,24.8749072 C37.9856461,26.1892585 36.0877695,27 34.0002634,27 C31.8448066,27 29.8889877,26.1395992 28.448856,24.7480602 C28.4420082,24.7432022 28.434107,24.7334863 28.4267325,24.7280885 C26.9328724,23.2744754 26,21.2449227 26,19 C26,14.5884218 29.5887407,11 34.0002634,11 C38.4112593,11 42,14.5884218 42,19 C42,21.1941839 41.1108477,23.184333 39.6759835,24.6309291 Z M27.5802469,19 C27.5802469,20.1534984 27.8941893,21.2335875 28.4346337,22.1679374 L28.4346337,21.8548681 C28.4978436,20.5594089 29.5645103,19.558127 30.8782222,19.558127 L32.9688889,19.558127 L32.9688889,19.4037514 C32.028642,18.973551 31.371786,18.0321841 31.371786,16.9332029 C31.371786,15.428851 32.5948971,14.2095 34.1024527,14.2095 C35.6100082,14.2095 36.8325926,15.428851 36.8325926,16.9332029 C36.8325926,18.0823831 36.1156872,19.0604548 35.1059095,19.459888 L35.1059095,19.5937521 L37.240823,19.5937521 C38.4950123,19.5937521 39.5263868,20.554551 39.6722963,21.7674246 L39.6912593,21.8769989 L39.6944198,21.9347547 C40.1553251,21.0554618 40.4197531,20.0584981 40.4197531,19 C40.4197531,15.4812091 37.5400165,12.6193239 34.0002634,12.6193239 C30.4599835,12.6193239 27.5802469,15.4812091 27.5802469,19 Z M8.01368113,15.686569 C8.01368113,15.686569 7.97713844,15.0970351 8.02349856,14.8161335 C8.20403034,13.7253932 8.98997078,12.2536127 10.1429743,11.551102 C11.4628743,10.744858 12.6960536,11.0303814 13.161291,11.1371959 L13.2714645,11.1613318 C13.8566929,11.2779034 14.1632151,11.6943772 14.226483,12.0754174 C14.3633818,12.4795665 15.0936901,14.6281811 15.2442241,15.1062787 C15.3091283,15.3163129 15.3265815,15.522239 15.2944021,15.7173808 C15.2147718,16.1980461 14.8515266,16.5118136 14.6115448,16.6124657 L13.0249377,17.4197368 C12.9927584,17.4351428 12.9600336,17.4500352 12.9305812,17.4649276 C12.9311267,17.4875229 12.9343991,17.5178213 12.9420349,17.5573632 C13.0429364,18.0950304 13.5218092,19.3249377 14.2712069,20.3725413 C14.9758808,21.3580078 15.9854407,22.1981448 16.3415955,22.4800735 C16.6213925,22.3219059 17.2322553,21.9809211 17.5987729,21.7970769 C18.1714568,21.5130942 18.7981366,21.5603391 19.4542687,21.9316221 C19.6375275,22.0307337 21.9811681,23.3700231 22.305689,23.5610567 C22.8063783,23.8512018 22.9923642,24.3267317 23,24.6451211 L22.802015,25.9053267 C22.7474737,26.2386085 22.47204,26.5821609 22.2500568,26.814277 C21.0823271,28.0190212 19.05339,28.0349407 18.2330885,27.9861552 C17.8785699,27.9645869 16.7986518,27.8978278 15.1673208,26.9113344 C13.72743,26.0403854 11.9182943,24.224539 10.2040606,21.9285409 C8.55091314,19.7147078 8.16039728,16.788607 8.01368113,15.686569 Z M38.2179213,35 L10.7820787,35 C10.3498499,35 10,34.552 10,34 C10,33.448 10.3498499,33 10.7820787,33 L38.2179213,33 C38.6496287,33 39,33.448 39,34 C39,34.552 38.6496287,35 38.2179213,35 Z M38.2179213,40 L10.7820787,40 C10.3498499,40 10,39.552 10,39 C10,38.448 10.3498499,38 10.7820787,38 L38.2179213,38 C38.6496287,38 39,38.448 39,39 C39,39.552 38.6496287,40 38.2179213,40 Z"/>
</svg>
