<svg xmlns="http://www.w3.org/2000/svg" width="48" height="48" viewBox="0 0 48 48" class="primary icon">
  <path fill="#F00" d="M8,0 L40,0 C44.418278,-8.11624501e-16 48,3.581722 48,8 L48,40 C48,44.418278 44.418278,48 40,48 L8,48 C3.581722,48 5.41083001e-16,44.418278 0,40 L0,8 C-5.41083001e-16,3.581722 3.581722,8.11624501e-16 8,0 Z M8,2.5 C4.96243388,2.5 2.5,4.96243388 2.5,8 L2.5,40 C2.5,43.0375661 4.96243388,45.5 8,45.5 L40,45.5 C43.0375661,45.5 45.5,43.0375661 45.5,40 L45.5,8 C45.5,4.96243388 43.0375661,2.5 40,2.5 L8,2.5 Z M24.547883,42.0000126 C24.279339,41.49816 24.0372071,41.0491074 23.7982346,40.5984126 C22.4071137,37.9750863 21.0177621,35.3507495 19.6255038,32.7279284 C17.7117016,29.1227495 15.7884214,25.5227495 13.8861192,21.9115074 C13.3961687,20.9813179 13.1935918,19.9518442 13.0794764,18.9179495 C12.7622786,16.0465389 13.3893445,13.3892337 15.0592456,11.02296 C16.987328,8.29074947 19.6174159,6.63399158 22.9481192,6.19971789 C28.8212071,5.43399158 34.1884214,9.07959158 35.6313555,14.7884337 C36.1947291,17.0174021 36.1067731,19.2374021 35.3018995,21.3937389 C35.0030258,22.1940758 34.5454269,22.9360547 34.1482346,23.6984968 C33.2269709,25.4669179 32.2983775,27.2312968 31.3729434,28.9974442 C29.1423225,33.2542863 26.9117016,37.5111284 24.680828,41.7677179 C24.6515093,41.8234232 24.6185258,41.8769811 24.547883,42.0000126 Z M15.301883,17.2407284 C15.2821687,22.3062442 19.3841302,26.2442653 24.1097456,26.4246442 C29.3759874,26.6254863 33.5436632,22.4163916 33.6737016,17.5201389 C33.8122071,12.3128968 29.6533775,8.26005474 24.879361,8.06666526 C19.6267676,7.85382316 15.2723115,12.0984126 15.301883,17.2407284 Z M21.5835537,21.9905697 C21.3344844,21.5229746 21.0923303,21.0515829 20.8312829,20.5906013 C20.7764556,20.4937265 20.6526001,20.4351853 20.5260279,20.3302274 C20.6033296,20.2089809 20.5021953,20.1166376 20.3242534,20.0222123 C19.8743975,19.7835159 19.4372605,19.52155 19,19.2718312 C19.1358335,18.977043 19.3724308,19.0330123 19.5949508,19.0508931 C20.0348045,19.0865323 20.4741642,19.1334387 20.9146353,19.1527892 C21.0170044,19.1571981 21.1680266,19.0992693 21.2213721,19.0201529 C21.9775944,17.8996637 22.7875327,16.8254687 23.8101122,15.9245704 C23.8383902,15.8998312 23.8520971,15.8588034 23.8717312,15.8265934 C22.5678528,14.7887724 20.9090785,14.6164554 19.4473862,13.9809522 C19.4522022,13.9660107 19.4544249,13.9557232 19.4587469,13.9465378 C19.7583215,13.3163009 20.2977041,13.4128083 20.8461011,13.4742888 C22.0280998,13.6068027 23.2128151,13.7154346 24.3962956,13.8345991 C24.7839151,13.8736674 25.1705467,13.9319637 25.5587836,13.9464153 C25.6914065,13.9513142 25.8598401,13.8823629 25.9572698,13.790387 C26.4638054,13.311892 26.9516947,12.814169 27.448228,12.3252639 C27.6771692,12.0997944 27.942662,11.9516042 28.2780473,12.0145544 C28.6052827,12.0761574 28.8489186,12.2661103 28.9500528,12.580004 C29.0569909,12.911656 28.9952484,13.2259172 28.7354359,13.4834741 C28.218651,13.9955263 27.70767,14.5135795 27.1828587,15.0175486 C27.031466,15.1627995 27.0040523,15.3031515 27.0282554,15.5054739 C27.114448,16.2225429 27.1742147,16.9426736 27.2432428,17.6618246 C27.3412899,18.6848267 27.4330393,19.7085636 27.5392364,20.7308308 C27.5708486,21.0348044 27.2878209,21.1255555 27.1737208,21.3287353 C27.1459366,21.3779687 27.085429,21.4090764 27.04011,21.4485121 C26.3789711,20.006536 26.1515117,18.3877115 25.060892,17.0379562 C24.8435583,17.2843683 24.6398081,17.5117974 24.4400093,17.7425331 C23.7663985,18.5208377 22.8700207,19.0145192 22.0364968,19.5873171 C21.8686806,19.7025625 21.7947131,19.8225843 21.803851,20.0331123 C21.8247199,20.5119747 21.8247199,20.9924293 21.8097783,21.4715367 C21.8043449,21.6487526 21.7329706,21.8240089 21.6916031,22 C21.6555455,21.9969382 21.6194878,21.9936315 21.5835537,21.9905697 Z"/>
</svg>
