<svg xmlns="http://www.w3.org/2000/svg" width="48" height="48" viewBox="0 0 48 48" class="primary icon">
  <path fill="#F00" fill-rule="evenodd" d="M8,0 L40,0 C44.418278,-8.11624501e-16 48,3.581722 48,8 L48,40 C48,44.418278 44.418278,48 40,48 L8,48 C3.581722,48 5.41083001e-16,44.418278 0,40 L0,8 C-5.41083001e-16,3.581722 3.581722,8.11624501e-16 8,0 Z M8,2.5 C4.96243388,2.5 2.5,4.96243388 2.5,8 L2.5,40 C2.5,43.0375661 4.96243388,45.5 8,45.5 L40,45.5 C43.0375661,45.5 45.5,43.0375661 45.5,40 L45.5,8 C45.5,4.96243388 43.0375661,2.5 40,2.5 L8,2.5 Z M35.4860821,42.9999999 C31.3662101,42.999446 27.9988926,39.6192953 28.0000003,35.4853229 C28.001108,31.3499657 31.3825489,27.9977856 35.5506066,28.0000011 C39.653032,28.0023551 43.0045647,31.3978758 42.9999953,35.5474951 C42.9957029,39.6392347 39.6066464,43.0006922 35.4860821,42.9999999 Z M41.3291445,35.3746866 C41.249112,32.1147264 38.5720399,29.5350612 35.2638466,29.6747757 C32.0045314,29.8124133 29.6228039,32.4518968 29.6729281,35.5782351 C29.7305293,39.1602727 32.8279796,41.669873 36.1512655,41.2950392 C39.0440653,40.9686693 41.3834226,38.5013019 41.3291445,35.3746866 Z M34.8807513,36.0546505 C35.0712509,35.8335968 35.2362783,35.6180897 35.4255584,35.4267984 C36.1391867,34.7056006 36.8570151,33.9885966 37.5810761,33.2776803 C37.9501521,32.915255 38.4173232,32.9107907 38.7548299,33.245618 C39.0724196,33.560694 39.0907108,34.0585383 38.7553719,34.3983711 C37.6466535,35.5216324 36.5296702,36.6367766 35.4049639,37.743939 C35.0587858,38.0847189 34.5971698,38.0844483 34.2509917,37.7485387 C33.5713715,37.0891655 32.9029971,36.418158 32.2416682,35.7403862 C31.9113425,35.4017709 31.9261109,34.8962154 32.2464104,34.5869567 C32.5808008,34.2640343 33.0418748,34.2614639 33.3968598,34.6010262 C33.7960147,34.9826618 34.1805366,35.3797197 34.5725105,35.7689311 C34.650824,35.846584 34.7340151,35.9189608 34.8807513,36.0546505 Z M35.8863195,26.2119324 C32.4093018,25.7194254 29.4648284,26.7122986 27.2731598,29.5322798 C25.0956923,32.3340685 24.8667692,35.4874817 26.0606627,38.8445052 C25.7936805,38.8589136 25.5880473,38.8792892 25.3825562,38.8794347 C22.0934201,38.8813268 18.8032899,38.8315521 15.515574,38.8998103 C13.6660118,38.9380873 12.0520473,37.523585 12.1111243,35.3835662 C12.1721893,33.1784911 12.1246154,30.9702141 12.1244734,28.7633925 L12.1244734,28.0343831 C12.3210178,28.2870404 12.4252544,28.3991061 12.5052071,28.5273268 C13.4360947,30.0179465 14.3544852,31.5167164 15.2980118,32.9987493 C15.5005207,33.3166085 15.7649467,33.6069606 16.0462722,33.8556883 C16.7090414,34.4411953 17.4040473,34.9881343 18.0767574,35.5621437 C18.5103195,35.9321061 18.9663195,36.126984 19.5029822,35.8152376 C20.0213254,35.514261 20.2057988,35.0224817 20.0427692,34.2956554 C19.7990769,33.2100732 19.5390533,32.1278385 19.260284,31.0512798 C19.1894201,30.7775192 19.0451361,30.5148197 18.8951716,30.2730779 C16.7872899,26.8777775 14.6786982,23.4832047 12.5526391,20.099984 C12.2593846,19.633092 12.1094201,19.1726038 12.1149586,18.6109653 C12.1378225,16.2832 12.1214911,13.9549981 12.1257515,11.6269418 C12.1297278,9.45315775 13.3993136,8.12903568 15.5215385,8.11826573 C18.408355,8.10371174 21.2953136,8.11433615 24.1821302,8.11433615 C26.879787,8.11419061 29.5773018,8.11360845 32.2748166,8.11564601 C32.5346982,8.11593709 32.7967101,8.11550047 33.0537515,8.14853803 C34.8213728,8.3752892 35.9256568,9.60422817 35.9316213,11.4246413 C35.9473846,16.1776836 35.9377278,20.9308714 35.9355976,25.6840592 C35.9355976,25.8488103 35.9056331,26.0135615 35.8863195,26.2119324 Z M25.7033609,24.8840263 C27.6882604,24.8840263 29.6730178,24.8854817 31.6579172,24.8821343 C31.8932308,24.8816977 32.1322367,24.8779136 32.3631479,24.8377446 C32.7143432,24.7766178 32.8938462,24.5147915 32.9171361,24.1749559 C32.9408521,23.8301718 32.7761183,23.5513174 32.4452308,23.4490028 C32.2244024,23.3807446 31.980426,23.3701202 31.7468166,23.3699746 C27.7062959,23.3654629 23.6656331,23.3666272 19.6252544,23.3672094 C19.4835266,23.3672094 19.3405207,23.3612423 19.200355,23.3775427 C18.7055858,23.4351765 18.4225562,23.7272751 18.4351953,24.155308 C18.4469822,24.558308 18.7101302,24.8182423 19.1824615,24.8687446 C19.3930651,24.8913033 19.6072189,24.8835897 19.8198107,24.8835897 C21.7809941,24.8846085 23.7421775,24.8841718 25.7033609,24.8840263 Z M24.0872663,17.9419183 C21.5554793,17.9419183 19.0235503,17.9411906 16.4917633,17.9433737 C16.2795976,17.9435192 16.0610414,17.9342047 15.8566864,17.9810685 C15.4944142,18.0643174 15.2933254,18.3580169 15.3032663,18.7223033 C15.3132071,19.0941577 15.5239527,19.3572939 15.8984379,19.4236601 C16.0829112,19.4564066 16.2754793,19.4463643 16.464497,19.4463643 C21.551929,19.4473831 26.6392189,19.4473831 31.7265089,19.4465099 C31.9156686,19.4465099 32.1076686,19.4565521 32.2931361,19.4277352 C32.652568,19.372139 32.9054911,19.0880451 32.928071,18.7492282 C32.952213,18.3850873 32.699858,18.0405944 32.3195503,17.9684066 C32.1126391,17.9294019 31.8953609,17.9429371 31.6826272,17.9427915 C29.1508402,17.9413362 26.6190533,17.9417728 24.0872663,17.9419183 Z M24.1163787,14.2078009 C26.6244497,14.2078009 29.1326627,14.208092 31.6410178,14.2072188 C31.8537515,14.2072188 32.0693254,14.2195897 32.2787929,14.1898995 C32.6714556,14.1344488 32.9327574,13.8222657 32.9269349,13.4520122 C32.9216805,13.110139 32.6840947,12.8027587 32.3338935,12.730862 C32.1508402,12.6931671 31.9572781,12.7035005 31.7684024,12.7035005 C26.6573964,12.7023362 21.5463905,12.7018995 16.4352426,12.7045192 C16.223929,12.7046648 16.0035266,12.7013174 15.8032899,12.758369 C15.4516686,12.8585005 15.2693254,13.1734488 15.3069586,13.5403549 C15.3438817,13.8991108 15.5436923,14.1210592 15.8839527,14.180585 C16.091716,14.21697 16.308284,14.2066366 16.5208757,14.2067822 C19.0526627,14.2082376 21.5844497,14.2078009 24.1163787,14.2078009 Z M18,30.7193953 C17.25328,31.16195 16.5707656,31.5664627 15.8392907,32 C15.6956344,31.8134536 15.5585744,31.6564953 15.4452618,31.4850248 C12.0584893,26.3561249 8.68608243,21.2183486 5.27776146,16.1028339 C4.67982842,15.2054666 5.13835614,14.3445914 5.79287221,14.0995731 C6.4409384,13.8568091 7.02391945,14.0558953 7.46808153,14.7193751 C8.23415118,15.8634514 8.98805401,17.0145725 9.74591472,18.1635802 C12.3852343,22.1650295 15.0241141,26.1666196 17.6622609,30.1689143 C17.7650192,30.3248863 17.8579561,30.4873395 18,30.7193953 Z M16,33.2270426 C16.7981948,32.7992101 17.495263,32.4255199 18.288911,32 C18.5496452,32.9175613 18.7925059,33.71922 18.9931913,34.5287689 C19.0276841,34.6679335 18.9260871,34.8819178 18.8020698,34.9812239 C18.7340249,35.0356382 18.4513407,34.962723 18.3282641,34.8782448 C17.5736557,34.3613089 16.8370776,33.8246478 16,33.2270426 Z"/>
</svg>
