<svg xmlns="http://www.w3.org/2000/svg" width="48" height="48" viewBox="0 0 48 48" class="primary icon">
  <path fill="#F00" d="M8,0 L40,0 C44.418278,-8.11624501e-16 48,3.581722 48,8 L48,40 C48,44.418278 44.418278,48 40,48 L8,48 C3.581722,48 5.41083001e-16,44.418278 0,40 L0,8 C-5.41083001e-16,3.581722 3.581722,8.11624501e-16 8,0 Z M8,2.5 C4.96243388,2.5 2.5,4.96243388 2.5,8 L2.5,40 C2.5,43.0375661 4.96243388,45.5 8,45.5 L40,45.5 C43.0375661,45.5 45.5,43.0375661 45.5,40 L45.5,8 C45.5,4.96243388 43.0375661,2.5 40,2.5 L8,2.5 Z M23.9850881,39.9966917 C19.2467257,39.9971305 14.5083632,40.0004947 9.76985334,39.9955215 C7.45533757,39.9931812 5.58919662,38.4904158 5.11488886,36.2472377 C5.03974225,35.8925359 5.00570525,35.5226221 5.00541056,35.1597293 C4.99922201,28.0554544 4.99863263,20.9511796 5.00216894,13.8467585 C5.00334771,11.5011923 6.45308801,9.63304737 8.66932378,9.12198424 C9.01219864,9.04285283 9.3726077,9.00467667 9.72520741,9.00438414 C19.2754582,8.99911846 28.8258563,8.99809458 38.3761071,9.0040916 C40.8767212,9.00570056 42.9873097,11.080377 42.9912881,13.5653374 C43.0030758,20.8523019 43.0026337,28.1394127 42.9915828,35.4265235 C42.9877517,37.9141168 40.8986758,39.9841126 38.3842111,39.9918648 C33.5844052,40.0069305 28.7847467,39.9963992 23.9850881,39.9966917 Z M19.1531608,13.9858601 C19.9315913,13.9822034 20.5380687,13.3930327 20.5391001,12.639456 C20.5402789,11.8946553 19.9108155,11.2648219 19.1609701,11.2607264 C18.4053783,11.2566309 17.7879972,11.8721299 17.785787,12.63185 C17.7835768,13.4070745 18.3717833,13.9895168 19.1531608,13.9858601 Z M13.9932405,13.9861526 C14.7747653,13.9867377 15.3821268,13.4042954 15.3877259,12.6489634 C15.3933251,11.9015299 14.7731445,11.2719891 14.0202049,11.2608727 C13.2665285,11.2497562 12.6386859,11.8659866 12.6339708,12.6217574 C12.6291084,13.3974208 13.2151046,13.9857138 13.9932405,13.9861526 Z M8.84554996,13.985275 C9.63532616,13.9883467 10.228395,13.4140954 10.2311946,12.6435515 C10.2344362,11.8501896 9.64534571,11.2907115 8.79869384,11.2826667 C8.08789526,11.2759384 7.48642764,11.8869031 7.48053379,12.6216112 C7.47434525,13.3937641 8.06343578,13.9822034 8.84554996,13.985275 Z M41.2421401,16.227868 L40.8068791,16.227868 C29.610328,16.227868 18.4134823,16.2293307 7.21693125,16.2207009 C6.86830989,16.2204083 6.76104178,16.3078771 6.76163117,16.6638953 C6.7722401,22.8184469 6.76796706,28.9729985 6.77297683,35.1275501 C6.77327153,35.4176011 6.7964049,35.7152581 6.86315277,35.9966793 C7.18186283,37.3403043 8.34471987,38.2502424 9.75099301,38.2508275 C19.216667,38.254923 28.6821937,38.2547767 38.1477203,38.2546305 C39.9718676,38.2544842 41.2411086,36.9892592 41.2415507,35.1702606 C41.2428768,29.0035687 41.2421401,22.8368768 41.2421401,16.6701848 L41.2421401,16.227868 Z M24.4087962,36 C20.1152908,35.99168 16.7433443,33.7320789 15.5015777,30.1897612 C14.514764,27.3738668 14.9916722,24.7296802 16.8649758,22.3692348 C18.6099892,20.1703125 20.9829885,19.0620292 23.812624,19.0022112 C28.292128,18.9076786 32.1137562,21.8532505 32.8626338,26.099757 C33.3362866,28.7858305 32.5798626,31.189167 30.6735616,33.1984504 C28.8887442,35.079204 26.6256868,35.9649986 24.4087962,36 Z M22.8289176,28.0708831 C22.8426789,28.0437714 22.8562921,28.016803 22.8697574,27.9896913 C22.2956328,27.6429762 21.7543575,27.2668542 21.4268993,26.6781415 C21.0858278,26.064899 20.9859479,25.421389 21.1225244,24.7391478 C21.2573254,24.0659439 21.6106784,23.5204092 22.1538772,23.0910678 C23.3960877,22.109593 25.201473,22.2003959 26.3241234,23.2937605 C26.8506016,23.8064456 27.1566042,24.4268604 27.1829429,25.1443899 C27.2332528,26.5239343 26.4880745,27.4418614 25.2517828,28.0728914 C25.4121826,28.1281191 25.539585,28.1418901 25.6672834,28.1424639 C26.3449872,28.1453329 27.022839,28.1426074 27.7006908,28.1461936 C28.526365,28.150497 29.237954,28.4474355 29.7312869,29.0776048 C30.0538621,29.4894455 30.248147,29.9958188 30.4745416,30.4133974 C31.7148284,28.4541776 31.6238267,24.7509106 28.7246451,22.3676569 C25.8365614,19.9934405 21.308819,20.244045 18.7382795,22.8648495 C16.261997,25.3895434 16.4573177,28.958686 17.7215757,30.7090448 C17.9083142,29.0506365 18.95476,28.0987121 20.597378,28.094839 C21.2259557,28.0932611 21.8545334,28.0955563 22.4829631,28.0934045 C22.598232,28.0929742 22.7136488,28.0787728 22.8289176,28.0708831 Z"/>
</svg>
