<svg xmlns="http://www.w3.org/2000/svg" width="48" height="48" viewBox="0 0 48 48">
  <path fill="#4A4A4A" fill-rule="evenodd" d="M35.365,34.6114 C34.44,36.6854 33.03,38.5054 31.252,39.9174 C35.306,40.2304 38.42,40.7314 38.42,41.2854 C38.42,42.2324 30.934,43.0004 21.707,43.0004 C12.48,43.0004 5,42.2324 5,41.2854 C5,40.7314 7.647,40.2304 11.72,39.9174 C5,34.7254 5,23.4944 5,16.0004 L38,16.0004 L37.945,19.9974 C43.186,20.8784 46,23.7614 46,27.1774 C46,31.1154 42.867,34.3254 35.813,34.6024 L35.365,34.6114 Z M32.6992,2.8584 C33.1712,4.0574 33.1962,5.0514 32.7762,5.8984 C31.9872,7.4904 29.7722,8.1174 27.6312,8.7234 C25.2422,9.3994 22.9852,10.0374 22.7672,11.7834 C22.7662,11.7874 22.7662,11.7914 22.7652,11.7954 C22.6392,12.6324 21.9552,13.0384 21.3022,13.0384 C21.2302,13.0384 21.1582,13.0334 21.0882,13.0234 C20.3772,12.9244 19.9242,12.3584 20.0112,11.6784 C20.3002,9.3144 22.0202,7.6914 25.2682,6.7184 C25.6502,6.5984 26.1072,6.4874 26.5892,6.3704 C27.9562,6.0384 29.6572,5.6244 30.0962,4.7784 C30.2552,4.4734 30.2442,4.1034 30.0652,3.6474 C29.8142,3.0084 30.1092,2.3784 30.7802,2.1134 C31.4692,1.8424 32.3772,2.0454 32.6992,2.8584 Z M39.9453,5.1992 C40.3023,7.7002 38.8833,9.5592 36.0523,10.3002 C35.5573,10.4302 35.0003,10.5372 34.4213,10.6462 C32.3923,11.0302 30.2953,11.4262 29.7503,13.0822 C29.5453,13.7042 28.9833,13.9962 28.4223,13.9962 C28.2533,13.9962 28.0833,13.9702 27.9243,13.9172 C27.2073,13.6822 26.8453,13.0212 27.0653,12.3452 C27.9513,9.6572 30.6833,8.7842 32.6633,8.3622 C32.9503,8.2972 33.2443,8.2372 33.5393,8.1772 C35.9743,7.6792 37.4513,7.2762 37.1423,5.3512 C37.0563,4.6522 37.5003,4.1102 38.2163,4.0132 C38.9693,3.9102 39.8163,4.3282 39.9453,5.1992 Z M30.9819664,31.7754 C31.0266725,31.5984 30.9875546,31.4134 30.8724365,31.2644 C30.7606712,31.1174 30.5829645,31.0204 30.3873754,31.0004 L12.6256471,31.0004 C12.4244697,31.0034 12.2367041,31.0934 12.1204683,31.2444 C12.0031148,31.3934 11.9684676,31.5864 12.0299385,31.7614 C13.4068859,35.4914 17.2180799,38.0004 21.5053936,38.0004 C25.793825,38.0004 29.6050189,35.4914 30.9819664,31.7614 L30.9819664,31.7754 Z M15.5,22.0004 C14.119,22.0004 13,23.1194 13,24.5004 C13,25.8804 14.119,27.0004 15.5,27.0004 C16.881,27.0004 18,25.8804 18,24.5004 C18,23.1194 16.881,22.0004 15.5,22.0004 Z M27.5,22.0004 C26.119,22.0004 25,23.1194 25,24.5004 C25,25.8804 26.119,27.0004 27.5,27.0004 C28.881,27.0004 30,25.8804 30,24.5004 C30,23.1194 28.881,22.0004 27.5,22.0004 Z M37.818,23.2574 C37.693,25.9804 37.28,28.6834 36.585,31.3194 C40.585,30.8254 42,29.0024 42,27.0004 C42,25.1254 40.759,23.9254 37.818,23.2574 Z"/>
</svg>
