<svg xmlns="http://www.w3.org/2000/svg" width="48" height="48" viewBox="0 0 48 48">
  <path fill="#4A4A4A" fill-rule="evenodd" d="M35.813,34.6024 L35.365,34.6114 C34.44,36.6854 33.03,38.5054 31.252,39.9174 C35.306,40.2304 38.42,40.7314 38.42,41.2854 C38.42,42.2324 30.934,43.0004 21.707,43.0004 C12.48,43.0004 5,42.2324 5,41.2854 C5,40.7314 7.647,40.2304 11.72,39.9174 C5,34.7254 5,24 5,15 L38,16.0004 L37.945,19.9974 C43.186,20.8784 46,23.7614 46,27.1774 C46,31.1154 42.867,34.3254 35.813,34.6024 Z M32.6992,2.8584 C33.1712,4.0574 33.1962,5.0514 32.7762,5.8984 C31.9872,7.4904 29.7722,8.1174 27.6312,8.7234 C25.2422,9.3994 22.9852,10.0374 22.7672,11.7834 C22.7662,11.7874 22.7662,11.7914 22.7652,11.7954 C22.6392,12.6324 21.9552,13.0384 21.3022,13.0384 C21.2302,13.0384 21.1582,13.0334 21.0882,13.0234 C20.3772,12.9244 19.9242,12.3584 20.0112,11.6784 C20.3002,9.3144 22.0202,7.6914 25.2682,6.7184 C25.6502,6.5984 26.1072,6.4874 26.5892,6.3704 C27.9562,6.0384 29.6572,5.6244 30.0962,4.7784 C30.2552,4.4734 30.2442,4.1034 30.0652,3.6474 C29.8142,3.0084 30.1092,2.3784 30.7802,2.1134 C31.4692,1.8424 32.3772,2.0454 32.6992,2.8584 Z M39.9453,5.1992 C40.3023,7.7002 38.8833,9.5592 36.0523,10.3002 C35.5573,10.4302 35.0003,10.5372 34.4213,10.6462 C32.3923,11.0302 30.2953,11.4262 29.7503,13.0822 C29.5453,13.7042 28.9833,13.9962 28.4223,13.9962 C28.2533,13.9962 28.0833,13.9702 27.9243,13.9172 C27.2073,13.6822 26.8453,13.0212 27.0653,12.3452 C27.9513,9.6572 30.6833,8.7842 32.6633,8.3622 C32.9503,8.2972 33.2443,8.2372 33.5393,8.1772 C35.9743,7.6792 37.4513,7.2762 37.1423,5.3512 C37.0563,4.6522 37.5003,4.1102 38.2163,4.0132 C38.9693,3.9102 39.8163,4.3282 39.9453,5.1992 Z M37.818,23.2574 C37.693,25.9804 37.28,28.6834 36.585,31.3194 C40.585,30.8254 42,29.0024 42,27.0004 C42,25.1254 40.759,23.9254 37.818,23.2574 Z M24.4620627,35.3395196 L24.4690628,35.3360195 C24.9089035,35.1423496 25.1154069,34.6033407 24.9345705,34.137833 C24.7537342,33.6699919 24.2520592,33.4483215 23.8110519,33.6419914 C22.3771947,34.3478364 20.6960002,34.182167 19.4068121,33.2114842 C19.039306,32.8871455 18.500297,32.9419798 18.195792,33.3339863 C17.894787,33.7248261 17.9472878,34.2988356 18.3089605,34.6231744 C19.3496445,35.4561882 20.6178322,35.9030289 21.9175204,35.9030289 C22.792535,35.8971955 23.6570493,35.7046923 24.4620627,35.3395196 Z M28.3221683,30.5825298 L28.3135758,30.5825298 C31.3413906,30.7726409 33.8031683,29.1164187 34.6151683,25.5623076 C35.0877609,25.4720853 35.5689461,25.4344927 36.0490572,25.452752 L36.1081313,24.104789 C35.5743165,24.0779372 35.0437239,23.9898631 34.566835,23.7600113 C34.001872,21.204789 31.5744646,19.5249372 28.868872,19.4271964 C26.8023535,19.2993816 25.0763165,20.3670113 24.0860202,21.6763076 C23.8346869,21.8610483 23.5307239,21.8900483 23.3137609,21.7772705 C22.9453535,21.4915668 22.6489091,21.3132705 21.8873906,21.2402335 C21.3385387,21.2198261 20.9497239,21.2982335 20.5995758,21.4561224 C20.327835,21.6075668 19.9701683,21.5989742 19.7983165,21.4110113 C18.9637609,19.9352335 17.3462054,18.8353816 14.8382424,18.738715 C12.1326498,18.6345298 9.46250168,20.3186779 8.7117239,22.8019372 C8.21657575,22.9984927 7.68705723,23.0951594 7.15431649,23.0822705 L7.10813131,24.3819001 C7.59253872,24.3958631 8.0737239,24.466752 8.5420202,24.5902705 C8.93083501,27.5815668 11.3904646,29.8779372 14.4086128,30.0659001 C16.2452795,30.1196038 18.0035387,29.3194187 19.1667609,27.9005668 C20.3289091,26.4795668 20.6629461,24.7309742 20.3106498,22.9018261 C21.0635758,22.2348261 22.6231313,22.4045298 23.3309461,23.1198631 C22.995835,24.9318261 23.0624276,26.5773076 23.8679832,28.0541594 C24.807798,29.5643076 26.4360943,30.5546038 28.3221683,30.5825298 Z M28.8658646,20.4831232 L28.8658646,20.4809751 L28.871235,20.4809751 C31.2374202,20.5776418 33.0816054,22.5668269 32.9946054,24.9330121 C32.9280128,26.6730121 31.8260128,28.2003455 30.1955683,28.8039751 C28.566198,29.4076047 26.7381239,28.9726047 25.550198,27.6987529 C24.3697906,26.4227529 24.071198,24.5613825 24.7983461,22.9803455 C25.5244202,21.4014566 27.1301609,20.4143825 28.8658646,20.4831232 Z M27.9364611,25.336763 L27.9315739,25.3475118 L27.9315739,25.3416488 L27.9423257,25.3416488 C28.7448031,25.3797579 29.4338975,24.7729439 29.4827695,23.9726531 C29.5208896,23.3814736 29.1954024,22.8186317 28.6636756,22.5635939 C28.1260842,22.3036704 27.4917264,22.3906373 27.0469917,22.7805226 C26.6022569,23.1752937 26.4400021,23.7987193 26.6345124,24.3556983 C26.8241356,24.9165859 27.3402233,25.3035397 27.9364611,25.336763 Z M14.9029017,19.9008631 L14.9029017,19.898715 L14.908272,19.898715 C17.2744572,19.9953816 19.1186424,21.9845668 19.0316424,24.350752 C18.9650498,26.090752 17.8630498,27.6180853 16.2326054,28.221715 C14.603235,28.8253446 12.7751609,28.3903446 11.587235,27.1164927 C10.4068276,25.8404927 10.108235,23.9791224 10.8353832,22.3980853 C11.5614572,20.8191964 13.167198,19.8321224 14.9029017,19.9008631 Z M13.9734981,24.75142 L13.9686109,24.7621687 L13.9686109,24.7563058 L13.9793627,24.7563058 C14.7818401,24.7944149 15.4709345,24.1876009 15.5198065,23.3873101 C15.5579266,22.7961306 15.2324394,22.2332887 14.7007127,21.9782509 C14.1631213,21.7183274 13.5287634,21.8052943 13.0840287,22.1951796 C12.639294,22.5899507 12.4770391,23.2133763 12.6715495,23.7703553 C12.8611726,24.3312429 13.3772604,24.7181967 13.9734981,24.75142 Z"/>
</svg>
