<svg xmlns="http://www.w3.org/2000/svg" width="48" height="48" viewBox="0 0 48 48">
  <path fill="#4A4A4A" d="M31.0312536,14 L36,14 C38.209139,14 40,15.790861 40,18 L40,42 C40,44.209139 38.209139,46 36,46 L12,46 C9.790861,46 8,44.209139 8,42 L8,18 C8,15.790861 9.790861,14 12,14 L16.9687464,14 C16.4222821,13.5918708 15.8886712,13.1294259 15.3796226,12.6203774 C12.2266725,9.46742719 10.8615909,5.37218263 13.1168868,3.11688678 C15.3721826,0.861590939 19.4674272,2.22667246 22.6203774,5.37962264 C23.1294259,5.88867118 23.5918708,6.42228213 24,6.96874643 C24.4081292,6.42228213 24.8705741,5.88867118 25.3796226,5.37962264 C28.5325728,2.22667246 32.6278174,0.861590939 34.8831132,3.11688678 C37.1384091,5.37218263 35.7733275,9.46742719 32.6203774,12.6203774 C32.1113288,13.1294259 31.5777179,13.5918708 31.0312536,14 Z M12,18 L12,28 L22,28 L22,18 L12,18 Z M26,18 L26,28 L36,28 L36,18 L26,18 Z M12,32 L12,42 L22,42 L22,32 L12,32 Z M26,32 L26,42 L36,42 L36,32 L26,32 Z M26.5009663,11.9150031 C27.4674734,11.6571621 28.6810226,10.9028778 29.7919502,9.79195024 C30.9028778,8.68102264 31.6571621,7.4674734 31.9150031,6.50096628 C31.9708201,6.29173848 31.9959583,6.12332749 32.0004676,5.99953244 C31.8766725,6.00404169 31.7082615,6.02917993 31.4990337,6.0849969 C30.5325266,6.34283789 29.3189774,7.09712216 28.2080498,8.20804976 C27.0971222,9.31897736 26.3428379,10.5325266 26.0849969,11.4990337 C26.0291799,11.7082615 26.0040417,11.8766725 25.9995324,12.0004676 C26.1233275,11.9959583 26.2917385,11.9708201 26.5009663,11.9150031 Z M21.9150031,11.4990337 C21.6571621,10.5325266 20.9028778,9.31897736 19.7919502,8.20804976 C18.6810226,7.09712216 17.4674734,6.34283789 16.5009663,6.0849969 C16.2917385,6.02917993 16.1233275,6.00404169 15.9995324,5.99953244 C16.0040417,6.12332749 16.0291799,6.29173848 16.0849969,6.50096628 C16.3428379,7.4674734 17.0971222,8.68102264 18.2080498,9.79195024 C19.3189774,10.9028778 20.5325266,11.6571621 21.4990337,11.9150031 C21.7082615,11.9708201 21.8766725,11.9959583 22.0004676,12.0004676 C21.9959583,11.8766725 21.9708201,11.7082615 21.9150031,11.4990337 Z"/>
</svg>
