<svg xmlns="http://www.w3.org/2000/svg" width="48" height="48" viewBox="0 0 48 48">
  <path fill="#4A4A4A" fill-rule="evenodd" d="M38.994,13 C41.197,13 43,14.803 43,17.007 L43,39.101 C43,41.246 41.245,43 39.101,43 L16.899,43 C14.754,43 13,41.246 13,39.101 L13,37 L9,37 C6.8,37 5,35.201 5,33 L5,9 C5,6.8 6.8,5 9,5 L33,5 C35.2,5 37,6.8 37,9 L37,13 L38.994,13 Z M41,39.101 L41,17.007 C41,15.9 40.1,15 38.994,15 L37,15 L37,33 C37,35.201 35.2,37 33,37 L15,37 L15,39.101 C15,40.149 15.852,41 16.899,41 L39.101,41 C40.148,41 41,40.149 41,39.101 Z M9,27 L9,33 L33,33 L33,26 L28,31 L16,20 L9,27 Z M33,9 L9,9 L9,23 L16,16 L28,27 L33,22 L33,9 Z M26,19 C24.343,19 23,17.657 23,16 C23,14.343 24.343,13 26,13 C27.657,13 29,14.343 29,16 C29,17.657 27.657,19 26,19 Z"/>
</svg>
