<svg xmlns="http://www.w3.org/2000/svg" width="48" height="48" viewBox="0 0 48 48">
  <path fill="#4A4A4A" fill-rule="evenodd" d="M37,10 L39,10 C41.2,10 43,11.8 43,14 L43,39 C43,41.2 41.2,43 39,43 L9,43 C6.8,43 5,41.2 5,39 L5,14 C5,11.8 6.8,10 9,10 L11,10 L11,7 C11,5.9 11.9,5 13,5 C14.1,5 15,5.9 15,7 L15,10 L33,10 L33,7 C33,5.9 33.9,5 35,5 C36.1,5 37,5.9 37,7 L37,10 Z M9,39 L39,39 L39,14 L9,14 L9,39 Z M28.0059,35 L24.0059,35 L24.0059,23 C22.7349,23.917 21.7029,24.422 19.9939,24.961 L19.9939,21.973 C21.6729,21.208 23.8599,20.042 25.0979,18 L28.0059,18 L28.0059,35 Z"/>
</svg>
