<svg xmlns="http://www.w3.org/2000/svg" width="48" height="48" viewBox="0 0 48 48">
  <path fill="#4A4A4A" fill-rule="evenodd" d="M18.5,8 L29.5,8 C31.7,8 33.5,9.8 33.5,12 L42,12 C44.2,12 46,13.8 46,16 L46,36 C46,38.2 44.2,40 42,40 L6,40 C3.8,40 2,38.2 2,36 L2,16 C2,13.8 3.8,12 6,12 L14.5,12 C14.5,9.8 16.3,8 18.5,8 Z M29.5,12 L18.5,12 L18.5,16 L14.5,16 L6,16 L6,36 L42,36 L42,16 L33.5,16 L29.5,16 L29.5,12 Z M24,18 C28.418,18 32,21.582 32,26 C32,30.418 28.418,34 24,34 C19.582,34 16,30.418 16,26 C16,21.582 19.582,18 24,18 Z M24,22 C21.794,22 20,23.794 20,26 C20,28.206 21.794,30 24,30 C26.206,30 28,28.206 28,26 C28,23.794 26.206,22 24,22 Z"/>
</svg>
