<svg xmlns="http://www.w3.org/2000/svg" width="48" height="48" viewBox="0 0 48 48">
  <path fill="#4A4A4A" fill-rule="evenodd" d="M38.114,5.0088 L44,5.0088 C45.1,5.0088 46,5.9078 46,7.0078 C46,8.1068 45.1,9.0068 44,9.0068 L39.442,9.0068 L33.225,32.4838 C32.995,33.3128 32.265,33.8698 31.45,33.9358 C31.304,33.9688 31.154,33.9908 30.999,33.9908 L8.443,33.9908 C7.489,34.0798 6.575,33.4738 6.322,32.5198 L2.066,15.4568 C1.785,14.3938 2.425,13.2948 3.488,13.0128 C4.551,12.7318 5.652,13.3708 5.934,14.4338 L9.792,29.9938 L29.763,29.9938 L35.996,6.4608 C36.258,5.5148 37.168,4.9188 38.114,5.0088 Z M8,40 C8,38.34325 9.34325,37 11,37 C12.65675,37 14,38.34325 14,40 C14,41.65675 12.65675,43 11,43 C9.34325,43 8,41.65675 8,40 Z M29,37 C30.65675,37 32,38.34325 32,40 C32,41.65675 30.65675,43 29,43 C27.34325,43 26,41.65675 26,40 C26,38.34325 27.34325,37 29,37 Z"/>
</svg>
