<svg xmlns="http://www.w3.org/2000/svg" width="48" height="48" viewBox="0 0 48 48">
  <path fill="#4A4A4A" fill-rule="evenodd" d="M24,2 C36.15,2 46,11.85 46,24 C46,36.15 36.15,46 24,46 C11.85,46 2,36.15 2,24 C2,11.85 11.85,2 24,2 Z M24,6 C14.075,6 6,14.075 6,24 C6,33.925 14.075,42 24,42 C33.925,42 42,33.925 42,24 C42,14.075 33.925,6 24,6 Z M36,22 C37.1,22 38,22.9 38,24 C38,25.1 37.1,26 36,26 L24,26 C22.9,26 22,25.1 22,24 L22,12 C22,10.9 22.9,10 24,10 C25.1,10 26,10.9 26,12 L26,22 L36,22 Z"/>
</svg>
