<svg xmlns="http://www.w3.org/2000/svg" width="48" height="48" viewBox="0 0 48 48">
  <path fill="#4A4A4A" fill-rule="evenodd" d="M39,5 C41.209,5 43,6.791 43,9 L43,39 C43,41.209 41.209,43 39,43 L13,43 C10.791,43 9,41.209 9,39 L9,36 L7,36 C5.9,36 5,35.1 5,34 C5,32.9 5.9,32 7,32 L9,32 L9,26 L7,26 C5.9,26 5,25.1 5,24 C5,22.9 5.9,22 7,22 L9,22 L9,16 L7,16 C5.9,16 5,15.1 5,14 C5,12.9 5.9,12 7,12 L9,12 L9,9 C9,6.791 10.791,5 13,5 L39,5 Z M39,9 L13,9 L13,12 L13,16 L13,22 L13,26 L13,32 L13,36 L13,39 L39,39 L39,9 Z M26,22 C23.791,22 22,20.209 22,18 C22,15.791 23.791,14 26,14 C28.209,14 30,15.791 30,18 C30,20.209 28.209,22 26,22 Z M34.9971,28.8594 L34.9971,30.5994 C34.9971,31.9204 34.1441,33.0004 33.1011,33.0004 L18.8941,33.0004 C17.8521,33.0004 17.0001,31.9204 17.0001,30.5994 C17.0001,30.5994 17.0031,28.9704 17.0031,28.9404 C17.0031,26.2124 21.0321,24.0004 26.0021,24.0004 C30.9221,24.0004 34.9181,26.1684 34.9961,28.8594 L34.9971,28.8594 Z"/>
</svg>
