<svg xmlns="http://www.w3.org/2000/svg" width="48" height="48" viewBox="0 0 48 48">
  <path fill="#4A4A4A" fill-rule="evenodd" d="M24,2 C36.1506,2 46,11.8494 46,24 C46,36.1506 36.1506,46 24,46 C11.8494,46 2,36.1506 2,24 C2,11.8494 11.8494,2 24,2 Z M24,44 C35.0455556,44 44,35.0455556 44,24 C44,12.9544444 35.0455556,4 24,4 C12.9544444,4 4,12.9544444 4,24 C4,35.0455556 12.9544444,44 24,44 Z M20,19 C20,20.6572 18.6572,22 17,22 C15.3428,22 14,20.6572 14,19 C14,17.3428 15.3428,16 17,16 C18.6572,16 20,17.3428 20,19 Z M34,19 C34,20.6572 32.6572,22 31,22 C29.3428,22 28,20.6572 28,19 C28,17.3428 29.3428,16 31,16 C32.6572,16 34,17.3428 34,19 Z M15,33 C14.4477153,33 14,32.5522847 14,32 C14,31.4477153 14.4477153,31 15,31 L33,31 C33.5522847,31 34,31.4477153 34,32 C34,32.5522847 33.5522847,33 33,33 L15,33 Z"/>
</svg>
