<svg xmlns="http://www.w3.org/2000/svg" width="48" height="48" viewBox="0 0 48 48">
  <path fill="#4A4A4A" fill-rule="evenodd" d="M24,2 C36.1506,2 46,11.8494 46,24 C46,36.1506 36.1506,46 24,46 C11.8494,46 2,36.1506 2,24 C2,11.8494 11.8494,2 24,2 Z M24,44 C35.0455556,44 44,35.0455556 44,24 C44,12.9544444 35.0455556,4 24,4 C12.9544444,4 4,12.9544444 4,24 C4,35.0455556 12.9544444,44 24,44 Z M20,19 C20,20.6572 18.6572,22 17,22 C15.3428,22 14,20.6572 14,19 C14,17.3428 15.3428,16 17,16 C18.6572,16 20,17.3428 20,19 Z M34,19 C34,20.6572 32.6572,22 31,22 C29.3428,22 28,20.6572 28,19 C28,17.3428 29.3428,16 31,16 C32.6572,16 34,17.3428 34,19 Z M30.2928932,30.2928932 C30.6834175,29.9023689 31.3165825,29.9023689 31.7071068,30.2928932 C32.0976311,30.6834175 32.0976311,31.3165825 31.7071068,31.7071068 C31.2784793,32.1357343 30.5297068,32.7483663 29.5144958,33.3574929 C27.8083708,34.3811679 25.9518745,35 24,35 C22.0481255,35 20.1916292,34.3811679 18.4855042,33.3574929 C17.4702932,32.7483663 16.7215207,32.1357343 16.2928932,31.7071068 C15.9023689,31.3165825 15.9023689,30.6834175 16.2928932,30.2928932 C16.6834175,29.9023689 17.3165825,29.9023689 17.7071068,30.2928932 C17.7782998,30.3640862 17.9336257,30.5059055 18.1644878,30.6947927 C18.5583239,31.0170222 19.0114139,31.340658 19.5144958,31.6425071 C20.9333708,32.4938321 22.4518745,33 24,33 C25.5481255,33 27.0666292,32.4938321 28.4855042,31.6425071 C28.9885861,31.340658 29.4416761,31.0170222 29.8355122,30.6947927 C30.0663743,30.5059055 30.2217002,30.3640862 30.2928932,30.2928932 Z"/>
</svg>
