<svg xmlns="http://www.w3.org/2000/svg" width="48" height="48" viewBox="0 0 48 48">
  <path fill="#4A4A4A" fill-rule="evenodd" d="M24,2 C36.1506,2 46,11.8494 46,24 C46,36.1506 36.1506,46 24,46 C11.8494,46 2,36.1506 2,24 C2,11.8494 11.8494,2 24,2 Z M24,44 C35.0455556,44 44,35.0455556 44,24 C44,12.9544444 35.0455556,4 24,4 C12.9544444,4 4,12.9544444 4,24 C4,35.0455556 12.9544444,44 24,44 Z M15,19 C15,19.5522847 14.5522847,20 14,20 C13.4477153,20 13,19.5522847 13,19 C13,18.4836127 13.1174202,17.7790917 13.4805728,17.0527864 C14.1131121,15.7877077 15.2946737,15 17,15 C18.7053263,15 19.8868879,15.7877077 20.5194272,17.0527864 C20.8825798,17.7790917 21,18.4836127 21,19 C21,19.5522847 20.5522847,20 20,20 C19.4477153,20 19,19.5522847 19,19 C19,18.7663873 18.9299202,18.3459083 18.7305728,17.9472136 C18.4256121,17.3372923 17.9196737,17 17,17 C16.0803263,17 15.5743879,17.3372923 15.2694272,17.9472136 C15.0700798,18.3459083 15,18.7663873 15,19 Z M29,19 C29,19.5522847 28.5522847,20 28,20 C27.4477153,20 27,19.5522847 27,19 C27,18.4836127 27.1174202,17.7790917 27.4805728,17.0527864 C28.1131121,15.7877077 29.2946737,15 31,15 C32.7053263,15 33.8868879,15.7877077 34.5194272,17.0527864 C34.8825798,17.7790917 35,18.4836127 35,19 C35,19.5522847 34.5522847,20 34,20 C33.4477153,20 33,19.5522847 33,19 C33,18.7663873 32.9299202,18.3459083 32.7305728,17.9472136 C32.4256121,17.3372923 31.9196737,17 31,17 C30.0803263,17 29.5743879,17.3372923 29.2694272,17.9472136 C29.0700798,18.3459083 29,18.7663873 29,19 Z M33.9615239,29.2747211 C33.6789263,30.2638127 33.0345176,31.6882952 31.9113183,33.1178216 C30.0144094,35.5320693 27.3931046,37 24,37 C20.6068954,37 17.9855906,35.5320693 16.0886817,33.1178216 C14.9654824,31.6882952 14.3210737,30.2638127 14.0384761,29.2747211 C13.8559571,28.6359049 14.3356211,28 15,28 L33,28 C33.6643789,28 34.1440429,28.6359049 33.9615239,29.2747211 Z M16.4831298,30 C16.7993981,30.6441088 17.1905758,31.2830516 17.6613183,31.8821784 C19.2019094,33.8429307 21.2681046,35 24,35 C26.7318954,35 28.7980906,33.8429307 30.3386817,31.8821784 C30.8094242,31.2830516 31.2006019,30.6441088 31.5168702,30 L16.4831298,30 Z"/>
</svg>
