<svg xmlns="http://www.w3.org/2000/svg" width="48" height="48" viewBox="0 0 48 48">
  <path fill="#4A4A4A" fill-rule="evenodd" d="M11.8999402,23 L18.09,23 C18.567,20.164 21.028,18 24,18 C26.973,18 29.433,20.164 29.91,23 L36.1000194,23 C36.5632345,20.7180241 38.5805801,19 41,19 C43.762,19 46,21.239 46,24 C46,26.762 43.762,29 41,29 C38.5804792,29 36.5630663,27.2826 36.0999614,25 L29.91,25 C29.433,27.837 26.973,30 24,30 C21.028,30 18.567,27.837 18.09,25 L11.8999982,25 C11.4367164,27.2826 9.41864482,29 7,29 C4.239,29 2,26.762 2,24 C2,21.239 4.239,19 7,19 C9.41854397,19 11.4365482,20.7180241 11.8999402,23 Z M7,21 C5.346,21 4,22.346 4,24 C4,25.654 5.346,27 7,27 C8.654,27 10,25.654 10,24 C10,22.346 8.654,21 7,21 Z M41,21 C39.346,21 38,22.346 38,24 C38,25.654 39.346,27 41,27 C42.654,27 44,25.654 44,24 C44,22.346 42.654,21 41,21 Z"/>
</svg>
