<svg xmlns="http://www.w3.org/2000/svg" width="48" height="48" viewBox="0 0 48 48">
  <path fill="#4A4A4A" fill-rule="evenodd" d="M23,27.9000167 C20.7182211,27.4369897 19.000876,25.4205297 19,23.002 C18.9991237,20.5826644 20.7166287,18.563363 23,18.0999746 L23,13.91 C20.164,13.433 18,10.972 18,8 C18,4.687 20.687,2 24,2 C27.313,2 30,4.687 30,8 C30,10.972 27.837,13.433 25,13.91 L25,18.0999833 C27.2817789,18.5630103 28.999124,20.5794703 29,22.998 C29.0008763,25.4173356 27.2833713,27.436637 25,27.9000254 L25,32 L36,32 L36,36.0999614 C38.2826,36.5630663 40,38.5804792 40,41 C40,43.762 37.762,46 35,46 C32.238,46 30,43.762 30,41 C30,38.5804792 31.7174,36.5630663 34,36.0999614 L34,34 L14,34 L14,36.1000194 C16.2819759,36.5632345 18,38.5805801 18,41 C18,43.762 15.761,46 13,46 C10.239,46 8,43.762 8,41 C8,38.5805801 9.71802412,36.5632345 12,36.1000194 L12,32 L23,32 L23,27.9000167 Z M35,38 C33.346,38 32,39.346 32,41 C32,42.654 33.346,44 35,44 C36.654,44 38,42.654 38,41 C38,39.346 36.654,38 35,38 Z M13,38 C11.346,38 10,39.346 10,41 C10,42.654 11.346,44 13,44 C14.654,44 16,42.654 16,41 C16,39.346 14.654,38 13,38 Z M24,20 L23.998,20 C23.197,20 22.444,20.313 21.878,20.88 C21.312,21.446 21,22.2 21,23.001 C21.001,24.655 22.347,26 24,26 C24.803,26 25.556,25.687 26.122,25.12 C26.688,24.554 27,23.8 27,22.999 C26.999,21.345 25.653,20 24,20 Z"/>
</svg>
