<svg xmlns="http://www.w3.org/2000/svg" width="48" height="48" viewBox="0 0 48 48">
  <path fill="#4A4A4A" fill-rule="evenodd" d="M40,30.0999614 L40,26 L8,26 L8,30.1000194 C10.2819759,30.5632345 12,32.5805801 12,35 C12,37.762 9.761,40 7,40 C4.239,40 2,37.762 2,35 C2,32.5805801 3.71802412,30.5632345 6,30.1000194 L6,24 L23,24 L23,19.91 C20.164,19.433 18,16.972 18,14 C18,10.687 20.687,8 24,8 C27.313,8 30,10.687 30,14 C30,16.972 27.837,19.433 25,19.91 L25,24 L42,24 L42,30.0999614 C44.2826,30.5630663 46,32.5804792 46,35 C46,37.762 43.762,40 41,40 C38.238,40 36,37.762 36,35 C36,32.5804792 37.7174,30.5630663 40,30.0999614 Z M41,32 C39.346,32 38,33.346 38,35 C38,36.654 39.346,38 41,38 C42.654,38 44,36.654 44,35 C44,33.346 42.654,32 41,32 Z M7,32 C5.346,32 4,33.346 4,35 C4,36.654 5.346,38 7,38 C8.654,38 10,36.654 10,35 C10,33.346 8.654,32 7,32 Z"/>
</svg>
