<svg xmlns="http://www.w3.org/2000/svg" width="48" height="48" viewBox="0 0 48 48">
  <path fill="#4A4A4A" fill-rule="evenodd" d="M24.0014,5.0002 L24.0224,5.0002 C24.5574,5.0002 25.0924,5.2032 25.5114,5.6142 L42.2764,21.5962 C42.7454,22.0562 42.9884,22.6332 43.0004,23.2062 C43.0034,23.3692 43.0004,38.9972 43.0004,38.9972 C43.0004,41.1972 41.1994,42.9972 39.0004,42.9972 L27.0014,42.9972 L27.0014,32.9972 L21.0014,32.9972 L21.0014,42.9972 L9.0014,42.9972 C6.8014,42.9972 5.0014,41.1972 5.0014,38.9972 C5.0014,38.9972 4.9984,23.3692 5.0014,23.2062 C5.0124,22.6332 5.2554,22.0562 5.7244,21.5962 L22.4904,5.6142 C22.9094,5.2032 23.4434,5.0002 23.9784,5.0002 L24.0004,5.0002 L24.0014,5.0002 Z M24.0004,9.7012 L9.0004,24.0002 C8.9994,26.5772 9.0004,35.3362 9.0014,38.9962 L17.0014,38.9972 L17.0014,32.9972 L17.0014,28.9972 L21.0014,28.9972 L27.0014,28.9972 L31.0014,28.9972 L31.0014,32.9972 L31.0014,38.9972 L39.0004,38.9972 C39.0004,35.3492 39.0024,26.6382 39.0014,24.0002 L24.0004,9.7012 Z"/>
</svg>
