<svg xmlns="http://www.w3.org/2000/svg" width="48" height="48" viewBox="0 0 48 48">
  <path fill="#4A4A4A" d="M25.9258926,44.8047779 C25.7151077,45.2530113 25.3436311,45.6123287 24.880112,45.8163276 C23.820348,46.2827394 22.5701614,45.8302392 22.0877421,44.80564 L11.442858,22.1972182 C10.51912,20.3290605 10,18.2251537 10,16 C10,8.2680135 16.2680135,2 24,2 C31.7319865,2 38,8.2680135 38,16 C38,18.223259 37.4817637,20.3254774 36.5595008,22.1924454 L25.9258926,44.8047779 Z M24,26 C29.5228475,26 34,21.5228475 34,16 C34,10.4771525 29.5228475,6 24,6 C18.4771525,6 14,10.4771525 14,16 C14,21.5228475 18.4771525,26 24,26 Z"/>
</svg>
