<svg xmlns="http://www.w3.org/2000/svg" width="48" height="48" viewBox="0 0 48 48">
  <path fill="#4A4A4A" fill-rule="evenodd" d="M24,8 C36.15,8 46,14.7178894 46,23.0042199 C46,31.2905505 36.15,38.0084399 24,38.0084399 C21.407,38.0084399 18.92,37.6993529 16.61,37.1381951 C14.387,38.6886312 10.857,40 5.769,40 C5.713,40 5.657,40 5.602,39.9989997 C5.073,39.9969992 4.809,39.3808259 5.183,39.0047201 C7.347,36.8291082 7.258,33.8672752 7.101,32.6099215 C3.917,30.0061892 2,26.6582476 2,23.0042199 C2,14.7178894 11.85,8 24,8 Z M24,12.0011253 C14.243,12.0011253 6,17.0405427 6,23.0042199 C6,25.9280423 7.975,28.1556688 9.632,29.51105 L10.872,30.524335 L11.07,32.1127817 C11.159,32.8259823 11.236,33.9793067 11.075,35.3246851 C12.656,34.8745585 13.705,34.286393 14.323,33.8562721 L15.803,32.8239817 L17.555,33.2501016 C19.62,33.7522428 21.789,34.0073146 24,34.0073146 C33.757,34.0073146 42,28.9688975 42,23.0042199 C42,17.0405427 33.757,12.0011253 24,12.0011253 Z"/>
</svg>
