<svg xmlns="http://www.w3.org/2000/svg" width="48" height="48" viewBox="0 0 48 48">
  <path fill="#4A4A4A" fill-rule="evenodd" d="M41.9975,21.0478971 C41.9975,21.0478971 38.5215,21.0788971 37.0895,20.7988971 C36.0265,20.5908972 34.1495,19.5098974 32.8045,18.2728977 C31.0025,16.6148981 26.4135,9.73389961 26.4135,9.73389961 C25.5695,8.14689997 23.5775,7.5369001 21.9865,8.37789991 C20.3955,9.21889973 19.7845,11.2048993 20.6275,12.7918989 L22.0335,15.4358983 L22.0205,15.4358983 C22.1335,15.6678983 22.2105,15.9118982 22.2105,16.1698982 C22.2105,17.4848979 20.6165,18.0238977 18.6495,18.0238977 C17.9215,18.0238977 4.7515,18.0248977 4.7515,18.0248977 C3.2385,18.0248977 2.0005,19.2598975 2.0005,20.7698971 C2.0005,22.2788968 3.4865,23.9878964 5.0005,23.9878964 L13.8535,23.9998964 C12.3305,24.1018964 11.2575,25.2758961 11.2575,26.7858958 C11.2575,28.2948954 12.1405,29.6558951 14.0005,29.983895 C13.1265,30.328895 12.9005,31.2988947 12.9285,32.4618945 C12.9655,33.9708941 13.8915,34.9008939 15.7515,35.0878939 L16.7405,35.1578939 C15.5865,35.3698938 15.1935,36.0678937 15.2215,37.1698934 C15.2495,38.2718932 16.3705,39.149893 17.4805,39.4608929 C17.4805,39.4608929 19.3885,39.8518928 20.6075,39.9128928 C21.5655,39.9628928 23.5165,40.0228928 24.4705,39.9908928 C24.4705,39.9908928 28.5675,39.8358928 36.5265,39.008893 C37.8775,38.868893 41.9975,39.008893 41.9975,39.008893 C44.1985,39.008893 46.0005,37.2128934 46.0005,35.0178939 L46.0005,25.0388962 C46.0005,22.8438967 44.1985,21.0478971 41.9975,21.0478971 Z"/>
</svg>
