<svg xmlns="http://www.w3.org/2000/svg" width="48" height="48" viewBox="0 0 48 48">
  <path fill="#4A4A4A" fill-rule="evenodd" d="M12.7886,5 C13.8146,5 14.8416,5.389 15.6196,6.167 L19.9646,10.512 C21.5216,12.069 21.5216,14.617 19.9646,16.174 L16.9556,19.183 C17.4956,20.327 18.8616,21.84 19.9146,23.165 C20.6806,24.102 23.8996,27.323 24.8336,28.087 C26.1596,29.14 27.6716,30.505 28.8166,31.046 L31.8256,28.037 C32.6036,27.258 33.6296,26.869 34.6566,26.869 C35.6826,26.869 36.7086,27.258 37.4876,28.037 L41.8316,32.381 C43.3896,33.938 43.3896,36.485 41.8316,38.043 L38.0146,41.86 C37.2066,42.667 35.7636,43 34.9916,43 C34.9306,43 34.8746,42.998 34.8236,42.994 C34.7416,42.995 34.6606,42.995 34.5796,42.995 C31.8766,42.995 29.9916,42.444 28.5236,41.897 C24.7996,40.512 21.3486,38.44 17.6506,35.352 C16.7386,34.584 13.4136,31.256 12.6486,30.348 C9.5596,26.649 7.4886,23.199 6.1026,19.476 C5.5386,17.964 4.9716,16.01 5.0056,13.176 C4.9506,12.465 5.2696,10.855 6.1396,9.985 L9.9576,6.167 C10.7366,5.389 11.7626,5 12.7886,5 Z M12.7916,8.996 L12.7886,9 C12.7826,9 12.7776,9.001 12.7766,9.001 L9.0916,12.69 C9.0566,12.779 9.0206,12.911 9.0046,13.008 L9.0076,13.046 L9.0056,13.225 C8.9786,15.426 9.3956,16.859 9.8506,18.08 C11.0786,21.377 12.9436,24.461 15.7186,27.782 C16.3296,28.509 19.4946,31.676 20.2256,32.29 C23.5376,35.057 26.6216,36.921 29.9186,38.149 C31.0996,38.589 32.4806,38.995 34.5796,38.995 L34.7746,38.994 L34.9536,38.992 L34.9916,38.995 C35.0886,38.979 35.2206,38.943 35.3096,38.909 L39.0036,35.214 L34.6596,30.865 L31.6446,33.874 L29.6536,35.865 L27.1076,34.662 C25.7816,34.036 24.4906,32.975 23.2426,31.948 C22.9386,31.698 22.6376,31.45 22.3456,31.219 L22.3236,31.201 L22.3026,31.184 C21.1766,30.264 17.7426,26.828 16.8176,25.696 L16.8006,25.675 L16.7826,25.653 C16.5516,25.361 16.3036,25.061 16.0526,24.756 C15.0266,23.508 13.9656,22.218 13.3386,20.892 L12.1356,18.345 L14.1266,16.354 L17.1366,13.345 L12.7916,8.996 Z"/>
</svg>
