<svg xmlns="http://www.w3.org/2000/svg" width="48" height="48" viewBox="0 0 48 48">
  <path fill="#4A4A4A" fill-rule="evenodd" d="M24,2 C36.1506,2 46,11.8494 46,24 C46,36.1506 36.1506,46 24,46 C11.8494,46 2,36.1506 2,24 C2,11.8494 11.8494,2 24,2 Z M24,44 C35.0455556,44 44,35.0455556 44,24 C44,12.9544444 35.0455556,4 24,4 C12.9544444,4 4,12.9544444 4,24 C4,35.0455556 12.9544444,44 24,44 Z M20,19 C20,20.6572 18.6572,22 17,22 C15.3428,22 14,20.6572 14,19 C14,17.3428 15.3428,16 17,16 C18.6572,16 20,17.3428 20,19 Z M34,19 C34,20.6572 32.6572,22 31,22 C29.3428,22 28,20.6572 28,19 C28,17.3428 29.3428,16 31,16 C32.6572,16 34,17.3428 34,19 Z M17.7071068,34.7071068 C17.3165825,35.0976311 16.6834175,35.0976311 16.2928932,34.7071068 C15.9023689,34.3165825 15.9023689,33.6834175 16.2928932,33.2928932 C16.7215207,32.8642657 17.4702932,32.2516337 18.4855042,31.6425071 C20.1916292,30.6188321 22.0481255,30 24,30 C25.9518745,30 27.8083708,30.6188321 29.5144958,31.6425071 C30.5297068,32.2516337 31.2784793,32.8642657 31.7071068,33.2928932 C32.0976311,33.6834175 32.0976311,34.3165825 31.7071068,34.7071068 C31.3165825,35.0976311 30.6834175,35.0976311 30.2928932,34.7071068 C30.2217002,34.6359138 30.0663743,34.4940945 29.8355122,34.3052073 C29.4416761,33.9829778 28.9885861,33.659342 28.4855042,33.3574929 C27.0666292,32.5061679 25.5481255,32 24,32 C22.4518745,32 20.9333708,32.5061679 19.5144958,33.3574929 C19.0114139,33.659342 18.5583239,33.9829778 18.1644878,34.3052073 C17.9336257,34.4940945 17.7782998,34.6359138 17.7071068,34.7071068 Z"/>
</svg>
