<svg xmlns="http://www.w3.org/2000/svg" width="48" height="48" viewBox="0 0 48 48">
  <path fill="#4A4A4A" fill-rule="evenodd" d="M42,39.172 C42.777,39.949 42.777,41.223 42,42 C41.223,42.777 39.949,42.777 39.172,42 L28.229,31.058 C25.8,32.896 22.782,34 19.5,34 C11.492,34 5,27.508 5,19.5 C5,11.492 11.492,5 19.5,5 C27.508,5 34,11.492 34,19.5 C34,22.782 32.896,25.8 31.058,28.229 L42,39.172 Z M9,19.5 C9,25.29 13.71,30 19.5,30 C25.29,30 30,25.29 30,19.5 C30,13.71 25.29,9 19.5,9 C13.71,9 9,13.71 9,19.5 Z"/>
</svg>
